<svg width="16" height="10" viewBox="0 0 16 10" fill="none" xmlns="http://www.w3.org/2000/svg">
<path d="M1.65449 0.942231C1.46633 0.771051 1.21912 0.67963 0.964929 0.687228C0.710739 0.694826 0.469422 0.80085 0.291815 0.982964C0.11421 1.16508 0.0141833 1.40906 0.0128091 1.66351C0.0114339 1.91797 0.10882 2.16302 0.284448 2.34705L6.90706 8.81351C7.09331 8.99516 7.34401 9.09539 7.60408 9.09221C7.86414 9.08903 8.11231 8.98269 8.29407 8.79655L14.7565 2.17004C14.9276 1.98177 15.019 1.73441 15.0114 1.48007C15.0038 1.22572 14.8978 0.98426 14.7158 0.806545C14.5338 0.628829 14.29 0.528739 14.0357 0.52736C13.7814 0.525981 13.5365 0.623421 13.3525 0.799152L7.5751 6.72325L1.65449 0.942231Z" fill="black"/>
</svg>
