<svg width="181" height="83" viewBox="0 0 181 83" fill="none" xmlns="http://www.w3.org/2000/svg">
<rect x="0.5" y="0.5" width="180" height="82" rx="9.5" fill="white"/>
<rect x="0.5" y="0.5" width="180" height="82" rx="9.5" stroke="#F1F1F3"/>
<path d="M25.732 28C25.788 28 25.84 27.944 25.888 27.832C25.944 27.72 25.972 27.536 25.972 27.28V21.52C25.972 21.264 25.944 21.084 25.888 20.98C25.832 20.868 25.776 20.808 25.72 20.8H29.656C30.4 20.8 30.98 20.892 31.396 21.076C31.812 21.252 32.104 21.508 32.272 21.844C32.448 22.172 32.536 22.572 32.536 23.044C32.536 23.34 32.472 23.632 32.344 23.92C32.216 24.208 32.008 24.456 31.72 24.664C31.44 24.872 31.06 25.008 30.58 25.072V25.108C31.116 25.252 31.576 25.516 31.96 25.9C32.352 26.284 32.688 26.704 32.968 27.16C33.152 27.456 33.32 27.668 33.472 27.796C33.624 27.924 33.74 27.992 33.82 28H31.3C31.396 27.992 31.472 27.94 31.528 27.844C31.592 27.74 31.572 27.572 31.468 27.34C31.3 26.956 31.06 26.616 30.748 26.32C30.444 26.016 30.06 25.78 29.596 25.612C29.132 25.436 28.58 25.348 27.94 25.348H27.808C27.56 25.348 27.416 25.368 27.376 25.408C27.336 25.448 27.316 25.548 27.316 25.708V27.28C27.316 27.536 27.344 27.72 27.4 27.832C27.456 27.944 27.512 28 27.568 28H25.732ZM27.808 24.388H29.284C29.924 24.388 30.404 24.276 30.724 24.052C31.044 23.82 31.204 23.484 31.204 23.044C31.204 22.748 31.14 22.508 31.012 22.324C30.892 22.132 30.7 21.992 30.436 21.904C30.172 21.816 29.828 21.772 29.404 21.772H27.808C27.56 21.772 27.416 21.784 27.376 21.808C27.336 21.832 27.316 21.924 27.316 22.084V24.064C27.316 24.224 27.336 24.32 27.376 24.352C27.416 24.376 27.56 24.388 27.808 24.388ZM36.9663 28.12C36.3343 28.12 35.8143 28.048 35.4063 27.904C34.9983 27.752 34.6783 27.544 34.4463 27.28C34.2143 27.016 34.0503 26.708 33.9543 26.356C33.8663 26.004 33.8223 25.62 33.8223 25.204C33.8223 24.3 34.0783 23.584 34.5903 23.056C35.1103 22.528 35.8783 22.264 36.8943 22.264C37.4863 22.264 37.9623 22.344 38.3223 22.504C38.6903 22.664 38.9663 22.876 39.1503 23.14C39.3423 23.404 39.4703 23.692 39.5343 24.004C39.6063 24.308 39.6423 24.608 39.6423 24.904V25.468C39.6423 25.444 39.5303 25.42 39.3063 25.396C39.0903 25.364 38.7223 25.348 38.2023 25.348H35.0463C35.0463 25.94 35.2223 26.408 35.5743 26.752C35.9263 27.096 36.4503 27.268 37.1463 27.268C37.7463 27.268 38.2383 27.196 38.6223 27.052C39.0143 26.9 39.2743 26.752 39.4023 26.608V26.848L39.5223 27.64C39.3463 27.744 39.0343 27.852 38.5863 27.964C38.1463 28.068 37.6063 28.12 36.9663 28.12ZM35.5263 24.556H38.4423C38.4423 24.348 38.3983 24.132 38.3103 23.908C38.2223 23.684 38.0663 23.496 37.8423 23.344C37.6183 23.184 37.3023 23.104 36.8943 23.104C36.5503 23.104 36.2503 23.164 35.9943 23.284C35.7383 23.396 35.5383 23.544 35.3943 23.728C35.2583 23.912 35.1903 24.108 35.1903 24.316C35.1903 24.396 35.2143 24.456 35.2623 24.496C35.3103 24.536 35.3983 24.556 35.5263 24.556ZM42.2259 28C42.2819 28 42.3179 27.948 42.3339 27.844C42.3579 27.732 42.3219 27.544 42.2259 27.28C42.1859 27.176 42.1099 26.992 41.9979 26.728C41.8859 26.464 41.7539 26.16 41.6019 25.816C41.4499 25.464 41.2939 25.112 41.1339 24.76C40.9739 24.4 40.8259 24.076 40.6899 23.788C40.5539 23.492 40.4459 23.272 40.3659 23.128C40.2299 22.872 40.1059 22.688 39.9939 22.576C39.8819 22.456 39.8019 22.392 39.7539 22.384H41.7099C41.6379 22.384 41.5899 22.44 41.5659 22.552C41.5419 22.664 41.5899 22.856 41.7099 23.128C41.7739 23.264 41.8619 23.472 41.9739 23.752C42.0859 24.024 42.2099 24.34 42.3459 24.7C42.4899 25.052 42.6339 25.412 42.7779 25.78C42.9299 26.148 43.0659 26.492 43.1859 26.812H43.1979C43.3259 26.484 43.4659 26.136 43.6179 25.768C43.7699 25.392 43.9179 25.024 44.0619 24.664C44.2059 24.304 44.3339 23.988 44.4459 23.716C44.5659 23.436 44.6539 23.232 44.7099 23.104C44.8219 22.848 44.8659 22.664 44.8419 22.552C44.8179 22.44 44.7739 22.384 44.7099 22.384H46.5939C46.5459 22.384 46.4699 22.44 46.3659 22.552C46.2699 22.656 46.1579 22.836 46.0299 23.092C45.9579 23.228 45.8539 23.436 45.7179 23.716C45.5819 23.996 45.4299 24.312 45.2619 24.664C45.1019 25.008 44.9419 25.352 44.7819 25.696C44.6299 26.04 44.4939 26.356 44.3739 26.644C44.2619 26.924 44.1859 27.136 44.1459 27.28C44.0739 27.544 44.0459 27.732 44.0619 27.844C44.0779 27.948 44.1059 28 44.1459 28H42.2259ZM47.1497 28C47.2057 28 47.2577 27.944 47.3057 27.832C47.3617 27.72 47.3897 27.536 47.3897 27.28V23.104C47.3897 22.848 47.3617 22.668 47.3057 22.564C47.2577 22.452 47.2057 22.392 47.1497 22.384H48.6137V27.28C48.6137 27.536 48.6377 27.72 48.6857 27.832C48.7417 27.944 48.7977 28 48.8537 28H47.1497ZM47.8817 21.232C47.6497 21.232 47.4697 21.168 47.3417 21.04C47.2137 20.904 47.1497 20.748 47.1497 20.572C47.1497 20.388 47.2097 20.232 47.3297 20.104C47.4577 19.976 47.6417 19.912 47.8817 19.912C48.1217 19.912 48.3017 19.976 48.4217 20.104C48.5497 20.232 48.6137 20.388 48.6137 20.572C48.6137 20.748 48.5497 20.904 48.4217 21.04C48.2937 21.168 48.1137 21.232 47.8817 21.232ZM52.8921 28.12C52.2601 28.12 51.7401 28.048 51.3321 27.904C50.9241 27.752 50.6041 27.544 50.3721 27.28C50.1401 27.016 49.9761 26.708 49.8801 26.356C49.7921 26.004 49.7481 25.62 49.7481 25.204C49.7481 24.3 50.0041 23.584 50.5161 23.056C51.0361 22.528 51.8041 22.264 52.8201 22.264C53.4121 22.264 53.8881 22.344 54.2481 22.504C54.6161 22.664 54.8921 22.876 55.0761 23.14C55.2681 23.404 55.3961 23.692 55.4601 24.004C55.5321 24.308 55.5681 24.608 55.5681 24.904V25.468C55.5681 25.444 55.4561 25.42 55.2321 25.396C55.0161 25.364 54.6481 25.348 54.1281 25.348H50.9721C50.9721 25.94 51.1481 26.408 51.5001 26.752C51.8521 27.096 52.3761 27.268 53.0721 27.268C53.6721 27.268 54.1641 27.196 54.5481 27.052C54.9401 26.9 55.2001 26.752 55.3281 26.608V26.848L55.4481 27.64C55.2721 27.744 54.9601 27.852 54.5121 27.964C54.0721 28.068 53.5321 28.12 52.8921 28.12ZM51.4521 24.556H54.3681C54.3681 24.348 54.3241 24.132 54.2361 23.908C54.1481 23.684 53.9921 23.496 53.7681 23.344C53.5441 23.184 53.2281 23.104 52.8201 23.104C52.4761 23.104 52.1761 23.164 51.9201 23.284C51.6641 23.396 51.4641 23.544 51.3201 23.728C51.1841 23.912 51.1161 24.108 51.1161 24.316C51.1161 24.396 51.1401 24.456 51.1881 24.496C51.2361 24.536 51.3241 24.556 51.4521 24.556ZM58.1397 28C58.1957 28 58.2317 27.948 58.2477 27.844C58.2717 27.732 58.2357 27.544 58.1397 27.28C58.0997 27.176 58.0237 26.992 57.9117 26.728C57.7997 26.464 57.6677 26.16 57.5157 25.816C57.3717 25.464 57.2197 25.112 57.0597 24.76C56.8997 24.4 56.7517 24.076 56.6157 23.788C56.4797 23.492 56.3717 23.272 56.2917 23.128C56.1557 22.872 56.0317 22.688 55.9197 22.576C55.8077 22.456 55.7277 22.392 55.6797 22.384H57.6357C57.5637 22.384 57.5157 22.44 57.4917 22.552C57.4677 22.664 57.5157 22.856 57.6357 23.128C57.6997 23.264 57.7877 23.472 57.8997 23.752C58.0117 24.024 58.1357 24.34 58.2717 24.7C58.4157 25.052 58.5597 25.412 58.7037 25.78C58.8477 26.148 58.9797 26.492 59.0997 26.812H59.1117C59.2317 26.484 59.3597 26.136 59.4957 25.768C59.6317 25.392 59.7637 25.024 59.8917 24.664C60.0277 24.304 60.1477 23.988 60.2517 23.716C60.3557 23.436 60.4357 23.232 60.4917 23.104C60.6037 22.848 60.6477 22.664 60.6237 22.552C60.5997 22.44 60.5557 22.384 60.4917 22.384H62.4117C62.3397 22.384 62.2917 22.44 62.2677 22.552C62.2437 22.664 62.2917 22.856 62.4117 23.128C62.4757 23.264 62.5597 23.472 62.6637 23.752C62.7757 24.024 62.8957 24.34 63.0237 24.7C63.1597 25.052 63.2957 25.412 63.4317 25.78C63.5677 26.148 63.6917 26.492 63.8037 26.812H63.8157C63.9517 26.484 64.0957 26.136 64.2477 25.768C64.3997 25.392 64.5517 25.024 64.7037 24.664C64.8557 24.304 64.9877 23.988 65.0997 23.716C65.2197 23.436 65.3077 23.232 65.3637 23.104C65.4757 22.848 65.5197 22.664 65.4957 22.552C65.4717 22.44 65.4277 22.384 65.3637 22.384H67.2477C67.1997 22.384 67.1237 22.44 67.0197 22.552C66.9237 22.656 66.8117 22.836 66.6837 23.092C66.6117 23.228 66.5077 23.436 66.3717 23.716C66.2357 23.996 66.0837 24.312 65.9157 24.664C65.7477 25.008 65.5837 25.352 65.4237 25.696C65.2637 26.04 65.1237 26.356 65.0037 26.644C64.8837 26.924 64.8037 27.136 64.7637 27.28C64.6917 27.544 64.6637 27.732 64.6797 27.844C64.6957 27.948 64.7237 28 64.7637 28H62.8437C62.8997 28 62.9357 27.948 62.9517 27.844C62.9757 27.732 62.9397 27.544 62.8437 27.28C62.8197 27.208 62.7597 27.044 62.6637 26.788C62.5677 26.532 62.4517 26.224 62.3157 25.864C62.1797 25.496 62.0397 25.116 61.8957 24.724C61.7517 24.332 61.6117 23.96 61.4757 23.608H61.4397C61.3117 23.944 61.1717 24.304 61.0197 24.688C60.8677 25.064 60.7237 25.432 60.5877 25.792C60.4517 26.144 60.3357 26.456 60.2397 26.728C60.1437 26.992 60.0837 27.176 60.0597 27.28C59.9877 27.544 59.9597 27.732 59.9757 27.844C59.9917 27.948 60.0197 28 60.0597 28H58.1397ZM70.9061 28.12C70.1541 28.12 69.5221 28.08 69.0101 28C68.5061 27.92 68.1621 27.84 67.9781 27.76V27.52L67.7261 26.488C67.9341 26.656 68.2981 26.832 68.8181 27.016C69.3461 27.192 69.9861 27.28 70.7381 27.28C71.2341 27.28 71.6061 27.248 71.8541 27.184C72.1021 27.112 72.2661 27.02 72.3461 26.908C72.4261 26.788 72.4661 26.656 72.4661 26.512C72.4661 26.344 72.4061 26.212 72.2861 26.116C72.1741 26.012 71.9581 25.928 71.6381 25.864C71.3261 25.792 70.8621 25.72 70.2461 25.648C69.5741 25.568 69.0541 25.452 68.6861 25.3C68.3261 25.148 68.0781 24.956 67.9421 24.724C67.8061 24.484 67.7381 24.2 67.7381 23.872C67.7381 23.616 67.8061 23.364 67.9421 23.116C68.0781 22.868 68.3301 22.664 68.6981 22.504C69.0741 22.344 69.6061 22.264 70.2941 22.264C71.0381 22.264 71.6621 22.304 72.1661 22.384C72.6781 22.464 73.0261 22.544 73.2101 22.624V22.864L73.4501 23.776C73.2501 23.632 72.8861 23.484 72.3581 23.332C71.8301 23.18 71.1941 23.104 70.4501 23.104C69.8581 23.104 69.4621 23.172 69.2621 23.308C69.0621 23.436 68.9621 23.604 68.9621 23.812C68.9621 23.932 68.9861 24.04 69.0341 24.136C69.0821 24.224 69.1781 24.304 69.3221 24.376C69.4741 24.448 69.6981 24.512 69.9941 24.568C70.2981 24.624 70.7021 24.68 71.2061 24.736C71.8861 24.808 72.4021 24.92 72.7541 25.072C73.1061 25.224 73.3461 25.416 73.4741 25.648C73.6101 25.872 73.6781 26.136 73.6781 26.44C73.6781 26.768 73.5861 27.06 73.4021 27.316C73.2261 27.564 72.9341 27.76 72.5261 27.904C72.1181 28.048 71.5781 28.12 70.9061 28.12Z" fill="black"/>
<path d="M32.9023 52.8213C32.9023 53.8239 32.5697 54.6419 31.9043 55.2754C31.2435 55.9089 30.389 56.2256 29.3408 56.2256C28.2835 56.2256 27.4222 55.9043 26.7568 55.2617C26.0915 54.6191 25.7588 53.7897 25.7588 52.7734C25.7588 52.1901 25.8682 51.609 26.0869 51.0303C26.3102 50.4515 26.6657 49.8203 27.1533 49.1367C27.1624 49.1276 27.3447 48.8747 27.7002 48.3779C28.0602 47.8812 28.4134 47.3936 28.7598 46.915C29.1061 46.432 29.2952 46.1722 29.3271 46.1357H31.1318C31.0771 46.1904 30.6191 46.7852 29.7578 47.9199C28.901 49.0501 28.4339 49.6722 28.3564 49.7861C28.2061 49.9958 28.1012 50.1576 28.042 50.2715L28.1445 50.3125C28.3132 50.1165 28.5547 49.9593 28.8691 49.8408C29.1882 49.7178 29.5117 49.6562 29.8398 49.6562C30.7194 49.6562 31.4486 49.957 32.0273 50.5586C32.6107 51.1556 32.9023 51.9098 32.9023 52.8213ZM27.2627 52.8691C27.2627 53.457 27.4609 53.9492 27.8574 54.3457C28.2539 54.7422 28.7461 54.9404 29.334 54.9404C29.9219 54.9404 30.4141 54.7422 30.8105 54.3457C31.2116 53.9492 31.4121 53.457 31.4121 52.8691C31.4121 52.2858 31.2116 51.7959 30.8105 51.3994C30.4141 51.0029 29.9219 50.8047 29.334 50.8047C28.7461 50.8047 28.2539 51.0029 27.8574 51.3994C27.4609 51.7959 27.2627 52.2858 27.2627 52.8691ZM39.2141 56.1846C38.1158 56.1846 37.218 55.918 36.5207 55.3848C35.828 54.8516 35.4817 54.168 35.4817 53.334C35.4817 52.7096 35.6822 52.165 36.0832 51.7002C36.4888 51.2354 37.0198 50.9346 37.676 50.7979V50.7637C37.1291 50.6133 36.6916 50.3398 36.3635 49.9434C36.0399 49.5423 35.8782 49.0775 35.8782 48.5488C35.8782 47.8014 36.1926 47.1816 36.8215 46.6895C37.4504 46.1973 38.248 45.9512 39.2141 45.9512C40.1848 45.9512 40.9823 46.1973 41.6067 46.6895C42.231 47.1771 42.5432 47.7992 42.5432 48.5557C42.5432 49.0752 42.3814 49.5332 42.0579 49.9297C41.7343 50.3262 41.2991 50.6042 40.7522 50.7637V50.7979C41.4084 50.9346 41.9371 51.2354 42.3381 51.7002C42.7437 52.165 42.9465 52.7096 42.9465 53.334C42.9465 54.1725 42.5979 54.8584 41.9006 55.3916C41.2034 55.9202 40.3079 56.1846 39.2141 56.1846ZM37.6623 54.4688C38.0679 54.7923 38.5852 54.9541 39.2141 54.9541C39.843 54.9541 40.358 54.7923 40.759 54.4688C41.1601 54.1406 41.3606 53.7259 41.3606 53.2246C41.3606 52.7142 41.1601 52.2972 40.759 51.9736C40.358 51.6455 39.843 51.4814 39.2141 51.4814C38.5852 51.4814 38.0679 51.6455 37.6623 51.9736C37.2613 52.3018 37.0608 52.7188 37.0608 53.2246C37.0608 53.7259 37.2613 54.1406 37.6623 54.4688ZM39.2141 50.251C39.7427 50.251 40.178 50.1074 40.5198 49.8203C40.8616 49.5286 41.0325 49.1595 41.0325 48.7129C41.0325 48.2617 40.8616 47.8926 40.5198 47.6055C40.1825 47.3138 39.7473 47.168 39.2141 47.168C38.6809 47.168 38.2434 47.3138 37.9016 47.6055C37.5644 47.8926 37.3957 48.2617 37.3957 48.7129C37.3957 49.1641 37.5644 49.5332 37.9016 49.8203C38.2434 50.1074 38.6809 50.251 39.2141 50.251ZM51.9175 54.8037C51.2567 55.7243 50.3384 56.1846 49.1626 56.1846C47.9868 56.1846 47.0639 55.7266 46.394 54.8105C45.7287 53.89 45.396 52.639 45.396 51.0576C45.396 49.4899 45.7309 48.248 46.4009 47.332C47.0708 46.4115 47.9914 45.9512 49.1626 45.9512C50.3338 45.9512 51.2521 46.4092 51.9175 47.3252C52.5828 48.2367 52.9155 49.4785 52.9155 51.0508C52.9155 52.6322 52.5828 53.8831 51.9175 54.8037ZM47.5288 53.8809C47.9162 54.5599 48.4608 54.8994 49.1626 54.8994C49.8644 54.8994 50.4067 54.5599 50.7895 53.8809C51.1769 53.1973 51.3706 52.2562 51.3706 51.0576C51.3706 49.8727 51.1746 48.9408 50.7827 48.2617C50.3953 47.5781 49.8553 47.2363 49.1626 47.2363C48.4699 47.2363 47.9276 47.5781 47.5356 48.2617C47.1437 48.9453 46.9477 49.8773 46.9477 51.0576C46.9477 52.2562 47.1414 53.1973 47.5288 53.8809Z" fill="black"/>
<path d="M110.604 54.5293V56.6533H109.881V54.5293H107.757V53.8066H109.881V51.6826H110.604V53.8066H112.728V54.5293H110.604ZM114.227 51.9365C114.227 51.3115 114.438 50.7972 114.861 50.3936C115.288 49.9899 115.828 49.7881 116.482 49.7881C117.114 49.7881 117.643 49.9785 118.069 50.3594C118.499 50.737 118.714 51.2057 118.714 51.7656C118.714 52.1335 118.61 52.4948 118.401 52.8496C118.193 53.2044 117.801 53.6911 117.225 54.3096L115.53 56.1309V56.209H118.831V57H114.271V56.3945L116.707 53.7334C117.16 53.2419 117.461 52.8675 117.61 52.6104C117.76 52.3532 117.835 52.083 117.835 51.7998C117.835 51.4482 117.701 51.1536 117.435 50.916C117.171 50.6751 116.845 50.5547 116.458 50.5547C116.045 50.5547 115.711 50.6816 115.457 50.9355C115.203 51.1895 115.076 51.5231 115.076 51.9365V51.9414H114.227V51.9365ZM122.684 57.166C121.889 57.166 121.274 56.8438 120.838 56.1992C120.402 55.5547 120.184 54.6465 120.184 53.4746C120.184 52.3125 120.403 51.4076 120.843 50.7598C121.282 50.112 121.896 49.7881 122.684 49.7881C123.468 49.7881 124.078 50.1136 124.515 50.7646C124.954 51.4157 125.174 52.3239 125.174 53.4893C125.174 54.6579 124.956 55.5628 124.52 56.2041C124.087 56.8454 123.475 57.166 122.684 57.166ZM121.482 55.6426C121.762 56.1471 122.163 56.3994 122.684 56.3994C123.204 56.3994 123.602 56.1488 123.875 55.6475C124.152 55.1429 124.29 54.4186 124.29 53.4746C124.29 52.5404 124.15 51.821 123.87 51.3164C123.593 50.8118 123.198 50.5596 122.684 50.5596C122.169 50.5596 121.771 50.8135 121.487 51.3213C121.207 51.8258 121.067 52.5436 121.067 53.4746C121.067 54.4154 121.206 55.138 121.482 55.6426ZM128.802 50.3057C129.082 50.6214 129.222 51.0283 129.222 51.5264C129.222 52.0244 129.082 52.4329 128.802 52.752C128.522 53.0677 128.162 53.2256 127.723 53.2256C127.283 53.2256 126.922 53.0677 126.639 52.752C126.359 52.4329 126.219 52.0244 126.219 51.5264C126.219 51.0316 126.359 50.6263 126.639 50.3105C126.922 49.9915 127.283 49.832 127.723 49.832C128.162 49.832 128.522 49.9899 128.802 50.3057ZM127.723 52.6006C127.938 52.6006 128.11 52.5029 128.24 52.3076C128.374 52.109 128.44 51.8486 128.44 51.5264C128.44 51.1976 128.375 50.9372 128.245 50.7451C128.118 50.5531 127.944 50.457 127.723 50.457C127.505 50.457 127.329 50.5547 127.195 50.75C127.065 50.9421 127 51.2008 127 51.5264C127 51.8519 127.065 52.1123 127.195 52.3076C127.329 52.5029 127.505 52.6006 127.723 52.6006ZM127.645 57H126.746L129.437 53.3281L131.907 49.9541H132.796L130.062 53.6943L127.645 57ZM132.879 54.2021C133.159 54.5179 133.299 54.9248 133.299 55.4229C133.299 55.9209 133.159 56.3294 132.879 56.6484C132.599 56.9642 132.239 57.1221 131.8 57.1221C131.36 57.1221 130.999 56.9642 130.716 56.6484C130.436 56.3294 130.296 55.9209 130.296 55.4229C130.296 54.9281 130.436 54.5228 130.716 54.207C130.999 53.888 131.36 53.7285 131.8 53.7285C132.239 53.7285 132.599 53.8864 132.879 54.2021ZM131.8 56.4971C132.015 56.4971 132.187 56.3994 132.317 56.2041C132.451 56.0055 132.518 55.7451 132.518 55.4229C132.518 55.0941 132.452 54.8337 132.322 54.6416C132.195 54.4495 132.021 54.3535 131.8 54.3535C131.582 54.3535 131.406 54.4512 131.272 54.6465C131.142 54.8385 131.077 55.0973 131.077 55.4229C131.077 55.7484 131.142 56.0088 131.272 56.2041C131.406 56.3994 131.582 56.4971 131.8 56.4971Z" fill="#8B4CFC"/>
<path fill-rule="evenodd" clip-rule="evenodd" d="M148.955 50.6078L154.5 49L153.12 54.6061L151.398 52.9532L148.621 55.8463C148.526 55.9445 148.396 56 148.26 56C148.124 56 147.994 55.9445 147.899 55.8463L145.86 53.722L142.861 56.8463C142.669 57.0455 142.353 57.0519 142.154 56.8607C141.955 56.6695 141.948 56.3529 142.139 56.1537L145.499 52.6537C145.594 52.5555 145.724 52.5 145.86 52.5C145.996 52.5 146.126 52.5555 146.221 52.6537L148.26 54.778L150.677 52.2607L148.955 50.6078Z" fill="#8B4CFC"/>
<path d="M115.887 28H115.184V22.9961H113.367V22.3633H117.703V22.9961H115.887V28ZM118.742 28V22.1172H119.414V24.4531H119.477C119.583 24.2161 119.746 24.0339 119.965 23.9062C120.186 23.7786 120.456 23.7148 120.773 23.7148C121.221 23.7148 121.576 23.8529 121.836 24.1289C122.096 24.4023 122.227 24.7839 122.227 25.2734V28H121.555V25.4375C121.555 24.6927 121.23 24.3203 120.582 24.3203C120.212 24.3203 119.924 24.4284 119.719 24.6445C119.516 24.8581 119.414 25.1458 119.414 25.5078V28H118.742ZM123.469 28V23.7891H124.141V28H123.469ZM124.137 22.7969C124.046 22.888 123.935 22.9336 123.805 22.9336C123.674 22.9336 123.564 22.888 123.473 22.7969C123.382 22.7031 123.336 22.5924 123.336 22.4648C123.336 22.3372 123.382 22.2279 123.473 22.1367C123.564 22.043 123.674 21.9961 123.805 21.9961C123.935 21.9961 124.046 22.043 124.137 22.1367C124.228 22.2279 124.273 22.3372 124.273 22.4648C124.273 22.5924 124.228 22.7031 124.137 22.7969ZM125.324 24.9414C125.324 24.5924 125.474 24.3008 125.773 24.0664C126.073 23.832 126.447 23.7148 126.895 23.7148C127.335 23.7148 127.698 23.8164 127.984 24.0195C128.271 24.2227 128.436 24.4974 128.48 24.8438H127.816C127.77 24.6719 127.665 24.5365 127.504 24.4375C127.345 24.3359 127.141 24.2852 126.891 24.2852C126.638 24.2852 126.426 24.3438 126.254 24.4609C126.085 24.5781 126 24.7292 126 24.9141C126 25.0573 126.059 25.1771 126.176 25.2734C126.296 25.3672 126.48 25.444 126.73 25.5039L127.379 25.6602C127.78 25.7565 128.076 25.8958 128.266 26.0781C128.458 26.2604 128.555 26.5013 128.555 26.8008C128.555 27.1732 128.395 27.4792 128.074 27.7188C127.754 27.9557 127.352 28.0742 126.867 28.0742C126.398 28.0742 126.014 27.9701 125.715 27.7617C125.415 27.5534 125.247 27.2747 125.211 26.9258H125.902C125.96 27.1081 126.073 27.2513 126.242 27.3555C126.411 27.457 126.628 27.5078 126.891 27.5078C127.174 27.5078 127.408 27.4466 127.59 27.3242C127.772 27.2018 127.863 27.0443 127.863 26.8516C127.863 26.5651 127.641 26.3672 127.195 26.2578L126.473 26.082C126.074 25.9857 125.783 25.8477 125.598 25.668C125.415 25.4857 125.324 25.2435 125.324 24.9414ZM131.867 28V23.7891H132.508V24.4531H132.57C132.667 24.2188 132.816 24.0378 133.02 23.9102C133.223 23.7799 133.465 23.7148 133.746 23.7148C134.022 23.7148 134.259 23.7812 134.457 23.9141C134.658 24.0469 134.809 24.2266 134.91 24.4531H134.973C135.087 24.2266 135.259 24.0469 135.488 23.9141C135.717 23.7812 135.975 23.7148 136.262 23.7148C136.691 23.7148 137.022 23.8346 137.254 24.0742C137.486 24.3112 137.602 24.6497 137.602 25.0898V28H136.93V25.2461C136.93 24.6289 136.634 24.3203 136.043 24.3203C135.757 24.3203 135.522 24.4141 135.34 24.6016C135.158 24.7891 135.066 25.0195 135.066 25.293V28H134.395V25.1406C134.395 24.8906 134.314 24.6914 134.152 24.543C133.993 24.3945 133.781 24.3203 133.516 24.3203C133.242 24.3203 133.01 24.4245 132.82 24.6328C132.633 24.8411 132.539 25.0938 132.539 25.3906V28H131.867ZM141.977 27.4922C141.63 27.8802 141.158 28.0742 140.559 28.0742C139.96 28.0742 139.486 27.8802 139.137 27.4922C138.79 27.1016 138.617 26.569 138.617 25.8945C138.617 25.2174 138.79 24.6849 139.137 24.2969C139.483 23.9089 139.957 23.7148 140.559 23.7148C141.16 23.7148 141.634 23.9089 141.98 24.2969C142.327 24.6849 142.5 25.2174 142.5 25.8945C142.5 26.569 142.326 27.1016 141.977 27.4922ZM139.637 27.0586C139.853 27.332 140.16 27.4688 140.559 27.4688C140.957 27.4688 141.264 27.332 141.48 27.0586C141.697 26.7826 141.805 26.3945 141.805 25.8945C141.805 25.3945 141.697 25.0078 141.48 24.7344C141.264 24.4583 140.957 24.3203 140.559 24.3203C140.16 24.3203 139.853 24.4583 139.637 24.7344C139.421 25.0078 139.312 25.3945 139.312 25.8945C139.312 26.3945 139.421 26.7826 139.637 27.0586ZM143.555 28V23.7891H144.195V24.4531H144.258C144.482 23.9609 144.904 23.7148 145.523 23.7148C145.995 23.7148 146.358 23.8503 146.613 24.1211C146.868 24.3893 146.996 24.7734 146.996 25.2734V28H146.324V25.4375C146.324 25.0599 146.242 24.7799 146.078 24.5977C145.917 24.4128 145.668 24.3203 145.332 24.3203C144.993 24.3203 144.724 24.4271 144.523 24.6406C144.326 24.8516 144.227 25.1406 144.227 25.5078V28H143.555ZM148.508 22.6992H149.18V23.7891H150.117V24.3516H149.18V26.7344C149.18 26.9818 149.229 27.1615 149.328 27.2734C149.427 27.3854 149.586 27.4414 149.805 27.4414C149.901 27.4414 150.005 27.4362 150.117 27.4258V27.9922C149.969 28.0182 149.837 28.0312 149.723 28.0312C149.288 28.0312 148.977 27.944 148.789 27.7695C148.602 27.5951 148.508 27.3073 148.508 26.9062V24.3516H147.828V23.7891H148.508V22.6992ZM151.172 28V22.1172H151.844V24.4531H151.906C152.013 24.2161 152.176 24.0339 152.395 23.9062C152.616 23.7786 152.885 23.7148 153.203 23.7148C153.651 23.7148 154.005 23.8529 154.266 24.1289C154.526 24.4023 154.656 24.7839 154.656 25.2734V28H153.984V25.4375C153.984 24.6927 153.66 24.3203 153.012 24.3203C152.642 24.3203 152.354 24.4284 152.148 24.6445C151.945 24.8581 151.844 25.1458 151.844 25.5078V28H151.172Z" fill="#8B4CFC"/>
</svg>
