<svg width="334" height="217" viewBox="0 0 334 217" fill="none" xmlns="http://www.w3.org/2000/svg">
<rect x="1" y="0.5" width="332" height="216" rx="9.5" fill="white"/>
<rect x="1" y="0.5" width="332" height="216" rx="9.5" stroke="#F1F1F3"/>
<path d="M77.8105 167.02H287.5" stroke="black" stroke-width="0.25" stroke-miterlimit="10"/>
<path d="M105.576 170.942V167.047" stroke="black" stroke-width="0.25" stroke-miterlimit="10"/>
<path d="M133.576 167.047V170.942" stroke="black" stroke-width="0.25" stroke-miterlimit="10"/>
<path d="M161.576 167.047V170.942" stroke="black" stroke-width="0.25" stroke-miterlimit="10"/>
<path d="M189.576 167.047V170.942" stroke="black" stroke-width="0.25" stroke-miterlimit="10"/>
<path d="M217.576 167.047V170.942" stroke="black" stroke-width="0.25" stroke-miterlimit="10"/>
<path d="M245.576 167.047V170.942" stroke="black" stroke-width="0.25" stroke-miterlimit="10"/>
<path d="M273.576 167.047V170.942" stroke="black" stroke-width="0.25" stroke-miterlimit="10"/>
<path d="M100.5 160V127.538" stroke="#C2A3FC" stroke-width="8" stroke-linecap="square" stroke-linejoin="round"/>
<path d="M110.5 160V110.999" stroke="#8B4CFC" stroke-width="8" stroke-linecap="square" stroke-linejoin="round"/>
<path d="M128.5 160V116" stroke="#C2A3FC" stroke-width="8" stroke-linecap="square" stroke-linejoin="round"/>
<path d="M138.5 160V89.5" stroke="#8B4CFC" stroke-width="8" stroke-linecap="square" stroke-linejoin="round"/>
<path d="M156.5 160V113.5" stroke="#C2A3FC" stroke-width="8" stroke-linecap="square" stroke-linejoin="round"/>
<path d="M166.5 160V146.44" stroke="#8B4CFC" stroke-width="8" stroke-linecap="square" stroke-linejoin="round"/>
<path d="M184.5 160V96.5612" stroke="#C2A3FC" stroke-width="8" stroke-linecap="square" stroke-linejoin="round"/>
<path d="M194.5 160V119.38" stroke="#8B4CFC" stroke-width="8" stroke-linecap="square" stroke-linejoin="round"/>
<path d="M212.5 160V149.684" stroke="#C2A3FC" stroke-width="8" stroke-linecap="square" stroke-linejoin="round"/>
<path d="M222.5 160V131.5" stroke="#8B4CFC" stroke-width="8" stroke-linecap="square" stroke-linejoin="round"/>
<path d="M240.5 160V102.5" stroke="#C2A3FC" stroke-width="8" stroke-linecap="square" stroke-linejoin="round"/>
<path d="M250.5 160V97.5003" stroke="#8B4CFC" stroke-width="8" stroke-linecap="square" stroke-linejoin="round"/>
<path d="M268.5 160V137.92" stroke="#C2A3FC" stroke-width="8" stroke-linecap="square" stroke-linejoin="round"/>
<path d="M278.5 160V115.244" stroke="#8B4CFC" stroke-width="8" stroke-linecap="square" stroke-linejoin="round"/>
<path d="M56.68 88V87.934C56.72 87.85 56.816 87.706 56.968 87.502C57.124 87.294 57.338 87.05 57.61 86.77C57.754 86.618 57.896 86.48 58.036 86.356C58.18 86.232 58.308 86.114 58.42 86.002C58.536 85.886 58.628 85.772 58.696 85.66C58.768 85.548 58.804 85.43 58.804 85.306C58.804 85.154 58.758 85.036 58.666 84.952C58.574 84.864 58.422 84.82 58.21 84.82C58.018 84.82 57.838 84.85 57.67 84.91C57.502 84.97 57.352 85.044 57.22 85.132C57.092 85.216 56.992 85.298 56.92 85.378V85.258L56.8 84.7C56.884 84.62 57.046 84.54 57.286 84.46C57.526 84.38 57.83 84.34 58.198 84.34C58.522 84.34 58.776 84.382 58.96 84.466C59.148 84.55 59.28 84.66 59.356 84.796C59.436 84.928 59.476 85.068 59.476 85.216C59.476 85.428 59.426 85.622 59.326 85.798C59.226 85.97 59.092 86.138 58.924 86.302C58.76 86.462 58.578 86.63 58.378 86.806C58.17 86.986 57.99 87.136 57.838 87.256C57.686 87.372 57.576 87.452 57.508 87.496V87.514H58.816C59.056 87.514 59.252 87.494 59.404 87.454C59.56 87.414 59.664 87.374 59.716 87.334L59.596 87.814V88H56.68ZM61.7284 88.06C61.1964 88.06 60.7984 87.902 60.5344 87.586C60.2704 87.266 60.1384 86.798 60.1384 86.182C60.1384 85.582 60.2724 85.126 60.5404 84.814C60.8084 84.498 61.2044 84.34 61.7284 84.34H61.7944C62.3104 84.34 62.6984 84.496 62.9584 84.808C63.2224 85.12 63.3544 85.578 63.3544 86.182C63.3544 86.798 63.2224 87.266 62.9584 87.586C62.6984 87.902 62.3104 88.06 61.7944 88.06H61.7284ZM61.7284 87.574H61.7944C61.9824 87.574 62.1424 87.536 62.2744 87.46C62.4064 87.38 62.5064 87.24 62.5744 87.04C62.6464 86.836 62.6824 86.55 62.6824 86.182C62.6824 85.822 62.6464 85.544 62.5744 85.348C62.5064 85.148 62.4064 85.01 62.2744 84.934C62.1424 84.858 61.9824 84.82 61.7944 84.82H61.7284C61.5364 84.82 61.3724 84.858 61.2364 84.934C61.1004 85.01 60.9944 85.146 60.9184 85.342C60.8464 85.538 60.8104 85.818 60.8104 86.182C60.8104 86.554 60.8464 86.842 60.9184 87.046C60.9944 87.246 61.1004 87.384 61.2364 87.46C61.3764 87.536 61.5404 87.574 61.7284 87.574ZM65.4257 88.06C64.8937 88.06 64.4957 87.902 64.2317 87.586C63.9677 87.266 63.8357 86.798 63.8357 86.182C63.8357 85.582 63.9697 85.126 64.2377 84.814C64.5057 84.498 64.9017 84.34 65.4257 84.34H65.4917C66.0077 84.34 66.3957 84.496 66.6557 84.808C66.9197 85.12 67.0517 85.578 67.0517 86.182C67.0517 86.798 66.9197 87.266 66.6557 87.586C66.3957 87.902 66.0077 88.06 65.4917 88.06H65.4257ZM65.4257 87.574H65.4917C65.6797 87.574 65.8397 87.536 65.9717 87.46C66.1037 87.38 66.2037 87.24 66.2717 87.04C66.3437 86.836 66.3797 86.55 66.3797 86.182C66.3797 85.822 66.3437 85.544 66.2717 85.348C66.2037 85.148 66.1037 85.01 65.9717 84.934C65.8397 84.858 65.6797 84.82 65.4917 84.82H65.4257C65.2337 84.82 65.0697 84.858 64.9337 84.934C64.7977 85.01 64.6917 85.146 64.6157 85.342C64.5437 85.538 64.5077 85.818 64.5077 86.182C64.5077 86.554 64.5437 86.842 64.6157 87.046C64.6917 87.246 64.7977 87.384 64.9337 87.46C65.0737 87.536 65.2377 87.574 65.4257 87.574Z" fill="#494949"/>
<path d="M57.78 108C57.808 108 57.834 107.972 57.858 107.916C57.886 107.86 57.9 107.768 57.9 107.64V105L57.24 105.12V104.58C57.404 104.58 57.57 104.568 57.738 104.544C57.91 104.516 58.068 104.484 58.212 104.448C58.36 104.408 58.48 104.372 58.572 104.34V107.64C58.572 107.768 58.586 107.86 58.614 107.916C58.642 107.972 58.67 108 58.698 108H57.78ZM61.0006 108.06C60.5846 108.06 60.2266 108.034 59.9266 107.982C59.6266 107.926 59.4166 107.872 59.2966 107.82L59.4166 107.238V107.118C59.4766 107.182 59.5726 107.25 59.7046 107.322C59.8406 107.394 60.0086 107.456 60.2086 107.508C60.4086 107.556 60.6366 107.58 60.8926 107.58C61.2366 107.58 61.4806 107.522 61.6246 107.406C61.7686 107.286 61.8406 107.11 61.8406 106.878C61.8406 106.658 61.7566 106.492 61.5886 106.38C61.4246 106.268 61.1706 106.212 60.8266 106.212C60.4866 106.212 60.2066 106.226 59.9866 106.254C59.7666 106.278 59.6166 106.304 59.5366 106.332V104.4H62.1886V104.52L62.3086 105C62.2646 104.972 62.1446 104.946 61.9486 104.922C61.7526 104.894 61.4766 104.88 61.1206 104.88H60.2086V105.576C60.2086 105.664 60.2186 105.716 60.2386 105.732C60.2586 105.748 60.3286 105.756 60.4486 105.756H61.0006C61.5246 105.756 61.9066 105.85 62.1466 106.038C62.3906 106.222 62.5126 106.518 62.5126 106.926C62.5126 107.258 62.3906 107.53 62.1466 107.742C61.9066 107.954 61.5246 108.06 61.0006 108.06ZM64.5839 108.06C64.0519 108.06 63.6539 107.902 63.3899 107.586C63.1259 107.266 62.9939 106.798 62.9939 106.182C62.9939 105.582 63.1279 105.126 63.3959 104.814C63.6639 104.498 64.0599 104.34 64.5839 104.34H64.6499C65.1659 104.34 65.5539 104.496 65.8139 104.808C66.0779 105.12 66.2099 105.578 66.2099 106.182C66.2099 106.798 66.0779 107.266 65.8139 107.586C65.5539 107.902 65.1659 108.06 64.6499 108.06H64.5839ZM64.5839 107.574H64.6499C64.8379 107.574 64.9979 107.536 65.1299 107.46C65.2619 107.38 65.3619 107.24 65.4299 107.04C65.5019 106.836 65.5379 106.55 65.5379 106.182C65.5379 105.822 65.5019 105.544 65.4299 105.348C65.3619 105.148 65.2619 105.01 65.1299 104.934C64.9979 104.858 64.8379 104.82 64.6499 104.82H64.5839C64.3919 104.82 64.2279 104.858 64.0919 104.934C63.9559 105.01 63.8499 105.146 63.7739 105.342C63.7019 105.538 63.6659 105.818 63.6659 106.182C63.6659 106.554 63.7019 106.842 63.7739 107.046C63.8499 107.246 63.9559 107.384 64.0919 107.46C64.2319 107.536 64.3959 107.574 64.5839 107.574Z" fill="#494949"/>
<path d="M57.78 128C57.808 128 57.834 127.972 57.858 127.916C57.886 127.86 57.9 127.768 57.9 127.64V125L57.24 125.12V124.58C57.404 124.58 57.57 124.568 57.738 124.544C57.91 124.516 58.068 124.484 58.212 124.448C58.36 124.408 58.48 124.372 58.572 124.34V127.64C58.572 127.768 58.586 127.86 58.614 127.916C58.642 127.972 58.67 128 58.698 128H57.78ZM60.8866 128.06C60.3546 128.06 59.9566 127.902 59.6926 127.586C59.4286 127.266 59.2966 126.798 59.2966 126.182C59.2966 125.582 59.4306 125.126 59.6986 124.814C59.9666 124.498 60.3626 124.34 60.8866 124.34H60.9526C61.4686 124.34 61.8566 124.496 62.1166 124.808C62.3806 125.12 62.5126 125.578 62.5126 126.182C62.5126 126.798 62.3806 127.266 62.1166 127.586C61.8566 127.902 61.4686 128.06 60.9526 128.06H60.8866ZM60.8866 127.574H60.9526C61.1406 127.574 61.3006 127.536 61.4326 127.46C61.5646 127.38 61.6646 127.24 61.7326 127.04C61.8046 126.836 61.8406 126.55 61.8406 126.182C61.8406 125.822 61.8046 125.544 61.7326 125.348C61.6646 125.148 61.5646 125.01 61.4326 124.934C61.3006 124.858 61.1406 124.82 60.9526 124.82H60.8866C60.6946 124.82 60.5306 124.858 60.3946 124.934C60.2586 125.01 60.1526 125.146 60.0766 125.342C60.0046 125.538 59.9686 125.818 59.9686 126.182C59.9686 126.554 60.0046 126.842 60.0766 127.046C60.1526 127.246 60.2586 127.384 60.3946 127.46C60.5346 127.536 60.6986 127.574 60.8866 127.574ZM64.5839 128.06C64.0519 128.06 63.6539 127.902 63.3899 127.586C63.1259 127.266 62.9939 126.798 62.9939 126.182C62.9939 125.582 63.1279 125.126 63.3959 124.814C63.6639 124.498 64.0599 124.34 64.5839 124.34H64.6499C65.1659 124.34 65.5539 124.496 65.8139 124.808C66.0779 125.12 66.2099 125.578 66.2099 126.182C66.2099 126.798 66.0779 127.266 65.8139 127.586C65.5539 127.902 65.1659 128.06 64.6499 128.06H64.5839ZM64.5839 127.574H64.6499C64.8379 127.574 64.9979 127.536 65.1299 127.46C65.2619 127.38 65.3619 127.24 65.4299 127.04C65.5019 126.836 65.5379 126.55 65.5379 126.182C65.5379 125.822 65.5019 125.544 65.4299 125.348C65.3619 125.148 65.2619 125.01 65.1299 124.934C64.9979 124.858 64.8379 124.82 64.6499 124.82H64.5839C64.3919 124.82 64.2279 124.858 64.0919 124.934C63.9559 125.01 63.8499 125.146 63.7739 125.342C63.7019 125.538 63.6659 125.818 63.6659 126.182C63.6659 126.554 63.7019 126.842 63.7739 127.046C63.8499 127.246 63.9559 127.384 64.0919 127.46C64.2319 127.536 64.3959 127.574 64.5839 127.574Z" fill="#494949"/>
<path d="M59.944 148.06C59.528 148.06 59.17 148.034 58.87 147.982C58.57 147.926 58.36 147.872 58.24 147.82L58.36 147.238V147.118C58.42 147.182 58.516 147.25 58.648 147.322C58.784 147.394 58.952 147.456 59.152 147.508C59.352 147.556 59.58 147.58 59.836 147.58C60.18 147.58 60.424 147.522 60.568 147.406C60.712 147.286 60.784 147.11 60.784 146.878C60.784 146.658 60.7 146.492 60.532 146.38C60.368 146.268 60.114 146.212 59.77 146.212C59.43 146.212 59.15 146.226 58.93 146.254C58.71 146.278 58.56 146.304 58.48 146.332V144.4H61.132V144.52L61.252 145C61.208 144.972 61.088 144.946 60.892 144.922C60.696 144.894 60.42 144.88 60.064 144.88H59.152V145.576C59.152 145.664 59.162 145.716 59.182 145.732C59.202 145.748 59.272 145.756 59.392 145.756H59.944C60.468 145.756 60.85 145.85 61.09 146.038C61.334 146.222 61.456 146.518 61.456 146.926C61.456 147.258 61.334 147.53 61.09 147.742C60.85 147.954 60.468 148.06 59.944 148.06ZM63.5273 148.06C62.9953 148.06 62.5973 147.902 62.3333 147.586C62.0693 147.266 61.9373 146.798 61.9373 146.182C61.9373 145.582 62.0713 145.126 62.3393 144.814C62.6073 144.498 63.0033 144.34 63.5273 144.34H63.5933C64.1093 144.34 64.4973 144.496 64.7573 144.808C65.0213 145.12 65.1533 145.578 65.1533 146.182C65.1533 146.798 65.0213 147.266 64.7573 147.586C64.4973 147.902 64.1093 148.06 63.5933 148.06H63.5273ZM63.5273 147.574H63.5933C63.7813 147.574 63.9413 147.536 64.0733 147.46C64.2053 147.38 64.3053 147.24 64.3733 147.04C64.4453 146.836 64.4813 146.55 64.4813 146.182C64.4813 145.822 64.4453 145.544 64.3733 145.348C64.3053 145.148 64.2053 145.01 64.0733 144.934C63.9413 144.858 63.7813 144.82 63.5933 144.82H63.5273C63.3353 144.82 63.1713 144.858 63.0353 144.934C62.8993 145.01 62.7933 145.146 62.7173 145.342C62.6453 145.538 62.6093 145.818 62.6093 146.182C62.6093 146.554 62.6453 146.842 62.7173 147.046C62.7933 147.246 62.8993 147.384 63.0353 147.46C63.1753 147.536 63.3393 147.574 63.5273 147.574Z" fill="#494949"/>
<path d="M61.83 168.06C61.298 168.06 60.9 167.902 60.636 167.586C60.372 167.266 60.24 166.798 60.24 166.182C60.24 165.582 60.374 165.126 60.642 164.814C60.91 164.498 61.306 164.34 61.83 164.34H61.896C62.412 164.34 62.8 164.496 63.06 164.808C63.324 165.12 63.456 165.578 63.456 166.182C63.456 166.798 63.324 167.266 63.06 167.586C62.8 167.902 62.412 168.06 61.896 168.06H61.83ZM61.83 167.574H61.896C62.084 167.574 62.244 167.536 62.376 167.46C62.508 167.38 62.608 167.24 62.676 167.04C62.748 166.836 62.784 166.55 62.784 166.182C62.784 165.822 62.748 165.544 62.676 165.348C62.608 165.148 62.508 165.01 62.376 164.934C62.244 164.858 62.084 164.82 61.896 164.82H61.83C61.638 164.82 61.474 164.858 61.338 164.934C61.202 165.01 61.096 165.146 61.02 165.342C60.948 165.538 60.912 165.818 60.912 166.182C60.912 166.554 60.948 166.842 61.02 167.046C61.096 167.246 61.202 167.384 61.338 167.46C61.478 167.536 61.642 167.574 61.83 167.574Z" fill="#494949"/>
<path d="M96.98 180C97.0173 180 97.0547 179.963 97.092 179.888C97.1293 179.813 97.148 179.691 97.148 179.52V175.68C97.148 175.509 97.1293 175.389 97.092 175.32C97.0547 175.245 97.0173 175.205 96.98 175.2H98.46C98.4493 175.2 98.4547 175.237 98.476 175.312C98.4973 175.387 98.548 175.515 98.628 175.696C98.66 175.765 98.716 175.888 98.796 176.064C98.8813 176.24 98.9827 176.451 99.1 176.696C99.2173 176.936 99.3427 177.195 99.476 177.472C99.6093 177.749 99.7453 178.032 99.884 178.32C100.023 178.603 100.153 178.869 100.276 179.12H100.284C100.412 178.864 100.545 178.595 100.684 178.312C100.823 178.024 100.961 177.739 101.1 177.456C101.239 177.173 101.367 176.912 101.484 176.672C101.601 176.427 101.7 176.219 101.78 176.048C101.865 175.872 101.924 175.749 101.956 175.68C102.031 175.509 102.079 175.387 102.1 175.312C102.127 175.237 102.135 175.2 102.124 175.2H103.596C103.559 175.2 103.521 175.237 103.484 175.312C103.447 175.387 103.428 175.512 103.428 175.688V179.52C103.428 179.691 103.447 179.813 103.484 179.888C103.521 179.963 103.559 180 103.596 180H102.372C102.409 180 102.444 179.963 102.476 179.888C102.513 179.813 102.532 179.691 102.532 179.52V176.208H102.516C102.404 176.432 102.284 176.672 102.156 176.928C102.033 177.184 101.908 177.443 101.78 177.704C101.652 177.96 101.532 178.208 101.42 178.448C101.308 178.683 101.207 178.893 101.116 179.08C101.031 179.267 100.964 179.413 100.916 179.52C100.841 179.685 100.801 179.805 100.796 179.88C100.796 179.955 100.809 179.995 100.836 180H99.716C99.7427 180 99.756 179.965 99.756 179.896C99.756 179.821 99.716 179.696 99.636 179.52C99.5987 179.429 99.5373 179.296 99.452 179.12C99.3667 178.944 99.268 178.739 99.156 178.504C99.0493 178.264 98.932 178.013 98.804 177.752C98.676 177.485 98.548 177.219 98.42 176.952C98.2973 176.685 98.18 176.437 98.068 176.208H98.044V179.52C98.044 179.691 98.0627 179.813 98.1 179.888C98.1373 179.963 98.1747 180 98.212 180H96.98ZM106.422 180.08C105.889 180.08 105.47 179.995 105.166 179.824C104.867 179.653 104.657 179.421 104.534 179.128C104.417 178.835 104.358 178.504 104.358 178.136C104.358 177.763 104.419 177.429 104.542 177.136C104.67 176.843 104.883 176.611 105.182 176.44C105.481 176.264 105.894 176.176 106.422 176.176C106.95 176.176 107.363 176.264 107.662 176.44C107.961 176.611 108.171 176.843 108.294 177.136C108.422 177.429 108.486 177.763 108.486 178.136C108.486 178.504 108.425 178.835 108.302 179.128C108.185 179.421 107.977 179.653 107.678 179.824C107.379 179.995 106.961 180.08 106.422 180.08ZM106.422 179.512C106.753 179.512 107.009 179.459 107.19 179.352C107.371 179.245 107.497 179.091 107.566 178.888C107.635 178.68 107.67 178.429 107.67 178.136C107.67 177.843 107.633 177.592 107.558 177.384C107.489 177.176 107.363 177.016 107.182 176.904C107.006 176.792 106.753 176.736 106.422 176.736C106.097 176.736 105.843 176.795 105.662 176.912C105.481 177.024 105.353 177.187 105.278 177.4C105.209 177.608 105.174 177.856 105.174 178.144C105.174 178.427 105.209 178.672 105.278 178.88C105.347 179.083 105.473 179.24 105.654 179.352C105.835 179.459 106.091 179.512 106.422 179.512ZM109.134 180C109.171 180 109.206 179.963 109.238 179.888C109.275 179.813 109.294 179.691 109.294 179.52V176.816C109.294 176.645 109.275 176.525 109.238 176.456C109.206 176.381 109.171 176.341 109.134 176.336C109.368 176.336 109.571 176.32 109.742 176.288C109.918 176.251 110.04 176.213 110.11 176.176V176.664L110.094 176.768L110.11 176.784C110.19 176.683 110.291 176.587 110.414 176.496C110.542 176.405 110.699 176.331 110.886 176.272C111.072 176.208 111.291 176.176 111.542 176.176C112.038 176.176 112.416 176.317 112.678 176.6C112.944 176.883 113.078 177.325 113.078 177.928V179.52C113.078 179.691 113.094 179.813 113.126 179.888C113.163 179.963 113.2 180 113.238 180H112.102C112.139 180 112.174 179.963 112.206 179.888C112.243 179.813 112.262 179.691 112.262 179.52V177.952C112.262 177.637 112.222 177.392 112.142 177.216C112.062 177.04 111.95 176.917 111.806 176.848C111.667 176.773 111.504 176.736 111.318 176.736C111.12 176.736 110.928 176.779 110.742 176.864C110.555 176.949 110.403 177.085 110.286 177.272C110.168 177.459 110.11 177.709 110.11 178.024V179.52C110.11 179.691 110.126 179.813 110.158 179.888C110.195 179.963 110.232 180 110.27 180H109.134Z" fill="#494949"/>
<path d="M127.436 180C127.473 180 127.511 179.963 127.548 179.888C127.585 179.813 127.604 179.691 127.604 179.52V176.08C127.604 175.963 127.591 175.893 127.564 175.872C127.537 175.851 127.444 175.84 127.284 175.84H126.7C126.391 175.84 126.14 175.875 125.948 175.944C125.761 176.008 125.639 176.069 125.58 176.128L125.74 175.36V175.2H130.364V175.36L130.524 176.128C130.465 176.069 130.34 176.008 130.148 175.944C129.961 175.875 129.713 175.84 129.404 175.84H128.828C128.663 175.84 128.567 175.851 128.54 175.872C128.513 175.893 128.5 175.963 128.5 176.08V179.52C128.5 179.691 128.519 179.813 128.556 179.888C128.593 179.963 128.631 180 128.668 180H127.436ZM132.345 180.08C132.036 180.08 131.764 180.027 131.529 179.92C131.3 179.808 131.121 179.619 130.993 179.352C130.871 179.08 130.809 178.704 130.809 178.224V176.736C130.809 176.565 130.791 176.443 130.753 176.368C130.721 176.293 130.687 176.256 130.649 176.256H131.793C131.756 176.256 131.716 176.293 131.673 176.368C131.636 176.443 131.617 176.565 131.617 176.736V178.336C131.617 178.789 131.697 179.099 131.857 179.264C132.017 179.429 132.228 179.512 132.489 179.512C132.751 179.512 132.977 179.448 133.169 179.32C133.361 179.192 133.511 179.016 133.617 178.792C133.729 178.568 133.785 178.315 133.785 178.032V176.736C133.785 176.565 133.767 176.445 133.729 176.376C133.697 176.301 133.663 176.261 133.625 176.256H134.601V179.52C134.601 179.691 134.617 179.813 134.649 179.888C134.687 179.963 134.724 180 134.761 180H133.785V179.52L133.801 179.36L133.785 179.344C133.753 179.408 133.7 179.483 133.625 179.568C133.551 179.648 133.452 179.728 133.329 179.808C133.212 179.888 133.071 179.952 132.905 180C132.74 180.053 132.553 180.08 132.345 180.08ZM137.454 180.08C137.033 180.08 136.686 180.032 136.414 179.936C136.142 179.835 135.929 179.696 135.774 179.52C135.619 179.344 135.51 179.139 135.446 178.904C135.387 178.669 135.358 178.413 135.358 178.136C135.358 177.533 135.529 177.056 135.87 176.704C136.217 176.352 136.729 176.176 137.406 176.176C137.801 176.176 138.118 176.229 138.358 176.336C138.603 176.443 138.787 176.584 138.91 176.76C139.038 176.936 139.123 177.128 139.166 177.336C139.214 177.539 139.238 177.739 139.238 177.936V178.312C139.238 178.296 139.163 178.28 139.014 178.264C138.87 178.243 138.625 178.232 138.278 178.232H136.174C136.174 178.627 136.291 178.939 136.526 179.168C136.761 179.397 137.11 179.512 137.574 179.512C137.974 179.512 138.302 179.464 138.558 179.368C138.819 179.267 138.993 179.168 139.078 179.072V179.232L139.158 179.76C139.041 179.829 138.833 179.901 138.534 179.976C138.241 180.045 137.881 180.08 137.454 180.08ZM136.494 177.704H138.438C138.438 177.565 138.409 177.421 138.35 177.272C138.291 177.123 138.187 176.997 138.038 176.896C137.889 176.789 137.678 176.736 137.406 176.736C137.177 176.736 136.977 176.776 136.806 176.856C136.635 176.931 136.502 177.029 136.406 177.152C136.315 177.275 136.27 177.405 136.27 177.544C136.27 177.597 136.286 177.637 136.318 177.664C136.35 177.691 136.409 177.704 136.494 177.704Z" fill="#494949"/>
<path d="M153.628 180C153.665 179.989 153.689 179.949 153.7 179.88C153.711 179.805 153.687 179.688 153.628 179.528C153.607 179.469 153.556 179.349 153.476 179.168C153.401 178.987 153.308 178.768 153.196 178.512C153.089 178.251 152.975 177.976 152.852 177.688C152.729 177.4 152.609 177.12 152.492 176.848C152.375 176.576 152.271 176.336 152.18 176.128C152.095 175.92 152.031 175.771 151.988 175.68C151.919 175.509 151.844 175.389 151.764 175.32C151.684 175.245 151.623 175.205 151.58 175.2H153.028C152.991 175.205 152.967 175.245 152.956 175.32C152.951 175.395 152.977 175.52 153.036 175.696C153.063 175.765 153.105 175.888 153.164 176.064C153.228 176.24 153.305 176.451 153.396 176.696C153.487 176.936 153.583 177.197 153.684 177.48C153.785 177.757 153.889 178.04 153.996 178.328C154.103 178.611 154.201 178.88 154.292 179.136H154.308C154.393 178.891 154.481 178.629 154.572 178.352C154.668 178.069 154.761 177.789 154.852 177.512C154.943 177.229 155.028 176.968 155.108 176.728C155.188 176.483 155.257 176.269 155.316 176.088C155.375 175.907 155.415 175.776 155.436 175.696C155.484 175.52 155.503 175.395 155.492 175.32C155.481 175.245 155.463 175.205 155.436 175.2H156.964C156.932 175.2 156.911 175.237 156.9 175.312C156.889 175.387 156.911 175.517 156.964 175.704C156.985 175.773 157.023 175.896 157.076 176.072C157.135 176.248 157.204 176.459 157.284 176.704C157.364 176.944 157.449 177.205 157.54 177.488C157.636 177.765 157.729 178.048 157.82 178.336C157.916 178.619 158.007 178.885 158.092 179.136H158.108C158.204 178.88 158.305 178.611 158.412 178.328C158.519 178.045 158.623 177.765 158.724 177.488C158.831 177.205 158.929 176.941 159.02 176.696C159.111 176.451 159.188 176.24 159.252 176.064C159.316 175.888 159.359 175.765 159.38 175.696C159.439 175.515 159.46 175.387 159.444 175.312C159.433 175.237 159.412 175.2 159.38 175.2H160.828C160.791 175.205 160.737 175.248 160.668 175.328C160.599 175.403 160.519 175.525 160.428 175.696C160.385 175.776 160.319 175.915 160.228 176.112C160.137 176.304 160.033 176.531 159.916 176.792C159.799 177.053 159.679 177.325 159.556 177.608C159.433 177.885 159.316 178.155 159.204 178.416C159.092 178.672 158.996 178.899 158.916 179.096C158.841 179.288 158.791 179.424 158.764 179.504C158.711 179.68 158.689 179.805 158.7 179.88C158.711 179.955 158.732 179.995 158.764 180H157.404C157.436 179.995 157.457 179.955 157.468 179.88C157.479 179.805 157.457 179.68 157.404 179.504C157.383 179.435 157.343 179.312 157.284 179.136C157.225 178.955 157.153 178.741 157.068 178.496C156.983 178.245 156.889 177.979 156.788 177.696C156.687 177.408 156.585 177.12 156.484 176.832C156.383 176.539 156.287 176.261 156.196 176H156.18C156.089 176.261 155.993 176.539 155.892 176.832C155.791 177.12 155.689 177.408 155.588 177.696C155.492 177.984 155.401 178.253 155.316 178.504C155.231 178.749 155.159 178.96 155.1 179.136C155.047 179.312 155.009 179.435 154.988 179.504C154.94 179.675 154.921 179.8 154.932 179.88C154.943 179.955 154.961 179.995 154.988 180H153.628ZM162.884 180.08C162.462 180.08 162.116 180.032 161.844 179.936C161.572 179.835 161.358 179.696 161.204 179.52C161.049 179.344 160.94 179.139 160.876 178.904C160.817 178.669 160.788 178.413 160.788 178.136C160.788 177.533 160.958 177.056 161.3 176.704C161.646 176.352 162.158 176.176 162.836 176.176C163.23 176.176 163.548 176.229 163.788 176.336C164.033 176.443 164.217 176.584 164.34 176.76C164.468 176.936 164.553 177.128 164.596 177.336C164.644 177.539 164.668 177.739 164.668 177.936V178.312C164.668 178.296 164.593 178.28 164.444 178.264C164.3 178.243 164.054 178.232 163.708 178.232H161.604C161.604 178.627 161.721 178.939 161.956 179.168C162.19 179.397 162.54 179.512 163.004 179.512C163.404 179.512 163.732 179.464 163.988 179.368C164.249 179.267 164.422 179.168 164.508 179.072V179.232L164.588 179.76C164.47 179.829 164.262 179.901 163.964 179.976C163.67 180.045 163.31 180.08 162.884 180.08ZM161.924 177.704H163.868C163.868 177.565 163.838 177.421 163.78 177.272C163.721 177.123 163.617 176.997 163.468 176.896C163.318 176.789 163.108 176.736 162.836 176.736C162.606 176.736 162.406 176.776 162.236 176.856C162.065 176.931 161.932 177.029 161.836 177.152C161.745 177.275 161.7 177.405 161.7 177.544C161.7 177.597 161.716 177.637 161.748 177.664C161.78 177.691 161.838 177.704 161.924 177.704ZM167.192 180.08C166.686 180.08 166.291 179.995 166.008 179.824C165.731 179.653 165.536 179.421 165.424 179.128C165.318 178.835 165.264 178.504 165.264 178.136C165.264 177.763 165.318 177.429 165.424 177.136C165.536 176.843 165.731 176.611 166.008 176.44C166.291 176.264 166.686 176.176 167.192 176.176C167.406 176.176 167.595 176.197 167.76 176.24C167.926 176.277 168.07 176.331 168.192 176.4C168.315 176.464 168.416 176.541 168.496 176.632L168.512 176.624L168.496 176.472V174.96C168.496 174.789 168.478 174.669 168.44 174.6C168.408 174.525 168.374 174.485 168.336 174.48H169.312V179.52C169.312 179.691 169.328 179.813 169.36 179.888C169.398 179.963 169.435 180 169.472 180H168.496V179.752L168.52 179.6L168.496 179.592C168.416 179.683 168.315 179.765 168.192 179.84C168.07 179.915 167.926 179.973 167.76 180.016C167.595 180.059 167.406 180.08 167.192 180.08ZM167.248 179.512C167.52 179.512 167.739 179.472 167.904 179.392C168.07 179.307 168.195 179.197 168.28 179.064C168.366 178.925 168.422 178.776 168.448 178.616C168.48 178.456 168.496 178.296 168.496 178.136C168.496 177.997 168.48 177.848 168.448 177.688C168.416 177.523 168.358 177.368 168.272 177.224C168.187 177.08 168.062 176.963 167.896 176.872C167.731 176.781 167.515 176.736 167.248 176.736C166.8 176.736 166.491 176.864 166.32 177.12C166.155 177.376 166.072 177.717 166.072 178.144C166.072 178.427 166.104 178.672 166.168 178.88C166.238 179.083 166.358 179.24 166.528 179.352C166.699 179.459 166.939 179.512 167.248 179.512Z" fill="#494949"/>
<path d="M180.436 180C180.473 180 180.511 179.963 180.548 179.888C180.585 179.813 180.604 179.691 180.604 179.52V176.08C180.604 175.963 180.591 175.893 180.564 175.872C180.537 175.851 180.444 175.84 180.284 175.84H179.7C179.391 175.84 179.14 175.875 178.948 175.944C178.761 176.008 178.639 176.069 178.58 176.128L178.74 175.36V175.2H183.364V175.36L183.524 176.128C183.465 176.069 183.34 176.008 183.148 175.944C182.961 175.875 182.713 175.84 182.404 175.84H181.828C181.663 175.84 181.567 175.851 181.54 175.872C181.513 175.893 181.5 175.963 181.5 176.08V179.52C181.5 179.691 181.519 179.813 181.556 179.888C181.593 179.963 181.631 180 181.668 180H180.436ZM183.97 180C184.007 180 184.042 179.963 184.074 179.888C184.111 179.813 184.13 179.691 184.13 179.52V174.96C184.13 174.789 184.111 174.669 184.074 174.6C184.042 174.525 184.007 174.485 183.97 174.48H184.946V176.664L184.93 176.768L184.946 176.784C185.026 176.683 185.127 176.587 185.25 176.496C185.378 176.405 185.535 176.331 185.722 176.272C185.908 176.208 186.127 176.176 186.378 176.176C186.874 176.176 187.252 176.317 187.514 176.6C187.78 176.883 187.914 177.325 187.914 177.928V179.52C187.914 179.691 187.93 179.813 187.962 179.888C187.999 179.963 188.036 180 188.074 180H186.938C186.975 180 187.01 179.963 187.042 179.888C187.079 179.813 187.098 179.691 187.098 179.52V177.952C187.098 177.637 187.058 177.392 186.978 177.216C186.898 177.04 186.786 176.917 186.642 176.848C186.503 176.773 186.34 176.736 186.154 176.736C185.956 176.736 185.764 176.779 185.578 176.864C185.391 176.949 185.239 177.085 185.122 177.272C185.004 177.459 184.946 177.709 184.946 178.024V179.52C184.946 179.691 184.962 179.813 184.994 179.888C185.031 179.963 185.068 180 185.106 180H183.97ZM190.455 180.08C190.145 180.08 189.873 180.027 189.639 179.92C189.409 179.808 189.231 179.619 189.103 179.352C188.98 179.08 188.919 178.704 188.919 178.224V176.736C188.919 176.565 188.9 176.443 188.863 176.368C188.831 176.293 188.796 176.256 188.759 176.256H189.903C189.865 176.256 189.825 176.293 189.783 176.368C189.745 176.443 189.727 176.565 189.727 176.736V178.336C189.727 178.789 189.807 179.099 189.967 179.264C190.127 179.429 190.337 179.512 190.599 179.512C190.86 179.512 191.087 179.448 191.279 179.32C191.471 179.192 191.62 179.016 191.727 178.792C191.839 178.568 191.895 178.315 191.895 178.032V176.736C191.895 176.565 191.876 176.445 191.839 176.376C191.807 176.301 191.772 176.261 191.735 176.256H192.711V179.52C192.711 179.691 192.727 179.813 192.759 179.888C192.796 179.963 192.833 180 192.871 180H191.895V179.52L191.911 179.36L191.895 179.344C191.863 179.408 191.809 179.483 191.735 179.568C191.66 179.648 191.561 179.728 191.439 179.808C191.321 179.888 191.18 179.952 191.015 180C190.849 180.053 190.663 180.08 190.455 180.08ZM193.556 180C193.593 180 193.628 179.963 193.66 179.888C193.697 179.813 193.715 179.691 193.715 179.52V176.816C193.715 176.645 193.697 176.525 193.66 176.456C193.628 176.381 193.593 176.341 193.556 176.336C193.79 176.336 193.993 176.32 194.164 176.288C194.34 176.251 194.462 176.213 194.532 176.176V176.576L194.516 176.712L194.532 176.728C194.612 176.621 194.708 176.528 194.82 176.448C194.937 176.363 195.07 176.296 195.22 176.248C195.369 176.2 195.54 176.176 195.732 176.176C195.982 176.176 196.198 176.213 196.38 176.288C196.566 176.357 196.7 176.429 196.78 176.504L196.62 177.176V177.416C196.55 177.331 196.449 177.243 196.316 177.152C196.188 177.056 196.041 176.976 195.876 176.912C195.71 176.848 195.534 176.816 195.348 176.816C195.134 176.816 194.945 176.901 194.78 177.072C194.614 177.243 194.532 177.525 194.532 177.92V179.52C194.532 179.691 194.548 179.813 194.58 179.888C194.617 179.963 194.654 180 194.692 180H193.556ZM199.378 180.08C198.876 180.08 198.455 180.053 198.113 180C197.778 179.947 197.548 179.893 197.426 179.84V179.68L197.258 178.992C197.396 179.104 197.639 179.221 197.986 179.344C198.338 179.461 198.764 179.52 199.266 179.52C199.596 179.52 199.844 179.499 200.01 179.456C200.175 179.408 200.284 179.347 200.338 179.272C200.391 179.192 200.418 179.104 200.418 179.008C200.418 178.896 200.378 178.808 200.298 178.744C200.223 178.675 200.079 178.619 199.866 178.576C199.658 178.528 199.348 178.48 198.938 178.432C198.49 178.379 198.143 178.301 197.898 178.2C197.658 178.099 197.492 177.971 197.402 177.816C197.311 177.656 197.266 177.467 197.266 177.248C197.266 177.077 197.311 176.909 197.402 176.744C197.492 176.579 197.66 176.443 197.906 176.336C198.156 176.229 198.511 176.176 198.97 176.176C199.466 176.176 199.882 176.203 200.218 176.256C200.559 176.309 200.791 176.363 200.914 176.416V176.576L201.074 177.184C200.94 177.088 200.698 176.989 200.346 176.888C199.994 176.787 199.57 176.736 199.074 176.736C198.679 176.736 198.415 176.781 198.282 176.872C198.148 176.957 198.082 177.069 198.082 177.208C198.082 177.288 198.098 177.36 198.13 177.424C198.162 177.483 198.226 177.536 198.322 177.584C198.423 177.632 198.572 177.675 198.77 177.712C198.972 177.749 199.242 177.787 199.578 177.824C200.031 177.872 200.375 177.947 200.61 178.048C200.844 178.149 201.004 178.277 201.09 178.432C201.18 178.581 201.226 178.757 201.226 178.96C201.226 179.179 201.164 179.373 201.042 179.544C200.924 179.709 200.73 179.84 200.458 179.936C200.186 180.032 199.826 180.08 199.378 180.08Z" fill="#494949"/>
<path d="M212.98 180C213.017 180 213.055 179.963 213.092 179.888C213.129 179.813 213.148 179.691 213.148 179.52V175.68C213.148 175.509 213.129 175.389 213.092 175.32C213.055 175.245 213.017 175.205 212.98 175.2H217.484V175.36L217.644 176.128C217.511 176.069 217.276 176.008 216.94 175.944C216.604 175.875 216.199 175.84 215.724 175.84H214.372C214.212 175.84 214.116 175.853 214.084 175.88C214.057 175.901 214.044 175.968 214.044 176.08V176.992C214.044 177.109 214.057 177.179 214.084 177.2C214.116 177.221 214.209 177.232 214.364 177.232H215.684C215.993 177.232 216.241 177.216 216.428 177.184C216.62 177.147 216.745 177.109 216.804 177.072C216.783 177.141 216.759 177.224 216.732 177.32C216.705 177.416 216.684 177.512 216.668 177.608C216.652 177.704 216.644 177.792 216.644 177.872H214.364C214.209 177.872 214.116 177.883 214.084 177.904C214.057 177.92 214.044 177.989 214.044 178.112V179.52C214.044 179.696 214.063 179.821 214.1 179.896C214.137 179.965 214.175 180 214.212 180H212.98ZM218.173 180C218.21 180 218.245 179.963 218.277 179.888C218.314 179.813 218.333 179.691 218.333 179.52V176.816C218.333 176.645 218.314 176.525 218.277 176.456C218.245 176.381 218.21 176.341 218.173 176.336C218.407 176.336 218.61 176.32 218.781 176.288C218.957 176.251 219.079 176.213 219.149 176.176V176.576L219.133 176.712L219.149 176.728C219.229 176.621 219.325 176.528 219.437 176.448C219.554 176.363 219.687 176.296 219.837 176.248C219.986 176.2 220.157 176.176 220.349 176.176C220.599 176.176 220.815 176.213 220.997 176.288C221.183 176.357 221.317 176.429 221.397 176.504L221.237 177.176V177.416C221.167 177.331 221.066 177.243 220.933 177.152C220.805 177.056 220.658 176.976 220.493 176.912C220.327 176.848 220.151 176.816 219.965 176.816C219.751 176.816 219.562 176.901 219.397 177.072C219.231 177.243 219.149 177.525 219.149 177.92V179.52C219.149 179.691 219.165 179.813 219.197 179.888C219.234 179.963 219.271 180 219.309 180H218.173ZM221.923 180C221.96 180 221.995 179.963 222.027 179.888C222.064 179.813 222.083 179.691 222.083 179.52V176.736C222.083 176.565 222.064 176.445 222.027 176.376C221.995 176.301 221.96 176.261 221.923 176.256H222.899V179.52C222.899 179.691 222.915 179.813 222.947 179.888C222.984 179.963 223.021 180 223.059 180H221.923ZM222.411 175.488C222.256 175.488 222.136 175.445 222.051 175.36C221.965 175.269 221.923 175.165 221.923 175.048C221.923 174.925 221.963 174.821 222.043 174.736C222.128 174.651 222.251 174.608 222.411 174.608C222.571 174.608 222.691 174.651 222.771 174.736C222.856 174.821 222.899 174.925 222.899 175.048C222.899 175.165 222.856 175.269 222.771 175.36C222.685 175.445 222.565 175.488 222.411 175.488Z" fill="#494949"/>
<path d="M241.492 180.08C240.911 180.08 240.396 180.053 239.948 180C239.5 179.947 239.177 179.893 238.98 179.84V179.68L238.82 178.824C238.895 178.909 239.036 179 239.244 179.096C239.457 179.192 239.74 179.275 240.092 179.344C240.444 179.408 240.863 179.44 241.348 179.44C241.785 179.44 242.116 179.411 242.34 179.352C242.569 179.288 242.724 179.203 242.804 179.096C242.889 178.984 242.932 178.856 242.932 178.712C242.932 178.541 242.863 178.405 242.724 178.304C242.585 178.203 242.377 178.123 242.1 178.064C241.828 178 241.489 177.944 241.084 177.896C240.556 177.827 240.132 177.736 239.812 177.624C239.492 177.507 239.26 177.352 239.116 177.16C238.972 176.968 238.9 176.725 238.9 176.432C238.9 176.181 238.975 175.957 239.124 175.76C239.279 175.563 239.511 175.408 239.82 175.296C240.129 175.179 240.524 175.12 241.004 175.12C241.559 175.12 242.041 175.147 242.452 175.2C242.863 175.253 243.153 175.307 243.324 175.36V175.52L243.564 176.24C243.452 176.171 243.279 176.099 243.044 176.024C242.815 175.949 242.537 175.888 242.212 175.84C241.887 175.787 241.524 175.76 241.124 175.76C240.793 175.76 240.529 175.784 240.332 175.832C240.14 175.88 240.001 175.952 239.916 176.048C239.836 176.139 239.796 176.251 239.796 176.384C239.796 176.56 239.86 176.701 239.988 176.808C240.121 176.915 240.313 176.997 240.564 177.056C240.82 177.115 241.129 177.165 241.492 177.208C242.068 177.272 242.527 177.363 242.868 177.48C243.209 177.597 243.455 177.755 243.604 177.952C243.753 178.149 243.828 178.405 243.828 178.72C243.828 178.928 243.777 179.117 243.676 179.288C243.58 179.453 243.433 179.597 243.236 179.72C243.039 179.837 242.793 179.928 242.5 179.992C242.212 180.051 241.876 180.08 241.492 180.08ZM246.044 180.08C245.463 180.08 245.055 179.976 244.82 179.768C244.586 179.555 244.468 179.269 244.468 178.912C244.468 178.661 244.53 178.448 244.652 178.272C244.78 178.091 244.97 177.952 245.22 177.856C245.476 177.76 245.799 177.712 246.188 177.712C246.466 177.712 246.706 177.733 246.908 177.776C247.116 177.813 247.284 177.859 247.412 177.912C247.546 177.965 247.639 178.011 247.692 178.048C247.692 177.733 247.652 177.48 247.572 177.288C247.498 177.096 247.375 176.957 247.204 176.872C247.034 176.781 246.802 176.736 246.508 176.736C246.194 176.736 245.911 176.773 245.66 176.848C245.415 176.917 245.218 176.995 245.068 177.08C244.919 177.16 244.826 177.219 244.788 177.256V177.096L244.708 176.496C244.756 176.475 244.86 176.44 245.02 176.392C245.18 176.339 245.391 176.291 245.652 176.248C245.914 176.2 246.22 176.176 246.572 176.176C247.02 176.176 247.386 176.24 247.668 176.368C247.956 176.491 248.167 176.683 248.3 176.944C248.439 177.2 248.508 177.525 248.508 177.92V179.52C248.508 179.669 248.524 179.779 248.556 179.848C248.594 179.912 248.631 179.963 248.668 180H247.692V179.76L247.708 179.608L247.692 179.6C247.607 179.68 247.506 179.749 247.388 179.808C247.271 179.867 247.143 179.917 247.004 179.96C246.866 179.997 246.714 180.027 246.548 180.048C246.388 180.069 246.22 180.08 246.044 180.08ZM246.308 179.512C246.596 179.512 246.844 179.483 247.052 179.424C247.26 179.365 247.418 179.288 247.524 179.192C247.636 179.091 247.692 178.976 247.692 178.848C247.692 178.688 247.586 178.552 247.372 178.44C247.164 178.328 246.839 178.272 246.396 178.272C245.986 178.272 245.695 178.325 245.524 178.432C245.359 178.539 245.276 178.699 245.276 178.912C245.276 179.12 245.356 179.272 245.516 179.368C245.682 179.464 245.946 179.512 246.308 179.512ZM250.92 180.08C250.552 180.08 250.286 180.003 250.12 179.848C249.955 179.688 249.872 179.429 249.872 179.072V176.816H249.152V176.256C249.398 176.256 249.59 176.227 249.728 176.168C249.867 176.104 249.966 175.995 250.024 175.84C250.083 175.685 250.112 175.469 250.112 175.192H250.688V176.256H252.216C252.179 176.309 252.142 176.389 252.104 176.496C252.072 176.597 252.056 176.704 252.056 176.816H250.688V178.952C250.688 179.197 250.734 179.352 250.824 179.416C250.915 179.48 251.03 179.512 251.168 179.512C251.302 179.512 251.424 179.485 251.536 179.432C251.654 179.373 251.755 179.304 251.84 179.224C251.931 179.144 252 179.067 252.048 178.992V179.24L252.128 179.696C252.075 179.749 251.992 179.808 251.88 179.872C251.768 179.931 251.632 179.979 251.472 180.016C251.312 180.059 251.128 180.08 250.92 180.08Z" fill="#494949"/>
<path d="M268.492 180.08C267.911 180.08 267.396 180.053 266.948 180C266.5 179.947 266.177 179.893 265.98 179.84V179.68L265.82 178.824C265.895 178.909 266.036 179 266.244 179.096C266.457 179.192 266.74 179.275 267.092 179.344C267.444 179.408 267.863 179.44 268.348 179.44C268.785 179.44 269.116 179.411 269.34 179.352C269.569 179.288 269.724 179.203 269.804 179.096C269.889 178.984 269.932 178.856 269.932 178.712C269.932 178.541 269.863 178.405 269.724 178.304C269.585 178.203 269.377 178.123 269.1 178.064C268.828 178 268.489 177.944 268.084 177.896C267.556 177.827 267.132 177.736 266.812 177.624C266.492 177.507 266.26 177.352 266.116 177.16C265.972 176.968 265.9 176.725 265.9 176.432C265.9 176.181 265.975 175.957 266.124 175.76C266.279 175.563 266.511 175.408 266.82 175.296C267.129 175.179 267.524 175.12 268.004 175.12C268.559 175.12 269.041 175.147 269.452 175.2C269.863 175.253 270.153 175.307 270.324 175.36V175.52L270.564 176.24C270.452 176.171 270.279 176.099 270.044 176.024C269.815 175.949 269.537 175.888 269.212 175.84C268.887 175.787 268.524 175.76 268.124 175.76C267.793 175.76 267.529 175.784 267.332 175.832C267.14 175.88 267.001 175.952 266.916 176.048C266.836 176.139 266.796 176.251 266.796 176.384C266.796 176.56 266.86 176.701 266.988 176.808C267.121 176.915 267.313 176.997 267.564 177.056C267.82 177.115 268.129 177.165 268.492 177.208C269.068 177.272 269.527 177.363 269.868 177.48C270.209 177.597 270.455 177.755 270.604 177.952C270.753 178.149 270.828 178.405 270.828 178.72C270.828 178.928 270.777 179.117 270.676 179.288C270.58 179.453 270.433 179.597 270.236 179.72C270.039 179.837 269.793 179.928 269.5 179.992C269.212 180.051 268.876 180.08 268.492 180.08ZM273.212 180.08C272.903 180.08 272.631 180.027 272.396 179.92C272.167 179.808 271.988 179.619 271.86 179.352C271.738 179.08 271.676 178.704 271.676 178.224V176.736C271.676 176.565 271.658 176.443 271.62 176.368C271.588 176.293 271.554 176.256 271.516 176.256H272.66C272.623 176.256 272.583 176.293 272.54 176.368C272.503 176.443 272.484 176.565 272.484 176.736V178.336C272.484 178.789 272.564 179.099 272.724 179.264C272.884 179.429 273.095 179.512 273.356 179.512C273.618 179.512 273.844 179.448 274.036 179.32C274.228 179.192 274.378 179.016 274.484 178.792C274.596 178.568 274.652 178.315 274.652 178.032V176.736C274.652 176.565 274.634 176.445 274.596 176.376C274.564 176.301 274.53 176.261 274.492 176.256H275.468V179.52C275.468 179.691 275.484 179.813 275.516 179.888C275.554 179.963 275.591 180 275.628 180H274.652V179.52L274.668 179.36L274.652 179.344C274.62 179.408 274.567 179.483 274.492 179.568C274.418 179.648 274.319 179.728 274.196 179.808C274.079 179.888 273.938 179.952 273.772 180C273.607 180.053 273.42 180.08 273.212 180.08ZM276.313 180C276.351 180 276.385 179.963 276.417 179.888C276.455 179.813 276.473 179.691 276.473 179.52V176.816C276.473 176.645 276.455 176.525 276.417 176.456C276.385 176.381 276.351 176.341 276.313 176.336C276.548 176.336 276.751 176.32 276.921 176.288C277.097 176.251 277.22 176.213 277.289 176.176V176.664L277.273 176.768L277.289 176.784C277.369 176.683 277.471 176.587 277.593 176.496C277.721 176.405 277.879 176.331 278.065 176.272C278.252 176.208 278.471 176.176 278.721 176.176C279.217 176.176 279.596 176.317 279.857 176.6C280.124 176.883 280.257 177.325 280.257 177.928V179.52C280.257 179.691 280.273 179.813 280.305 179.888C280.343 179.963 280.38 180 280.417 180H279.281C279.319 180 279.353 179.963 279.385 179.888C279.423 179.813 279.441 179.691 279.441 179.52V177.952C279.441 177.637 279.401 177.392 279.321 177.216C279.241 177.04 279.129 176.917 278.985 176.848C278.847 176.773 278.684 176.736 278.497 176.736C278.3 176.736 278.108 176.779 277.921 176.864C277.735 176.949 277.583 177.085 277.465 177.272C277.348 177.459 277.289 177.709 277.289 178.024V179.52C277.289 179.691 277.305 179.813 277.337 179.888C277.375 179.963 277.412 180 277.449 180H276.313Z" fill="#494949"/>
<g filter="url(#filter0_d_800_5455)">
<rect x="101.5" y="48" width="74" height="26" rx="5" fill="#8B4CFC"/>
<path d="M112.128 65V59.3066H112.099L110.302 60.5469V59.2188L112.123 57.9541H113.588V65H112.128ZM115.087 60.0732C115.087 59.4059 115.328 58.8607 115.81 58.4375C116.295 58.0111 116.921 57.7979 117.689 57.7979C118.428 57.7979 119.031 57.9899 119.496 58.374C119.962 58.7549 120.194 59.2415 120.194 59.834C120.194 60.0456 120.162 60.2507 120.097 60.4492C120.035 60.6445 119.934 60.8415 119.794 61.04C119.657 61.2354 119.519 61.4128 119.379 61.5723C119.239 61.7285 119.057 61.9189 118.832 62.1436L117.113 63.7988V63.8281H120.292V65H115.17V64.0088L117.826 61.4502C118.184 61.0921 118.428 60.804 118.559 60.5859C118.692 60.3678 118.759 60.1367 118.759 59.8926C118.759 59.6257 118.653 59.401 118.441 59.2188C118.23 59.0365 117.963 58.9453 117.641 58.9453C117.299 58.9453 117.016 59.0527 116.791 59.2676C116.566 59.4792 116.454 59.7477 116.454 60.0732V60.0977H115.087V60.0732ZM126.02 64.165C125.515 64.8258 124.82 65.1562 123.935 65.1562C123.049 65.1562 122.353 64.8275 121.845 64.1699C121.337 63.5091 121.083 62.6074 121.083 61.4648C121.083 60.3288 121.337 59.4336 121.845 58.7793C122.356 58.1217 123.052 57.793 123.935 57.793C124.817 57.793 125.512 58.1201 126.02 58.7744C126.527 59.4287 126.781 60.3239 126.781 61.46C126.781 62.5993 126.527 63.501 126.02 64.165ZM122.938 63.3154C123.179 63.7549 123.511 63.9746 123.935 63.9746C124.358 63.9746 124.688 63.7565 124.926 63.3203C125.163 62.8809 125.282 62.2624 125.282 61.4648C125.282 60.6738 125.162 60.0618 124.921 59.6289C124.683 59.1927 124.354 58.9746 123.935 58.9746C123.515 58.9746 123.184 59.1927 122.943 59.6289C122.702 60.0651 122.582 60.6771 122.582 61.4648C122.582 62.2591 122.701 62.876 122.938 63.3154ZM129.638 65V59.7656H131.015V60.7129H131.044C131.155 60.3939 131.343 60.14 131.61 59.9512C131.877 59.7624 132.187 59.668 132.538 59.668C132.916 59.668 133.231 59.7624 133.485 59.9512C133.739 60.1367 133.91 60.4004 133.998 60.7422H134.027C134.145 60.4134 134.348 60.153 134.638 59.9609C134.931 59.7656 135.269 59.668 135.653 59.668C136.168 59.668 136.581 59.8291 136.894 60.1514C137.209 60.4736 137.367 60.8984 137.367 61.4258V65H135.941V61.7822C135.941 61.4795 135.868 61.2484 135.722 61.0889C135.575 60.9261 135.364 60.8447 135.087 60.8447C134.817 60.8447 134.599 60.9342 134.433 61.1133C134.27 61.2923 134.188 61.5283 134.188 61.8213V65H132.816V61.7383C132.816 61.4583 132.742 61.2402 132.592 61.084C132.442 60.9245 132.235 60.8447 131.972 60.8447C131.701 60.8447 131.482 60.9375 131.312 61.123C131.146 61.3086 131.063 61.5479 131.063 61.8408V65H129.638ZM140.619 60.708C140.31 60.708 140.051 60.8138 139.843 61.0254C139.638 61.237 139.522 61.5072 139.496 61.8359H141.718C141.701 61.5007 141.592 61.2288 141.391 61.0205C141.192 60.8122 140.935 60.708 140.619 60.708ZM141.737 63.3984H143.046C142.968 63.9128 142.711 64.3278 142.274 64.6436C141.841 64.9561 141.303 65.1123 140.658 65.1123C139.854 65.1123 139.223 64.8714 138.764 64.3896C138.308 63.9079 138.08 63.2471 138.08 62.4072C138.08 61.5706 138.308 60.9033 138.764 60.4053C139.219 59.904 139.833 59.6533 140.604 59.6533C141.363 59.6533 141.967 59.891 142.416 60.3662C142.865 60.8415 143.09 61.4779 143.09 62.2754V62.71H139.481V62.7979C139.481 63.1722 139.59 63.4766 139.809 63.7109C140.03 63.9421 140.321 64.0576 140.683 64.0576C140.943 64.0576 141.168 63.999 141.356 63.8818C141.545 63.7614 141.672 63.6003 141.737 63.3984ZM143.827 65V59.7656H145.204V60.6982H145.233C145.377 60.3662 145.585 60.1123 145.858 59.9365C146.135 59.7575 146.472 59.668 146.869 59.668C147.449 59.668 147.896 59.8405 148.212 60.1855C148.528 60.5306 148.686 61.0107 148.686 61.626V65H147.26V61.9238C147.26 61.5788 147.178 61.3135 147.016 61.1279C146.853 60.9424 146.614 60.8496 146.298 60.8496C145.982 60.8496 145.728 60.9554 145.536 61.167C145.347 61.3786 145.253 61.6553 145.253 61.9971V65H143.827ZM149.97 58.5596H151.396V59.7656H152.362V60.8398H151.396V63.3447C151.396 63.7386 151.601 63.9355 152.011 63.9355C152.144 63.9355 152.26 63.9274 152.357 63.9111V64.9609C152.191 65 151.965 65.0195 151.679 65.0195C151.063 65.0195 150.624 64.9089 150.36 64.6875C150.1 64.4661 149.97 64.0999 149.97 63.5889V60.8398H149.232V59.7656H149.97V58.5596ZM157.362 64.3896C156.897 64.8714 156.265 65.1123 155.468 65.1123C154.67 65.1123 154.039 64.8698 153.573 64.3848C153.108 63.8997 152.875 63.2308 152.875 62.3779C152.875 61.5348 153.109 60.8708 153.578 60.3857C154.05 59.8975 154.68 59.6533 155.468 59.6533C156.259 59.6533 156.889 59.8975 157.357 60.3857C157.826 60.8708 158.061 61.5348 158.061 62.3779C158.061 63.234 157.828 63.9046 157.362 64.3896ZM155.468 64.0234C155.819 64.0234 156.098 63.8802 156.303 63.5938C156.508 63.3073 156.61 62.9036 156.61 62.3828C156.61 61.8685 156.508 61.4665 156.303 61.1768C156.098 60.887 155.819 60.7422 155.468 60.7422C155.116 60.7422 154.836 60.887 154.628 61.1768C154.423 61.4665 154.32 61.8685 154.32 62.3828C154.32 62.9036 154.423 63.3073 154.628 63.5938C154.833 63.8802 155.113 64.0234 155.468 64.0234ZM158.798 65V59.7656H160.175V60.708H160.204C160.295 60.376 160.448 60.1221 160.663 59.9463C160.878 59.7705 161.14 59.6826 161.449 59.6826C161.599 59.6826 161.734 59.7005 161.854 59.7363V60.9912C161.721 60.9359 161.549 60.9082 161.337 60.9082C160.985 60.9082 160.712 61.0107 160.517 61.2158C160.321 61.4209 160.224 61.7074 160.224 62.0752V65H158.798ZM162.353 61.3037C162.353 60.8057 162.553 60.4069 162.953 60.1074C163.354 59.8047 163.889 59.6533 164.56 59.6533C165.214 59.6533 165.74 59.8063 166.137 60.1123C166.534 60.4183 166.737 60.8252 166.747 61.333H165.434C165.417 61.1214 165.329 60.9554 165.17 60.835C165.014 60.7145 164.804 60.6543 164.54 60.6543C164.293 60.6543 164.094 60.7064 163.944 60.8105C163.798 60.9115 163.725 61.0465 163.725 61.2158C163.725 61.4697 163.952 61.6504 164.408 61.7578L165.409 61.9727C165.933 62.0898 166.309 62.2607 166.537 62.4854C166.768 62.7067 166.884 63.0127 166.884 63.4033C166.884 63.9176 166.669 64.3311 166.239 64.6436C165.81 64.9561 165.248 65.1123 164.555 65.1123C163.865 65.1123 163.313 64.9593 162.899 64.6533C162.486 64.3473 162.26 63.9355 162.221 63.418H163.612C163.648 63.6393 163.749 63.8102 163.915 63.9307C164.084 64.0511 164.311 64.1113 164.594 64.1113C164.864 64.1113 165.076 64.0625 165.229 63.9648C165.385 63.8639 165.463 63.7272 165.463 63.5547C165.463 63.4212 165.414 63.3154 165.316 63.2373C165.219 63.1559 165.053 63.0876 164.818 63.0322L163.852 62.8174C162.852 62.5895 162.353 62.085 162.353 61.3037Z" fill="white"/>
<path fill-rule="evenodd" clip-rule="evenodd" d="M143.5 74H133.5L138.5 79L143.5 74Z" fill="#8B4CFC"/>
</g>
<path d="M21.22 34C21.276 34 21.332 33.944 21.388 33.832C21.444 33.72 21.472 33.536 21.472 33.28V27.52C21.472 27.264 21.444 27.084 21.388 26.98C21.332 26.868 21.276 26.808 21.22 26.8H23.44C23.424 26.8 23.432 26.856 23.464 26.968C23.496 27.08 23.572 27.272 23.692 27.544C23.74 27.648 23.824 27.832 23.944 28.096C24.072 28.36 24.224 28.676 24.4 29.044C24.576 29.404 24.764 29.792 24.964 30.208C25.164 30.624 25.368 31.048 25.576 31.48C25.784 31.904 25.98 32.304 26.164 32.68H26.176C26.368 32.296 26.568 31.892 26.776 31.468C26.984 31.036 27.192 30.608 27.4 30.184C27.608 29.76 27.8 29.368 27.976 29.008C28.152 28.64 28.3 28.328 28.42 28.072C28.548 27.808 28.636 27.624 28.684 27.52C28.796 27.264 28.868 27.08 28.9 26.968C28.94 26.856 28.952 26.8 28.936 26.8H31.144C31.088 26.8 31.032 26.856 30.976 26.968C30.92 27.08 30.892 27.268 30.892 27.532V33.28C30.892 33.536 30.92 33.72 30.976 33.832C31.032 33.944 31.088 34 31.144 34H29.308C29.364 34 29.416 33.944 29.464 33.832C29.52 33.72 29.548 33.536 29.548 33.28V28.312H29.524C29.356 28.648 29.176 29.008 28.984 29.392C28.8 29.776 28.612 30.164 28.42 30.556C28.228 30.94 28.048 31.312 27.88 31.672C27.712 32.024 27.56 32.34 27.424 32.62C27.296 32.9 27.196 33.12 27.124 33.28C27.012 33.528 26.952 33.708 26.944 33.82C26.944 33.932 26.964 33.992 27.004 34H25.324C25.364 34 25.384 33.948 25.384 33.844C25.384 33.732 25.324 33.544 25.204 33.28C25.148 33.144 25.056 32.944 24.928 32.68C24.8 32.416 24.652 32.108 24.484 31.756C24.324 31.396 24.148 31.02 23.956 30.628C23.764 30.228 23.572 29.828 23.38 29.428C23.196 29.028 23.02 28.656 22.852 28.312H22.816V33.28C22.816 33.536 22.844 33.72 22.9 33.832C22.956 33.944 23.012 34 23.068 34H21.22ZM35.4312 34.12C34.7992 34.12 34.2792 34.048 33.8712 33.904C33.4632 33.752 33.1432 33.544 32.9112 33.28C32.6792 33.016 32.5152 32.708 32.4192 32.356C32.3312 32.004 32.2872 31.62 32.2872 31.204C32.2872 30.3 32.5432 29.584 33.0552 29.056C33.5752 28.528 34.3432 28.264 35.3592 28.264C35.9512 28.264 36.4272 28.344 36.7872 28.504C37.1552 28.664 37.4312 28.876 37.6152 29.14C37.8072 29.404 37.9352 29.692 37.9992 30.004C38.0712 30.308 38.1072 30.608 38.1072 30.904V31.468C38.1072 31.444 37.9952 31.42 37.7712 31.396C37.5552 31.364 37.1872 31.348 36.6672 31.348H33.5112C33.5112 31.94 33.6872 32.408 34.0392 32.752C34.3912 33.096 34.9152 33.268 35.6112 33.268C36.2112 33.268 36.7032 33.196 37.0872 33.052C37.4792 32.9 37.7392 32.752 37.8672 32.608V32.848L37.9872 33.64C37.8112 33.744 37.4992 33.852 37.0512 33.964C36.6112 34.068 36.0712 34.12 35.4312 34.12ZM33.9912 30.556H36.9072C36.9072 30.348 36.8632 30.132 36.7752 29.908C36.6872 29.684 36.5312 29.496 36.3072 29.344C36.0832 29.184 35.7672 29.104 35.3592 29.104C35.0152 29.104 34.7152 29.164 34.4592 29.284C34.2032 29.396 34.0032 29.544 33.8592 29.728C33.7232 29.912 33.6552 30.108 33.6552 30.316C33.6552 30.396 33.6792 30.456 33.7272 30.496C33.7752 30.536 33.8632 30.556 33.9912 30.556ZM39.134 34C39.19 34 39.242 33.944 39.29 33.832C39.346 33.72 39.374 33.536 39.374 33.28V29.224C39.374 28.968 39.346 28.788 39.29 28.684C39.242 28.572 39.19 28.512 39.134 28.504C39.486 28.504 39.79 28.48 40.046 28.432C40.31 28.376 40.494 28.32 40.598 28.264V28.996L40.574 29.152L40.598 29.176C40.718 29.024 40.87 28.88 41.054 28.744C41.246 28.608 41.482 28.496 41.762 28.408C42.042 28.312 42.37 28.264 42.746 28.264C43.49 28.264 44.058 28.476 44.45 28.9C44.85 29.324 45.05 29.988 45.05 30.892V33.28C45.05 33.536 45.074 33.72 45.122 33.832C45.178 33.944 45.234 34 45.29 34H43.586C43.642 34 43.694 33.944 43.742 33.832C43.798 33.72 43.826 33.536 43.826 33.28V30.928C43.826 30.456 43.766 30.088 43.646 29.824C43.526 29.56 43.358 29.376 43.142 29.272C42.934 29.16 42.69 29.104 42.41 29.104C42.114 29.104 41.826 29.168 41.546 29.296C41.266 29.424 41.038 29.628 40.862 29.908C40.686 30.188 40.598 30.564 40.598 31.036V33.28C40.598 33.536 40.622 33.72 40.67 33.832C40.726 33.944 40.782 34 40.838 34H39.134ZM48.6576 34.12C48.1056 34.12 47.7056 34.004 47.4576 33.772C47.2096 33.532 47.0856 33.144 47.0856 32.608V29.224H46.0056V28.384C46.3736 28.384 46.6616 28.34 46.8696 28.252C47.0776 28.156 47.2256 27.992 47.3136 27.76C47.4016 27.528 47.4456 27.204 47.4456 26.788H48.3096V28.384H50.6016C50.5456 28.464 50.4896 28.584 50.4336 28.744C50.3856 28.896 50.3616 29.056 50.3616 29.224H48.3096V32.428C48.3096 32.796 48.3776 33.028 48.5136 33.124C48.6496 33.22 48.8216 33.268 49.0296 33.268C49.2296 33.268 49.4136 33.228 49.5816 33.148C49.7576 33.06 49.9096 32.956 50.0376 32.836C50.1736 32.716 50.2776 32.6 50.3496 32.488V32.86L50.4696 33.544C50.3896 33.624 50.2656 33.712 50.0976 33.808C49.9296 33.896 49.7256 33.968 49.4856 34.024C49.2456 34.088 48.9696 34.12 48.6576 34.12ZM54.2387 34.12C53.4387 34.12 52.8107 33.992 52.3547 33.736C51.9067 33.48 51.5907 33.132 51.4067 32.692C51.2307 32.252 51.1427 31.756 51.1427 31.204C51.1427 30.644 51.2347 30.144 51.4187 29.704C51.6107 29.264 51.9307 28.916 52.3787 28.66C52.8267 28.396 53.4467 28.264 54.2387 28.264C55.0307 28.264 55.6507 28.396 56.0987 28.66C56.5467 28.916 56.8627 29.264 57.0467 29.704C57.2387 30.144 57.3347 30.644 57.3347 31.204C57.3347 31.756 57.2427 32.252 57.0587 32.692C56.8827 33.132 56.5707 33.48 56.1227 33.736C55.6747 33.992 55.0467 34.12 54.2387 34.12ZM54.2387 33.268C54.7347 33.268 55.1187 33.188 55.3907 33.028C55.6627 32.868 55.8507 32.636 55.9547 32.332C56.0587 32.02 56.1107 31.644 56.1107 31.204C56.1107 30.764 56.0547 30.388 55.9427 30.076C55.8387 29.764 55.6507 29.524 55.3787 29.356C55.1147 29.188 54.7347 29.104 54.2387 29.104C53.7507 29.104 53.3707 29.192 53.0987 29.368C52.8267 29.536 52.6347 29.78 52.5227 30.1C52.4187 30.412 52.3667 30.784 52.3667 31.216C52.3667 31.64 52.4187 32.008 52.5227 32.32C52.6267 32.624 52.8147 32.86 53.0867 33.028C53.3587 33.188 53.7427 33.268 54.2387 33.268ZM58.3059 34C58.3619 34 58.4139 33.944 58.4619 33.832C58.5179 33.72 58.5459 33.536 58.5459 33.28V29.224C58.5459 28.968 58.5179 28.788 58.4619 28.684C58.4139 28.572 58.3619 28.512 58.3059 28.504C58.6579 28.504 58.9619 28.48 59.2179 28.432C59.4819 28.376 59.6659 28.32 59.7699 28.264V28.864L59.7459 29.068L59.7699 29.092C59.8899 28.932 60.0339 28.792 60.2019 28.672C60.3779 28.544 60.5779 28.444 60.8019 28.372C61.0259 28.3 61.2819 28.264 61.5699 28.264C61.9459 28.264 62.2699 28.32 62.5419 28.432C62.8219 28.536 63.0219 28.644 63.1419 28.756L62.9019 29.764V30.124C62.7979 29.996 62.6459 29.864 62.4459 29.728C62.2539 29.584 62.0339 29.464 61.7859 29.368C61.5379 29.272 61.2739 29.224 60.9939 29.224C60.6739 29.224 60.3899 29.352 60.1419 29.608C59.8939 29.864 59.7699 30.288 59.7699 30.88V33.28C59.7699 33.536 59.7939 33.72 59.8419 33.832C59.8979 33.944 59.9539 34 60.0099 34H58.3059ZM70.7497 34.12C69.8777 34.12 69.1057 34.08 68.4337 34C67.7617 33.92 67.2777 33.84 66.9817 33.76V33.52L66.7417 32.236C66.8537 32.364 67.0657 32.5 67.3777 32.644C67.6977 32.788 68.1217 32.912 68.6497 33.016C69.1777 33.112 69.8057 33.16 70.5337 33.16C71.1897 33.16 71.6857 33.116 72.0217 33.028C72.3657 32.932 72.5977 32.804 72.7177 32.644C72.8457 32.476 72.9097 32.284 72.9097 32.068C72.9097 31.812 72.8057 31.608 72.5977 31.456C72.3897 31.304 72.0777 31.184 71.6617 31.096C71.2537 31 70.7457 30.916 70.1377 30.844C69.3457 30.74 68.7097 30.604 68.2297 30.436C67.7497 30.26 67.4017 30.028 67.1857 29.74C66.9697 29.452 66.8617 29.088 66.8617 28.648C66.8617 28.272 66.9737 27.936 67.1977 27.64C67.4297 27.344 67.7777 27.112 68.2417 26.944C68.7057 26.768 69.2977 26.68 70.0177 26.68C70.8497 26.68 71.5737 26.72 72.1897 26.8C72.8057 26.88 73.2417 26.96 73.4977 27.04V27.28L73.8577 28.36C73.6897 28.256 73.4297 28.148 73.0777 28.036C72.7337 27.924 72.3177 27.832 71.8297 27.76C71.3417 27.68 70.7977 27.64 70.1977 27.64C69.7017 27.64 69.3057 27.676 69.0097 27.748C68.7217 27.82 68.5137 27.928 68.3857 28.072C68.2657 28.208 68.2057 28.376 68.2057 28.576C68.2057 28.84 68.3017 29.052 68.4937 29.212C68.6937 29.372 68.9817 29.496 69.3577 29.584C69.7417 29.672 70.2057 29.748 70.7497 29.812C71.6137 29.908 72.3017 30.044 72.8137 30.22C73.3257 30.396 73.6937 30.632 73.9177 30.928C74.1417 31.224 74.2537 31.608 74.2537 32.08C74.2537 32.392 74.1777 32.676 74.0257 32.932C73.8817 33.18 73.6617 33.396 73.3657 33.58C73.0697 33.756 72.7017 33.892 72.2617 33.988C71.8297 34.076 71.3257 34.12 70.7497 34.12ZM77.6264 34.12C77.0744 34.12 76.6744 34.004 76.4264 33.772C76.1784 33.532 76.0544 33.144 76.0544 32.608V29.224H74.9744V28.384C75.3424 28.384 75.6304 28.34 75.8384 28.252C76.0464 28.156 76.1944 27.992 76.2824 27.76C76.3704 27.528 76.4144 27.204 76.4144 26.788H77.2784V28.384H79.5704C79.5144 28.464 79.4584 28.584 79.4024 28.744C79.3544 28.896 79.3304 29.056 79.3304 29.224H77.2784V32.428C77.2784 32.796 77.3464 33.028 77.4824 33.124C77.6184 33.22 77.7904 33.268 77.9984 33.268C78.1984 33.268 78.3824 33.228 78.5504 33.148C78.7264 33.06 78.8784 32.956 79.0064 32.836C79.1424 32.716 79.2464 32.6 79.3184 32.488V32.86L79.4384 33.544C79.3584 33.624 79.2344 33.712 79.0664 33.808C78.8984 33.896 78.6944 33.968 78.4544 34.024C78.2144 34.088 77.9384 34.12 77.6264 34.12ZM82.5354 34.12C81.6634 34.12 81.0514 33.964 80.6994 33.652C80.3474 33.332 80.1714 32.904 80.1714 32.368C80.1714 31.992 80.2634 31.672 80.4474 31.408C80.6394 31.136 80.9234 30.928 81.2994 30.784C81.6834 30.64 82.1674 30.568 82.7514 30.568C83.1674 30.568 83.5274 30.6 83.8314 30.664C84.1434 30.72 84.3954 30.788 84.5874 30.868C84.7874 30.948 84.9274 31.016 85.0074 31.072C85.0074 30.6 84.9474 30.22 84.8274 29.932C84.7154 29.644 84.5314 29.436 84.2754 29.308C84.0194 29.172 83.6714 29.104 83.2314 29.104C82.7594 29.104 82.3354 29.16 81.9594 29.272C81.5914 29.376 81.2954 29.492 81.0714 29.62C80.8474 29.74 80.7074 29.828 80.6514 29.884V29.644L80.5314 28.744C80.6034 28.712 80.7594 28.66 80.9994 28.588C81.2394 28.508 81.5554 28.436 81.9474 28.372C82.3394 28.3 82.7994 28.264 83.3274 28.264C83.9994 28.264 84.5474 28.36 84.9714 28.552C85.4034 28.736 85.7194 29.024 85.9194 29.416C86.1274 29.8 86.2314 30.288 86.2314 30.88V33.28C86.2314 33.504 86.2554 33.668 86.3034 33.772C86.3594 33.868 86.4154 33.944 86.4714 34H85.0074V33.64L85.0314 33.412L85.0074 33.4C84.8794 33.52 84.7274 33.624 84.5514 33.712C84.3754 33.8 84.1834 33.876 83.9754 33.94C83.7674 33.996 83.5394 34.04 83.2914 34.072C83.0514 34.104 82.7994 34.12 82.5354 34.12ZM82.9314 33.268C83.3634 33.268 83.7354 33.224 84.0474 33.136C84.3594 33.048 84.5954 32.932 84.7554 32.788C84.9234 32.636 85.0074 32.464 85.0074 32.272C85.0074 32.032 84.8474 31.828 84.5274 31.66C84.2154 31.492 83.7274 31.408 83.0634 31.408C82.4474 31.408 82.0114 31.488 81.7554 31.648C81.5074 31.808 81.3834 32.048 81.3834 32.368C81.3834 32.68 81.5034 32.908 81.7434 33.052C81.9914 33.196 82.3874 33.268 82.9314 33.268ZM89.849 34.12C89.297 34.12 88.897 34.004 88.649 33.772C88.401 33.532 88.277 33.144 88.277 32.608V29.224H87.197V28.384C87.565 28.384 87.853 28.34 88.061 28.252C88.269 28.156 88.417 27.992 88.505 27.76C88.593 27.528 88.637 27.204 88.637 26.788H89.501V28.384H91.793C91.737 28.464 91.681 28.584 91.625 28.744C91.577 28.896 91.553 29.056 91.553 29.224H89.501V32.428C89.501 32.796 89.569 33.028 89.705 33.124C89.841 33.22 90.013 33.268 90.221 33.268C90.421 33.268 90.605 33.228 90.773 33.148C90.949 33.06 91.101 32.956 91.229 32.836C91.365 32.716 91.469 32.6 91.541 32.488V32.86L91.661 33.544C91.581 33.624 91.457 33.712 91.289 33.808C91.121 33.896 90.917 33.968 90.677 34.024C90.437 34.088 90.161 34.12 89.849 34.12ZM95.5741 34.12C94.8221 34.12 94.1901 34.08 93.6781 34C93.1741 33.92 92.8301 33.84 92.6461 33.76V33.52L92.3941 32.488C92.6021 32.656 92.9661 32.832 93.4861 33.016C94.0141 33.192 94.6541 33.28 95.4061 33.28C95.9021 33.28 96.2741 33.248 96.5221 33.184C96.7701 33.112 96.9341 33.02 97.0141 32.908C97.0941 32.788 97.1341 32.656 97.1341 32.512C97.1341 32.344 97.0741 32.212 96.9541 32.116C96.8421 32.012 96.6261 31.928 96.3061 31.864C95.9941 31.792 95.5301 31.72 94.9141 31.648C94.2421 31.568 93.7221 31.452 93.3541 31.3C92.9941 31.148 92.7461 30.956 92.6101 30.724C92.4741 30.484 92.4061 30.2 92.4061 29.872C92.4061 29.616 92.4741 29.364 92.6101 29.116C92.7461 28.868 92.9981 28.664 93.3661 28.504C93.7421 28.344 94.2741 28.264 94.9621 28.264C95.7061 28.264 96.3301 28.304 96.8341 28.384C97.3461 28.464 97.6941 28.544 97.8781 28.624V28.864L98.1181 29.776C97.9181 29.632 97.5541 29.484 97.0261 29.332C96.4981 29.18 95.8621 29.104 95.1181 29.104C94.5261 29.104 94.1301 29.172 93.9301 29.308C93.7301 29.436 93.6301 29.604 93.6301 29.812C93.6301 29.932 93.6541 30.04 93.7021 30.136C93.7501 30.224 93.8461 30.304 93.9901 30.376C94.1421 30.448 94.3661 30.512 94.6621 30.568C94.9661 30.624 95.3701 30.68 95.8741 30.736C96.5541 30.808 97.0701 30.92 97.4221 31.072C97.7741 31.224 98.0141 31.416 98.1421 31.648C98.2781 31.872 98.3461 32.136 98.3461 32.44C98.3461 32.768 98.2541 33.06 98.0701 33.316C97.8941 33.564 97.6021 33.76 97.1941 33.904C96.7861 34.048 96.2461 34.12 95.5741 34.12Z" fill="black"/>
<path d="M270.278 35H269.277V29.8145H269.243L267.119 34.9463H266.309L264.18 29.8145H264.146V35H263.149V27.9541H264.414L266.694 33.5156H266.733L269.009 27.9541H270.278V35ZM275.43 34.3848C274.987 34.86 274.396 35.0977 273.657 35.0977C272.918 35.0977 272.327 34.86 271.885 34.3848C271.442 33.9062 271.221 33.2552 271.221 32.4316C271.221 31.6113 271.442 30.9635 271.885 30.4883C272.327 30.0098 272.918 29.7705 273.657 29.7705C274.396 29.7705 274.987 30.0098 275.43 30.4883C275.872 30.9635 276.094 31.6113 276.094 32.4316C276.094 33.2552 275.872 33.9062 275.43 34.3848ZM273.657 34.2285C274.077 34.2285 274.409 34.0706 274.653 33.7549C274.897 33.4391 275.02 32.998 275.02 32.4316C275.02 31.8685 274.896 31.429 274.648 31.1133C274.404 30.7975 274.074 30.6396 273.657 30.6396C273.241 30.6396 272.909 30.7975 272.661 31.1133C272.417 31.429 272.295 31.8685 272.295 32.4316C272.295 32.998 272.417 33.4391 272.661 33.7549C272.909 34.0706 273.241 34.2285 273.657 34.2285ZM276.909 35V29.8633H277.915V30.7227H277.939C278.083 30.4232 278.291 30.1904 278.564 30.0244C278.838 29.8584 279.168 29.7754 279.556 29.7754C280.119 29.7754 280.557 29.9447 280.869 30.2832C281.182 30.6185 281.338 31.0824 281.338 31.6748V35H280.278V31.8799C280.278 31.4893 280.186 31.193 280 30.9912C279.818 30.7861 279.546 30.6836 279.185 30.6836C278.813 30.6836 278.517 30.804 278.296 31.0449C278.075 31.2858 277.964 31.6064 277.964 32.0068V35H276.909ZM282.666 28.6475H283.726V29.8633H284.702V30.6982H283.726V33.5303C283.726 33.7516 283.776 33.9144 283.877 34.0186C283.978 34.1227 284.136 34.1748 284.351 34.1748C284.507 34.1748 284.622 34.1667 284.697 34.1504V34.9854C284.567 35.0179 284.372 35.0342 284.111 35.0342C283.594 35.0342 283.223 34.9284 282.998 34.7168C282.777 34.502 282.666 34.1455 282.666 33.6475V30.6982H281.919V29.8633H282.666V28.6475ZM285.61 35V27.9541H286.655V30.7227H286.68C286.823 30.4199 287.033 30.1872 287.31 30.0244C287.586 29.8584 287.918 29.7754 288.306 29.7754C288.866 29.7754 289.305 29.9479 289.624 30.293C289.946 30.638 290.107 31.1035 290.107 31.6895V35H289.048V31.8945C289.048 31.5104 288.952 31.2126 288.76 31.001C288.571 30.7894 288.293 30.6836 287.925 30.6836C287.537 30.6836 287.23 30.8073 287.002 31.0547C286.777 31.2988 286.665 31.6243 286.665 32.0312V35H285.61Z" fill="black"/>
<path fill-rule="evenodd" clip-rule="evenodd" d="M307.07 28.6002L303.966 31.7042L300.862 28.6002C300.713 28.4504 300.51 28.3662 300.298 28.3662C300.086 28.3662 299.883 28.4504 299.734 28.6002C299.422 28.9122 299.422 29.4162 299.734 29.7282L303.406 33.4002C303.718 33.7122 304.222 33.7122 304.534 33.4002L308.206 29.7282C308.518 29.4162 308.518 28.9122 308.206 28.6002C307.894 28.2962 307.382 28.2882 307.07 28.6002Z" fill="#C2A3FC"/>
<defs>
<filter id="filter0_d_800_5455" x="71.5" y="28" width="134" height="91" filterUnits="userSpaceOnUse" color-interpolation-filters="sRGB">
<feFlood flood-opacity="0" result="BackgroundImageFix"/>
<feColorMatrix in="SourceAlpha" type="matrix" values="0 0 0 0 0 0 0 0 0 0 0 0 0 0 0 0 0 0 127 0" result="hardAlpha"/>
<feOffset dy="10"/>
<feGaussianBlur stdDeviation="15"/>
<feColorMatrix type="matrix" values="0 0 0 0 0.956863 0 0 0 0 0.933333 0 0 0 0 1 0 0 0 1 0"/>
<feBlend mode="normal" in2="BackgroundImageFix" result="effect1_dropShadow_800_5455"/>
<feBlend mode="normal" in="SourceGraphic" in2="effect1_dropShadow_800_5455" result="shape"/>
</filter>
</defs>
</svg>
