<svg width="334" height="217" viewBox="0 0 334 217" fill="none" xmlns="http://www.w3.org/2000/svg">
<rect x="1" y="0.5" width="332" height="216" rx="9.5" fill="white"/>
<rect x="1" y="0.5" width="332" height="216" rx="9.5" stroke="#F1F1F3"/>
<path d="M77.8105 167.02H287.5" stroke="black" stroke-width="0.25" stroke-miterlimit="10"/>
<path d="M105.576 170.942V167.047" stroke="black" stroke-width="0.25" stroke-miterlimit="10"/>
<path d="M133.576 167.047V170.942" stroke="black" stroke-width="0.25" stroke-miterlimit="10"/>
<path d="M161.576 167.047V170.942" stroke="black" stroke-width="0.25" stroke-miterlimit="10"/>
<path d="M189.576 167.047V170.942" stroke="black" stroke-width="0.25" stroke-miterlimit="10"/>
<path d="M217.576 167.047V170.942" stroke="black" stroke-width="0.25" stroke-miterlimit="10"/>
<path d="M245.576 167.047V170.942" stroke="black" stroke-width="0.25" stroke-miterlimit="10"/>
<path d="M273.576 167.047V170.942" stroke="black" stroke-width="0.25" stroke-miterlimit="10"/>
<path d="M100.5 160V127.538" stroke="#C2A3FC" stroke-width="8" stroke-linecap="square" stroke-linejoin="round"/>
<path d="M110.5 160V110.999" stroke="#8B4CFC" stroke-width="8" stroke-linecap="square" stroke-linejoin="round"/>
<path d="M128.5 160V116" stroke="#C2A3FC" stroke-width="8" stroke-linecap="square" stroke-linejoin="round"/>
<path d="M138.5 160V89.5" stroke="#8B4CFC" stroke-width="8" stroke-linecap="square" stroke-linejoin="round"/>
<path d="M156.5 160V113.5" stroke="#C2A3FC" stroke-width="8" stroke-linecap="square" stroke-linejoin="round"/>
<path d="M166.5 160V146.44" stroke="#8B4CFC" stroke-width="8" stroke-linecap="square" stroke-linejoin="round"/>
<path d="M184.5 160V96.5612" stroke="#C2A3FC" stroke-width="8" stroke-linecap="square" stroke-linejoin="round"/>
<path d="M194.5 160V119.38" stroke="#8B4CFC" stroke-width="8" stroke-linecap="square" stroke-linejoin="round"/>
<path d="M212.5 160V149.684" stroke="#C2A3FC" stroke-width="8" stroke-linecap="square" stroke-linejoin="round"/>
<path d="M222.5 160V131.5" stroke="#8B4CFC" stroke-width="8" stroke-linecap="square" stroke-linejoin="round"/>
<path d="M240.5 160V102.5" stroke="#C2A3FC" stroke-width="8" stroke-linecap="square" stroke-linejoin="round"/>
<path d="M250.5 160V97.5003" stroke="#8B4CFC" stroke-width="8" stroke-linecap="square" stroke-linejoin="round"/>
<path d="M268.5 160V137.92" stroke="#C2A3FC" stroke-width="8" stroke-linecap="square" stroke-linejoin="round"/>
<path d="M278.5 160V115.244" stroke="#8B4CFC" stroke-width="8" stroke-linecap="square" stroke-linejoin="round"/>
<path d="M56.68 88V87.934C56.72 87.85 56.816 87.706 56.968 87.502C57.124 87.294 57.338 87.05 57.61 86.77C57.754 86.618 57.896 86.48 58.036 86.356C58.18 86.232 58.308 86.114 58.42 86.002C58.536 85.886 58.628 85.772 58.696 85.66C58.768 85.548 58.804 85.43 58.804 85.306C58.804 85.154 58.758 85.036 58.666 84.952C58.574 84.864 58.422 84.82 58.21 84.82C58.018 84.82 57.838 84.85 57.67 84.91C57.502 84.97 57.352 85.044 57.22 85.132C57.092 85.216 56.992 85.298 56.92 85.378V85.258L56.8 84.7C56.884 84.62 57.046 84.54 57.286 84.46C57.526 84.38 57.83 84.34 58.198 84.34C58.522 84.34 58.776 84.382 58.96 84.466C59.148 84.55 59.28 84.66 59.356 84.796C59.436 84.928 59.476 85.068 59.476 85.216C59.476 85.428 59.426 85.622 59.326 85.798C59.226 85.97 59.092 86.138 58.924 86.302C58.76 86.462 58.578 86.63 58.378 86.806C58.17 86.986 57.99 87.136 57.838 87.256C57.686 87.372 57.576 87.452 57.508 87.496V87.514H58.816C59.056 87.514 59.252 87.494 59.404 87.454C59.56 87.414 59.664 87.374 59.716 87.334L59.596 87.814V88H56.68ZM61.7284 88.06C61.1964 88.06 60.7984 87.902 60.5344 87.586C60.2704 87.266 60.1384 86.798 60.1384 86.182C60.1384 85.582 60.2724 85.126 60.5404 84.814C60.8084 84.498 61.2044 84.34 61.7284 84.34H61.7944C62.3104 84.34 62.6984 84.496 62.9584 84.808C63.2224 85.12 63.3544 85.578 63.3544 86.182C63.3544 86.798 63.2224 87.266 62.9584 87.586C62.6984 87.902 62.3104 88.06 61.7944 88.06H61.7284ZM61.7284 87.574H61.7944C61.9824 87.574 62.1424 87.536 62.2744 87.46C62.4064 87.38 62.5064 87.24 62.5744 87.04C62.6464 86.836 62.6824 86.55 62.6824 86.182C62.6824 85.822 62.6464 85.544 62.5744 85.348C62.5064 85.148 62.4064 85.01 62.2744 84.934C62.1424 84.858 61.9824 84.82 61.7944 84.82H61.7284C61.5364 84.82 61.3724 84.858 61.2364 84.934C61.1004 85.01 60.9944 85.146 60.9184 85.342C60.8464 85.538 60.8104 85.818 60.8104 86.182C60.8104 86.554 60.8464 86.842 60.9184 87.046C60.9944 87.246 61.1004 87.384 61.2364 87.46C61.3764 87.536 61.5404 87.574 61.7284 87.574ZM65.4257 88.06C64.8937 88.06 64.4957 87.902 64.2317 87.586C63.9677 87.266 63.8357 86.798 63.8357 86.182C63.8357 85.582 63.9697 85.126 64.2377 84.814C64.5057 84.498 64.9017 84.34 65.4257 84.34H65.4917C66.0077 84.34 66.3957 84.496 66.6557 84.808C66.9197 85.12 67.0517 85.578 67.0517 86.182C67.0517 86.798 66.9197 87.266 66.6557 87.586C66.3957 87.902 66.0077 88.06 65.4917 88.06H65.4257ZM65.4257 87.574H65.4917C65.6797 87.574 65.8397 87.536 65.9717 87.46C66.1037 87.38 66.2037 87.24 66.2717 87.04C66.3437 86.836 66.3797 86.55 66.3797 86.182C66.3797 85.822 66.3437 85.544 66.2717 85.348C66.2037 85.148 66.1037 85.01 65.9717 84.934C65.8397 84.858 65.6797 84.82 65.4917 84.82H65.4257C65.2337 84.82 65.0697 84.858 64.9337 84.934C64.7977 85.01 64.6917 85.146 64.6157 85.342C64.5437 85.538 64.5077 85.818 64.5077 86.182C64.5077 86.554 64.5437 86.842 64.6157 87.046C64.6917 87.246 64.7977 87.384 64.9337 87.46C65.0737 87.536 65.2377 87.574 65.4257 87.574Z" fill="#494949"/>
<path d="M57.78 108C57.808 108 57.834 107.972 57.858 107.916C57.886 107.86 57.9 107.768 57.9 107.64V105L57.24 105.12V104.58C57.404 104.58 57.57 104.568 57.738 104.544C57.91 104.516 58.068 104.484 58.212 104.448C58.36 104.408 58.48 104.372 58.572 104.34V107.64C58.572 107.768 58.586 107.86 58.614 107.916C58.642 107.972 58.67 108 58.698 108H57.78ZM61.0006 108.06C60.5846 108.06 60.2266 108.034 59.9266 107.982C59.6266 107.926 59.4166 107.872 59.2966 107.82L59.4166 107.238V107.118C59.4766 107.182 59.5726 107.25 59.7046 107.322C59.8406 107.394 60.0086 107.456 60.2086 107.508C60.4086 107.556 60.6366 107.58 60.8926 107.58C61.2366 107.58 61.4806 107.522 61.6246 107.406C61.7686 107.286 61.8406 107.11 61.8406 106.878C61.8406 106.658 61.7566 106.492 61.5886 106.38C61.4246 106.268 61.1706 106.212 60.8266 106.212C60.4866 106.212 60.2066 106.226 59.9866 106.254C59.7666 106.278 59.6166 106.304 59.5366 106.332V104.4H62.1886V104.52L62.3086 105C62.2646 104.972 62.1446 104.946 61.9486 104.922C61.7526 104.894 61.4766 104.88 61.1206 104.88H60.2086V105.576C60.2086 105.664 60.2186 105.716 60.2386 105.732C60.2586 105.748 60.3286 105.756 60.4486 105.756H61.0006C61.5246 105.756 61.9066 105.85 62.1466 106.038C62.3906 106.222 62.5126 106.518 62.5126 106.926C62.5126 107.258 62.3906 107.53 62.1466 107.742C61.9066 107.954 61.5246 108.06 61.0006 108.06ZM64.5839 108.06C64.0519 108.06 63.6539 107.902 63.3899 107.586C63.1259 107.266 62.9939 106.798 62.9939 106.182C62.9939 105.582 63.1279 105.126 63.3959 104.814C63.6639 104.498 64.0599 104.34 64.5839 104.34H64.6499C65.1659 104.34 65.5539 104.496 65.8139 104.808C66.0779 105.12 66.2099 105.578 66.2099 106.182C66.2099 106.798 66.0779 107.266 65.8139 107.586C65.5539 107.902 65.1659 108.06 64.6499 108.06H64.5839ZM64.5839 107.574H64.6499C64.8379 107.574 64.9979 107.536 65.1299 107.46C65.2619 107.38 65.3619 107.24 65.4299 107.04C65.5019 106.836 65.5379 106.55 65.5379 106.182C65.5379 105.822 65.5019 105.544 65.4299 105.348C65.3619 105.148 65.2619 105.01 65.1299 104.934C64.9979 104.858 64.8379 104.82 64.6499 104.82H64.5839C64.3919 104.82 64.2279 104.858 64.0919 104.934C63.9559 105.01 63.8499 105.146 63.7739 105.342C63.7019 105.538 63.6659 105.818 63.6659 106.182C63.6659 106.554 63.7019 106.842 63.7739 107.046C63.8499 107.246 63.9559 107.384 64.0919 107.46C64.2319 107.536 64.3959 107.574 64.5839 107.574Z" fill="#494949"/>
<path d="M57.78 128C57.808 128 57.834 127.972 57.858 127.916C57.886 127.86 57.9 127.768 57.9 127.64V125L57.24 125.12V124.58C57.404 124.58 57.57 124.568 57.738 124.544C57.91 124.516 58.068 124.484 58.212 124.448C58.36 124.408 58.48 124.372 58.572 124.34V127.64C58.572 127.768 58.586 127.86 58.614 127.916C58.642 127.972 58.67 128 58.698 128H57.78ZM60.8866 128.06C60.3546 128.06 59.9566 127.902 59.6926 127.586C59.4286 127.266 59.2966 126.798 59.2966 126.182C59.2966 125.582 59.4306 125.126 59.6986 124.814C59.9666 124.498 60.3626 124.34 60.8866 124.34H60.9526C61.4686 124.34 61.8566 124.496 62.1166 124.808C62.3806 125.12 62.5126 125.578 62.5126 126.182C62.5126 126.798 62.3806 127.266 62.1166 127.586C61.8566 127.902 61.4686 128.06 60.9526 128.06H60.8866ZM60.8866 127.574H60.9526C61.1406 127.574 61.3006 127.536 61.4326 127.46C61.5646 127.38 61.6646 127.24 61.7326 127.04C61.8046 126.836 61.8406 126.55 61.8406 126.182C61.8406 125.822 61.8046 125.544 61.7326 125.348C61.6646 125.148 61.5646 125.01 61.4326 124.934C61.3006 124.858 61.1406 124.82 60.9526 124.82H60.8866C60.6946 124.82 60.5306 124.858 60.3946 124.934C60.2586 125.01 60.1526 125.146 60.0766 125.342C60.0046 125.538 59.9686 125.818 59.9686 126.182C59.9686 126.554 60.0046 126.842 60.0766 127.046C60.1526 127.246 60.2586 127.384 60.3946 127.46C60.5346 127.536 60.6986 127.574 60.8866 127.574ZM64.5839 128.06C64.0519 128.06 63.6539 127.902 63.3899 127.586C63.1259 127.266 62.9939 126.798 62.9939 126.182C62.9939 125.582 63.1279 125.126 63.3959 124.814C63.6639 124.498 64.0599 124.34 64.5839 124.34H64.6499C65.1659 124.34 65.5539 124.496 65.8139 124.808C66.0779 125.12 66.2099 125.578 66.2099 126.182C66.2099 126.798 66.0779 127.266 65.8139 127.586C65.5539 127.902 65.1659 128.06 64.6499 128.06H64.5839ZM64.5839 127.574H64.6499C64.8379 127.574 64.9979 127.536 65.1299 127.46C65.2619 127.38 65.3619 127.24 65.4299 127.04C65.5019 126.836 65.5379 126.55 65.5379 126.182C65.5379 125.822 65.5019 125.544 65.4299 125.348C65.3619 125.148 65.2619 125.01 65.1299 124.934C64.9979 124.858 64.8379 124.82 64.6499 124.82H64.5839C64.3919 124.82 64.2279 124.858 64.0919 124.934C63.9559 125.01 63.8499 125.146 63.7739 125.342C63.7019 125.538 63.6659 125.818 63.6659 126.182C63.6659 126.554 63.7019 126.842 63.7739 127.046C63.8499 127.246 63.9559 127.384 64.0919 127.46C64.2319 127.536 64.3959 127.574 64.5839 127.574Z" fill="#494949"/>
<path d="M59.944 148.06C59.528 148.06 59.17 148.034 58.87 147.982C58.57 147.926 58.36 147.872 58.24 147.82L58.36 147.238V147.118C58.42 147.182 58.516 147.25 58.648 147.322C58.784 147.394 58.952 147.456 59.152 147.508C59.352 147.556 59.58 147.58 59.836 147.58C60.18 147.58 60.424 147.522 60.568 147.406C60.712 147.286 60.784 147.11 60.784 146.878C60.784 146.658 60.7 146.492 60.532 146.38C60.368 146.268 60.114 146.212 59.77 146.212C59.43 146.212 59.15 146.226 58.93 146.254C58.71 146.278 58.56 146.304 58.48 146.332V144.4H61.132V144.52L61.252 145C61.208 144.972 61.088 144.946 60.892 144.922C60.696 144.894 60.42 144.88 60.064 144.88H59.152V145.576C59.152 145.664 59.162 145.716 59.182 145.732C59.202 145.748 59.272 145.756 59.392 145.756H59.944C60.468 145.756 60.85 145.85 61.09 146.038C61.334 146.222 61.456 146.518 61.456 146.926C61.456 147.258 61.334 147.53 61.09 147.742C60.85 147.954 60.468 148.06 59.944 148.06ZM63.5273 148.06C62.9953 148.06 62.5973 147.902 62.3333 147.586C62.0693 147.266 61.9373 146.798 61.9373 146.182C61.9373 145.582 62.0713 145.126 62.3393 144.814C62.6073 144.498 63.0033 144.34 63.5273 144.34H63.5933C64.1093 144.34 64.4973 144.496 64.7573 144.808C65.0213 145.12 65.1533 145.578 65.1533 146.182C65.1533 146.798 65.0213 147.266 64.7573 147.586C64.4973 147.902 64.1093 148.06 63.5933 148.06H63.5273ZM63.5273 147.574H63.5933C63.7813 147.574 63.9413 147.536 64.0733 147.46C64.2053 147.38 64.3053 147.24 64.3733 147.04C64.4453 146.836 64.4813 146.55 64.4813 146.182C64.4813 145.822 64.4453 145.544 64.3733 145.348C64.3053 145.148 64.2053 145.01 64.0733 144.934C63.9413 144.858 63.7813 144.82 63.5933 144.82H63.5273C63.3353 144.82 63.1713 144.858 63.0353 144.934C62.8993 145.01 62.7933 145.146 62.7173 145.342C62.6453 145.538 62.6093 145.818 62.6093 146.182C62.6093 146.554 62.6453 146.842 62.7173 147.046C62.7933 147.246 62.8993 147.384 63.0353 147.46C63.1753 147.536 63.3393 147.574 63.5273 147.574Z" fill="#494949"/>
<path d="M61.83 168.06C61.298 168.06 60.9 167.902 60.636 167.586C60.372 167.266 60.24 166.798 60.24 166.182C60.24 165.582 60.374 165.126 60.642 164.814C60.91 164.498 61.306 164.34 61.83 164.34H61.896C62.412 164.34 62.8 164.496 63.06 164.808C63.324 165.12 63.456 165.578 63.456 166.182C63.456 166.798 63.324 167.266 63.06 167.586C62.8 167.902 62.412 168.06 61.896 168.06H61.83ZM61.83 167.574H61.896C62.084 167.574 62.244 167.536 62.376 167.46C62.508 167.38 62.608 167.24 62.676 167.04C62.748 166.836 62.784 166.55 62.784 166.182C62.784 165.822 62.748 165.544 62.676 165.348C62.608 165.148 62.508 165.01 62.376 164.934C62.244 164.858 62.084 164.82 61.896 164.82H61.83C61.638 164.82 61.474 164.858 61.338 164.934C61.202 165.01 61.096 165.146 61.02 165.342C60.948 165.538 60.912 165.818 60.912 166.182C60.912 166.554 60.948 166.842 61.02 167.046C61.096 167.246 61.202 167.384 61.338 167.46C61.478 167.536 61.642 167.574 61.83 167.574Z" fill="#494949"/>
<path d="M96.98 180C97.0173 180 97.0547 179.963 97.092 179.888C97.1293 179.813 97.148 179.691 97.148 179.52V175.68C97.148 175.509 97.1293 175.389 97.092 175.32C97.0547 175.245 97.0173 175.205 96.98 175.2H98.46C98.4493 175.2 98.4547 175.237 98.476 175.312C98.4973 175.387 98.548 175.515 98.628 175.696C98.66 175.765 98.716 175.888 98.796 176.064C98.8813 176.24 98.9827 176.451 99.1 176.696C99.2173 176.936 99.3427 177.195 99.476 177.472C99.6093 177.749 99.7453 178.032 99.884 178.32C100.023 178.603 100.153 178.869 100.276 179.12H100.284C100.412 178.864 100.545 178.595 100.684 178.312C100.823 178.024 100.961 177.739 101.1 177.456C101.239 177.173 101.367 176.912 101.484 176.672C101.601 176.427 101.7 176.219 101.78 176.048C101.865 175.872 101.924 175.749 101.956 175.68C102.031 175.509 102.079 175.387 102.1 175.312C102.127 175.237 102.135 175.2 102.124 175.2H103.596C103.559 175.2 103.521 175.237 103.484 175.312C103.447 175.387 103.428 175.512 103.428 175.688V179.52C103.428 179.691 103.447 179.813 103.484 179.888C103.521 179.963 103.559 180 103.596 180H102.372C102.409 180 102.444 179.963 102.476 179.888C102.513 179.813 102.532 179.691 102.532 179.52V176.208H102.516C102.404 176.432 102.284 176.672 102.156 176.928C102.033 177.184 101.908 177.443 101.78 177.704C101.652 177.96 101.532 178.208 101.42 178.448C101.308 178.683 101.207 178.893 101.116 179.08C101.031 179.267 100.964 179.413 100.916 179.52C100.841 179.685 100.801 179.805 100.796 179.88C100.796 179.955 100.809 179.995 100.836 180H99.716C99.7427 180 99.756 179.965 99.756 179.896C99.756 179.821 99.716 179.696 99.636 179.52C99.5987 179.429 99.5373 179.296 99.452 179.12C99.3667 178.944 99.268 178.739 99.156 178.504C99.0493 178.264 98.932 178.013 98.804 177.752C98.676 177.485 98.548 177.219 98.42 176.952C98.2973 176.685 98.18 176.437 98.068 176.208H98.044V179.52C98.044 179.691 98.0627 179.813 98.1 179.888C98.1373 179.963 98.1747 180 98.212 180H96.98ZM106.422 180.08C105.889 180.08 105.47 179.995 105.166 179.824C104.867 179.653 104.657 179.421 104.534 179.128C104.417 178.835 104.358 178.504 104.358 178.136C104.358 177.763 104.419 177.429 104.542 177.136C104.67 176.843 104.883 176.611 105.182 176.44C105.481 176.264 105.894 176.176 106.422 176.176C106.95 176.176 107.363 176.264 107.662 176.44C107.961 176.611 108.171 176.843 108.294 177.136C108.422 177.429 108.486 177.763 108.486 178.136C108.486 178.504 108.425 178.835 108.302 179.128C108.185 179.421 107.977 179.653 107.678 179.824C107.379 179.995 106.961 180.08 106.422 180.08ZM106.422 179.512C106.753 179.512 107.009 179.459 107.19 179.352C107.371 179.245 107.497 179.091 107.566 178.888C107.635 178.68 107.67 178.429 107.67 178.136C107.67 177.843 107.633 177.592 107.558 177.384C107.489 177.176 107.363 177.016 107.182 176.904C107.006 176.792 106.753 176.736 106.422 176.736C106.097 176.736 105.843 176.795 105.662 176.912C105.481 177.024 105.353 177.187 105.278 177.4C105.209 177.608 105.174 177.856 105.174 178.144C105.174 178.427 105.209 178.672 105.278 178.88C105.347 179.083 105.473 179.24 105.654 179.352C105.835 179.459 106.091 179.512 106.422 179.512ZM109.134 180C109.171 180 109.206 179.963 109.238 179.888C109.275 179.813 109.294 179.691 109.294 179.52V176.816C109.294 176.645 109.275 176.525 109.238 176.456C109.206 176.381 109.171 176.341 109.134 176.336C109.368 176.336 109.571 176.32 109.742 176.288C109.918 176.251 110.04 176.213 110.11 176.176V176.664L110.094 176.768L110.11 176.784C110.19 176.683 110.291 176.587 110.414 176.496C110.542 176.405 110.699 176.331 110.886 176.272C111.072 176.208 111.291 176.176 111.542 176.176C112.038 176.176 112.416 176.317 112.678 176.6C112.944 176.883 113.078 177.325 113.078 177.928V179.52C113.078 179.691 113.094 179.813 113.126 179.888C113.163 179.963 113.2 180 113.238 180H112.102C112.139 180 112.174 179.963 112.206 179.888C112.243 179.813 112.262 179.691 112.262 179.52V177.952C112.262 177.637 112.222 177.392 112.142 177.216C112.062 177.04 111.95 176.917 111.806 176.848C111.667 176.773 111.504 176.736 111.318 176.736C111.12 176.736 110.928 176.779 110.742 176.864C110.555 176.949 110.403 177.085 110.286 177.272C110.168 177.459 110.11 177.709 110.11 178.024V179.52C110.11 179.691 110.126 179.813 110.158 179.888C110.195 179.963 110.232 180 110.27 180H109.134Z" fill="#494949"/>
<path d="M127.436 180C127.473 180 127.511 179.963 127.548 179.888C127.585 179.813 127.604 179.691 127.604 179.52V176.08C127.604 175.963 127.591 175.893 127.564 175.872C127.537 175.851 127.444 175.84 127.284 175.84H126.7C126.391 175.84 126.14 175.875 125.948 175.944C125.761 176.008 125.639 176.069 125.58 176.128L125.74 175.36V175.2H130.364V175.36L130.524 176.128C130.465 176.069 130.34 176.008 130.148 175.944C129.961 175.875 129.713 175.84 129.404 175.84H128.828C128.663 175.84 128.567 175.851 128.54 175.872C128.513 175.893 128.5 175.963 128.5 176.08V179.52C128.5 179.691 128.519 179.813 128.556 179.888C128.593 179.963 128.631 180 128.668 180H127.436ZM132.345 180.08C132.036 180.08 131.764 180.027 131.529 179.92C131.3 179.808 131.121 179.619 130.993 179.352C130.871 179.08 130.809 178.704 130.809 178.224V176.736C130.809 176.565 130.791 176.443 130.753 176.368C130.721 176.293 130.687 176.256 130.649 176.256H131.793C131.756 176.256 131.716 176.293 131.673 176.368C131.636 176.443 131.617 176.565 131.617 176.736V178.336C131.617 178.789 131.697 179.099 131.857 179.264C132.017 179.429 132.228 179.512 132.489 179.512C132.751 179.512 132.977 179.448 133.169 179.32C133.361 179.192 133.511 179.016 133.617 178.792C133.729 178.568 133.785 178.315 133.785 178.032V176.736C133.785 176.565 133.767 176.445 133.729 176.376C133.697 176.301 133.663 176.261 133.625 176.256H134.601V179.52C134.601 179.691 134.617 179.813 134.649 179.888C134.687 179.963 134.724 180 134.761 180H133.785V179.52L133.801 179.36L133.785 179.344C133.753 179.408 133.7 179.483 133.625 179.568C133.551 179.648 133.452 179.728 133.329 179.808C133.212 179.888 133.071 179.952 132.905 180C132.74 180.053 132.553 180.08 132.345 180.08ZM137.454 180.08C137.033 180.08 136.686 180.032 136.414 179.936C136.142 179.835 135.929 179.696 135.774 179.52C135.619 179.344 135.51 179.139 135.446 178.904C135.387 178.669 135.358 178.413 135.358 178.136C135.358 177.533 135.529 177.056 135.87 176.704C136.217 176.352 136.729 176.176 137.406 176.176C137.801 176.176 138.118 176.229 138.358 176.336C138.603 176.443 138.787 176.584 138.91 176.76C139.038 176.936 139.123 177.128 139.166 177.336C139.214 177.539 139.238 177.739 139.238 177.936V178.312C139.238 178.296 139.163 178.28 139.014 178.264C138.87 178.243 138.625 178.232 138.278 178.232H136.174C136.174 178.627 136.291 178.939 136.526 179.168C136.761 179.397 137.11 179.512 137.574 179.512C137.974 179.512 138.302 179.464 138.558 179.368C138.819 179.267 138.993 179.168 139.078 179.072V179.232L139.158 179.76C139.041 179.829 138.833 179.901 138.534 179.976C138.241 180.045 137.881 180.08 137.454 180.08ZM136.494 177.704H138.438C138.438 177.565 138.409 177.421 138.35 177.272C138.291 177.123 138.187 176.997 138.038 176.896C137.889 176.789 137.678 176.736 137.406 176.736C137.177 176.736 136.977 176.776 136.806 176.856C136.635 176.931 136.502 177.029 136.406 177.152C136.315 177.275 136.27 177.405 136.27 177.544C136.27 177.597 136.286 177.637 136.318 177.664C136.35 177.691 136.409 177.704 136.494 177.704Z" fill="#494949"/>
<path d="M153.628 180C153.665 179.989 153.689 179.949 153.7 179.88C153.711 179.805 153.687 179.688 153.628 179.528C153.607 179.469 153.556 179.349 153.476 179.168C153.401 178.987 153.308 178.768 153.196 178.512C153.089 178.251 152.975 177.976 152.852 177.688C152.729 177.4 152.609 177.12 152.492 176.848C152.375 176.576 152.271 176.336 152.18 176.128C152.095 175.92 152.031 175.771 151.988 175.68C151.919 175.509 151.844 175.389 151.764 175.32C151.684 175.245 151.623 175.205 151.58 175.2H153.028C152.991 175.205 152.967 175.245 152.956 175.32C152.951 175.395 152.977 175.52 153.036 175.696C153.063 175.765 153.105 175.888 153.164 176.064C153.228 176.24 153.305 176.451 153.396 176.696C153.487 176.936 153.583 177.197 153.684 177.48C153.785 177.757 153.889 178.04 153.996 178.328C154.103 178.611 154.201 178.88 154.292 179.136H154.308C154.393 178.891 154.481 178.629 154.572 178.352C154.668 178.069 154.761 177.789 154.852 177.512C154.943 177.229 155.028 176.968 155.108 176.728C155.188 176.483 155.257 176.269 155.316 176.088C155.375 175.907 155.415 175.776 155.436 175.696C155.484 175.52 155.503 175.395 155.492 175.32C155.481 175.245 155.463 175.205 155.436 175.2H156.964C156.932 175.2 156.911 175.237 156.9 175.312C156.889 175.387 156.911 175.517 156.964 175.704C156.985 175.773 157.023 175.896 157.076 176.072C157.135 176.248 157.204 176.459 157.284 176.704C157.364 176.944 157.449 177.205 157.54 177.488C157.636 177.765 157.729 178.048 157.82 178.336C157.916 178.619 158.007 178.885 158.092 179.136H158.108C158.204 178.88 158.305 178.611 158.412 178.328C158.519 178.045 158.623 177.765 158.724 177.488C158.831 177.205 158.929 176.941 159.02 176.696C159.111 176.451 159.188 176.24 159.252 176.064C159.316 175.888 159.359 175.765 159.38 175.696C159.439 175.515 159.46 175.387 159.444 175.312C159.433 175.237 159.412 175.2 159.38 175.2H160.828C160.791 175.205 160.737 175.248 160.668 175.328C160.599 175.403 160.519 175.525 160.428 175.696C160.385 175.776 160.319 175.915 160.228 176.112C160.137 176.304 160.033 176.531 159.916 176.792C159.799 177.053 159.679 177.325 159.556 177.608C159.433 177.885 159.316 178.155 159.204 178.416C159.092 178.672 158.996 178.899 158.916 179.096C158.841 179.288 158.791 179.424 158.764 179.504C158.711 179.68 158.689 179.805 158.7 179.88C158.711 179.955 158.732 179.995 158.764 180H157.404C157.436 179.995 157.457 179.955 157.468 179.88C157.479 179.805 157.457 179.68 157.404 179.504C157.383 179.435 157.343 179.312 157.284 179.136C157.225 178.955 157.153 178.741 157.068 178.496C156.983 178.245 156.889 177.979 156.788 177.696C156.687 177.408 156.585 177.12 156.484 176.832C156.383 176.539 156.287 176.261 156.196 176H156.18C156.089 176.261 155.993 176.539 155.892 176.832C155.791 177.12 155.689 177.408 155.588 177.696C155.492 177.984 155.401 178.253 155.316 178.504C155.231 178.749 155.159 178.96 155.1 179.136C155.047 179.312 155.009 179.435 154.988 179.504C154.94 179.675 154.921 179.8 154.932 179.88C154.943 179.955 154.961 179.995 154.988 180H153.628ZM162.884 180.08C162.462 180.08 162.116 180.032 161.844 179.936C161.572 179.835 161.358 179.696 161.204 179.52C161.049 179.344 160.94 179.139 160.876 178.904C160.817 178.669 160.788 178.413 160.788 178.136C160.788 177.533 160.958 177.056 161.3 176.704C161.646 176.352 162.158 176.176 162.836 176.176C163.23 176.176 163.548 176.229 163.788 176.336C164.033 176.443 164.217 176.584 164.34 176.76C164.468 176.936 164.553 177.128 164.596 177.336C164.644 177.539 164.668 177.739 164.668 177.936V178.312C164.668 178.296 164.593 178.28 164.444 178.264C164.3 178.243 164.054 178.232 163.708 178.232H161.604C161.604 178.627 161.721 178.939 161.956 179.168C162.19 179.397 162.54 179.512 163.004 179.512C163.404 179.512 163.732 179.464 163.988 179.368C164.249 179.267 164.422 179.168 164.508 179.072V179.232L164.588 179.76C164.47 179.829 164.262 179.901 163.964 179.976C163.67 180.045 163.31 180.08 162.884 180.08ZM161.924 177.704H163.868C163.868 177.565 163.838 177.421 163.78 177.272C163.721 177.123 163.617 176.997 163.468 176.896C163.318 176.789 163.108 176.736 162.836 176.736C162.606 176.736 162.406 176.776 162.236 176.856C162.065 176.931 161.932 177.029 161.836 177.152C161.745 177.275 161.7 177.405 161.7 177.544C161.7 177.597 161.716 177.637 161.748 177.664C161.78 177.691 161.838 177.704 161.924 177.704ZM167.192 180.08C166.686 180.08 166.291 179.995 166.008 179.824C165.731 179.653 165.536 179.421 165.424 179.128C165.318 178.835 165.264 178.504 165.264 178.136C165.264 177.763 165.318 177.429 165.424 177.136C165.536 176.843 165.731 176.611 166.008 176.44C166.291 176.264 166.686 176.176 167.192 176.176C167.406 176.176 167.595 176.197 167.76 176.24C167.926 176.277 168.07 176.331 168.192 176.4C168.315 176.464 168.416 176.541 168.496 176.632L168.512 176.624L168.496 176.472V174.96C168.496 174.789 168.478 174.669 168.44 174.6C168.408 174.525 168.374 174.485 168.336 174.48H169.312V179.52C169.312 179.691 169.328 179.813 169.36 179.888C169.398 179.963 169.435 180 169.472 180H168.496V179.752L168.52 179.6L168.496 179.592C168.416 179.683 168.315 179.765 168.192 179.84C168.07 179.915 167.926 179.973 167.76 180.016C167.595 180.059 167.406 180.08 167.192 180.08ZM167.248 179.512C167.52 179.512 167.739 179.472 167.904 179.392C168.07 179.307 168.195 179.197 168.28 179.064C168.366 178.925 168.422 178.776 168.448 178.616C168.48 178.456 168.496 178.296 168.496 178.136C168.496 177.997 168.48 177.848 168.448 177.688C168.416 177.523 168.358 177.368 168.272 177.224C168.187 177.08 168.062 176.963 167.896 176.872C167.731 176.781 167.515 176.736 167.248 176.736C166.8 176.736 166.491 176.864 166.32 177.12C166.155 177.376 166.072 177.717 166.072 178.144C166.072 178.427 166.104 178.672 166.168 178.88C166.238 179.083 166.358 179.24 166.528 179.352C166.699 179.459 166.939 179.512 167.248 179.512Z" fill="#494949"/>
<path d="M180.436 180C180.473 180 180.511 179.963 180.548 179.888C180.585 179.813 180.604 179.691 180.604 179.52V176.08C180.604 175.963 180.591 175.893 180.564 175.872C180.537 175.851 180.444 175.84 180.284 175.84H179.7C179.391 175.84 179.14 175.875 178.948 175.944C178.761 176.008 178.639 176.069 178.58 176.128L178.74 175.36V175.2H183.364V175.36L183.524 176.128C183.465 176.069 183.34 176.008 183.148 175.944C182.961 175.875 182.713 175.84 182.404 175.84H181.828C181.663 175.84 181.567 175.851 181.54 175.872C181.513 175.893 181.5 175.963 181.5 176.08V179.52C181.5 179.691 181.519 179.813 181.556 179.888C181.593 179.963 181.631 180 181.668 180H180.436ZM183.97 180C184.007 180 184.042 179.963 184.074 179.888C184.111 179.813 184.13 179.691 184.13 179.52V174.96C184.13 174.789 184.111 174.669 184.074 174.6C184.042 174.525 184.007 174.485 183.97 174.48H184.946V176.664L184.93 176.768L184.946 176.784C185.026 176.683 185.127 176.587 185.25 176.496C185.378 176.405 185.535 176.331 185.722 176.272C185.908 176.208 186.127 176.176 186.378 176.176C186.874 176.176 187.252 176.317 187.514 176.6C187.78 176.883 187.914 177.325 187.914 177.928V179.52C187.914 179.691 187.93 179.813 187.962 179.888C187.999 179.963 188.036 180 188.074 180H186.938C186.975 180 187.01 179.963 187.042 179.888C187.079 179.813 187.098 179.691 187.098 179.52V177.952C187.098 177.637 187.058 177.392 186.978 177.216C186.898 177.04 186.786 176.917 186.642 176.848C186.503 176.773 186.34 176.736 186.154 176.736C185.956 176.736 185.764 176.779 185.578 176.864C185.391 176.949 185.239 177.085 185.122 177.272C185.004 177.459 184.946 177.709 184.946 178.024V179.52C184.946 179.691 184.962 179.813 184.994 179.888C185.031 179.963 185.068 180 185.106 180H183.97ZM190.455 180.08C190.145 180.08 189.873 180.027 189.639 179.92C189.409 179.808 189.231 179.619 189.103 179.352C188.98 179.08 188.919 178.704 188.919 178.224V176.736C188.919 176.565 188.9 176.443 188.863 176.368C188.831 176.293 188.796 176.256 188.759 176.256H189.903C189.865 176.256 189.825 176.293 189.783 176.368C189.745 176.443 189.727 176.565 189.727 176.736V178.336C189.727 178.789 189.807 179.099 189.967 179.264C190.127 179.429 190.337 179.512 190.599 179.512C190.86 179.512 191.087 179.448 191.279 179.32C191.471 179.192 191.62 179.016 191.727 178.792C191.839 178.568 191.895 178.315 191.895 178.032V176.736C191.895 176.565 191.876 176.445 191.839 176.376C191.807 176.301 191.772 176.261 191.735 176.256H192.711V179.52C192.711 179.691 192.727 179.813 192.759 179.888C192.796 179.963 192.833 180 192.871 180H191.895V179.52L191.911 179.36L191.895 179.344C191.863 179.408 191.809 179.483 191.735 179.568C191.66 179.648 191.561 179.728 191.439 179.808C191.321 179.888 191.18 179.952 191.015 180C190.849 180.053 190.663 180.08 190.455 180.08ZM193.556 180C193.593 180 193.628 179.963 193.66 179.888C193.697 179.813 193.715 179.691 193.715 179.52V176.816C193.715 176.645 193.697 176.525 193.66 176.456C193.628 176.381 193.593 176.341 193.556 176.336C193.79 176.336 193.993 176.32 194.164 176.288C194.34 176.251 194.462 176.213 194.532 176.176V176.576L194.516 176.712L194.532 176.728C194.612 176.621 194.708 176.528 194.82 176.448C194.937 176.363 195.07 176.296 195.22 176.248C195.369 176.2 195.54 176.176 195.732 176.176C195.982 176.176 196.198 176.213 196.38 176.288C196.566 176.357 196.7 176.429 196.78 176.504L196.62 177.176V177.416C196.55 177.331 196.449 177.243 196.316 177.152C196.188 177.056 196.041 176.976 195.876 176.912C195.71 176.848 195.534 176.816 195.348 176.816C195.134 176.816 194.945 176.901 194.78 177.072C194.614 177.243 194.532 177.525 194.532 177.92V179.52C194.532 179.691 194.548 179.813 194.58 179.888C194.617 179.963 194.654 180 194.692 180H193.556ZM199.378 180.08C198.876 180.08 198.455 180.053 198.113 180C197.778 179.947 197.548 179.893 197.426 179.84V179.68L197.258 178.992C197.396 179.104 197.639 179.221 197.986 179.344C198.338 179.461 198.764 179.52 199.266 179.52C199.596 179.52 199.844 179.499 200.01 179.456C200.175 179.408 200.284 179.347 200.338 179.272C200.391 179.192 200.418 179.104 200.418 179.008C200.418 178.896 200.378 178.808 200.298 178.744C200.223 178.675 200.079 178.619 199.866 178.576C199.658 178.528 199.348 178.48 198.938 178.432C198.49 178.379 198.143 178.301 197.898 178.2C197.658 178.099 197.492 177.971 197.402 177.816C197.311 177.656 197.266 177.467 197.266 177.248C197.266 177.077 197.311 176.909 197.402 176.744C197.492 176.579 197.66 176.443 197.906 176.336C198.156 176.229 198.511 176.176 198.97 176.176C199.466 176.176 199.882 176.203 200.218 176.256C200.559 176.309 200.791 176.363 200.914 176.416V176.576L201.074 177.184C200.94 177.088 200.698 176.989 200.346 176.888C199.994 176.787 199.57 176.736 199.074 176.736C198.679 176.736 198.415 176.781 198.282 176.872C198.148 176.957 198.082 177.069 198.082 177.208C198.082 177.288 198.098 177.36 198.13 177.424C198.162 177.483 198.226 177.536 198.322 177.584C198.423 177.632 198.572 177.675 198.77 177.712C198.972 177.749 199.242 177.787 199.578 177.824C200.031 177.872 200.375 177.947 200.61 178.048C200.844 178.149 201.004 178.277 201.09 178.432C201.18 178.581 201.226 178.757 201.226 178.96C201.226 179.179 201.164 179.373 201.042 179.544C200.924 179.709 200.73 179.84 200.458 179.936C200.186 180.032 199.826 180.08 199.378 180.08Z" fill="#494949"/>
<path d="M212.98 180C213.017 180 213.055 179.963 213.092 179.888C213.129 179.813 213.148 179.691 213.148 179.52V175.68C213.148 175.509 213.129 175.389 213.092 175.32C213.055 175.245 213.017 175.205 212.98 175.2H217.484V175.36L217.644 176.128C217.511 176.069 217.276 176.008 216.94 175.944C216.604 175.875 216.199 175.84 215.724 175.84H214.372C214.212 175.84 214.116 175.853 214.084 175.88C214.057 175.901 214.044 175.968 214.044 176.08V176.992C214.044 177.109 214.057 177.179 214.084 177.2C214.116 177.221 214.209 177.232 214.364 177.232H215.684C215.993 177.232 216.241 177.216 216.428 177.184C216.62 177.147 216.745 177.109 216.804 177.072C216.783 177.141 216.759 177.224 216.732 177.32C216.705 177.416 216.684 177.512 216.668 177.608C216.652 177.704 216.644 177.792 216.644 177.872H214.364C214.209 177.872 214.116 177.883 214.084 177.904C214.057 177.92 214.044 177.989 214.044 178.112V179.52C214.044 179.696 214.063 179.821 214.1 179.896C214.137 179.965 214.175 180 214.212 180H212.98ZM218.173 180C218.21 180 218.245 179.963 218.277 179.888C218.314 179.813 218.333 179.691 218.333 179.52V176.816C218.333 176.645 218.314 176.525 218.277 176.456C218.245 176.381 218.21 176.341 218.173 176.336C218.407 176.336 218.61 176.32 218.781 176.288C218.957 176.251 219.079 176.213 219.149 176.176V176.576L219.133 176.712L219.149 176.728C219.229 176.621 219.325 176.528 219.437 176.448C219.554 176.363 219.687 176.296 219.837 176.248C219.986 176.2 220.157 176.176 220.349 176.176C220.599 176.176 220.815 176.213 220.997 176.288C221.183 176.357 221.317 176.429 221.397 176.504L221.237 177.176V177.416C221.167 177.331 221.066 177.243 220.933 177.152C220.805 177.056 220.658 176.976 220.493 176.912C220.327 176.848 220.151 176.816 219.965 176.816C219.751 176.816 219.562 176.901 219.397 177.072C219.231 177.243 219.149 177.525 219.149 177.92V179.52C219.149 179.691 219.165 179.813 219.197 179.888C219.234 179.963 219.271 180 219.309 180H218.173ZM221.923 180C221.96 180 221.995 179.963 222.027 179.888C222.064 179.813 222.083 179.691 222.083 179.52V176.736C222.083 176.565 222.064 176.445 222.027 176.376C221.995 176.301 221.96 176.261 221.923 176.256H222.899V179.52C222.899 179.691 222.915 179.813 222.947 179.888C222.984 179.963 223.021 180 223.059 180H221.923ZM222.411 175.488C222.256 175.488 222.136 175.445 222.051 175.36C221.965 175.269 221.923 175.165 221.923 175.048C221.923 174.925 221.963 174.821 222.043 174.736C222.128 174.651 222.251 174.608 222.411 174.608C222.571 174.608 222.691 174.651 222.771 174.736C222.856 174.821 222.899 174.925 222.899 175.048C222.899 175.165 222.856 175.269 222.771 175.36C222.685 175.445 222.565 175.488 222.411 175.488Z" fill="#494949"/>
<path d="M241.492 180.08C240.911 180.08 240.396 180.053 239.948 180C239.5 179.947 239.177 179.893 238.98 179.84V179.68L238.82 178.824C238.895 178.909 239.036 179 239.244 179.096C239.457 179.192 239.74 179.275 240.092 179.344C240.444 179.408 240.863 179.44 241.348 179.44C241.785 179.44 242.116 179.411 242.34 179.352C242.569 179.288 242.724 179.203 242.804 179.096C242.889 178.984 242.932 178.856 242.932 178.712C242.932 178.541 242.863 178.405 242.724 178.304C242.585 178.203 242.377 178.123 242.1 178.064C241.828 178 241.489 177.944 241.084 177.896C240.556 177.827 240.132 177.736 239.812 177.624C239.492 177.507 239.26 177.352 239.116 177.16C238.972 176.968 238.9 176.725 238.9 176.432C238.9 176.181 238.975 175.957 239.124 175.76C239.279 175.563 239.511 175.408 239.82 175.296C240.129 175.179 240.524 175.12 241.004 175.12C241.559 175.12 242.041 175.147 242.452 175.2C242.863 175.253 243.153 175.307 243.324 175.36V175.52L243.564 176.24C243.452 176.171 243.279 176.099 243.044 176.024C242.815 175.949 242.537 175.888 242.212 175.84C241.887 175.787 241.524 175.76 241.124 175.76C240.793 175.76 240.529 175.784 240.332 175.832C240.14 175.88 240.001 175.952 239.916 176.048C239.836 176.139 239.796 176.251 239.796 176.384C239.796 176.56 239.86 176.701 239.988 176.808C240.121 176.915 240.313 176.997 240.564 177.056C240.82 177.115 241.129 177.165 241.492 177.208C242.068 177.272 242.527 177.363 242.868 177.48C243.209 177.597 243.455 177.755 243.604 177.952C243.753 178.149 243.828 178.405 243.828 178.72C243.828 178.928 243.777 179.117 243.676 179.288C243.58 179.453 243.433 179.597 243.236 179.72C243.039 179.837 242.793 179.928 242.5 179.992C242.212 180.051 241.876 180.08 241.492 180.08ZM246.044 180.08C245.463 180.08 245.055 179.976 244.82 179.768C244.586 179.555 244.468 179.269 244.468 178.912C244.468 178.661 244.53 178.448 244.652 178.272C244.78 178.091 244.97 177.952 245.22 177.856C245.476 177.76 245.799 177.712 246.188 177.712C246.466 177.712 246.706 177.733 246.908 177.776C247.116 177.813 247.284 177.859 247.412 177.912C247.546 177.965 247.639 178.011 247.692 178.048C247.692 177.733 247.652 177.48 247.572 177.288C247.498 177.096 247.375 176.957 247.204 176.872C247.034 176.781 246.802 176.736 246.508 176.736C246.194 176.736 245.911 176.773 245.66 176.848C245.415 176.917 245.218 176.995 245.068 177.08C244.919 177.16 244.826 177.219 244.788 177.256V177.096L244.708 176.496C244.756 176.475 244.86 176.44 245.02 176.392C245.18 176.339 245.391 176.291 245.652 176.248C245.914 176.2 246.22 176.176 246.572 176.176C247.02 176.176 247.386 176.24 247.668 176.368C247.956 176.491 248.167 176.683 248.3 176.944C248.439 177.2 248.508 177.525 248.508 177.92V179.52C248.508 179.669 248.524 179.779 248.556 179.848C248.594 179.912 248.631 179.963 248.668 180H247.692V179.76L247.708 179.608L247.692 179.6C247.607 179.68 247.506 179.749 247.388 179.808C247.271 179.867 247.143 179.917 247.004 179.96C246.866 179.997 246.714 180.027 246.548 180.048C246.388 180.069 246.22 180.08 246.044 180.08ZM246.308 179.512C246.596 179.512 246.844 179.483 247.052 179.424C247.26 179.365 247.418 179.288 247.524 179.192C247.636 179.091 247.692 178.976 247.692 178.848C247.692 178.688 247.586 178.552 247.372 178.44C247.164 178.328 246.839 178.272 246.396 178.272C245.986 178.272 245.695 178.325 245.524 178.432C245.359 178.539 245.276 178.699 245.276 178.912C245.276 179.12 245.356 179.272 245.516 179.368C245.682 179.464 245.946 179.512 246.308 179.512ZM250.92 180.08C250.552 180.08 250.286 180.003 250.12 179.848C249.955 179.688 249.872 179.429 249.872 179.072V176.816H249.152V176.256C249.398 176.256 249.59 176.227 249.728 176.168C249.867 176.104 249.966 175.995 250.024 175.84C250.083 175.685 250.112 175.469 250.112 175.192H250.688V176.256H252.216C252.179 176.309 252.142 176.389 252.104 176.496C252.072 176.597 252.056 176.704 252.056 176.816H250.688V178.952C250.688 179.197 250.734 179.352 250.824 179.416C250.915 179.48 251.03 179.512 251.168 179.512C251.302 179.512 251.424 179.485 251.536 179.432C251.654 179.373 251.755 179.304 251.84 179.224C251.931 179.144 252 179.067 252.048 178.992V179.24L252.128 179.696C252.075 179.749 251.992 179.808 251.88 179.872C251.768 179.931 251.632 179.979 251.472 180.016C251.312 180.059 251.128 180.08 250.92 180.08Z" fill="#494949"/>
<path d="M268.492 180.08C267.911 180.08 267.396 180.053 266.948 180C266.5 179.947 266.177 179.893 265.98 179.84V179.68L265.82 178.824C265.895 178.909 266.036 179 266.244 179.096C266.457 179.192 266.74 179.275 267.092 179.344C267.444 179.408 267.863 179.44 268.348 179.44C268.785 179.44 269.116 179.411 269.34 179.352C269.569 179.288 269.724 179.203 269.804 179.096C269.889 178.984 269.932 178.856 269.932 178.712C269.932 178.541 269.863 178.405 269.724 178.304C269.585 178.203 269.377 178.123 269.1 178.064C268.828 178 268.489 177.944 268.084 177.896C267.556 177.827 267.132 177.736 266.812 177.624C266.492 177.507 266.26 177.352 266.116 177.16C265.972 176.968 265.9 176.725 265.9 176.432C265.9 176.181 265.975 175.957 266.124 175.76C266.279 175.563 266.511 175.408 266.82 175.296C267.129 175.179 267.524 175.12 268.004 175.12C268.559 175.12 269.041 175.147 269.452 175.2C269.863 175.253 270.153 175.307 270.324 175.36V175.52L270.564 176.24C270.452 176.171 270.279 176.099 270.044 176.024C269.815 175.949 269.537 175.888 269.212 175.84C268.887 175.787 268.524 175.76 268.124 175.76C267.793 175.76 267.529 175.784 267.332 175.832C267.14 175.88 267.001 175.952 266.916 176.048C266.836 176.139 266.796 176.251 266.796 176.384C266.796 176.56 266.86 176.701 266.988 176.808C267.121 176.915 267.313 176.997 267.564 177.056C267.82 177.115 268.129 177.165 268.492 177.208C269.068 177.272 269.527 177.363 269.868 177.48C270.209 177.597 270.455 177.755 270.604 177.952C270.753 178.149 270.828 178.405 270.828 178.72C270.828 178.928 270.777 179.117 270.676 179.288C270.58 179.453 270.433 179.597 270.236 179.72C270.039 179.837 269.793 179.928 269.5 179.992C269.212 180.051 268.876 180.08 268.492 180.08ZM273.212 180.08C272.903 180.08 272.631 180.027 272.396 179.92C272.167 179.808 271.988 179.619 271.86 179.352C271.738 179.08 271.676 178.704 271.676 178.224V176.736C271.676 176.565 271.658 176.443 271.62 176.368C271.588 176.293 271.554 176.256 271.516 176.256H272.66C272.623 176.256 272.583 176.293 272.54 176.368C272.503 176.443 272.484 176.565 272.484 176.736V178.336C272.484 178.789 272.564 179.099 272.724 179.264C272.884 179.429 273.095 179.512 273.356 179.512C273.618 179.512 273.844 179.448 274.036 179.32C274.228 179.192 274.378 179.016 274.484 178.792C274.596 178.568 274.652 178.315 274.652 178.032V176.736C274.652 176.565 274.634 176.445 274.596 176.376C274.564 176.301 274.53 176.261 274.492 176.256H275.468V179.52C275.468 179.691 275.484 179.813 275.516 179.888C275.554 179.963 275.591 180 275.628 180H274.652V179.52L274.668 179.36L274.652 179.344C274.62 179.408 274.567 179.483 274.492 179.568C274.418 179.648 274.319 179.728 274.196 179.808C274.079 179.888 273.938 179.952 273.772 180C273.607 180.053 273.42 180.08 273.212 180.08ZM276.313 180C276.351 180 276.385 179.963 276.417 179.888C276.455 179.813 276.473 179.691 276.473 179.52V176.816C276.473 176.645 276.455 176.525 276.417 176.456C276.385 176.381 276.351 176.341 276.313 176.336C276.548 176.336 276.751 176.32 276.921 176.288C277.097 176.251 277.22 176.213 277.289 176.176V176.664L277.273 176.768L277.289 176.784C277.369 176.683 277.471 176.587 277.593 176.496C277.721 176.405 277.879 176.331 278.065 176.272C278.252 176.208 278.471 176.176 278.721 176.176C279.217 176.176 279.596 176.317 279.857 176.6C280.124 176.883 280.257 177.325 280.257 177.928V179.52C280.257 179.691 280.273 179.813 280.305 179.888C280.343 179.963 280.38 180 280.417 180H279.281C279.319 180 279.353 179.963 279.385 179.888C279.423 179.813 279.441 179.691 279.441 179.52V177.952C279.441 177.637 279.401 177.392 279.321 177.216C279.241 177.04 279.129 176.917 278.985 176.848C278.847 176.773 278.684 176.736 278.497 176.736C278.3 176.736 278.108 176.779 277.921 176.864C277.735 176.949 277.583 177.085 277.465 177.272C277.348 177.459 277.289 177.709 277.289 178.024V179.52C277.289 179.691 277.305 179.813 277.337 179.888C277.375 179.963 277.412 180 277.449 180H276.313Z" fill="#494949"/>
<g filter="url(#filter0_d_800_5401)">
<rect x="107.5" y="48" width="62" height="25" rx="5" fill="#8B4CFC"/>
<path d="M118.549 64.5V63.2451H115.043V61.9902C115.616 60.8965 116.558 59.3844 117.87 57.4541H119.95V62.0635H120.868V63.2451H119.95V64.5H118.549ZM116.337 62.0684V62.1074H118.578V58.499H118.549C118.005 59.2933 117.569 59.9557 117.24 60.4863C116.911 61.0137 116.61 61.541 116.337 62.0684ZM124.438 64.6562C123.585 64.6562 122.895 64.4658 122.367 64.085C121.843 63.7008 121.581 63.2028 121.581 62.5908C121.581 62.1286 121.734 61.7331 122.04 61.4043C122.346 61.0723 122.745 60.8656 123.236 60.7842V60.7549C122.826 60.6605 122.494 60.4684 122.24 60.1787C121.99 59.8857 121.864 59.5456 121.864 59.1582C121.864 58.6178 122.105 58.1735 122.587 57.8252C123.069 57.4736 123.686 57.2979 124.438 57.2979C125.193 57.2979 125.81 57.4736 126.288 57.8252C126.767 58.1735 127.006 58.6195 127.006 59.1631C127.006 59.5439 126.881 59.8809 126.63 60.1738C126.379 60.4635 126.049 60.6572 125.639 60.7549V60.7842C126.133 60.8688 126.532 61.0771 126.835 61.4092C127.141 61.738 127.294 62.1335 127.294 62.5957C127.294 63.2077 127.029 63.7041 126.498 64.085C125.971 64.4658 125.284 64.6562 124.438 64.6562ZM123.485 63.2744C123.733 63.4795 124.05 63.582 124.438 63.582C124.825 63.582 125.141 63.4795 125.385 63.2744C125.629 63.0661 125.751 62.8024 125.751 62.4834C125.751 62.1644 125.629 61.9023 125.385 61.6973C125.141 61.4889 124.825 61.3848 124.438 61.3848C124.05 61.3848 123.733 61.4889 123.485 61.6973C123.241 61.9023 123.119 62.1644 123.119 62.4834C123.119 62.8024 123.241 63.0661 123.485 63.2744ZM123.637 60.0371C123.845 60.2194 124.112 60.3105 124.438 60.3105C124.763 60.3105 125.03 60.2194 125.238 60.0371C125.447 59.8516 125.551 59.6188 125.551 59.3389C125.551 59.0557 125.447 58.8229 125.238 58.6406C125.03 58.4551 124.763 58.3623 124.438 58.3623C124.112 58.3623 123.845 58.4551 123.637 58.6406C123.428 58.8229 123.324 59.0557 123.324 59.3389C123.324 59.6221 123.428 59.8548 123.637 60.0371ZM128.114 59.5732C128.114 58.9059 128.355 58.3607 128.837 57.9375C129.322 57.5111 129.949 57.2979 130.717 57.2979C131.456 57.2979 132.058 57.4899 132.523 57.874C132.989 58.2549 133.222 58.7415 133.222 59.334C133.222 59.5456 133.189 59.7507 133.124 59.9492C133.062 60.1445 132.961 60.3415 132.821 60.54C132.685 60.7354 132.546 60.9128 132.406 61.0723C132.266 61.2285 132.084 61.4189 131.859 61.6436L130.141 63.2988V63.3281H133.319V64.5H128.197V63.5088L130.854 60.9502C131.212 60.5921 131.456 60.304 131.586 60.0859C131.719 59.8678 131.786 59.6367 131.786 59.3926C131.786 59.1257 131.68 58.901 131.469 58.7188C131.257 58.5365 130.99 58.4453 130.668 58.4453C130.326 58.4453 130.043 58.5527 129.818 58.7676C129.594 58.9792 129.481 59.2477 129.481 59.5732V59.5977H128.114V59.5732ZM137.777 57.4541V61.8633C137.777 62.3223 137.906 62.6868 138.163 62.957C138.424 63.224 138.788 63.3574 139.257 63.3574C139.722 63.3574 140.084 63.224 140.341 62.957C140.601 62.6868 140.731 62.3223 140.731 61.8633V57.4541H142.206V62.0098C142.206 62.791 141.938 63.4225 141.4 63.9043C140.867 64.3828 140.152 64.6221 139.257 64.6221C138.358 64.6221 137.641 64.3828 137.104 63.9043C136.57 63.4225 136.303 62.791 136.303 62.0098V57.4541H137.777ZM143.173 60.8037C143.173 60.3057 143.373 59.9069 143.773 59.6074C144.174 59.3047 144.709 59.1533 145.38 59.1533C146.034 59.1533 146.56 59.3063 146.957 59.6123C147.354 59.9183 147.558 60.3252 147.567 60.833H146.254C146.238 60.6214 146.15 60.4554 145.99 60.335C145.834 60.2145 145.624 60.1543 145.36 60.1543C145.113 60.1543 144.914 60.2064 144.765 60.3105C144.618 60.4115 144.545 60.5465 144.545 60.7158C144.545 60.9697 144.773 61.1504 145.229 61.2578L146.229 61.4727C146.754 61.5898 147.13 61.7607 147.357 61.9854C147.589 62.2067 147.704 62.5127 147.704 62.9033C147.704 63.4176 147.489 63.8311 147.06 64.1436C146.63 64.4561 146.068 64.6123 145.375 64.6123C144.685 64.6123 144.133 64.4593 143.72 64.1533C143.306 63.8473 143.08 63.4355 143.041 62.918H144.433C144.468 63.1393 144.569 63.3102 144.735 63.4307C144.905 63.5511 145.131 63.6113 145.414 63.6113C145.684 63.6113 145.896 63.5625 146.049 63.4648C146.205 63.3639 146.283 63.2272 146.283 63.0547C146.283 62.9212 146.234 62.8154 146.137 62.7373C146.039 62.6559 145.873 62.5876 145.639 62.5322L144.672 62.3174C143.673 62.0895 143.173 61.585 143.173 60.8037ZM150.766 60.208C150.456 60.208 150.198 60.3138 149.989 60.5254C149.784 60.737 149.669 61.0072 149.643 61.3359H151.864C151.848 61.0007 151.739 60.7288 151.537 60.5205C151.339 60.3122 151.081 60.208 150.766 60.208ZM151.884 62.8984H153.192C153.114 63.4128 152.857 63.8278 152.421 64.1436C151.988 64.4561 151.449 64.6123 150.805 64.6123C150.001 64.6123 149.369 64.3714 148.91 63.8896C148.454 63.4079 148.227 62.7471 148.227 61.9072C148.227 61.0706 148.454 60.4033 148.91 59.9053C149.366 59.404 149.979 59.1533 150.751 59.1533C151.509 59.1533 152.113 59.391 152.562 59.8662C153.012 60.3415 153.236 60.9779 153.236 61.7754V62.21H149.628V62.2979C149.628 62.6722 149.737 62.9766 149.955 63.2109C150.176 63.4421 150.468 63.5576 150.829 63.5576C151.09 63.5576 151.314 63.499 151.503 63.3818C151.692 63.2614 151.819 63.1003 151.884 62.8984ZM153.974 64.5V59.2656H155.351V60.208H155.38C155.471 59.876 155.624 59.6221 155.839 59.4463C156.054 59.2705 156.316 59.1826 156.625 59.1826C156.775 59.1826 156.91 59.2005 157.03 59.2363V60.4912C156.897 60.4359 156.724 60.4082 156.513 60.4082C156.161 60.4082 155.888 60.5107 155.692 60.7158C155.497 60.9209 155.399 61.2074 155.399 61.5752V64.5H153.974ZM157.528 60.8037C157.528 60.3057 157.729 59.9069 158.129 59.6074C158.529 59.3047 159.065 59.1533 159.735 59.1533C160.39 59.1533 160.915 59.3063 161.312 59.6123C161.71 59.9183 161.913 60.3252 161.923 60.833H160.609C160.593 60.6214 160.505 60.4554 160.346 60.335C160.189 60.2145 159.979 60.1543 159.716 60.1543C159.468 60.1543 159.27 60.2064 159.12 60.3105C158.974 60.4115 158.9 60.5465 158.9 60.7158C158.9 60.9697 159.128 61.1504 159.584 61.2578L160.585 61.4727C161.109 61.5898 161.485 61.7607 161.713 61.9854C161.944 62.2067 162.06 62.5127 162.06 62.9033C162.06 63.4176 161.845 63.8311 161.415 64.1436C160.985 64.4561 160.424 64.6123 159.73 64.6123C159.04 64.6123 158.489 64.4593 158.075 64.1533C157.662 63.8473 157.436 63.4355 157.396 62.918H158.788C158.824 63.1393 158.925 63.3102 159.091 63.4307C159.26 63.5511 159.486 63.6113 159.77 63.6113C160.04 63.6113 160.251 63.5625 160.404 63.4648C160.561 63.3639 160.639 63.2272 160.639 63.0547C160.639 62.9212 160.59 62.8154 160.492 62.7373C160.395 62.6559 160.229 62.5876 159.994 62.5322L159.027 62.3174C158.028 62.0895 157.528 61.585 157.528 60.8037Z" fill="white"/>
<path fill-rule="evenodd" clip-rule="evenodd" d="M143.5 73H133.5L138.5 78L143.5 73Z" fill="#8B4CFC"/>
</g>
<path d="M24.856 36.12C24.048 36.12 23.384 35.992 22.864 35.736C22.344 35.48 21.96 35.112 21.712 34.632C21.464 34.144 21.34 33.564 21.34 32.892V29.508C21.34 29.252 21.312 29.072 21.256 28.968C21.208 28.856 21.156 28.8 21.1 28.8H22.924C22.868 28.808 22.812 28.864 22.756 28.968C22.708 29.072 22.684 29.252 22.684 29.508V32.868C22.684 33.428 22.772 33.876 22.948 34.212C23.124 34.54 23.376 34.78 23.704 34.932C24.032 35.076 24.42 35.148 24.868 35.148H25C25.344 35.148 25.648 35.108 25.912 35.028C26.176 34.948 26.4 34.82 26.584 34.644C26.768 34.468 26.904 34.236 26.992 33.948C27.088 33.652 27.136 33.292 27.136 32.868V29.508C27.136 29.252 27.108 29.072 27.052 28.968C27.004 28.856 26.952 28.8 26.896 28.8H28.72C28.664 28.808 28.608 28.868 28.552 28.98C28.504 29.084 28.48 29.264 28.48 29.52V32.892C28.48 33.564 28.352 34.144 28.096 34.632C27.848 35.112 27.464 35.48 26.944 35.736C26.432 35.992 25.776 36.12 24.976 36.12H24.856ZM32.9842 36.12C32.2322 36.12 31.6002 36.08 31.0882 36C30.5842 35.92 30.2402 35.84 30.0562 35.76V35.52L29.8042 34.488C30.0122 34.656 30.3762 34.832 30.8962 35.016C31.4242 35.192 32.0642 35.28 32.8162 35.28C33.3122 35.28 33.6842 35.248 33.9322 35.184C34.1802 35.112 34.3442 35.02 34.4242 34.908C34.5042 34.788 34.5442 34.656 34.5442 34.512C34.5442 34.344 34.4842 34.212 34.3642 34.116C34.2522 34.012 34.0362 33.928 33.7162 33.864C33.4042 33.792 32.9402 33.72 32.3242 33.648C31.6522 33.568 31.1322 33.452 30.7642 33.3C30.4042 33.148 30.1562 32.956 30.0202 32.724C29.8842 32.484 29.8162 32.2 29.8162 31.872C29.8162 31.616 29.8842 31.364 30.0202 31.116C30.1562 30.868 30.4082 30.664 30.7762 30.504C31.1522 30.344 31.6842 30.264 32.3722 30.264C33.1162 30.264 33.7402 30.304 34.2442 30.384C34.7562 30.464 35.1042 30.544 35.2882 30.624V30.864L35.5282 31.776C35.3282 31.632 34.9642 31.484 34.4362 31.332C33.9082 31.18 33.2722 31.104 32.5282 31.104C31.9362 31.104 31.5402 31.172 31.3402 31.308C31.1402 31.436 31.0402 31.604 31.0402 31.812C31.0402 31.932 31.0642 32.04 31.1122 32.136C31.1602 32.224 31.2562 32.304 31.4002 32.376C31.5522 32.448 31.7762 32.512 32.0722 32.568C32.3762 32.624 32.7802 32.68 33.2842 32.736C33.9642 32.808 34.4802 32.92 34.8322 33.072C35.1842 33.224 35.4242 33.416 35.5522 33.648C35.6882 33.872 35.7562 34.136 35.7562 34.44C35.7562 34.768 35.6642 35.06 35.4802 35.316C35.3042 35.564 35.0122 35.76 34.6042 35.904C34.1962 36.048 33.6562 36.12 32.9842 36.12ZM39.732 36.12C39.1 36.12 38.58 36.048 38.172 35.904C37.764 35.752 37.444 35.544 37.212 35.28C36.98 35.016 36.816 34.708 36.72 34.356C36.632 34.004 36.588 33.62 36.588 33.204C36.588 32.3 36.844 31.584 37.356 31.056C37.876 30.528 38.644 30.264 39.66 30.264C40.252 30.264 40.728 30.344 41.088 30.504C41.456 30.664 41.732 30.876 41.916 31.14C42.108 31.404 42.236 31.692 42.3 32.004C42.372 32.308 42.408 32.608 42.408 32.904V33.468C42.408 33.444 42.296 33.42 42.072 33.396C41.856 33.364 41.488 33.348 40.968 33.348H37.812C37.812 33.94 37.988 34.408 38.34 34.752C38.692 35.096 39.216 35.268 39.912 35.268C40.512 35.268 41.004 35.196 41.388 35.052C41.78 34.9 42.04 34.752 42.168 34.608V34.848L42.288 35.64C42.112 35.744 41.8 35.852 41.352 35.964C40.912 36.068 40.372 36.12 39.732 36.12ZM38.292 32.556H41.208C41.208 32.348 41.164 32.132 41.076 31.908C40.988 31.684 40.832 31.496 40.608 31.344C40.384 31.184 40.068 31.104 39.66 31.104C39.316 31.104 39.016 31.164 38.76 31.284C38.504 31.396 38.304 31.544 38.16 31.728C38.024 31.912 37.956 32.108 37.956 32.316C37.956 32.396 37.98 32.456 38.028 32.496C38.076 32.536 38.164 32.556 38.292 32.556ZM43.4348 36C43.4908 36 43.5428 35.944 43.5908 35.832C43.6468 35.72 43.6748 35.536 43.6748 35.28V31.224C43.6748 30.968 43.6468 30.788 43.5908 30.684C43.5428 30.572 43.4908 30.512 43.4348 30.504C43.7868 30.504 44.0908 30.48 44.3468 30.432C44.6108 30.376 44.7948 30.32 44.8988 30.264V30.864L44.8748 31.068L44.8988 31.092C45.0188 30.932 45.1628 30.792 45.3308 30.672C45.5068 30.544 45.7068 30.444 45.9308 30.372C46.1548 30.3 46.4108 30.264 46.6988 30.264C47.0748 30.264 47.3988 30.32 47.6708 30.432C47.9508 30.536 48.1508 30.644 48.2708 30.756L48.0308 31.764V32.124C47.9268 31.996 47.7748 31.864 47.5748 31.728C47.3828 31.584 47.1628 31.464 46.9148 31.368C46.6668 31.272 46.4028 31.224 46.1228 31.224C45.8028 31.224 45.5188 31.352 45.2708 31.608C45.0228 31.864 44.8988 32.288 44.8988 32.88V35.28C44.8988 35.536 44.9228 35.72 44.9708 35.832C45.0268 35.944 45.0828 36 45.1388 36H43.4348ZM55.8786 36.12C55.0066 36.12 54.2346 36.08 53.5626 36C52.8906 35.92 52.4066 35.84 52.1106 35.76V35.52L51.8706 34.236C51.9826 34.364 52.1946 34.5 52.5066 34.644C52.8266 34.788 53.2506 34.912 53.7786 35.016C54.3066 35.112 54.9346 35.16 55.6626 35.16C56.3186 35.16 56.8146 35.116 57.1506 35.028C57.4946 34.932 57.7266 34.804 57.8466 34.644C57.9746 34.476 58.0386 34.284 58.0386 34.068C58.0386 33.812 57.9346 33.608 57.7266 33.456C57.5186 33.304 57.2066 33.184 56.7906 33.096C56.3826 33 55.8746 32.916 55.2666 32.844C54.4746 32.74 53.8386 32.604 53.3586 32.436C52.8786 32.26 52.5306 32.028 52.3146 31.74C52.0986 31.452 51.9906 31.088 51.9906 30.648C51.9906 30.272 52.1026 29.936 52.3266 29.64C52.5586 29.344 52.9066 29.112 53.3706 28.944C53.8346 28.768 54.4266 28.68 55.1466 28.68C55.9786 28.68 56.7026 28.72 57.3186 28.8C57.9346 28.88 58.3706 28.96 58.6266 29.04V29.28L58.9866 30.36C58.8186 30.256 58.5586 30.148 58.2066 30.036C57.8626 29.924 57.4466 29.832 56.9586 29.76C56.4706 29.68 55.9266 29.64 55.3266 29.64C54.8306 29.64 54.4346 29.676 54.1386 29.748C53.8506 29.82 53.6426 29.928 53.5146 30.072C53.3946 30.208 53.3346 30.376 53.3346 30.576C53.3346 30.84 53.4306 31.052 53.6226 31.212C53.8226 31.372 54.1106 31.496 54.4866 31.584C54.8706 31.672 55.3346 31.748 55.8786 31.812C56.7426 31.908 57.4306 32.044 57.9426 32.22C58.4546 32.396 58.8226 32.632 59.0466 32.928C59.2706 33.224 59.3826 33.608 59.3826 34.08C59.3826 34.392 59.3066 34.676 59.1546 34.932C59.0106 35.18 58.7906 35.396 58.4946 35.58C58.1986 35.756 57.8306 35.892 57.3906 35.988C56.9586 36.076 56.4546 36.12 55.8786 36.12ZM62.7553 36.12C62.2033 36.12 61.8033 36.004 61.5553 35.772C61.3073 35.532 61.1833 35.144 61.1833 34.608V31.224H60.1033V30.384C60.4713 30.384 60.7593 30.34 60.9673 30.252C61.1753 30.156 61.3233 29.992 61.4113 29.76C61.4993 29.528 61.5433 29.204 61.5433 28.788H62.4073V30.384H64.6993C64.6433 30.464 64.5873 30.584 64.5313 30.744C64.4833 30.896 64.4593 31.056 64.4593 31.224H62.4073V34.428C62.4073 34.796 62.4753 35.028 62.6113 35.124C62.7473 35.22 62.9193 35.268 63.1273 35.268C63.3273 35.268 63.5113 35.228 63.6793 35.148C63.8553 35.06 64.0073 34.956 64.1353 34.836C64.2713 34.716 64.3753 34.6 64.4473 34.488V34.86L64.5673 35.544C64.4873 35.624 64.3633 35.712 64.1953 35.808C64.0273 35.896 63.8233 35.968 63.5833 36.024C63.3433 36.088 63.0673 36.12 62.7553 36.12ZM67.6643 36.12C66.7923 36.12 66.1803 35.964 65.8283 35.652C65.4763 35.332 65.3003 34.904 65.3003 34.368C65.3003 33.992 65.3923 33.672 65.5763 33.408C65.7683 33.136 66.0523 32.928 66.4283 32.784C66.8123 32.64 67.2963 32.568 67.8803 32.568C68.2963 32.568 68.6563 32.6 68.9603 32.664C69.2723 32.72 69.5243 32.788 69.7163 32.868C69.9163 32.948 70.0563 33.016 70.1363 33.072C70.1363 32.6 70.0763 32.22 69.9563 31.932C69.8443 31.644 69.6603 31.436 69.4043 31.308C69.1483 31.172 68.8003 31.104 68.3603 31.104C67.8883 31.104 67.4643 31.16 67.0883 31.272C66.7203 31.376 66.4243 31.492 66.2003 31.62C65.9763 31.74 65.8363 31.828 65.7803 31.884V31.644L65.6603 30.744C65.7323 30.712 65.8883 30.66 66.1283 30.588C66.3683 30.508 66.6843 30.436 67.0763 30.372C67.4683 30.3 67.9283 30.264 68.4563 30.264C69.1283 30.264 69.6763 30.36 70.1003 30.552C70.5323 30.736 70.8483 31.024 71.0483 31.416C71.2563 31.8 71.3603 32.288 71.3603 32.88V35.28C71.3603 35.504 71.3843 35.668 71.4323 35.772C71.4883 35.868 71.5443 35.944 71.6003 36H70.1363V35.64L70.1603 35.412L70.1363 35.4C70.0083 35.52 69.8563 35.624 69.6803 35.712C69.5043 35.8 69.3123 35.876 69.1043 35.94C68.8963 35.996 68.6683 36.04 68.4203 36.072C68.1803 36.104 67.9283 36.12 67.6643 36.12ZM68.0603 35.268C68.4923 35.268 68.8643 35.224 69.1763 35.136C69.4883 35.048 69.7243 34.932 69.8843 34.788C70.0523 34.636 70.1363 34.464 70.1363 34.272C70.1363 34.032 69.9763 33.828 69.6563 33.66C69.3443 33.492 68.8563 33.408 68.1923 33.408C67.5763 33.408 67.1403 33.488 66.8843 33.648C66.6363 33.808 66.5123 34.048 66.5123 34.368C66.5123 34.68 66.6323 34.908 66.8723 35.052C67.1203 35.196 67.5163 35.268 68.0603 35.268ZM74.9779 36.12C74.4259 36.12 74.0259 36.004 73.7779 35.772C73.5299 35.532 73.4059 35.144 73.4059 34.608V31.224H72.3259V30.384C72.6939 30.384 72.9819 30.34 73.1899 30.252C73.3979 30.156 73.5459 29.992 73.6339 29.76C73.7219 29.528 73.7659 29.204 73.7659 28.788H74.6299V30.384H76.9219C76.8659 30.464 76.8099 30.584 76.7539 30.744C76.7059 30.896 76.6819 31.056 76.6819 31.224H74.6299V34.428C74.6299 34.796 74.6979 35.028 74.8339 35.124C74.9699 35.22 75.1419 35.268 75.3499 35.268C75.5499 35.268 75.7339 35.228 75.9019 35.148C76.0779 35.06 76.2299 34.956 76.3579 34.836C76.4939 34.716 76.5979 34.6 76.6699 34.488V34.86L76.7899 35.544C76.7099 35.624 76.5859 35.712 76.4179 35.808C76.2499 35.896 76.0459 35.968 75.8059 36.024C75.5659 36.088 75.2899 36.12 74.9779 36.12ZM80.703 36.12C79.951 36.12 79.319 36.08 78.807 36C78.303 35.92 77.959 35.84 77.775 35.76V35.52L77.523 34.488C77.731 34.656 78.095 34.832 78.615 35.016C79.143 35.192 79.783 35.28 80.535 35.28C81.031 35.28 81.403 35.248 81.651 35.184C81.899 35.112 82.063 35.02 82.143 34.908C82.223 34.788 82.263 34.656 82.263 34.512C82.263 34.344 82.203 34.212 82.083 34.116C81.971 34.012 81.755 33.928 81.435 33.864C81.123 33.792 80.659 33.72 80.043 33.648C79.371 33.568 78.851 33.452 78.483 33.3C78.123 33.148 77.875 32.956 77.739 32.724C77.603 32.484 77.535 32.2 77.535 31.872C77.535 31.616 77.603 31.364 77.739 31.116C77.875 30.868 78.127 30.664 78.495 30.504C78.871 30.344 79.403 30.264 80.091 30.264C80.835 30.264 81.459 30.304 81.963 30.384C82.475 30.464 82.823 30.544 83.007 30.624V30.864L83.247 31.776C83.047 31.632 82.683 31.484 82.155 31.332C81.627 31.18 80.991 31.104 80.247 31.104C79.655 31.104 79.259 31.172 79.059 31.308C78.859 31.436 78.759 31.604 78.759 31.812C78.759 31.932 78.783 32.04 78.831 32.136C78.879 32.224 78.975 32.304 79.119 32.376C79.271 32.448 79.495 32.512 79.791 32.568C80.095 32.624 80.499 32.68 81.003 32.736C81.683 32.808 82.199 32.92 82.551 33.072C82.903 33.224 83.143 33.416 83.271 33.648C83.407 33.872 83.475 34.136 83.475 34.44C83.475 34.768 83.383 35.06 83.199 35.316C83.023 35.564 82.731 35.76 82.323 35.904C81.915 36.048 81.375 36.12 80.703 36.12Z" fill="black"/>
<path d="M272.278 36H271.277V30.8145H271.243L269.119 35.9463H268.309L266.18 30.8145H266.146V36H265.149V28.9541H266.414L268.694 34.5156H268.733L271.009 28.9541H272.278V36ZM277.43 35.3848C276.987 35.86 276.396 36.0977 275.657 36.0977C274.918 36.0977 274.327 35.86 273.885 35.3848C273.442 34.9062 273.221 34.2552 273.221 33.4316C273.221 32.6113 273.442 31.9635 273.885 31.4883C274.327 31.0098 274.918 30.7705 275.657 30.7705C276.396 30.7705 276.987 31.0098 277.43 31.4883C277.872 31.9635 278.094 32.6113 278.094 33.4316C278.094 34.2552 277.872 34.9062 277.43 35.3848ZM275.657 35.2285C276.077 35.2285 276.409 35.0706 276.653 34.7549C276.897 34.4391 277.02 33.998 277.02 33.4316C277.02 32.8685 276.896 32.429 276.648 32.1133C276.404 31.7975 276.074 31.6396 275.657 31.6396C275.241 31.6396 274.909 31.7975 274.661 32.1133C274.417 32.429 274.295 32.8685 274.295 33.4316C274.295 33.998 274.417 34.4391 274.661 34.7549C274.909 35.0706 275.241 35.2285 275.657 35.2285ZM278.909 36V30.8633H279.915V31.7227H279.939C280.083 31.4232 280.291 31.1904 280.564 31.0244C280.838 30.8584 281.168 30.7754 281.556 30.7754C282.119 30.7754 282.557 30.9447 282.869 31.2832C283.182 31.6185 283.338 32.0824 283.338 32.6748V36H282.278V32.8799C282.278 32.4893 282.186 32.193 282 31.9912C281.818 31.7861 281.546 31.6836 281.185 31.6836C280.813 31.6836 280.517 31.804 280.296 32.0449C280.075 32.2858 279.964 32.6064 279.964 33.0068V36H278.909ZM284.666 29.6475H285.726V30.8633H286.702V31.6982H285.726V34.5303C285.726 34.7516 285.776 34.9144 285.877 35.0186C285.978 35.1227 286.136 35.1748 286.351 35.1748C286.507 35.1748 286.622 35.1667 286.697 35.1504V35.9854C286.567 36.0179 286.372 36.0342 286.111 36.0342C285.594 36.0342 285.223 35.9284 284.998 35.7168C284.777 35.502 284.666 35.1455 284.666 34.6475V31.6982H283.919V30.8633H284.666V29.6475ZM287.61 36V28.9541H288.655V31.7227H288.68C288.823 31.4199 289.033 31.1872 289.31 31.0244C289.586 30.8584 289.918 30.7754 290.306 30.7754C290.866 30.7754 291.305 30.9479 291.624 31.293C291.946 31.638 292.107 32.1035 292.107 32.6895V36H291.048V32.8945C291.048 32.5104 290.952 32.2126 290.76 32.001C290.571 31.7894 290.293 31.6836 289.925 31.6836C289.537 31.6836 289.23 31.8073 289.002 32.0547C288.777 32.2988 288.665 32.6243 288.665 33.0312V36H287.61Z" fill="black"/>
<path fill-rule="evenodd" clip-rule="evenodd" d="M309.07 29.234L305.966 32.338L302.862 29.234C302.713 29.0842 302.51 29 302.298 29C302.086 29 301.883 29.0842 301.734 29.234C301.422 29.546 301.422 30.05 301.734 30.362L305.406 34.034C305.718 34.346 306.222 34.346 306.534 34.034L310.206 30.362C310.518 30.05 310.518 29.546 310.206 29.234C309.894 28.93 309.382 28.922 309.07 29.234Z" fill="#C2A3FC"/>
<defs>
<filter id="filter0_d_800_5401" x="77.5" y="28" width="122" height="90" filterUnits="userSpaceOnUse" color-interpolation-filters="sRGB">
<feFlood flood-opacity="0" result="BackgroundImageFix"/>
<feColorMatrix in="SourceAlpha" type="matrix" values="0 0 0 0 0 0 0 0 0 0 0 0 0 0 0 0 0 0 127 0" result="hardAlpha"/>
<feOffset dy="10"/>
<feGaussianBlur stdDeviation="15"/>
<feColorMatrix type="matrix" values="0 0 0 0 0.956863 0 0 0 0 0.933333 0 0 0 0 1 0 0 0 1 0"/>
<feBlend mode="normal" in2="BackgroundImageFix" result="effect1_dropShadow_800_5401"/>
<feBlend mode="normal" in="SourceGraphic" in2="effect1_dropShadow_800_5401" result="shape"/>
</filter>
</defs>
</svg>
