<svg width="333" height="217" viewBox="0 0 333 217" fill="none" xmlns="http://www.w3.org/2000/svg">
<rect x="0.5" y="0.5" width="332" height="216" rx="9.5" fill="white"/>
<rect x="0.5" y="0.5" width="332" height="216" rx="9.5" stroke="#F1F1F3"/>
<path d="M77.3105 167.02H287" stroke="black" stroke-width="0.25" stroke-miterlimit="10"/>
<path d="M105.076 170.942V167.047" stroke="black" stroke-width="0.25" stroke-miterlimit="10"/>
<path d="M133.076 167.047V170.942" stroke="black" stroke-width="0.25" stroke-miterlimit="10"/>
<path d="M161.076 167.047V170.942" stroke="black" stroke-width="0.25" stroke-miterlimit="10"/>
<path d="M189.076 167.047V170.942" stroke="black" stroke-width="0.25" stroke-miterlimit="10"/>
<path d="M217.076 167.047V170.942" stroke="black" stroke-width="0.25" stroke-miterlimit="10"/>
<path d="M245.076 167.047V170.942" stroke="black" stroke-width="0.25" stroke-miterlimit="10"/>
<path d="M273.076 167.047V170.942" stroke="black" stroke-width="0.25" stroke-miterlimit="10"/>
<path d="M100 160V127.538" stroke="#C2A3FC" stroke-width="8" stroke-linecap="square" stroke-linejoin="round"/>
<path d="M110 160V110.999" stroke="#8B4CFC" stroke-width="8" stroke-linecap="square" stroke-linejoin="round"/>
<path d="M128 160V116" stroke="#C2A3FC" stroke-width="8" stroke-linecap="square" stroke-linejoin="round"/>
<path d="M138 160V89.5" stroke="#8B4CFC" stroke-width="8" stroke-linecap="square" stroke-linejoin="round"/>
<path d="M156 160V113.5" stroke="#C2A3FC" stroke-width="8" stroke-linecap="square" stroke-linejoin="round"/>
<path d="M166 160V146.44" stroke="#8B4CFC" stroke-width="8" stroke-linecap="square" stroke-linejoin="round"/>
<path d="M184 160V96.5613" stroke="#C2A3FC" stroke-width="8" stroke-linecap="square" stroke-linejoin="round"/>
<path d="M194 160V119.38" stroke="#8B4CFC" stroke-width="8" stroke-linecap="square" stroke-linejoin="round"/>
<path d="M212 160V149.684" stroke="#C2A3FC" stroke-width="8" stroke-linecap="square" stroke-linejoin="round"/>
<path d="M222 160V131.5" stroke="#8B4CFC" stroke-width="8" stroke-linecap="square" stroke-linejoin="round"/>
<path d="M240 160V102.5" stroke="#C2A3FC" stroke-width="8" stroke-linecap="square" stroke-linejoin="round"/>
<path d="M250 160V91.1155" stroke="#8B4CFC" stroke-width="8" stroke-linecap="square" stroke-linejoin="round"/>
<path d="M268 160V137.92" stroke="#C2A3FC" stroke-width="8" stroke-linecap="square" stroke-linejoin="round"/>
<path d="M278 160V115.244" stroke="#8B4CFC" stroke-width="8" stroke-linecap="square" stroke-linejoin="round"/>
<path d="M56.18 88V87.934C56.22 87.85 56.316 87.706 56.468 87.502C56.624 87.294 56.838 87.05 57.11 86.77C57.254 86.618 57.396 86.48 57.536 86.356C57.68 86.232 57.808 86.114 57.92 86.002C58.036 85.886 58.128 85.772 58.196 85.66C58.268 85.548 58.304 85.43 58.304 85.306C58.304 85.154 58.258 85.036 58.166 84.952C58.074 84.864 57.922 84.82 57.71 84.82C57.518 84.82 57.338 84.85 57.17 84.91C57.002 84.97 56.852 85.044 56.72 85.132C56.592 85.216 56.492 85.298 56.42 85.378V85.258L56.3 84.7C56.384 84.62 56.546 84.54 56.786 84.46C57.026 84.38 57.33 84.34 57.698 84.34C58.022 84.34 58.276 84.382 58.46 84.466C58.648 84.55 58.78 84.66 58.856 84.796C58.936 84.928 58.976 85.068 58.976 85.216C58.976 85.428 58.926 85.622 58.826 85.798C58.726 85.97 58.592 86.138 58.424 86.302C58.26 86.462 58.078 86.63 57.878 86.806C57.67 86.986 57.49 87.136 57.338 87.256C57.186 87.372 57.076 87.452 57.008 87.496V87.514H58.316C58.556 87.514 58.752 87.494 58.904 87.454C59.06 87.414 59.164 87.374 59.216 87.334L59.096 87.814V88H56.18ZM61.2284 88.06C60.6964 88.06 60.2984 87.902 60.0344 87.586C59.7704 87.266 59.6384 86.798 59.6384 86.182C59.6384 85.582 59.7724 85.126 60.0404 84.814C60.3084 84.498 60.7044 84.34 61.2284 84.34H61.2944C61.8104 84.34 62.1984 84.496 62.4584 84.808C62.7224 85.12 62.8544 85.578 62.8544 86.182C62.8544 86.798 62.7224 87.266 62.4584 87.586C62.1984 87.902 61.8104 88.06 61.2944 88.06H61.2284ZM61.2284 87.574H61.2944C61.4824 87.574 61.6424 87.536 61.7744 87.46C61.9064 87.38 62.0064 87.24 62.0744 87.04C62.1464 86.836 62.1824 86.55 62.1824 86.182C62.1824 85.822 62.1464 85.544 62.0744 85.348C62.0064 85.148 61.9064 85.01 61.7744 84.934C61.6424 84.858 61.4824 84.82 61.2944 84.82H61.2284C61.0364 84.82 60.8724 84.858 60.7364 84.934C60.6004 85.01 60.4944 85.146 60.4184 85.342C60.3464 85.538 60.3104 85.818 60.3104 86.182C60.3104 86.554 60.3464 86.842 60.4184 87.046C60.4944 87.246 60.6004 87.384 60.7364 87.46C60.8764 87.536 61.0404 87.574 61.2284 87.574ZM64.9257 88.06C64.3937 88.06 63.9957 87.902 63.7317 87.586C63.4677 87.266 63.3357 86.798 63.3357 86.182C63.3357 85.582 63.4697 85.126 63.7377 84.814C64.0057 84.498 64.4017 84.34 64.9257 84.34H64.9917C65.5077 84.34 65.8957 84.496 66.1557 84.808C66.4197 85.12 66.5517 85.578 66.5517 86.182C66.5517 86.798 66.4197 87.266 66.1557 87.586C65.8957 87.902 65.5077 88.06 64.9917 88.06H64.9257ZM64.9257 87.574H64.9917C65.1797 87.574 65.3397 87.536 65.4717 87.46C65.6037 87.38 65.7037 87.24 65.7717 87.04C65.8437 86.836 65.8797 86.55 65.8797 86.182C65.8797 85.822 65.8437 85.544 65.7717 85.348C65.7037 85.148 65.6037 85.01 65.4717 84.934C65.3397 84.858 65.1797 84.82 64.9917 84.82H64.9257C64.7337 84.82 64.5697 84.858 64.4337 84.934C64.2977 85.01 64.1917 85.146 64.1157 85.342C64.0437 85.538 64.0077 85.818 64.0077 86.182C64.0077 86.554 64.0437 86.842 64.1157 87.046C64.1917 87.246 64.2977 87.384 64.4337 87.46C64.5737 87.536 64.7377 87.574 64.9257 87.574Z" fill="#494949"/>
<path d="M57.28 108C57.308 108 57.334 107.972 57.358 107.916C57.386 107.86 57.4 107.768 57.4 107.64V105L56.74 105.12V104.58C56.904 104.58 57.07 104.568 57.238 104.544C57.41 104.516 57.568 104.484 57.712 104.448C57.86 104.408 57.98 104.372 58.072 104.34V107.64C58.072 107.768 58.086 107.86 58.114 107.916C58.142 107.972 58.17 108 58.198 108H57.28ZM60.5006 108.06C60.0846 108.06 59.7266 108.034 59.4266 107.982C59.1266 107.926 58.9166 107.872 58.7966 107.82L58.9166 107.238V107.118C58.9766 107.182 59.0726 107.25 59.2046 107.322C59.3406 107.394 59.5086 107.456 59.7086 107.508C59.9086 107.556 60.1366 107.58 60.3926 107.58C60.7366 107.58 60.9806 107.522 61.1246 107.406C61.2686 107.286 61.3406 107.11 61.3406 106.878C61.3406 106.658 61.2566 106.492 61.0886 106.38C60.9246 106.268 60.6706 106.212 60.3266 106.212C59.9866 106.212 59.7066 106.226 59.4866 106.254C59.2666 106.278 59.1166 106.304 59.0366 106.332V104.4H61.6886V104.52L61.8086 105C61.7646 104.972 61.6446 104.946 61.4486 104.922C61.2526 104.894 60.9766 104.88 60.6206 104.88H59.7086V105.576C59.7086 105.664 59.7186 105.716 59.7386 105.732C59.7586 105.748 59.8286 105.756 59.9486 105.756H60.5006C61.0246 105.756 61.4066 105.85 61.6466 106.038C61.8906 106.222 62.0126 106.518 62.0126 106.926C62.0126 107.258 61.8906 107.53 61.6466 107.742C61.4066 107.954 61.0246 108.06 60.5006 108.06ZM64.0839 108.06C63.5519 108.06 63.1539 107.902 62.8899 107.586C62.6259 107.266 62.4939 106.798 62.4939 106.182C62.4939 105.582 62.6279 105.126 62.8959 104.814C63.1639 104.498 63.5599 104.34 64.0839 104.34H64.1499C64.6659 104.34 65.0539 104.496 65.3139 104.808C65.5779 105.12 65.7099 105.578 65.7099 106.182C65.7099 106.798 65.5779 107.266 65.3139 107.586C65.0539 107.902 64.6659 108.06 64.1499 108.06H64.0839ZM64.0839 107.574H64.1499C64.3379 107.574 64.4979 107.536 64.6299 107.46C64.7619 107.38 64.8619 107.24 64.9299 107.04C65.0019 106.836 65.0379 106.55 65.0379 106.182C65.0379 105.822 65.0019 105.544 64.9299 105.348C64.8619 105.148 64.7619 105.01 64.6299 104.934C64.4979 104.858 64.3379 104.82 64.1499 104.82H64.0839C63.8919 104.82 63.7279 104.858 63.5919 104.934C63.4559 105.01 63.3499 105.146 63.2739 105.342C63.2019 105.538 63.1659 105.818 63.1659 106.182C63.1659 106.554 63.2019 106.842 63.2739 107.046C63.3499 107.246 63.4559 107.384 63.5919 107.46C63.7319 107.536 63.8959 107.574 64.0839 107.574Z" fill="#494949"/>
<path d="M57.28 128C57.308 128 57.334 127.972 57.358 127.916C57.386 127.86 57.4 127.768 57.4 127.64V125L56.74 125.12V124.58C56.904 124.58 57.07 124.568 57.238 124.544C57.41 124.516 57.568 124.484 57.712 124.448C57.86 124.408 57.98 124.372 58.072 124.34V127.64C58.072 127.768 58.086 127.86 58.114 127.916C58.142 127.972 58.17 128 58.198 128H57.28ZM60.3866 128.06C59.8546 128.06 59.4566 127.902 59.1926 127.586C58.9286 127.266 58.7966 126.798 58.7966 126.182C58.7966 125.582 58.9306 125.126 59.1986 124.814C59.4666 124.498 59.8626 124.34 60.3866 124.34H60.4526C60.9686 124.34 61.3566 124.496 61.6166 124.808C61.8806 125.12 62.0126 125.578 62.0126 126.182C62.0126 126.798 61.8806 127.266 61.6166 127.586C61.3566 127.902 60.9686 128.06 60.4526 128.06H60.3866ZM60.3866 127.574H60.4526C60.6406 127.574 60.8006 127.536 60.9326 127.46C61.0646 127.38 61.1646 127.24 61.2326 127.04C61.3046 126.836 61.3406 126.55 61.3406 126.182C61.3406 125.822 61.3046 125.544 61.2326 125.348C61.1646 125.148 61.0646 125.01 60.9326 124.934C60.8006 124.858 60.6406 124.82 60.4526 124.82H60.3866C60.1946 124.82 60.0306 124.858 59.8946 124.934C59.7586 125.01 59.6526 125.146 59.5766 125.342C59.5046 125.538 59.4686 125.818 59.4686 126.182C59.4686 126.554 59.5046 126.842 59.5766 127.046C59.6526 127.246 59.7586 127.384 59.8946 127.46C60.0346 127.536 60.1986 127.574 60.3866 127.574ZM64.0839 128.06C63.5519 128.06 63.1539 127.902 62.8899 127.586C62.6259 127.266 62.4939 126.798 62.4939 126.182C62.4939 125.582 62.6279 125.126 62.8959 124.814C63.1639 124.498 63.5599 124.34 64.0839 124.34H64.1499C64.6659 124.34 65.0539 124.496 65.3139 124.808C65.5779 125.12 65.7099 125.578 65.7099 126.182C65.7099 126.798 65.5779 127.266 65.3139 127.586C65.0539 127.902 64.6659 128.06 64.1499 128.06H64.0839ZM64.0839 127.574H64.1499C64.3379 127.574 64.4979 127.536 64.6299 127.46C64.7619 127.38 64.8619 127.24 64.9299 127.04C65.0019 126.836 65.0379 126.55 65.0379 126.182C65.0379 125.822 65.0019 125.544 64.9299 125.348C64.8619 125.148 64.7619 125.01 64.6299 124.934C64.4979 124.858 64.3379 124.82 64.1499 124.82H64.0839C63.8919 124.82 63.7279 124.858 63.5919 124.934C63.4559 125.01 63.3499 125.146 63.2739 125.342C63.2019 125.538 63.1659 125.818 63.1659 126.182C63.1659 126.554 63.2019 126.842 63.2739 127.046C63.3499 127.246 63.4559 127.384 63.5919 127.46C63.7319 127.536 63.8959 127.574 64.0839 127.574Z" fill="#494949"/>
<path d="M59.444 148.06C59.028 148.06 58.67 148.034 58.37 147.982C58.07 147.926 57.86 147.872 57.74 147.82L57.86 147.238V147.118C57.92 147.182 58.016 147.25 58.148 147.322C58.284 147.394 58.452 147.456 58.652 147.508C58.852 147.556 59.08 147.58 59.336 147.58C59.68 147.58 59.924 147.522 60.068 147.406C60.212 147.286 60.284 147.11 60.284 146.878C60.284 146.658 60.2 146.492 60.032 146.38C59.868 146.268 59.614 146.212 59.27 146.212C58.93 146.212 58.65 146.226 58.43 146.254C58.21 146.278 58.06 146.304 57.98 146.332V144.4H60.632V144.52L60.752 145C60.708 144.972 60.588 144.946 60.392 144.922C60.196 144.894 59.92 144.88 59.564 144.88H58.652V145.576C58.652 145.664 58.662 145.716 58.682 145.732C58.702 145.748 58.772 145.756 58.892 145.756H59.444C59.968 145.756 60.35 145.85 60.59 146.038C60.834 146.222 60.956 146.518 60.956 146.926C60.956 147.258 60.834 147.53 60.59 147.742C60.35 147.954 59.968 148.06 59.444 148.06ZM63.0273 148.06C62.4953 148.06 62.0973 147.902 61.8333 147.586C61.5693 147.266 61.4373 146.798 61.4373 146.182C61.4373 145.582 61.5713 145.126 61.8393 144.814C62.1073 144.498 62.5033 144.34 63.0273 144.34H63.0933C63.6093 144.34 63.9973 144.496 64.2573 144.808C64.5213 145.12 64.6533 145.578 64.6533 146.182C64.6533 146.798 64.5213 147.266 64.2573 147.586C63.9973 147.902 63.6093 148.06 63.0933 148.06H63.0273ZM63.0273 147.574H63.0933C63.2813 147.574 63.4413 147.536 63.5733 147.46C63.7053 147.38 63.8053 147.24 63.8733 147.04C63.9453 146.836 63.9813 146.55 63.9813 146.182C63.9813 145.822 63.9453 145.544 63.8733 145.348C63.8053 145.148 63.7053 145.01 63.5733 144.934C63.4413 144.858 63.2813 144.82 63.0933 144.82H63.0273C62.8353 144.82 62.6713 144.858 62.5353 144.934C62.3993 145.01 62.2933 145.146 62.2173 145.342C62.1453 145.538 62.1093 145.818 62.1093 146.182C62.1093 146.554 62.1453 146.842 62.2173 147.046C62.2933 147.246 62.3993 147.384 62.5353 147.46C62.6753 147.536 62.8393 147.574 63.0273 147.574Z" fill="#494949"/>
<path d="M61.33 168.06C60.798 168.06 60.4 167.902 60.136 167.586C59.872 167.266 59.74 166.798 59.74 166.182C59.74 165.582 59.874 165.126 60.142 164.814C60.41 164.498 60.806 164.34 61.33 164.34H61.396C61.912 164.34 62.3 164.496 62.56 164.808C62.824 165.12 62.956 165.578 62.956 166.182C62.956 166.798 62.824 167.266 62.56 167.586C62.3 167.902 61.912 168.06 61.396 168.06H61.33ZM61.33 167.574H61.396C61.584 167.574 61.744 167.536 61.876 167.46C62.008 167.38 62.108 167.24 62.176 167.04C62.248 166.836 62.284 166.55 62.284 166.182C62.284 165.822 62.248 165.544 62.176 165.348C62.108 165.148 62.008 165.01 61.876 164.934C61.744 164.858 61.584 164.82 61.396 164.82H61.33C61.138 164.82 60.974 164.858 60.838 164.934C60.702 165.01 60.596 165.146 60.52 165.342C60.448 165.538 60.412 165.818 60.412 166.182C60.412 166.554 60.448 166.842 60.52 167.046C60.596 167.246 60.702 167.384 60.838 167.46C60.978 167.536 61.142 167.574 61.33 167.574Z" fill="#494949"/>
<path d="M96.48 180C96.5173 180 96.5547 179.963 96.592 179.888C96.6293 179.813 96.648 179.691 96.648 179.52V175.68C96.648 175.509 96.6293 175.389 96.592 175.32C96.5547 175.245 96.5173 175.205 96.48 175.2H97.96C97.9493 175.2 97.9547 175.237 97.976 175.312C97.9973 175.387 98.048 175.515 98.128 175.696C98.16 175.765 98.216 175.888 98.296 176.064C98.3813 176.24 98.4827 176.451 98.6 176.696C98.7173 176.936 98.8427 177.195 98.976 177.472C99.1093 177.749 99.2453 178.032 99.384 178.32C99.5227 178.603 99.6533 178.869 99.776 179.12H99.784C99.912 178.864 100.045 178.595 100.184 178.312C100.323 178.024 100.461 177.739 100.6 177.456C100.739 177.173 100.867 176.912 100.984 176.672C101.101 176.427 101.2 176.219 101.28 176.048C101.365 175.872 101.424 175.749 101.456 175.68C101.531 175.509 101.579 175.387 101.6 175.312C101.627 175.237 101.635 175.2 101.624 175.2H103.096C103.059 175.2 103.021 175.237 102.984 175.312C102.947 175.387 102.928 175.512 102.928 175.688V179.52C102.928 179.691 102.947 179.813 102.984 179.888C103.021 179.963 103.059 180 103.096 180H101.872C101.909 180 101.944 179.963 101.976 179.888C102.013 179.813 102.032 179.691 102.032 179.52V176.208H102.016C101.904 176.432 101.784 176.672 101.656 176.928C101.533 177.184 101.408 177.443 101.28 177.704C101.152 177.96 101.032 178.208 100.92 178.448C100.808 178.683 100.707 178.893 100.616 179.08C100.531 179.267 100.464 179.413 100.416 179.52C100.341 179.685 100.301 179.805 100.296 179.88C100.296 179.955 100.309 179.995 100.336 180H99.216C99.2427 180 99.256 179.965 99.256 179.896C99.256 179.821 99.216 179.696 99.136 179.52C99.0987 179.429 99.0373 179.296 98.952 179.12C98.8667 178.944 98.768 178.739 98.656 178.504C98.5493 178.264 98.432 178.013 98.304 177.752C98.176 177.485 98.048 177.219 97.92 176.952C97.7973 176.685 97.68 176.437 97.568 176.208H97.544V179.52C97.544 179.691 97.5627 179.813 97.6 179.888C97.6373 179.963 97.6747 180 97.712 180H96.48ZM105.922 180.08C105.389 180.08 104.97 179.995 104.666 179.824C104.367 179.653 104.157 179.421 104.034 179.128C103.917 178.835 103.858 178.504 103.858 178.136C103.858 177.763 103.919 177.429 104.042 177.136C104.17 176.843 104.383 176.611 104.682 176.44C104.981 176.264 105.394 176.176 105.922 176.176C106.45 176.176 106.863 176.264 107.162 176.44C107.461 176.611 107.671 176.843 107.794 177.136C107.922 177.429 107.986 177.763 107.986 178.136C107.986 178.504 107.925 178.835 107.802 179.128C107.685 179.421 107.477 179.653 107.178 179.824C106.879 179.995 106.461 180.08 105.922 180.08ZM105.922 179.512C106.253 179.512 106.509 179.459 106.69 179.352C106.871 179.245 106.997 179.091 107.066 178.888C107.135 178.68 107.17 178.429 107.17 178.136C107.17 177.843 107.133 177.592 107.058 177.384C106.989 177.176 106.863 177.016 106.682 176.904C106.506 176.792 106.253 176.736 105.922 176.736C105.597 176.736 105.343 176.795 105.162 176.912C104.981 177.024 104.853 177.187 104.778 177.4C104.709 177.608 104.674 177.856 104.674 178.144C104.674 178.427 104.709 178.672 104.778 178.88C104.847 179.083 104.973 179.24 105.154 179.352C105.335 179.459 105.591 179.512 105.922 179.512ZM108.634 180C108.671 180 108.706 179.963 108.738 179.888C108.775 179.813 108.794 179.691 108.794 179.52V176.816C108.794 176.645 108.775 176.525 108.738 176.456C108.706 176.381 108.671 176.341 108.634 176.336C108.868 176.336 109.071 176.32 109.242 176.288C109.418 176.251 109.54 176.213 109.61 176.176V176.664L109.594 176.768L109.61 176.784C109.69 176.683 109.791 176.587 109.914 176.496C110.042 176.405 110.199 176.331 110.386 176.272C110.572 176.208 110.791 176.176 111.042 176.176C111.538 176.176 111.916 176.317 112.178 176.6C112.444 176.883 112.578 177.325 112.578 177.928V179.52C112.578 179.691 112.594 179.813 112.626 179.888C112.663 179.963 112.7 180 112.738 180H111.602C111.639 180 111.674 179.963 111.706 179.888C111.743 179.813 111.762 179.691 111.762 179.52V177.952C111.762 177.637 111.722 177.392 111.642 177.216C111.562 177.04 111.45 176.917 111.306 176.848C111.167 176.773 111.004 176.736 110.818 176.736C110.62 176.736 110.428 176.779 110.242 176.864C110.055 176.949 109.903 177.085 109.786 177.272C109.668 177.459 109.61 177.709 109.61 178.024V179.52C109.61 179.691 109.626 179.813 109.658 179.888C109.695 179.963 109.732 180 109.77 180H108.634Z" fill="#494949"/>
<path d="M126.936 180C126.973 180 127.011 179.963 127.048 179.888C127.085 179.813 127.104 179.691 127.104 179.52V176.08C127.104 175.963 127.091 175.893 127.064 175.872C127.037 175.851 126.944 175.84 126.784 175.84H126.2C125.891 175.84 125.64 175.875 125.448 175.944C125.261 176.008 125.139 176.069 125.08 176.128L125.24 175.36V175.2H129.864V175.36L130.024 176.128C129.965 176.069 129.84 176.008 129.648 175.944C129.461 175.875 129.213 175.84 128.904 175.84H128.328C128.163 175.84 128.067 175.851 128.04 175.872C128.013 175.893 128 175.963 128 176.08V179.52C128 179.691 128.019 179.813 128.056 179.888C128.093 179.963 128.131 180 128.168 180H126.936ZM131.845 180.08C131.536 180.08 131.264 180.027 131.029 179.92C130.8 179.808 130.621 179.619 130.493 179.352C130.371 179.08 130.309 178.704 130.309 178.224V176.736C130.309 176.565 130.291 176.443 130.253 176.368C130.221 176.293 130.187 176.256 130.149 176.256H131.293C131.256 176.256 131.216 176.293 131.173 176.368C131.136 176.443 131.117 176.565 131.117 176.736V178.336C131.117 178.789 131.197 179.099 131.357 179.264C131.517 179.429 131.728 179.512 131.989 179.512C132.251 179.512 132.477 179.448 132.669 179.32C132.861 179.192 133.011 179.016 133.117 178.792C133.229 178.568 133.285 178.315 133.285 178.032V176.736C133.285 176.565 133.267 176.445 133.229 176.376C133.197 176.301 133.163 176.261 133.125 176.256H134.101V179.52C134.101 179.691 134.117 179.813 134.149 179.888C134.187 179.963 134.224 180 134.261 180H133.285V179.52L133.301 179.36L133.285 179.344C133.253 179.408 133.2 179.483 133.125 179.568C133.051 179.648 132.952 179.728 132.829 179.808C132.712 179.888 132.571 179.952 132.405 180C132.24 180.053 132.053 180.08 131.845 180.08ZM136.954 180.08C136.533 180.08 136.186 180.032 135.914 179.936C135.642 179.835 135.429 179.696 135.274 179.52C135.119 179.344 135.01 179.139 134.946 178.904C134.887 178.669 134.858 178.413 134.858 178.136C134.858 177.533 135.029 177.056 135.37 176.704C135.717 176.352 136.229 176.176 136.906 176.176C137.301 176.176 137.618 176.229 137.858 176.336C138.103 176.443 138.287 176.584 138.41 176.76C138.538 176.936 138.623 177.128 138.666 177.336C138.714 177.539 138.738 177.739 138.738 177.936V178.312C138.738 178.296 138.663 178.28 138.514 178.264C138.37 178.243 138.125 178.232 137.778 178.232H135.674C135.674 178.627 135.791 178.939 136.026 179.168C136.261 179.397 136.61 179.512 137.074 179.512C137.474 179.512 137.802 179.464 138.058 179.368C138.319 179.267 138.493 179.168 138.578 179.072V179.232L138.658 179.76C138.541 179.829 138.333 179.901 138.034 179.976C137.741 180.045 137.381 180.08 136.954 180.08ZM135.994 177.704H137.938C137.938 177.565 137.909 177.421 137.85 177.272C137.791 177.123 137.687 176.997 137.538 176.896C137.389 176.789 137.178 176.736 136.906 176.736C136.677 176.736 136.477 176.776 136.306 176.856C136.135 176.931 136.002 177.029 135.906 177.152C135.815 177.275 135.77 177.405 135.77 177.544C135.77 177.597 135.786 177.637 135.818 177.664C135.85 177.691 135.909 177.704 135.994 177.704Z" fill="#494949"/>
<path d="M153.128 180C153.165 179.989 153.189 179.949 153.2 179.88C153.211 179.805 153.187 179.688 153.128 179.528C153.107 179.469 153.056 179.349 152.976 179.168C152.901 178.987 152.808 178.768 152.696 178.512C152.589 178.251 152.475 177.976 152.352 177.688C152.229 177.4 152.109 177.12 151.992 176.848C151.875 176.576 151.771 176.336 151.68 176.128C151.595 175.92 151.531 175.771 151.488 175.68C151.419 175.509 151.344 175.389 151.264 175.32C151.184 175.245 151.123 175.205 151.08 175.2H152.528C152.491 175.205 152.467 175.245 152.456 175.32C152.451 175.395 152.477 175.52 152.536 175.696C152.563 175.765 152.605 175.888 152.664 176.064C152.728 176.24 152.805 176.451 152.896 176.696C152.987 176.936 153.083 177.197 153.184 177.48C153.285 177.757 153.389 178.04 153.496 178.328C153.603 178.611 153.701 178.88 153.792 179.136H153.808C153.893 178.891 153.981 178.629 154.072 178.352C154.168 178.069 154.261 177.789 154.352 177.512C154.443 177.229 154.528 176.968 154.608 176.728C154.688 176.483 154.757 176.269 154.816 176.088C154.875 175.907 154.915 175.776 154.936 175.696C154.984 175.52 155.003 175.395 154.992 175.32C154.981 175.245 154.963 175.205 154.936 175.2H156.464C156.432 175.2 156.411 175.237 156.4 175.312C156.389 175.387 156.411 175.517 156.464 175.704C156.485 175.773 156.523 175.896 156.576 176.072C156.635 176.248 156.704 176.459 156.784 176.704C156.864 176.944 156.949 177.205 157.04 177.488C157.136 177.765 157.229 178.048 157.32 178.336C157.416 178.619 157.507 178.885 157.592 179.136H157.608C157.704 178.88 157.805 178.611 157.912 178.328C158.019 178.045 158.123 177.765 158.224 177.488C158.331 177.205 158.429 176.941 158.52 176.696C158.611 176.451 158.688 176.24 158.752 176.064C158.816 175.888 158.859 175.765 158.88 175.696C158.939 175.515 158.96 175.387 158.944 175.312C158.933 175.237 158.912 175.2 158.88 175.2H160.328C160.291 175.205 160.237 175.248 160.168 175.328C160.099 175.403 160.019 175.525 159.928 175.696C159.885 175.776 159.819 175.915 159.728 176.112C159.637 176.304 159.533 176.531 159.416 176.792C159.299 177.053 159.179 177.325 159.056 177.608C158.933 177.885 158.816 178.155 158.704 178.416C158.592 178.672 158.496 178.899 158.416 179.096C158.341 179.288 158.291 179.424 158.264 179.504C158.211 179.68 158.189 179.805 158.2 179.88C158.211 179.955 158.232 179.995 158.264 180H156.904C156.936 179.995 156.957 179.955 156.968 179.88C156.979 179.805 156.957 179.68 156.904 179.504C156.883 179.435 156.843 179.312 156.784 179.136C156.725 178.955 156.653 178.741 156.568 178.496C156.483 178.245 156.389 177.979 156.288 177.696C156.187 177.408 156.085 177.12 155.984 176.832C155.883 176.539 155.787 176.261 155.696 176H155.68C155.589 176.261 155.493 176.539 155.392 176.832C155.291 177.12 155.189 177.408 155.088 177.696C154.992 177.984 154.901 178.253 154.816 178.504C154.731 178.749 154.659 178.96 154.6 179.136C154.547 179.312 154.509 179.435 154.488 179.504C154.44 179.675 154.421 179.8 154.432 179.88C154.443 179.955 154.461 179.995 154.488 180H153.128ZM162.384 180.08C161.962 180.08 161.616 180.032 161.344 179.936C161.072 179.835 160.858 179.696 160.704 179.52C160.549 179.344 160.44 179.139 160.376 178.904C160.317 178.669 160.288 178.413 160.288 178.136C160.288 177.533 160.458 177.056 160.8 176.704C161.146 176.352 161.658 176.176 162.336 176.176C162.73 176.176 163.048 176.229 163.288 176.336C163.533 176.443 163.717 176.584 163.84 176.76C163.968 176.936 164.053 177.128 164.096 177.336C164.144 177.539 164.168 177.739 164.168 177.936V178.312C164.168 178.296 164.093 178.28 163.944 178.264C163.8 178.243 163.554 178.232 163.208 178.232H161.104C161.104 178.627 161.221 178.939 161.456 179.168C161.69 179.397 162.04 179.512 162.504 179.512C162.904 179.512 163.232 179.464 163.488 179.368C163.749 179.267 163.922 179.168 164.008 179.072V179.232L164.088 179.76C163.97 179.829 163.762 179.901 163.464 179.976C163.17 180.045 162.81 180.08 162.384 180.08ZM161.424 177.704H163.368C163.368 177.565 163.338 177.421 163.28 177.272C163.221 177.123 163.117 176.997 162.968 176.896C162.818 176.789 162.608 176.736 162.336 176.736C162.106 176.736 161.906 176.776 161.736 176.856C161.565 176.931 161.432 177.029 161.336 177.152C161.245 177.275 161.2 177.405 161.2 177.544C161.2 177.597 161.216 177.637 161.248 177.664C161.28 177.691 161.338 177.704 161.424 177.704ZM166.692 180.08C166.186 180.08 165.791 179.995 165.508 179.824C165.231 179.653 165.036 179.421 164.924 179.128C164.818 178.835 164.764 178.504 164.764 178.136C164.764 177.763 164.818 177.429 164.924 177.136C165.036 176.843 165.231 176.611 165.508 176.44C165.791 176.264 166.186 176.176 166.692 176.176C166.906 176.176 167.095 176.197 167.26 176.24C167.426 176.277 167.57 176.331 167.692 176.4C167.815 176.464 167.916 176.541 167.996 176.632L168.012 176.624L167.996 176.472V174.96C167.996 174.789 167.978 174.669 167.94 174.6C167.908 174.525 167.874 174.485 167.836 174.48H168.812V179.52C168.812 179.691 168.828 179.813 168.86 179.888C168.898 179.963 168.935 180 168.972 180H167.996V179.752L168.02 179.6L167.996 179.592C167.916 179.683 167.815 179.765 167.692 179.84C167.57 179.915 167.426 179.973 167.26 180.016C167.095 180.059 166.906 180.08 166.692 180.08ZM166.748 179.512C167.02 179.512 167.239 179.472 167.404 179.392C167.57 179.307 167.695 179.197 167.78 179.064C167.866 178.925 167.922 178.776 167.948 178.616C167.98 178.456 167.996 178.296 167.996 178.136C167.996 177.997 167.98 177.848 167.948 177.688C167.916 177.523 167.858 177.368 167.772 177.224C167.687 177.08 167.562 176.963 167.396 176.872C167.231 176.781 167.015 176.736 166.748 176.736C166.3 176.736 165.991 176.864 165.82 177.12C165.655 177.376 165.572 177.717 165.572 178.144C165.572 178.427 165.604 178.672 165.668 178.88C165.738 179.083 165.858 179.24 166.028 179.352C166.199 179.459 166.439 179.512 166.748 179.512Z" fill="#494949"/>
<path d="M179.936 180C179.973 180 180.011 179.963 180.048 179.888C180.085 179.813 180.104 179.691 180.104 179.52V176.08C180.104 175.963 180.091 175.893 180.064 175.872C180.037 175.851 179.944 175.84 179.784 175.84H179.2C178.891 175.84 178.64 175.875 178.448 175.944C178.261 176.008 178.139 176.069 178.08 176.128L178.24 175.36V175.2H182.864V175.36L183.024 176.128C182.965 176.069 182.84 176.008 182.648 175.944C182.461 175.875 182.213 175.84 181.904 175.84H181.328C181.163 175.84 181.067 175.851 181.04 175.872C181.013 175.893 181 175.963 181 176.08V179.52C181 179.691 181.019 179.813 181.056 179.888C181.093 179.963 181.131 180 181.168 180H179.936ZM183.47 180C183.507 180 183.542 179.963 183.574 179.888C183.611 179.813 183.63 179.691 183.63 179.52V174.96C183.63 174.789 183.611 174.669 183.574 174.6C183.542 174.525 183.507 174.485 183.47 174.48H184.446V176.664L184.43 176.768L184.446 176.784C184.526 176.683 184.627 176.587 184.75 176.496C184.878 176.405 185.035 176.331 185.222 176.272C185.408 176.208 185.627 176.176 185.878 176.176C186.374 176.176 186.752 176.317 187.014 176.6C187.28 176.883 187.414 177.325 187.414 177.928V179.52C187.414 179.691 187.43 179.813 187.462 179.888C187.499 179.963 187.536 180 187.574 180H186.438C186.475 180 186.51 179.963 186.542 179.888C186.579 179.813 186.598 179.691 186.598 179.52V177.952C186.598 177.637 186.558 177.392 186.478 177.216C186.398 177.04 186.286 176.917 186.142 176.848C186.003 176.773 185.84 176.736 185.654 176.736C185.456 176.736 185.264 176.779 185.078 176.864C184.891 176.949 184.739 177.085 184.622 177.272C184.504 177.459 184.446 177.709 184.446 178.024V179.52C184.446 179.691 184.462 179.813 184.494 179.888C184.531 179.963 184.568 180 184.606 180H183.47ZM189.955 180.08C189.645 180.08 189.373 180.027 189.139 179.92C188.909 179.808 188.731 179.619 188.603 179.352C188.48 179.08 188.419 178.704 188.419 178.224V176.736C188.419 176.565 188.4 176.443 188.363 176.368C188.331 176.293 188.296 176.256 188.259 176.256H189.403C189.365 176.256 189.325 176.293 189.283 176.368C189.245 176.443 189.227 176.565 189.227 176.736V178.336C189.227 178.789 189.307 179.099 189.467 179.264C189.627 179.429 189.837 179.512 190.099 179.512C190.36 179.512 190.587 179.448 190.779 179.32C190.971 179.192 191.12 179.016 191.227 178.792C191.339 178.568 191.395 178.315 191.395 178.032V176.736C191.395 176.565 191.376 176.445 191.339 176.376C191.307 176.301 191.272 176.261 191.235 176.256H192.211V179.52C192.211 179.691 192.227 179.813 192.259 179.888C192.296 179.963 192.333 180 192.371 180H191.395V179.52L191.411 179.36L191.395 179.344C191.363 179.408 191.309 179.483 191.235 179.568C191.16 179.648 191.061 179.728 190.939 179.808C190.821 179.888 190.68 179.952 190.515 180C190.349 180.053 190.163 180.08 189.955 180.08ZM193.056 180C193.093 180 193.128 179.963 193.16 179.888C193.197 179.813 193.215 179.691 193.215 179.52V176.816C193.215 176.645 193.197 176.525 193.16 176.456C193.128 176.381 193.093 176.341 193.056 176.336C193.29 176.336 193.493 176.32 193.664 176.288C193.84 176.251 193.962 176.213 194.032 176.176V176.576L194.016 176.712L194.032 176.728C194.112 176.621 194.208 176.528 194.32 176.448C194.437 176.363 194.57 176.296 194.72 176.248C194.869 176.2 195.04 176.176 195.232 176.176C195.482 176.176 195.698 176.213 195.88 176.288C196.066 176.357 196.2 176.429 196.28 176.504L196.12 177.176V177.416C196.05 177.331 195.949 177.243 195.816 177.152C195.688 177.056 195.541 176.976 195.376 176.912C195.21 176.848 195.034 176.816 194.848 176.816C194.634 176.816 194.445 176.901 194.28 177.072C194.114 177.243 194.032 177.525 194.032 177.92V179.52C194.032 179.691 194.048 179.813 194.08 179.888C194.117 179.963 194.154 180 194.192 180H193.056ZM198.878 180.08C198.376 180.08 197.955 180.053 197.613 180C197.278 179.947 197.048 179.893 196.926 179.84V179.68L196.758 178.992C196.896 179.104 197.139 179.221 197.486 179.344C197.838 179.461 198.264 179.52 198.766 179.52C199.096 179.52 199.344 179.499 199.51 179.456C199.675 179.408 199.784 179.347 199.838 179.272C199.891 179.192 199.918 179.104 199.918 179.008C199.918 178.896 199.878 178.808 199.798 178.744C199.723 178.675 199.579 178.619 199.366 178.576C199.158 178.528 198.848 178.48 198.438 178.432C197.99 178.379 197.643 178.301 197.398 178.2C197.158 178.099 196.992 177.971 196.902 177.816C196.811 177.656 196.766 177.467 196.766 177.248C196.766 177.077 196.811 176.909 196.902 176.744C196.992 176.579 197.16 176.443 197.406 176.336C197.656 176.229 198.011 176.176 198.47 176.176C198.966 176.176 199.382 176.203 199.718 176.256C200.059 176.309 200.291 176.363 200.414 176.416V176.576L200.574 177.184C200.44 177.088 200.198 176.989 199.846 176.888C199.494 176.787 199.07 176.736 198.574 176.736C198.179 176.736 197.915 176.781 197.782 176.872C197.648 176.957 197.582 177.069 197.582 177.208C197.582 177.288 197.598 177.36 197.63 177.424C197.662 177.483 197.726 177.536 197.822 177.584C197.923 177.632 198.072 177.675 198.27 177.712C198.472 177.749 198.742 177.787 199.078 177.824C199.531 177.872 199.875 177.947 200.11 178.048C200.344 178.149 200.504 178.277 200.59 178.432C200.68 178.581 200.726 178.757 200.726 178.96C200.726 179.179 200.664 179.373 200.542 179.544C200.424 179.709 200.23 179.84 199.958 179.936C199.686 180.032 199.326 180.08 198.878 180.08Z" fill="#494949"/>
<path d="M212.48 180C212.517 180 212.555 179.963 212.592 179.888C212.629 179.813 212.648 179.691 212.648 179.52V175.68C212.648 175.509 212.629 175.389 212.592 175.32C212.555 175.245 212.517 175.205 212.48 175.2H216.984V175.36L217.144 176.128C217.011 176.069 216.776 176.008 216.44 175.944C216.104 175.875 215.699 175.84 215.224 175.84H213.872C213.712 175.84 213.616 175.853 213.584 175.88C213.557 175.901 213.544 175.968 213.544 176.08V176.992C213.544 177.109 213.557 177.179 213.584 177.2C213.616 177.221 213.709 177.232 213.864 177.232H215.184C215.493 177.232 215.741 177.216 215.928 177.184C216.12 177.147 216.245 177.109 216.304 177.072C216.283 177.141 216.259 177.224 216.232 177.32C216.205 177.416 216.184 177.512 216.168 177.608C216.152 177.704 216.144 177.792 216.144 177.872H213.864C213.709 177.872 213.616 177.883 213.584 177.904C213.557 177.92 213.544 177.989 213.544 178.112V179.52C213.544 179.696 213.563 179.821 213.6 179.896C213.637 179.965 213.675 180 213.712 180H212.48ZM217.673 180C217.71 180 217.745 179.963 217.777 179.888C217.814 179.813 217.833 179.691 217.833 179.52V176.816C217.833 176.645 217.814 176.525 217.777 176.456C217.745 176.381 217.71 176.341 217.673 176.336C217.907 176.336 218.11 176.32 218.281 176.288C218.457 176.251 218.579 176.213 218.649 176.176V176.576L218.633 176.712L218.649 176.728C218.729 176.621 218.825 176.528 218.937 176.448C219.054 176.363 219.187 176.296 219.337 176.248C219.486 176.2 219.657 176.176 219.849 176.176C220.099 176.176 220.315 176.213 220.497 176.288C220.683 176.357 220.817 176.429 220.897 176.504L220.737 177.176V177.416C220.667 177.331 220.566 177.243 220.433 177.152C220.305 177.056 220.158 176.976 219.993 176.912C219.827 176.848 219.651 176.816 219.465 176.816C219.251 176.816 219.062 176.901 218.897 177.072C218.731 177.243 218.649 177.525 218.649 177.92V179.52C218.649 179.691 218.665 179.813 218.697 179.888C218.734 179.963 218.771 180 218.809 180H217.673ZM221.423 180C221.46 180 221.495 179.963 221.527 179.888C221.564 179.813 221.583 179.691 221.583 179.52V176.736C221.583 176.565 221.564 176.445 221.527 176.376C221.495 176.301 221.46 176.261 221.423 176.256H222.399V179.52C222.399 179.691 222.415 179.813 222.447 179.888C222.484 179.963 222.521 180 222.559 180H221.423ZM221.911 175.488C221.756 175.488 221.636 175.445 221.551 175.36C221.465 175.269 221.423 175.165 221.423 175.048C221.423 174.925 221.463 174.821 221.543 174.736C221.628 174.651 221.751 174.608 221.911 174.608C222.071 174.608 222.191 174.651 222.271 174.736C222.356 174.821 222.399 174.925 222.399 175.048C222.399 175.165 222.356 175.269 222.271 175.36C222.185 175.445 222.065 175.488 221.911 175.488Z" fill="#494949"/>
<path d="M240.992 180.08C240.411 180.08 239.896 180.053 239.448 180C239 179.947 238.677 179.893 238.48 179.84V179.68L238.32 178.824C238.395 178.909 238.536 179 238.744 179.096C238.957 179.192 239.24 179.275 239.592 179.344C239.944 179.408 240.363 179.44 240.848 179.44C241.285 179.44 241.616 179.411 241.84 179.352C242.069 179.288 242.224 179.203 242.304 179.096C242.389 178.984 242.432 178.856 242.432 178.712C242.432 178.541 242.363 178.405 242.224 178.304C242.085 178.203 241.877 178.123 241.6 178.064C241.328 178 240.989 177.944 240.584 177.896C240.056 177.827 239.632 177.736 239.312 177.624C238.992 177.507 238.76 177.352 238.616 177.16C238.472 176.968 238.4 176.725 238.4 176.432C238.4 176.181 238.475 175.957 238.624 175.76C238.779 175.563 239.011 175.408 239.32 175.296C239.629 175.179 240.024 175.12 240.504 175.12C241.059 175.12 241.541 175.147 241.952 175.2C242.363 175.253 242.653 175.307 242.824 175.36V175.52L243.064 176.24C242.952 176.171 242.779 176.099 242.544 176.024C242.315 175.949 242.037 175.888 241.712 175.84C241.387 175.787 241.024 175.76 240.624 175.76C240.293 175.76 240.029 175.784 239.832 175.832C239.64 175.88 239.501 175.952 239.416 176.048C239.336 176.139 239.296 176.251 239.296 176.384C239.296 176.56 239.36 176.701 239.488 176.808C239.621 176.915 239.813 176.997 240.064 177.056C240.32 177.115 240.629 177.165 240.992 177.208C241.568 177.272 242.027 177.363 242.368 177.48C242.709 177.597 242.955 177.755 243.104 177.952C243.253 178.149 243.328 178.405 243.328 178.72C243.328 178.928 243.277 179.117 243.176 179.288C243.08 179.453 242.933 179.597 242.736 179.72C242.539 179.837 242.293 179.928 242 179.992C241.712 180.051 241.376 180.08 240.992 180.08ZM245.544 180.08C244.963 180.08 244.555 179.976 244.32 179.768C244.086 179.555 243.968 179.269 243.968 178.912C243.968 178.661 244.03 178.448 244.152 178.272C244.28 178.091 244.47 177.952 244.72 177.856C244.976 177.76 245.299 177.712 245.688 177.712C245.966 177.712 246.206 177.733 246.408 177.776C246.616 177.813 246.784 177.859 246.912 177.912C247.046 177.965 247.139 178.011 247.192 178.048C247.192 177.733 247.152 177.48 247.072 177.288C246.998 177.096 246.875 176.957 246.704 176.872C246.534 176.781 246.302 176.736 246.008 176.736C245.694 176.736 245.411 176.773 245.16 176.848C244.915 176.917 244.718 176.995 244.568 177.08C244.419 177.16 244.326 177.219 244.288 177.256V177.096L244.208 176.496C244.256 176.475 244.36 176.44 244.52 176.392C244.68 176.339 244.891 176.291 245.152 176.248C245.414 176.2 245.72 176.176 246.072 176.176C246.52 176.176 246.886 176.24 247.168 176.368C247.456 176.491 247.667 176.683 247.8 176.944C247.939 177.2 248.008 177.525 248.008 177.92V179.52C248.008 179.669 248.024 179.779 248.056 179.848C248.094 179.912 248.131 179.963 248.168 180H247.192V179.76L247.208 179.608L247.192 179.6C247.107 179.68 247.006 179.749 246.888 179.808C246.771 179.867 246.643 179.917 246.504 179.96C246.366 179.997 246.214 180.027 246.048 180.048C245.888 180.069 245.72 180.08 245.544 180.08ZM245.808 179.512C246.096 179.512 246.344 179.483 246.552 179.424C246.76 179.365 246.918 179.288 247.024 179.192C247.136 179.091 247.192 178.976 247.192 178.848C247.192 178.688 247.086 178.552 246.872 178.44C246.664 178.328 246.339 178.272 245.896 178.272C245.486 178.272 245.195 178.325 245.024 178.432C244.859 178.539 244.776 178.699 244.776 178.912C244.776 179.12 244.856 179.272 245.016 179.368C245.182 179.464 245.446 179.512 245.808 179.512ZM250.42 180.08C250.052 180.08 249.786 180.003 249.62 179.848C249.455 179.688 249.372 179.429 249.372 179.072V176.816H248.652V176.256C248.898 176.256 249.09 176.227 249.228 176.168C249.367 176.104 249.466 175.995 249.524 175.84C249.583 175.685 249.612 175.469 249.612 175.192H250.188V176.256H251.716C251.679 176.309 251.642 176.389 251.604 176.496C251.572 176.597 251.556 176.704 251.556 176.816H250.188V178.952C250.188 179.197 250.234 179.352 250.324 179.416C250.415 179.48 250.53 179.512 250.668 179.512C250.802 179.512 250.924 179.485 251.036 179.432C251.154 179.373 251.255 179.304 251.34 179.224C251.431 179.144 251.5 179.067 251.548 178.992V179.24L251.628 179.696C251.575 179.749 251.492 179.808 251.38 179.872C251.268 179.931 251.132 179.979 250.972 180.016C250.812 180.059 250.628 180.08 250.42 180.08Z" fill="#494949"/>
<path d="M267.992 180.08C267.411 180.08 266.896 180.053 266.448 180C266 179.947 265.677 179.893 265.48 179.84V179.68L265.32 178.824C265.395 178.909 265.536 179 265.744 179.096C265.957 179.192 266.24 179.275 266.592 179.344C266.944 179.408 267.363 179.44 267.848 179.44C268.285 179.44 268.616 179.411 268.84 179.352C269.069 179.288 269.224 179.203 269.304 179.096C269.389 178.984 269.432 178.856 269.432 178.712C269.432 178.541 269.363 178.405 269.224 178.304C269.085 178.203 268.877 178.123 268.6 178.064C268.328 178 267.989 177.944 267.584 177.896C267.056 177.827 266.632 177.736 266.312 177.624C265.992 177.507 265.76 177.352 265.616 177.16C265.472 176.968 265.4 176.725 265.4 176.432C265.4 176.181 265.475 175.957 265.624 175.76C265.779 175.563 266.011 175.408 266.32 175.296C266.629 175.179 267.024 175.12 267.504 175.12C268.059 175.12 268.541 175.147 268.952 175.2C269.363 175.253 269.653 175.307 269.824 175.36V175.52L270.064 176.24C269.952 176.171 269.779 176.099 269.544 176.024C269.315 175.949 269.037 175.888 268.712 175.84C268.387 175.787 268.024 175.76 267.624 175.76C267.293 175.76 267.029 175.784 266.832 175.832C266.64 175.88 266.501 175.952 266.416 176.048C266.336 176.139 266.296 176.251 266.296 176.384C266.296 176.56 266.36 176.701 266.488 176.808C266.621 176.915 266.813 176.997 267.064 177.056C267.32 177.115 267.629 177.165 267.992 177.208C268.568 177.272 269.027 177.363 269.368 177.48C269.709 177.597 269.955 177.755 270.104 177.952C270.253 178.149 270.328 178.405 270.328 178.72C270.328 178.928 270.277 179.117 270.176 179.288C270.08 179.453 269.933 179.597 269.736 179.72C269.539 179.837 269.293 179.928 269 179.992C268.712 180.051 268.376 180.08 267.992 180.08ZM272.712 180.08C272.403 180.08 272.131 180.027 271.896 179.92C271.667 179.808 271.488 179.619 271.36 179.352C271.238 179.08 271.176 178.704 271.176 178.224V176.736C271.176 176.565 271.158 176.443 271.12 176.368C271.088 176.293 271.054 176.256 271.016 176.256H272.16C272.123 176.256 272.083 176.293 272.04 176.368C272.003 176.443 271.984 176.565 271.984 176.736V178.336C271.984 178.789 272.064 179.099 272.224 179.264C272.384 179.429 272.595 179.512 272.856 179.512C273.118 179.512 273.344 179.448 273.536 179.32C273.728 179.192 273.878 179.016 273.984 178.792C274.096 178.568 274.152 178.315 274.152 178.032V176.736C274.152 176.565 274.134 176.445 274.096 176.376C274.064 176.301 274.03 176.261 273.992 176.256H274.968V179.52C274.968 179.691 274.984 179.813 275.016 179.888C275.054 179.963 275.091 180 275.128 180H274.152V179.52L274.168 179.36L274.152 179.344C274.12 179.408 274.067 179.483 273.992 179.568C273.918 179.648 273.819 179.728 273.696 179.808C273.579 179.888 273.438 179.952 273.272 180C273.107 180.053 272.92 180.08 272.712 180.08ZM275.813 180C275.851 180 275.885 179.963 275.917 179.888C275.955 179.813 275.973 179.691 275.973 179.52V176.816C275.973 176.645 275.955 176.525 275.917 176.456C275.885 176.381 275.851 176.341 275.813 176.336C276.048 176.336 276.251 176.32 276.421 176.288C276.597 176.251 276.72 176.213 276.789 176.176V176.664L276.773 176.768L276.789 176.784C276.869 176.683 276.971 176.587 277.093 176.496C277.221 176.405 277.379 176.331 277.565 176.272C277.752 176.208 277.971 176.176 278.221 176.176C278.717 176.176 279.096 176.317 279.357 176.6C279.624 176.883 279.757 177.325 279.757 177.928V179.52C279.757 179.691 279.773 179.813 279.805 179.888C279.843 179.963 279.88 180 279.917 180H278.781C278.819 180 278.853 179.963 278.885 179.888C278.923 179.813 278.941 179.691 278.941 179.52V177.952C278.941 177.637 278.901 177.392 278.821 177.216C278.741 177.04 278.629 176.917 278.485 176.848C278.347 176.773 278.184 176.736 277.997 176.736C277.8 176.736 277.608 176.779 277.421 176.864C277.235 176.949 277.083 177.085 276.965 177.272C276.848 177.459 276.789 177.709 276.789 178.024V179.52C276.789 179.691 276.805 179.813 276.837 179.888C276.875 179.963 276.912 180 276.949 180H275.813Z" fill="#494949"/>
<path d="M252.491 40H251.397V33.8965H249.239V32.9541H254.645V33.8965H252.491V40ZM255.45 40V32.9541H256.495V35.7227H256.52C256.663 35.4199 256.873 35.1872 257.149 35.0244C257.426 34.8584 257.758 34.7754 258.146 34.7754C258.705 34.7754 259.145 34.9479 259.464 35.293C259.786 35.638 259.947 36.1035 259.947 36.6895V40H258.888V36.8945C258.888 36.5104 258.792 36.2126 258.6 36.001C258.411 35.7894 258.132 35.6836 257.765 35.6836C257.377 35.6836 257.07 35.8073 256.842 36.0547C256.617 36.2988 256.505 36.6243 256.505 37.0312V40H255.45ZM261.002 40V34.8633H262.057V40H261.002ZM261.964 33.9355C261.843 34.0527 261.699 34.1113 261.529 34.1113C261.36 34.1113 261.215 34.0527 261.095 33.9355C260.978 33.8184 260.919 33.6768 260.919 33.5107C260.919 33.3415 260.978 33.1982 261.095 33.0811C261.215 32.9639 261.36 32.9053 261.529 32.9053C261.702 32.9053 261.847 32.9639 261.964 33.0811C262.084 33.1982 262.145 33.3415 262.145 33.5107C262.145 33.6768 262.084 33.8184 261.964 33.9355ZM263.043 36.3184C263.043 35.8594 263.229 35.4867 263.6 35.2002C263.971 34.9137 264.456 34.7705 265.055 34.7705C265.624 34.7705 266.091 34.9154 266.456 35.2051C266.824 35.4915 267.016 35.8643 267.032 36.3232H266.041C266.015 36.0889 265.912 35.9049 265.733 35.7715C265.554 35.638 265.318 35.5713 265.025 35.5713C264.739 35.5713 264.508 35.6348 264.332 35.7617C264.16 35.8887 264.073 36.0531 264.073 36.2549C264.073 36.5674 264.335 36.7887 264.859 36.9189L265.724 37.1191C266.241 37.2428 266.607 37.4121 266.822 37.627C267.04 37.8385 267.149 38.1348 267.149 38.5156C267.149 38.9844 266.951 39.3652 266.554 39.6582C266.16 39.9512 265.647 40.0977 265.016 40.0977C264.413 40.0977 263.922 39.9544 263.541 39.668C263.163 39.3815 262.953 39.0007 262.911 38.5254H263.956C263.998 38.7728 264.114 38.9632 264.303 39.0967C264.492 39.2269 264.745 39.292 265.064 39.292C265.38 39.292 265.629 39.2318 265.812 39.1113C265.997 38.9876 266.09 38.8216 266.09 38.6133C266.09 38.4473 266.035 38.3154 265.924 38.2178C265.813 38.1201 265.624 38.0371 265.357 37.9688L264.439 37.7441C263.508 37.5195 263.043 37.0443 263.043 36.3184ZM276.778 34.8633L275.372 40H274.273L273.194 36.1523H273.17L272.101 40H271.012L269.601 34.8633H270.655L271.593 38.9062H271.612L272.682 34.8633H273.697L274.771 38.9062H274.796L275.733 34.8633H276.778ZM280.436 35.9912C280.204 35.7438 279.907 35.6201 279.542 35.6201C279.177 35.6201 278.875 35.7454 278.634 35.9961C278.393 36.2435 278.259 36.5641 278.233 36.958H280.802C280.789 36.5609 280.667 36.2386 280.436 35.9912ZM280.797 38.4912H281.798C281.723 38.9632 281.482 39.349 281.075 39.6484C280.668 39.9479 280.172 40.0977 279.586 40.0977C278.834 40.0977 278.242 39.8617 277.809 39.3896C277.379 38.9144 277.164 38.2699 277.164 37.4561C277.164 36.6488 277.379 35.9993 277.809 35.5078C278.242 35.0163 278.819 34.7705 279.542 34.7705C280.252 34.7705 280.815 35.0033 281.231 35.4688C281.648 35.931 281.856 36.5527 281.856 37.334V37.6953H278.229V37.7588C278.229 38.208 278.354 38.5677 278.604 38.8379C278.855 39.1081 279.19 39.2432 279.61 39.2432C279.907 39.2432 280.16 39.1748 280.372 39.0381C280.584 38.9014 280.725 38.7191 280.797 38.4912ZM285.719 35.9912C285.488 35.7438 285.19 35.6201 284.825 35.6201C284.461 35.6201 284.158 35.7454 283.917 35.9961C283.676 36.2435 283.543 36.5641 283.517 36.958H286.085C286.072 36.5609 285.95 36.2386 285.719 35.9912ZM286.08 38.4912H287.081C287.006 38.9632 286.765 39.349 286.358 39.6484C285.951 39.9479 285.455 40.0977 284.869 40.0977C284.117 40.0977 283.525 39.8617 283.092 39.3896C282.662 38.9144 282.447 38.2699 282.447 37.4561C282.447 36.6488 282.662 35.9993 283.092 35.5078C283.525 35.0163 284.103 34.7705 284.825 34.7705C285.535 34.7705 286.098 35.0033 286.515 35.4688C286.931 35.931 287.14 36.5527 287.14 37.334V37.6953H283.512V37.7588C283.512 38.208 283.637 38.5677 283.888 38.8379C284.138 39.1081 284.474 39.2432 284.894 39.2432C285.19 39.2432 285.444 39.1748 285.655 39.0381C285.867 38.9014 286.008 38.7191 286.08 38.4912ZM289.063 37.0654L291.139 34.8633H292.379L290.25 37.0752L292.462 40H291.236L289.493 37.7197L289.054 38.1543V40H287.999V32.9541H289.054V37.0654H289.063Z" fill="black"/>
<path fill-rule="evenodd" clip-rule="evenodd" d="M309.57 34.234L306.466 37.338L303.362 34.234C303.213 34.0842 303.01 34 302.798 34C302.586 34 302.383 34.0842 302.234 34.234C301.922 34.546 301.922 35.05 302.234 35.362L305.906 39.034C306.218 39.346 306.722 39.346 307.034 39.034L310.706 35.362C311.018 35.05 311.018 34.546 310.706 34.234C310.394 33.93 309.882 33.922 309.57 34.234Z" fill="#C2A3FC"/>
<path d="M21.096 40C21.128 40 21.184 39.944 21.264 39.832C21.344 39.72 21.448 39.532 21.576 39.268C21.632 39.148 21.728 38.944 21.864 38.656C22 38.368 22.16 38.028 22.344 37.636C22.528 37.244 22.72 36.836 22.92 36.412C23.12 35.98 23.308 35.568 23.484 35.176C23.668 34.784 23.828 34.44 23.964 34.144C24.1 33.848 24.196 33.64 24.252 33.52C24.364 33.264 24.424 33.08 24.432 32.968C24.44 32.856 24.424 32.8 24.384 32.8H26.484C26.452 32.8 26.44 32.856 26.448 32.968C26.456 33.08 26.512 33.264 26.616 33.52C26.672 33.64 26.764 33.848 26.892 34.144C27.02 34.432 27.172 34.772 27.348 35.164C27.532 35.556 27.72 35.964 27.912 36.388C28.104 36.804 28.292 37.208 28.476 37.6C28.66 37.992 28.82 38.336 28.956 38.632C29.092 38.928 29.192 39.14 29.256 39.268C29.384 39.532 29.5 39.72 29.604 39.832C29.716 39.944 29.8 40 29.856 40H27.636C27.716 39.984 27.78 39.92 27.828 39.808C27.884 39.696 27.876 39.516 27.804 39.268C27.788 39.204 27.76 39.112 27.72 38.992C27.68 38.872 27.644 38.784 27.612 38.728C27.564 38.616 27.516 38.536 27.468 38.488C27.42 38.44 27.356 38.408 27.276 38.392C27.204 38.376 27.1 38.368 26.964 38.368H23.892C23.74 38.368 23.62 38.376 23.532 38.392C23.444 38.4 23.376 38.428 23.328 38.476C23.288 38.524 23.248 38.604 23.208 38.716C23.176 38.812 23.144 38.908 23.112 39.004C23.08 39.1 23.056 39.188 23.04 39.268C22.968 39.532 22.948 39.72 22.98 39.832C23.012 39.944 23.056 40 23.112 40H21.096ZM24.204 37.408H26.616C26.848 37.408 26.976 37.388 27 37.348C27.024 37.308 27.012 37.22 26.964 37.084C26.86 36.828 26.74 36.552 26.604 36.256C26.468 35.952 26.328 35.652 26.184 35.356C26.048 35.052 25.912 34.764 25.776 34.492C25.648 34.212 25.536 33.968 25.44 33.76H25.416C25.248 34.112 25.076 34.48 24.9 34.864C24.724 35.24 24.556 35.596 24.396 35.932C24.244 36.26 24.12 36.528 24.024 36.736C23.928 36.944 23.88 37.048 23.88 37.048C23.824 37.176 23.804 37.268 23.82 37.324C23.844 37.38 23.972 37.408 24.204 37.408ZM33.5783 40.12C32.7463 40.12 32.0903 39.992 31.6103 39.736C31.1383 39.48 30.8063 39.132 30.6143 38.692C30.4223 38.252 30.3263 37.756 30.3263 37.204C30.3263 36.228 30.5903 35.496 31.1183 35.008C31.6543 34.52 32.4343 34.276 33.4583 34.276C34.0823 34.276 34.6063 34.316 35.0303 34.396C35.4543 34.476 35.7463 34.552 35.9062 34.624V34.864L36.1463 35.908C35.9863 35.74 35.6823 35.568 35.2343 35.392C34.7863 35.208 34.2223 35.116 33.5423 35.116C33.1983 35.116 32.8703 35.176 32.5583 35.296C32.2543 35.408 32.0063 35.616 31.8143 35.92C31.6303 36.224 31.5383 36.656 31.5383 37.216C31.5383 37.76 31.6383 38.184 31.8383 38.488C32.0383 38.784 32.3143 38.988 32.6663 39.1C33.0183 39.212 33.4183 39.268 33.8663 39.268C34.4343 39.268 34.9023 39.18 35.2703 39.004C35.6463 38.828 35.8983 38.656 36.0263 38.488V38.728L36.1463 39.544C35.9943 39.672 35.6943 39.8 35.2463 39.928C34.8063 40.056 34.2503 40.12 33.5783 40.12ZM39.5131 40.12C38.9611 40.12 38.5611 40.004 38.3131 39.772C38.0651 39.532 37.9411 39.144 37.9411 38.608V35.224H36.8611V34.384C37.2291 34.384 37.5171 34.34 37.7251 34.252C37.9331 34.156 38.0811 33.992 38.1691 33.76C38.2571 33.528 38.3011 33.204 38.3011 32.788H39.1651V34.384H41.4571C41.4011 34.464 41.3451 34.584 41.2891 34.744C41.2411 34.896 41.2171 35.056 41.2171 35.224H39.1651V38.428C39.1651 38.796 39.2331 39.028 39.3691 39.124C39.5051 39.22 39.6771 39.268 39.8851 39.268C40.0851 39.268 40.2691 39.228 40.4371 39.148C40.6131 39.06 40.7651 38.956 40.8931 38.836C41.0291 38.716 41.1331 38.6 41.2051 38.488V38.86L41.3251 39.544C41.2451 39.624 41.1211 39.712 40.9531 39.808C40.7851 39.896 40.5811 39.968 40.3411 40.024C40.1011 40.088 39.8251 40.12 39.5131 40.12ZM42.1301 40C42.1861 40 42.2381 39.944 42.2861 39.832C42.3421 39.72 42.3701 39.536 42.3701 39.28V35.104C42.3701 34.848 42.3421 34.668 42.2861 34.564C42.2381 34.452 42.1861 34.392 42.1301 34.384H43.5941V39.28C43.5941 39.536 43.6181 39.72 43.6661 39.832C43.7221 39.944 43.7781 40 43.8341 40H42.1301ZM42.8621 33.232C42.6301 33.232 42.4501 33.168 42.3221 33.04C42.1941 32.904 42.1301 32.748 42.1301 32.572C42.1301 32.388 42.1901 32.232 42.3101 32.104C42.4381 31.976 42.6221 31.912 42.8621 31.912C43.1021 31.912 43.2821 31.976 43.4021 32.104C43.5301 32.232 43.5941 32.388 43.5941 32.572C43.5941 32.748 43.5301 32.904 43.4021 33.04C43.2741 33.168 43.0941 33.232 42.8621 33.232ZM46.7806 40C46.8366 40 46.8726 39.948 46.8886 39.844C46.9126 39.732 46.8766 39.544 46.7806 39.28C46.7406 39.176 46.6646 38.992 46.5526 38.728C46.4406 38.464 46.3086 38.16 46.1566 37.816C46.0046 37.464 45.8486 37.112 45.6886 36.76C45.5286 36.4 45.3806 36.076 45.2446 35.788C45.1086 35.492 45.0006 35.272 44.9206 35.128C44.7846 34.872 44.6606 34.688 44.5486 34.576C44.4366 34.456 44.3566 34.392 44.3086 34.384H46.2646C46.1926 34.384 46.1446 34.44 46.1206 34.552C46.0966 34.664 46.1446 34.856 46.2646 35.128C46.3286 35.264 46.4166 35.472 46.5286 35.752C46.6406 36.024 46.7646 36.34 46.9006 36.7C47.0446 37.052 47.1886 37.412 47.3326 37.78C47.4846 38.148 47.6206 38.492 47.7406 38.812H47.7526C47.8806 38.484 48.0206 38.136 48.1726 37.768C48.3246 37.392 48.4726 37.024 48.6166 36.664C48.7606 36.304 48.8886 35.988 49.0006 35.716C49.1206 35.436 49.2086 35.232 49.2646 35.104C49.3766 34.848 49.4206 34.664 49.3966 34.552C49.3726 34.44 49.3286 34.384 49.2646 34.384H51.1486C51.1006 34.384 51.0246 34.44 50.9206 34.552C50.8246 34.656 50.7126 34.836 50.5846 35.092C50.5126 35.228 50.4086 35.436 50.2726 35.716C50.1366 35.996 49.9846 36.312 49.8166 36.664C49.6566 37.008 49.4966 37.352 49.3366 37.696C49.1846 38.04 49.0486 38.356 48.9286 38.644C48.8166 38.924 48.7406 39.136 48.7006 39.28C48.6286 39.544 48.6006 39.732 48.6166 39.844C48.6326 39.948 48.6606 40 48.7006 40H46.7806ZM51.7043 40C51.7603 40 51.8123 39.944 51.8603 39.832C51.9163 39.72 51.9443 39.536 51.9443 39.28V35.104C51.9443 34.848 51.9163 34.668 51.8603 34.564C51.8123 34.452 51.7603 34.392 51.7043 34.384H53.1683V39.28C53.1683 39.536 53.1923 39.72 53.2403 39.832C53.2963 39.944 53.3523 40 53.4083 40H51.7043ZM52.4363 33.232C52.2043 33.232 52.0243 33.168 51.8963 33.04C51.7683 32.904 51.7043 32.748 51.7043 32.572C51.7043 32.388 51.7643 32.232 51.8843 32.104C52.0123 31.976 52.1963 31.912 52.4363 31.912C52.6763 31.912 52.8563 31.976 52.9763 32.104C53.1043 32.232 53.1683 32.388 53.1683 32.572C53.1683 32.748 53.1043 32.904 52.9763 33.04C52.8483 33.168 52.6683 33.232 52.4363 33.232ZM56.7748 40.12C56.2228 40.12 55.8228 40.004 55.5748 39.772C55.3268 39.532 55.2028 39.144 55.2028 38.608V35.224H54.1228V34.384C54.4908 34.384 54.7788 34.34 54.9868 34.252C55.1948 34.156 55.3428 33.992 55.4308 33.76C55.5188 33.528 55.5628 33.204 55.5628 32.788H56.4268V34.384H58.7188C58.6628 34.464 58.6068 34.584 58.5508 34.744C58.5028 34.896 58.4788 35.056 58.4788 35.224H56.4268V38.428C56.4268 38.796 56.4948 39.028 56.6308 39.124C56.7668 39.22 56.9388 39.268 57.1468 39.268C57.3468 39.268 57.5308 39.228 57.6988 39.148C57.8748 39.06 58.0268 38.956 58.1548 38.836C58.2908 38.716 58.3948 38.6 58.4668 38.488V38.86L58.5868 39.544C58.5068 39.624 58.3828 39.712 58.2148 39.808C58.0468 39.896 57.8428 39.968 57.6028 40.024C57.3628 40.088 57.0868 40.12 56.7748 40.12ZM59.4638 42.928C58.9838 42.928 58.6038 42.88 58.3238 42.784C58.0438 42.688 57.8638 42.596 57.7838 42.508L58.0238 41.248V40.888C58.0798 41.056 58.1718 41.232 58.2998 41.416C58.4198 41.608 58.5758 41.768 58.7678 41.896C58.9598 42.024 59.1758 42.088 59.4158 42.088C59.6878 42.088 59.9198 42.032 60.1118 41.92C60.3038 41.816 60.4718 41.664 60.6158 41.464C60.7678 41.264 60.9118 41.032 61.0478 40.768C61.2078 40.448 61.3078 40.228 61.3478 40.108C61.2998 40.044 61.2238 39.896 61.1198 39.664C61.0158 39.432 60.8918 39.152 60.7478 38.824C60.6038 38.488 60.4518 38.132 60.2918 37.756C60.1398 37.38 59.9878 37.016 59.8358 36.664C59.6838 36.312 59.5478 36 59.4278 35.728C59.3078 35.456 59.2158 35.26 59.1518 35.14C59.0158 34.884 58.8918 34.696 58.7798 34.576C58.6678 34.456 58.5878 34.392 58.5398 34.384H60.4958C60.4318 34.384 60.3878 34.444 60.3638 34.564C60.3478 34.676 60.3918 34.868 60.4958 35.14C60.5598 35.292 60.6478 35.512 60.7598 35.8C60.8718 36.08 60.9958 36.4 61.1318 36.76C61.2678 37.112 61.4078 37.472 61.5518 37.84C61.6958 38.2 61.8278 38.536 61.9478 38.848H61.9598C62.0878 38.52 62.2278 38.168 62.3798 37.792C62.5318 37.416 62.6798 37.048 62.8238 36.688C62.9758 36.328 63.1078 36.008 63.2198 35.728C63.3398 35.448 63.4278 35.244 63.4838 35.116C63.5958 34.86 63.6398 34.676 63.6158 34.564C63.5918 34.452 63.5478 34.392 63.4838 34.384H65.3678C65.3198 34.392 65.2438 34.452 65.1398 34.564C65.0438 34.668 64.9318 34.848 64.8038 35.104C64.7318 35.24 64.6198 35.472 64.4678 35.8C64.3238 36.128 64.1558 36.504 63.9638 36.928C63.7718 37.352 63.5758 37.792 63.3758 38.248C63.1758 38.696 62.9878 39.12 62.8118 39.52C62.6358 39.912 62.4878 40.236 62.3678 40.492C62.1198 41.028 61.8558 41.476 61.5758 41.836C61.3038 42.204 60.9958 42.476 60.6518 42.652C60.3078 42.836 59.9118 42.928 59.4638 42.928Z" fill="black"/>
</svg>
