<svg width="181" height="83" viewBox="0 0 181 83" fill="none" xmlns="http://www.w3.org/2000/svg">
<rect x="0.5" y="0.5" width="180" height="82" rx="9.5" fill="white"/>
<rect x="0.5" y="0.5" width="180" height="82" rx="9.5" stroke="#F1F1F3"/>
<path d="M29.5645 29H28.5215L25.4043 20.5449H26.5117L28.9961 27.6348H29.0898L31.5742 20.5449H32.6816L29.5645 29ZM34.0586 29V22.6836H35.0664V29H34.0586ZM35.0605 21.1953C34.9238 21.332 34.7578 21.4004 34.5625 21.4004C34.3672 21.4004 34.2012 21.332 34.0645 21.1953C33.9277 21.0547 33.8594 20.8887 33.8594 20.6973C33.8594 20.5059 33.9277 20.3418 34.0645 20.2051C34.2012 20.0645 34.3672 19.9941 34.5625 19.9941C34.7578 19.9941 34.9238 20.0645 35.0605 20.2051C35.1973 20.3418 35.2656 20.5059 35.2656 20.6973C35.2656 20.8887 35.1973 21.0547 35.0605 21.1953ZM36.8418 24.4121C36.8418 23.8887 37.0664 23.4512 37.5156 23.0996C37.9648 22.748 38.5254 22.5723 39.1973 22.5723C39.8574 22.5723 40.4023 22.7246 40.832 23.0293C41.2617 23.334 41.5098 23.7461 41.5762 24.2656H40.5801C40.5098 24.0078 40.3535 23.8047 40.1113 23.6562C39.873 23.5039 39.5664 23.4277 39.1914 23.4277C38.8125 23.4277 38.4941 23.5156 38.2363 23.6914C37.9824 23.8672 37.8555 24.0938 37.8555 24.3711C37.8555 24.5859 37.9434 24.7656 38.1191 24.9102C38.2988 25.0508 38.5762 25.166 38.9512 25.2559L39.9238 25.4902C40.5254 25.6348 40.9688 25.8438 41.2539 26.1172C41.543 26.3906 41.6875 26.752 41.6875 27.2012C41.6875 27.7598 41.4473 28.2188 40.9668 28.5781C40.4863 28.9336 39.8828 29.1113 39.1562 29.1113C38.4531 29.1113 37.877 28.9551 37.4277 28.6426C36.9785 28.3301 36.7266 27.9121 36.6719 27.3887H37.709C37.7949 27.6621 37.9648 27.877 38.2188 28.0332C38.4727 28.1855 38.7969 28.2617 39.1914 28.2617C39.6172 28.2617 39.9668 28.1699 40.2402 27.9863C40.5137 27.8027 40.6504 27.5664 40.6504 27.2773C40.6504 26.8477 40.3164 26.5508 39.6484 26.3867L38.5645 26.123C37.9668 25.9785 37.5293 25.7715 37.252 25.502C36.9785 25.2285 36.8418 24.8652 36.8418 24.4121ZM43.293 29V22.6836H44.3008V29H43.293ZM44.2949 21.1953C44.1582 21.332 43.9922 21.4004 43.7969 21.4004C43.6016 21.4004 43.4355 21.332 43.2988 21.1953C43.1621 21.0547 43.0938 20.8887 43.0938 20.6973C43.0938 20.5059 43.1621 20.3418 43.2988 20.2051C43.4355 20.0645 43.6016 19.9941 43.7969 19.9941C43.9922 19.9941 44.1582 20.0645 44.2949 20.2051C44.4316 20.3418 44.5 20.5059 44.5 20.6973C44.5 20.8887 44.4316 21.0547 44.2949 21.1953ZM46.6445 21.0488H47.6523V22.6836H49.0586V23.5273H47.6523V27.1016C47.6523 27.4727 47.7266 27.7422 47.875 27.9102C48.0234 28.0781 48.2617 28.1621 48.5898 28.1621C48.7344 28.1621 48.8906 28.1543 49.0586 28.1387V28.9883C48.8359 29.0273 48.6387 29.0469 48.4668 29.0469C47.8145 29.0469 47.3477 28.916 47.0664 28.6543C46.7852 28.3926 46.6445 27.9609 46.6445 27.3594V23.5273H45.625V22.6836H46.6445V21.0488ZM50.3184 24.4121C50.3184 23.8887 50.543 23.4512 50.9922 23.0996C51.4414 22.748 52.002 22.5723 52.6738 22.5723C53.334 22.5723 53.8789 22.7246 54.3086 23.0293C54.7383 23.334 54.9863 23.7461 55.0527 24.2656H54.0566C53.9863 24.0078 53.8301 23.8047 53.5879 23.6562C53.3496 23.5039 53.043 23.4277 52.668 23.4277C52.2891 23.4277 51.9707 23.5156 51.7129 23.6914C51.459 23.8672 51.332 24.0938 51.332 24.3711C51.332 24.5859 51.4199 24.7656 51.5957 24.9102C51.7754 25.0508 52.0527 25.166 52.4277 25.2559L53.4004 25.4902C54.002 25.6348 54.4453 25.8438 54.7305 26.1172C55.0195 26.3906 55.1641 26.752 55.1641 27.2012C55.1641 27.7598 54.9238 28.2188 54.4434 28.5781C53.9629 28.9336 53.3594 29.1113 52.6328 29.1113C51.9297 29.1113 51.3535 28.9551 50.9043 28.6426C50.4551 28.3301 50.2031 27.9121 50.1484 27.3887H51.1855C51.2715 27.6621 51.4414 27.877 51.6953 28.0332C51.9492 28.1855 52.2734 28.2617 52.668 28.2617C53.0938 28.2617 53.4434 28.1699 53.7168 27.9863C53.9902 27.8027 54.127 27.5664 54.127 27.2773C54.127 26.8477 53.793 26.5508 53.125 26.3867L52.041 26.123C51.4434 25.9785 51.0059 25.7715 50.7285 25.502C50.4551 25.2285 50.3184 24.8652 50.3184 24.4121Z" fill="black"/>
<path d="M25.9961 50.1758C25.9961 48.5742 26.5742 47.2656 27.7305 46.25C28.8945 45.2266 30.3984 44.7148 32.2422 44.7148C34.0156 44.7148 35.4609 45.1758 36.5781 46.0977C37.6953 47.0117 38.2539 48.1797 38.2539 49.6016C38.2539 50.1094 38.1758 50.6016 38.0195 51.0781C37.8711 51.5469 37.6289 52.0195 37.293 52.4961C36.9648 52.9648 36.6328 53.3906 36.2969 53.7734C35.9609 54.1484 35.5234 54.6055 34.9844 55.1445L30.8594 59.1172V59.1875H38.4883V62H26.1953V59.6211L32.5703 53.4805C33.4297 52.6211 34.0156 51.9297 34.3281 51.4062C34.6484 50.8828 34.8086 50.3281 34.8086 49.7422C34.8086 49.1016 34.5547 48.5625 34.0469 48.125C33.5391 47.6875 32.8984 47.4688 32.125 47.4688C31.3047 47.4688 30.625 47.7266 30.0859 48.2422C29.5469 48.75 29.2773 49.3945 29.2773 50.1758V50.2344H25.9961V50.1758ZM45.2772 65.7031H42.7108L43.5897 59.0938H46.8475L45.2772 65.7031ZM54.6677 62V48.3359H54.5973L50.2848 51.3125V48.125L54.6559 45.0898H58.1716V62H54.6677ZM63.8941 50.6328C63.8941 48.8672 64.4995 47.4336 65.7105 46.332C66.9214 45.2227 68.4878 44.668 70.4097 44.668C72.3862 44.668 73.9839 45.2383 75.2027 46.3789C76.4214 47.5195 77.0308 49.0156 77.0308 50.8672C77.0308 51.8984 76.8394 52.9258 76.4566 53.9492C76.0737 54.9727 75.4683 56.0742 74.6402 57.2539C74.4136 57.5742 73.8237 58.3789 72.8706 59.668C71.9175 60.957 71.3277 61.7344 71.1011 62H66.8589C67.0698 61.7812 67.7612 60.9102 68.9331 59.3867C70.1128 57.8555 70.9605 56.7422 71.4761 56.0469C71.7339 55.7031 71.9331 55.4023 72.0737 55.1445L71.8745 55.0859C71.5777 55.3984 71.1675 55.6484 70.6441 55.8359C70.1206 56.0234 69.5816 56.1172 69.0269 56.1172C67.5503 56.1172 66.3237 55.5977 65.3472 54.5586C64.3784 53.5195 63.8941 52.2109 63.8941 50.6328ZM72.6362 52.7188C73.2222 52.1406 73.5152 51.418 73.5152 50.5508C73.5152 49.6836 73.2222 48.9609 72.6362 48.3828C72.0503 47.7969 71.3198 47.5039 70.4448 47.5039C69.5698 47.5039 68.8394 47.7969 68.2534 48.3828C67.6675 48.9609 67.3745 49.6836 67.3745 50.5508C67.3745 51.418 67.6675 52.1406 68.2534 52.7188C68.8394 53.2969 69.5698 53.5859 70.4448 53.5859C71.3198 53.5859 72.0503 53.2969 72.6362 52.7188ZM93.1009 59.9961C91.89 61.582 90.222 62.375 88.097 62.375C85.972 62.375 84.3002 61.5859 83.0814 60.0078C81.8627 58.4219 81.2533 56.2578 81.2533 53.5156C81.2533 50.7891 81.8627 48.6406 83.0814 47.0703C84.308 45.4922 85.9798 44.7031 88.097 44.7031C90.2142 44.7031 91.8822 45.4883 93.1009 47.0586C94.3197 48.6289 94.9291 50.7773 94.9291 53.5039C94.9291 56.2383 94.3197 58.4023 93.1009 59.9961ZM85.7064 57.957C86.2845 59.0117 87.0814 59.5391 88.097 59.5391C89.1127 59.5391 89.9056 59.0156 90.4759 57.9688C91.0462 56.9141 91.3314 55.4297 91.3314 53.5156C91.3314 51.6172 91.0423 50.1484 90.4642 49.1094C89.8939 48.0625 89.1048 47.5391 88.097 47.5391C87.0892 47.5391 86.2962 48.0625 85.7181 49.1094C85.14 50.1562 84.8509 51.625 84.8509 53.5156C84.8509 55.4219 85.1361 56.9023 85.7064 57.957Z" fill="black"/>
<path d="M110.604 54.5293V56.6533H109.881V54.5293H107.757V53.8066H109.881V51.6826H110.604V53.8066H112.728V54.5293H110.604ZM114.227 51.9365C114.227 51.3115 114.438 50.7972 114.861 50.3936C115.288 49.9899 115.828 49.7881 116.482 49.7881C117.114 49.7881 117.643 49.9785 118.069 50.3594C118.499 50.737 118.714 51.2057 118.714 51.7656C118.714 52.1335 118.61 52.4948 118.401 52.8496C118.193 53.2044 117.801 53.6911 117.225 54.3096L115.53 56.1309V56.209H118.831V57H114.271V56.3945L116.707 53.7334C117.16 53.2419 117.461 52.8675 117.61 52.6104C117.76 52.3532 117.835 52.083 117.835 51.7998C117.835 51.4482 117.701 51.1536 117.435 50.916C117.171 50.6751 116.845 50.5547 116.458 50.5547C116.045 50.5547 115.711 50.6816 115.457 50.9355C115.203 51.1895 115.076 51.5231 115.076 51.9365V51.9414H114.227V51.9365ZM122.684 57.166C121.889 57.166 121.274 56.8438 120.838 56.1992C120.402 55.5547 120.184 54.6465 120.184 53.4746C120.184 52.3125 120.403 51.4076 120.843 50.7598C121.282 50.112 121.896 49.7881 122.684 49.7881C123.468 49.7881 124.078 50.1136 124.515 50.7646C124.954 51.4157 125.174 52.3239 125.174 53.4893C125.174 54.6579 124.956 55.5628 124.52 56.2041C124.087 56.8454 123.475 57.166 122.684 57.166ZM121.482 55.6426C121.762 56.1471 122.163 56.3994 122.684 56.3994C123.204 56.3994 123.602 56.1488 123.875 55.6475C124.152 55.1429 124.29 54.4186 124.29 53.4746C124.29 52.5404 124.15 51.821 123.87 51.3164C123.593 50.8118 123.198 50.5596 122.684 50.5596C122.169 50.5596 121.771 50.8135 121.487 51.3213C121.207 51.8258 121.067 52.5436 121.067 53.4746C121.067 54.4154 121.206 55.138 121.482 55.6426ZM128.802 50.3057C129.082 50.6214 129.222 51.0283 129.222 51.5264C129.222 52.0244 129.082 52.4329 128.802 52.752C128.522 53.0677 128.162 53.2256 127.723 53.2256C127.283 53.2256 126.922 53.0677 126.639 52.752C126.359 52.4329 126.219 52.0244 126.219 51.5264C126.219 51.0316 126.359 50.6263 126.639 50.3105C126.922 49.9915 127.283 49.832 127.723 49.832C128.162 49.832 128.522 49.9899 128.802 50.3057ZM127.723 52.6006C127.938 52.6006 128.11 52.5029 128.24 52.3076C128.374 52.109 128.44 51.8486 128.44 51.5264C128.44 51.1976 128.375 50.9372 128.245 50.7451C128.118 50.5531 127.944 50.457 127.723 50.457C127.505 50.457 127.329 50.5547 127.195 50.75C127.065 50.9421 127 51.2008 127 51.5264C127 51.8519 127.065 52.1123 127.195 52.3076C127.329 52.5029 127.505 52.6006 127.723 52.6006ZM127.645 57H126.746L129.437 53.3281L131.907 49.9541H132.796L130.062 53.6943L127.645 57ZM132.879 54.2021C133.159 54.5179 133.299 54.9248 133.299 55.4229C133.299 55.9209 133.159 56.3294 132.879 56.6484C132.599 56.9642 132.239 57.1221 131.8 57.1221C131.36 57.1221 130.999 56.9642 130.716 56.6484C130.436 56.3294 130.296 55.9209 130.296 55.4229C130.296 54.9281 130.436 54.5228 130.716 54.207C130.999 53.888 131.36 53.7285 131.8 53.7285C132.239 53.7285 132.599 53.8864 132.879 54.2021ZM131.8 56.4971C132.015 56.4971 132.187 56.3994 132.317 56.2041C132.451 56.0055 132.518 55.7451 132.518 55.4229C132.518 55.0941 132.452 54.8337 132.322 54.6416C132.195 54.4495 132.021 54.3535 131.8 54.3535C131.582 54.3535 131.406 54.4512 131.272 54.6465C131.142 54.8385 131.077 55.0973 131.077 55.4229C131.077 55.7484 131.142 56.0088 131.272 56.2041C131.406 56.3994 131.582 56.4971 131.8 56.4971Z" fill="#8B4CFC"/>
<path fill-rule="evenodd" clip-rule="evenodd" d="M148.955 50.6078L154.5 49L153.12 54.6061L151.398 52.9532L148.621 55.8463C148.526 55.9445 148.396 56 148.26 56C148.124 56 147.994 55.9445 147.899 55.8463L145.86 53.722L142.861 56.8463C142.669 57.0455 142.353 57.0519 142.154 56.8607C141.955 56.6695 141.948 56.3529 142.139 56.1537L145.499 52.6537C145.594 52.5555 145.724 52.5 145.86 52.5C145.996 52.5 146.126 52.5555 146.221 52.6537L148.26 54.778L150.677 52.2607L148.955 50.6078Z" fill="#8B4CFC"/>
<path d="M115.887 28H115.184V22.9961H113.367V22.3633H117.703V22.9961H115.887V28ZM118.742 28V22.1172H119.414V24.4531H119.477C119.583 24.2161 119.746 24.0339 119.965 23.9062C120.186 23.7786 120.456 23.7148 120.773 23.7148C121.221 23.7148 121.576 23.8529 121.836 24.1289C122.096 24.4023 122.227 24.7839 122.227 25.2734V28H121.555V25.4375C121.555 24.6927 121.23 24.3203 120.582 24.3203C120.212 24.3203 119.924 24.4284 119.719 24.6445C119.516 24.8581 119.414 25.1458 119.414 25.5078V28H118.742ZM123.469 28V23.7891H124.141V28H123.469ZM124.137 22.7969C124.046 22.888 123.935 22.9336 123.805 22.9336C123.674 22.9336 123.564 22.888 123.473 22.7969C123.382 22.7031 123.336 22.5924 123.336 22.4648C123.336 22.3372 123.382 22.2279 123.473 22.1367C123.564 22.043 123.674 21.9961 123.805 21.9961C123.935 21.9961 124.046 22.043 124.137 22.1367C124.228 22.2279 124.273 22.3372 124.273 22.4648C124.273 22.5924 124.228 22.7031 124.137 22.7969ZM125.324 24.9414C125.324 24.5924 125.474 24.3008 125.773 24.0664C126.073 23.832 126.447 23.7148 126.895 23.7148C127.335 23.7148 127.698 23.8164 127.984 24.0195C128.271 24.2227 128.436 24.4974 128.48 24.8438H127.816C127.77 24.6719 127.665 24.5365 127.504 24.4375C127.345 24.3359 127.141 24.2852 126.891 24.2852C126.638 24.2852 126.426 24.3438 126.254 24.4609C126.085 24.5781 126 24.7292 126 24.9141C126 25.0573 126.059 25.1771 126.176 25.2734C126.296 25.3672 126.48 25.444 126.73 25.5039L127.379 25.6602C127.78 25.7565 128.076 25.8958 128.266 26.0781C128.458 26.2604 128.555 26.5013 128.555 26.8008C128.555 27.1732 128.395 27.4792 128.074 27.7188C127.754 27.9557 127.352 28.0742 126.867 28.0742C126.398 28.0742 126.014 27.9701 125.715 27.7617C125.415 27.5534 125.247 27.2747 125.211 26.9258H125.902C125.96 27.1081 126.073 27.2513 126.242 27.3555C126.411 27.457 126.628 27.5078 126.891 27.5078C127.174 27.5078 127.408 27.4466 127.59 27.3242C127.772 27.2018 127.863 27.0443 127.863 26.8516C127.863 26.5651 127.641 26.3672 127.195 26.2578L126.473 26.082C126.074 25.9857 125.783 25.8477 125.598 25.668C125.415 25.4857 125.324 25.2435 125.324 24.9414ZM131.867 28V23.7891H132.508V24.4531H132.57C132.667 24.2188 132.816 24.0378 133.02 23.9102C133.223 23.7799 133.465 23.7148 133.746 23.7148C134.022 23.7148 134.259 23.7812 134.457 23.9141C134.658 24.0469 134.809 24.2266 134.91 24.4531H134.973C135.087 24.2266 135.259 24.0469 135.488 23.9141C135.717 23.7812 135.975 23.7148 136.262 23.7148C136.691 23.7148 137.022 23.8346 137.254 24.0742C137.486 24.3112 137.602 24.6497 137.602 25.0898V28H136.93V25.2461C136.93 24.6289 136.634 24.3203 136.043 24.3203C135.757 24.3203 135.522 24.4141 135.34 24.6016C135.158 24.7891 135.066 25.0195 135.066 25.293V28H134.395V25.1406C134.395 24.8906 134.314 24.6914 134.152 24.543C133.993 24.3945 133.781 24.3203 133.516 24.3203C133.242 24.3203 133.01 24.4245 132.82 24.6328C132.633 24.8411 132.539 25.0938 132.539 25.3906V28H131.867ZM141.977 27.4922C141.63 27.8802 141.158 28.0742 140.559 28.0742C139.96 28.0742 139.486 27.8802 139.137 27.4922C138.79 27.1016 138.617 26.569 138.617 25.8945C138.617 25.2174 138.79 24.6849 139.137 24.2969C139.483 23.9089 139.957 23.7148 140.559 23.7148C141.16 23.7148 141.634 23.9089 141.98 24.2969C142.327 24.6849 142.5 25.2174 142.5 25.8945C142.5 26.569 142.326 27.1016 141.977 27.4922ZM139.637 27.0586C139.853 27.332 140.16 27.4688 140.559 27.4688C140.957 27.4688 141.264 27.332 141.48 27.0586C141.697 26.7826 141.805 26.3945 141.805 25.8945C141.805 25.3945 141.697 25.0078 141.48 24.7344C141.264 24.4583 140.957 24.3203 140.559 24.3203C140.16 24.3203 139.853 24.4583 139.637 24.7344C139.421 25.0078 139.312 25.3945 139.312 25.8945C139.312 26.3945 139.421 26.7826 139.637 27.0586ZM143.555 28V23.7891H144.195V24.4531H144.258C144.482 23.9609 144.904 23.7148 145.523 23.7148C145.995 23.7148 146.358 23.8503 146.613 24.1211C146.868 24.3893 146.996 24.7734 146.996 25.2734V28H146.324V25.4375C146.324 25.0599 146.242 24.7799 146.078 24.5977C145.917 24.4128 145.668 24.3203 145.332 24.3203C144.993 24.3203 144.724 24.4271 144.523 24.6406C144.326 24.8516 144.227 25.1406 144.227 25.5078V28H143.555ZM148.508 22.6992H149.18V23.7891H150.117V24.3516H149.18V26.7344C149.18 26.9818 149.229 27.1615 149.328 27.2734C149.427 27.3854 149.586 27.4414 149.805 27.4414C149.901 27.4414 150.005 27.4362 150.117 27.4258V27.9922C149.969 28.0182 149.837 28.0312 149.723 28.0312C149.288 28.0312 148.977 27.944 148.789 27.7695C148.602 27.5951 148.508 27.3073 148.508 26.9062V24.3516H147.828V23.7891H148.508V22.6992ZM151.172 28V22.1172H151.844V24.4531H151.906C152.013 24.2161 152.176 24.0339 152.395 23.9062C152.616 23.7786 152.885 23.7148 153.203 23.7148C153.651 23.7148 154.005 23.8529 154.266 24.1289C154.526 24.4023 154.656 24.7839 154.656 25.2734V28H153.984V25.4375C153.984 24.6927 153.66 24.3203 153.012 24.3203C152.642 24.3203 152.354 24.4284 152.148 24.6445C151.945 24.8581 151.844 25.1458 151.844 25.5078V28H151.172Z" fill="#8B4CFC"/>
</svg>
