<svg width="181" height="83" viewBox="0 0 181 83" fill="none" xmlns="http://www.w3.org/2000/svg">
<rect x="0.5" y="0.5" width="180" height="82" rx="9.5" fill="white"/>
<rect x="0.5" y="0.5" width="180" height="82" rx="9.5" stroke="#F1F1F3"/>
<path d="M29.488 28.12C28.616 28.12 27.844 28.08 27.172 28C26.5 27.92 26.016 27.84 25.72 27.76V27.52L25.48 26.236C25.592 26.364 25.804 26.5 26.116 26.644C26.436 26.788 26.86 26.912 27.388 27.016C27.916 27.112 28.544 27.16 29.272 27.16C29.928 27.16 30.424 27.116 30.76 27.028C31.104 26.932 31.336 26.804 31.456 26.644C31.584 26.476 31.648 26.284 31.648 26.068C31.648 25.812 31.544 25.608 31.336 25.456C31.128 25.304 30.816 25.184 30.4 25.096C29.992 25 29.484 24.916 28.876 24.844C28.084 24.74 27.448 24.604 26.968 24.436C26.488 24.26 26.14 24.028 25.924 23.74C25.708 23.452 25.6 23.088 25.6 22.648C25.6 22.272 25.712 21.936 25.936 21.64C26.168 21.344 26.516 21.112 26.98 20.944C27.444 20.768 28.036 20.68 28.756 20.68C29.588 20.68 30.312 20.72 30.928 20.8C31.544 20.88 31.98 20.96 32.236 21.04V21.28L32.596 22.36C32.428 22.256 32.168 22.148 31.816 22.036C31.472 21.924 31.056 21.832 30.568 21.76C30.08 21.68 29.536 21.64 28.936 21.64C28.44 21.64 28.044 21.676 27.748 21.748C27.46 21.82 27.252 21.928 27.124 22.072C27.004 22.208 26.944 22.376 26.944 22.576C26.944 22.84 27.04 23.052 27.232 23.212C27.432 23.372 27.72 23.496 28.096 23.584C28.48 23.672 28.944 23.748 29.488 23.812C30.352 23.908 31.04 24.044 31.552 24.22C32.064 24.396 32.432 24.632 32.656 24.928C32.88 25.224 32.992 25.608 32.992 26.08C32.992 26.392 32.916 26.676 32.764 26.932C32.62 27.18 32.4 27.396 32.104 27.58C31.808 27.756 31.44 27.892 31 27.988C30.568 28.076 30.064 28.12 29.488 28.12ZM37.0367 28.12C36.4047 28.12 35.8847 28.048 35.4767 27.904C35.0687 27.752 34.7487 27.544 34.5167 27.28C34.2847 27.016 34.1207 26.708 34.0247 26.356C33.9367 26.004 33.8927 25.62 33.8927 25.204C33.8927 24.3 34.1487 23.584 34.6607 23.056C35.1807 22.528 35.9487 22.264 36.9647 22.264C37.5567 22.264 38.0327 22.344 38.3927 22.504C38.7607 22.664 39.0367 22.876 39.2207 23.14C39.4127 23.404 39.5407 23.692 39.6047 24.004C39.6767 24.308 39.7127 24.608 39.7127 24.904V25.468C39.7127 25.444 39.6007 25.42 39.3767 25.396C39.1607 25.364 38.7927 25.348 38.2727 25.348H35.1167C35.1167 25.94 35.2927 26.408 35.6447 26.752C35.9967 27.096 36.5207 27.268 37.2167 27.268C37.8167 27.268 38.3087 27.196 38.6927 27.052C39.0847 26.9 39.3447 26.752 39.4727 26.608V26.848L39.5927 27.64C39.4167 27.744 39.1047 27.852 38.6567 27.964C38.2167 28.068 37.6767 28.12 37.0367 28.12ZM35.5967 24.556H38.5127C38.5127 24.348 38.4687 24.132 38.3807 23.908C38.2927 23.684 38.1367 23.496 37.9127 23.344C37.6887 23.184 37.3727 23.104 36.9647 23.104C36.6207 23.104 36.3207 23.164 36.0647 23.284C35.8087 23.396 35.6087 23.544 35.4647 23.728C35.3287 23.912 35.2607 24.108 35.2607 24.316C35.2607 24.396 35.2847 24.456 35.3327 24.496C35.3807 24.536 35.4687 24.556 35.5967 24.556ZM43.8475 28.12C43.0955 28.12 42.4635 28.08 41.9515 28C41.4475 27.92 41.1035 27.84 40.9195 27.76V27.52L40.6675 26.488C40.8755 26.656 41.2395 26.832 41.7595 27.016C42.2875 27.192 42.9275 27.28 43.6795 27.28C44.1755 27.28 44.5475 27.248 44.7955 27.184C45.0435 27.112 45.2075 27.02 45.2875 26.908C45.3675 26.788 45.4075 26.656 45.4075 26.512C45.4075 26.344 45.3475 26.212 45.2275 26.116C45.1155 26.012 44.8995 25.928 44.5795 25.864C44.2675 25.792 43.8035 25.72 43.1875 25.648C42.5155 25.568 41.9955 25.452 41.6275 25.3C41.2675 25.148 41.0195 24.956 40.8835 24.724C40.7475 24.484 40.6795 24.2 40.6795 23.872C40.6795 23.616 40.7475 23.364 40.8835 23.116C41.0195 22.868 41.2715 22.664 41.6395 22.504C42.0155 22.344 42.5475 22.264 43.2355 22.264C43.9795 22.264 44.6035 22.304 45.1075 22.384C45.6195 22.464 45.9675 22.544 46.1515 22.624V22.864L46.3915 23.776C46.1915 23.632 45.8275 23.484 45.2995 23.332C44.7715 23.18 44.1355 23.104 43.3915 23.104C42.7995 23.104 42.4035 23.172 42.2035 23.308C42.0035 23.436 41.9035 23.604 41.9035 23.812C41.9035 23.932 41.9275 24.04 41.9755 24.136C42.0235 24.224 42.1195 24.304 42.2635 24.376C42.4155 24.448 42.6395 24.512 42.9355 24.568C43.2395 24.624 43.6435 24.68 44.1475 24.736C44.8275 24.808 45.3435 24.92 45.6955 25.072C46.0475 25.224 46.2875 25.416 46.4155 25.648C46.5515 25.872 46.6195 26.136 46.6195 26.44C46.6195 26.768 46.5275 27.06 46.3435 27.316C46.1675 27.564 45.8755 27.76 45.4675 27.904C45.0595 28.048 44.5195 28.12 43.8475 28.12ZM50.6913 28.12C49.9393 28.12 49.3073 28.08 48.7952 28C48.2913 27.92 47.9473 27.84 47.7633 27.76V27.52L47.5113 26.488C47.7193 26.656 48.0833 26.832 48.6033 27.016C49.1313 27.192 49.7713 27.28 50.5233 27.28C51.0193 27.28 51.3913 27.248 51.6393 27.184C51.8873 27.112 52.0513 27.02 52.1313 26.908C52.2113 26.788 52.2513 26.656 52.2513 26.512C52.2513 26.344 52.1913 26.212 52.0713 26.116C51.9593 26.012 51.7433 25.928 51.4233 25.864C51.1113 25.792 50.6473 25.72 50.0312 25.648C49.3593 25.568 48.8393 25.452 48.4713 25.3C48.1113 25.148 47.8633 24.956 47.7273 24.724C47.5913 24.484 47.5233 24.2 47.5233 23.872C47.5233 23.616 47.5913 23.364 47.7273 23.116C47.8633 22.868 48.1153 22.664 48.4833 22.504C48.8593 22.344 49.3913 22.264 50.0793 22.264C50.8233 22.264 51.4473 22.304 51.9513 22.384C52.4633 22.464 52.8113 22.544 52.9953 22.624V22.864L53.2353 23.776C53.0353 23.632 52.6713 23.484 52.1433 23.332C51.6153 23.18 50.9793 23.104 50.2353 23.104C49.6433 23.104 49.2473 23.172 49.0473 23.308C48.8473 23.436 48.7473 23.604 48.7473 23.812C48.7473 23.932 48.7713 24.04 48.8193 24.136C48.8673 24.224 48.9633 24.304 49.1073 24.376C49.2593 24.448 49.4833 24.512 49.7793 24.568C50.0833 24.624 50.4873 24.68 50.9913 24.736C51.6713 24.808 52.1873 24.92 52.5393 25.072C52.8913 25.224 53.1313 25.416 53.2593 25.648C53.3953 25.872 53.4633 26.136 53.4633 26.44C53.4633 26.768 53.3713 27.06 53.1873 27.316C53.0113 27.564 52.7193 27.76 52.3113 27.904C51.9033 28.048 51.3633 28.12 50.6913 28.12ZM54.427 28C54.483 28 54.535 27.944 54.583 27.832C54.639 27.72 54.667 27.536 54.667 27.28V23.104C54.667 22.848 54.639 22.668 54.583 22.564C54.535 22.452 54.483 22.392 54.427 22.384H55.891V27.28C55.891 27.536 55.915 27.72 55.963 27.832C56.019 27.944 56.075 28 56.131 28H54.427ZM55.159 21.232C54.927 21.232 54.747 21.168 54.619 21.04C54.491 20.904 54.427 20.748 54.427 20.572C54.427 20.388 54.487 20.232 54.607 20.104C54.735 19.976 54.919 19.912 55.159 19.912C55.399 19.912 55.579 19.976 55.699 20.104C55.827 20.232 55.891 20.388 55.891 20.572C55.891 20.748 55.827 20.904 55.699 21.04C55.571 21.168 55.391 21.232 55.159 21.232ZM60.1215 28.12C59.3215 28.12 58.6935 27.992 58.2375 27.736C57.7895 27.48 57.4735 27.132 57.2895 26.692C57.1135 26.252 57.0255 25.756 57.0255 25.204C57.0255 24.644 57.1175 24.144 57.3015 23.704C57.4935 23.264 57.8135 22.916 58.2615 22.66C58.7095 22.396 59.3295 22.264 60.1215 22.264C60.9135 22.264 61.5335 22.396 61.9815 22.66C62.4295 22.916 62.7455 23.264 62.9295 23.704C63.1215 24.144 63.2175 24.644 63.2175 25.204C63.2175 25.756 63.1255 26.252 62.9415 26.692C62.7655 27.132 62.4535 27.48 62.0055 27.736C61.5575 27.992 60.9295 28.12 60.1215 28.12ZM60.1215 27.268C60.6175 27.268 61.0015 27.188 61.2735 27.028C61.5455 26.868 61.7335 26.636 61.8375 26.332C61.9415 26.02 61.9935 25.644 61.9935 25.204C61.9935 24.764 61.9375 24.388 61.8255 24.076C61.7215 23.764 61.5335 23.524 61.2615 23.356C60.9975 23.188 60.6175 23.104 60.1215 23.104C59.6335 23.104 59.2535 23.192 58.9815 23.368C58.7095 23.536 58.5175 23.78 58.4055 24.1C58.3015 24.412 58.2495 24.784 58.2495 25.216C58.2495 25.64 58.3015 26.008 58.4055 26.32C58.5095 26.624 58.6975 26.86 58.9695 27.028C59.2415 27.188 59.6255 27.268 60.1215 27.268ZM64.1887 28C64.2447 28 64.2967 27.944 64.3447 27.832C64.4007 27.72 64.4287 27.536 64.4287 27.28V23.224C64.4287 22.968 64.4007 22.788 64.3447 22.684C64.2967 22.572 64.2447 22.512 64.1887 22.504C64.5407 22.504 64.8447 22.48 65.1007 22.432C65.3647 22.376 65.5487 22.32 65.6527 22.264V22.996L65.6287 23.152L65.6527 23.176C65.7727 23.024 65.9247 22.88 66.1087 22.744C66.3007 22.608 66.5367 22.496 66.8167 22.408C67.0967 22.312 67.4247 22.264 67.8007 22.264C68.5447 22.264 69.1127 22.476 69.5047 22.9C69.9047 23.324 70.1047 23.988 70.1047 24.892V27.28C70.1047 27.536 70.1287 27.72 70.1767 27.832C70.2327 27.944 70.2887 28 70.3447 28H68.6407C68.6967 28 68.7487 27.944 68.7967 27.832C68.8527 27.72 68.8807 27.536 68.8807 27.28V24.928C68.8807 24.456 68.8207 24.088 68.7007 23.824C68.5807 23.56 68.4127 23.376 68.1967 23.272C67.9887 23.16 67.7447 23.104 67.4647 23.104C67.1687 23.104 66.8807 23.168 66.6007 23.296C66.3207 23.424 66.0927 23.628 65.9167 23.908C65.7407 24.188 65.6527 24.564 65.6527 25.036V27.28C65.6527 27.536 65.6767 27.72 65.7247 27.832C65.7807 27.944 65.8367 28 65.8927 28H64.1887ZM74.4803 28.12C73.7283 28.12 73.0963 28.08 72.5843 28C72.0803 27.92 71.7363 27.84 71.5523 27.76V27.52L71.3003 26.488C71.5083 26.656 71.8723 26.832 72.3923 27.016C72.9203 27.192 73.5603 27.28 74.3123 27.28C74.8083 27.28 75.1803 27.248 75.4283 27.184C75.6763 27.112 75.8403 27.02 75.9203 26.908C76.0003 26.788 76.0403 26.656 76.0403 26.512C76.0403 26.344 75.9803 26.212 75.8603 26.116C75.7483 26.012 75.5323 25.928 75.2123 25.864C74.9003 25.792 74.4363 25.72 73.8203 25.648C73.1483 25.568 72.6283 25.452 72.2603 25.3C71.9003 25.148 71.6523 24.956 71.5163 24.724C71.3803 24.484 71.3123 24.2 71.3123 23.872C71.3123 23.616 71.3803 23.364 71.5163 23.116C71.6523 22.868 71.9043 22.664 72.2723 22.504C72.6483 22.344 73.1803 22.264 73.8683 22.264C74.6123 22.264 75.2363 22.304 75.7403 22.384C76.2523 22.464 76.6003 22.544 76.7843 22.624V22.864L77.0243 23.776C76.8243 23.632 76.4603 23.484 75.9323 23.332C75.4043 23.18 74.7683 23.104 74.0243 23.104C73.4323 23.104 73.0363 23.172 72.8363 23.308C72.6363 23.436 72.5363 23.604 72.5363 23.812C72.5363 23.932 72.5603 24.04 72.6083 24.136C72.6563 24.224 72.7523 24.304 72.8963 24.376C73.0483 24.448 73.2723 24.512 73.5683 24.568C73.8723 24.624 74.2763 24.68 74.7803 24.736C75.4603 24.808 75.9763 24.92 76.3283 25.072C76.6803 25.224 76.9203 25.416 77.0483 25.648C77.1843 25.872 77.2523 26.136 77.2523 26.44C77.2523 26.768 77.1603 27.06 76.9763 27.316C76.8003 27.564 76.5083 27.76 76.1003 27.904C75.6923 28.048 75.1523 28.12 74.4803 28.12Z" fill="black"/>
<path d="M27.9121 51.5361V50.333H29.1016C29.6302 50.333 30.0609 50.1826 30.3936 49.8818C30.7308 49.5811 30.8994 49.1982 30.8994 48.7334C30.8994 48.264 30.7422 47.8926 30.4277 47.6191C30.1178 47.3457 29.6758 47.209 29.1016 47.209C28.5684 47.209 28.1354 47.3525 27.8027 47.6396C27.4701 47.9222 27.2809 48.3073 27.2354 48.7949H25.793C25.8522 47.929 26.1849 47.2386 26.791 46.7236C27.4017 46.2087 28.1947 45.9512 29.1699 45.9512C30.1087 45.9512 30.8812 46.1927 31.4873 46.6758C32.0934 47.1543 32.3965 47.7718 32.3965 48.5283C32.3965 49.139 32.2119 49.654 31.8428 50.0732C31.4736 50.488 30.9814 50.75 30.3662 50.8594V50.8867C31.1136 50.9368 31.7061 51.1761 32.1436 51.6045C32.5856 52.0329 32.8066 52.5911 32.8066 53.2793C32.8066 54.1315 32.4626 54.8288 31.7744 55.3711C31.0863 55.9134 30.2227 56.1846 29.1836 56.1846C28.1309 56.1846 27.2809 55.9225 26.6338 55.3984C25.9912 54.8698 25.6449 54.1748 25.5947 53.3135H27.0645C27.1146 53.792 27.3265 54.1771 27.7002 54.4688C28.0785 54.7604 28.5729 54.9062 29.1836 54.9062C29.7852 54.9062 30.2796 54.7536 30.667 54.4482C31.0544 54.1383 31.248 53.7419 31.248 53.2588C31.248 52.7256 31.0589 52.3063 30.6807 52.001C30.307 51.6911 29.7943 51.5361 29.1426 51.5361H27.9121ZM41.8528 54.8037C41.192 55.7243 40.2737 56.1846 39.0979 56.1846C37.9221 56.1846 36.9993 55.7266 36.3293 54.8105C35.664 53.89 35.3313 52.639 35.3313 51.0576C35.3313 49.4899 35.6663 48.248 36.3362 47.332C37.0061 46.4115 37.9267 45.9512 39.0979 45.9512C40.2691 45.9512 41.1874 46.4092 41.8528 47.3252C42.5181 48.2367 42.8508 49.4785 42.8508 51.0508C42.8508 52.6322 42.5181 53.8831 41.8528 54.8037ZM37.4641 53.8809C37.8515 54.5599 38.3961 54.8994 39.0979 54.8994C39.7997 54.8994 40.342 54.5599 40.7248 53.8809C41.1122 53.1973 41.3059 52.2562 41.3059 51.0576C41.3059 49.8727 41.1099 48.9408 40.718 48.2617C40.3306 47.5781 39.7906 47.2363 39.0979 47.2363C38.4052 47.2363 37.8629 47.5781 37.4709 48.2617C37.079 48.9453 36.883 49.8773 36.883 51.0576C36.883 52.2562 37.0767 53.1973 37.4641 53.8809ZM51.8354 54.8037C51.1746 55.7243 50.2563 56.1846 49.0805 56.1846C47.9048 56.1846 46.9819 55.7266 46.312 54.8105C45.6466 53.89 45.3139 52.639 45.3139 51.0576C45.3139 49.4899 45.6489 48.248 46.3188 47.332C46.9888 46.4115 47.9093 45.9512 49.0805 45.9512C50.2518 45.9512 51.1701 46.4092 51.8354 47.3252C52.5008 48.2367 52.8335 49.4785 52.8335 51.0508C52.8335 52.6322 52.5008 53.8831 51.8354 54.8037ZM47.4468 53.8809C47.8341 54.5599 48.3787 54.8994 49.0805 54.8994C49.7824 54.8994 50.3247 54.5599 50.7075 53.8809C51.0949 53.1973 51.2886 52.2562 51.2886 51.0576C51.2886 49.8727 51.0926 48.9408 50.7007 48.2617C50.3133 47.5781 49.7733 47.2363 49.0805 47.2363C48.3878 47.2363 47.8455 47.5781 47.4536 48.2617C47.0617 48.9453 46.8657 49.8773 46.8657 51.0576C46.8657 52.2562 47.0594 53.1973 47.4468 53.8809Z" fill="black"/>
<path d="M110.604 54.5293V56.6533H109.881V54.5293H107.757V53.8066H109.881V51.6826H110.604V53.8066H112.728V54.5293H110.604ZM114.227 51.9365C114.227 51.3115 114.438 50.7972 114.861 50.3936C115.288 49.9899 115.828 49.7881 116.482 49.7881C117.114 49.7881 117.643 49.9785 118.069 50.3594C118.499 50.737 118.714 51.2057 118.714 51.7656C118.714 52.1335 118.61 52.4948 118.401 52.8496C118.193 53.2044 117.801 53.6911 117.225 54.3096L115.53 56.1309V56.209H118.831V57H114.271V56.3945L116.707 53.7334C117.16 53.2419 117.461 52.8675 117.61 52.6104C117.76 52.3532 117.835 52.083 117.835 51.7998C117.835 51.4482 117.701 51.1536 117.435 50.916C117.171 50.6751 116.845 50.5547 116.458 50.5547C116.045 50.5547 115.711 50.6816 115.457 50.9355C115.203 51.1895 115.076 51.5231 115.076 51.9365V51.9414H114.227V51.9365ZM122.684 57.166C121.889 57.166 121.274 56.8438 120.838 56.1992C120.402 55.5547 120.184 54.6465 120.184 53.4746C120.184 52.3125 120.403 51.4076 120.843 50.7598C121.282 50.112 121.896 49.7881 122.684 49.7881C123.468 49.7881 124.078 50.1136 124.515 50.7646C124.954 51.4157 125.174 52.3239 125.174 53.4893C125.174 54.6579 124.956 55.5628 124.52 56.2041C124.087 56.8454 123.475 57.166 122.684 57.166ZM121.482 55.6426C121.762 56.1471 122.163 56.3994 122.684 56.3994C123.204 56.3994 123.602 56.1488 123.875 55.6475C124.152 55.1429 124.29 54.4186 124.29 53.4746C124.29 52.5404 124.15 51.821 123.87 51.3164C123.593 50.8118 123.198 50.5596 122.684 50.5596C122.169 50.5596 121.771 50.8135 121.487 51.3213C121.207 51.8258 121.067 52.5436 121.067 53.4746C121.067 54.4154 121.206 55.138 121.482 55.6426ZM128.802 50.3057C129.082 50.6214 129.222 51.0283 129.222 51.5264C129.222 52.0244 129.082 52.4329 128.802 52.752C128.522 53.0677 128.162 53.2256 127.723 53.2256C127.283 53.2256 126.922 53.0677 126.639 52.752C126.359 52.4329 126.219 52.0244 126.219 51.5264C126.219 51.0316 126.359 50.6263 126.639 50.3105C126.922 49.9915 127.283 49.832 127.723 49.832C128.162 49.832 128.522 49.9899 128.802 50.3057ZM127.723 52.6006C127.938 52.6006 128.11 52.5029 128.24 52.3076C128.374 52.109 128.44 51.8486 128.44 51.5264C128.44 51.1976 128.375 50.9372 128.245 50.7451C128.118 50.5531 127.944 50.457 127.723 50.457C127.505 50.457 127.329 50.5547 127.195 50.75C127.065 50.9421 127 51.2008 127 51.5264C127 51.8519 127.065 52.1123 127.195 52.3076C127.329 52.5029 127.505 52.6006 127.723 52.6006ZM127.645 57H126.746L129.437 53.3281L131.907 49.9541H132.796L130.062 53.6943L127.645 57ZM132.879 54.2021C133.159 54.5179 133.299 54.9248 133.299 55.4229C133.299 55.9209 133.159 56.3294 132.879 56.6484C132.599 56.9642 132.239 57.1221 131.8 57.1221C131.36 57.1221 130.999 56.9642 130.716 56.6484C130.436 56.3294 130.296 55.9209 130.296 55.4229C130.296 54.9281 130.436 54.5228 130.716 54.207C130.999 53.888 131.36 53.7285 131.8 53.7285C132.239 53.7285 132.599 53.8864 132.879 54.2021ZM131.8 56.4971C132.015 56.4971 132.187 56.3994 132.317 56.2041C132.451 56.0055 132.518 55.7451 132.518 55.4229C132.518 55.0941 132.452 54.8337 132.322 54.6416C132.195 54.4495 132.021 54.3535 131.8 54.3535C131.582 54.3535 131.406 54.4512 131.272 54.6465C131.142 54.8385 131.077 55.0973 131.077 55.4229C131.077 55.7484 131.142 56.0088 131.272 56.2041C131.406 56.3994 131.582 56.4971 131.8 56.4971Z" fill="#8B4CFC"/>
<path fill-rule="evenodd" clip-rule="evenodd" d="M148.955 50.6078L154.5 49L153.12 54.6061L151.398 52.9532L148.621 55.8463C148.526 55.9445 148.396 56 148.26 56C148.124 56 147.994 55.9445 147.899 55.8463L145.86 53.722L142.861 56.8463C142.669 57.0455 142.353 57.0519 142.154 56.8607C141.955 56.6695 141.948 56.3529 142.139 56.1537L145.499 52.6537C145.594 52.5555 145.724 52.5 145.86 52.5C145.996 52.5 146.126 52.5555 146.221 52.6537L148.26 54.778L150.677 52.2607L148.955 50.6078Z" fill="#8B4CFC"/>
<path d="M115.887 28H115.184V22.9961H113.367V22.3633H117.703V22.9961H115.887V28ZM118.742 28V22.1172H119.414V24.4531H119.477C119.583 24.2161 119.746 24.0339 119.965 23.9062C120.186 23.7786 120.456 23.7148 120.773 23.7148C121.221 23.7148 121.576 23.8529 121.836 24.1289C122.096 24.4023 122.227 24.7839 122.227 25.2734V28H121.555V25.4375C121.555 24.6927 121.23 24.3203 120.582 24.3203C120.212 24.3203 119.924 24.4284 119.719 24.6445C119.516 24.8581 119.414 25.1458 119.414 25.5078V28H118.742ZM123.469 28V23.7891H124.141V28H123.469ZM124.137 22.7969C124.046 22.888 123.935 22.9336 123.805 22.9336C123.674 22.9336 123.564 22.888 123.473 22.7969C123.382 22.7031 123.336 22.5924 123.336 22.4648C123.336 22.3372 123.382 22.2279 123.473 22.1367C123.564 22.043 123.674 21.9961 123.805 21.9961C123.935 21.9961 124.046 22.043 124.137 22.1367C124.228 22.2279 124.273 22.3372 124.273 22.4648C124.273 22.5924 124.228 22.7031 124.137 22.7969ZM125.324 24.9414C125.324 24.5924 125.474 24.3008 125.773 24.0664C126.073 23.832 126.447 23.7148 126.895 23.7148C127.335 23.7148 127.698 23.8164 127.984 24.0195C128.271 24.2227 128.436 24.4974 128.48 24.8438H127.816C127.77 24.6719 127.665 24.5365 127.504 24.4375C127.345 24.3359 127.141 24.2852 126.891 24.2852C126.638 24.2852 126.426 24.3438 126.254 24.4609C126.085 24.5781 126 24.7292 126 24.9141C126 25.0573 126.059 25.1771 126.176 25.2734C126.296 25.3672 126.48 25.444 126.73 25.5039L127.379 25.6602C127.78 25.7565 128.076 25.8958 128.266 26.0781C128.458 26.2604 128.555 26.5013 128.555 26.8008C128.555 27.1732 128.395 27.4792 128.074 27.7188C127.754 27.9557 127.352 28.0742 126.867 28.0742C126.398 28.0742 126.014 27.9701 125.715 27.7617C125.415 27.5534 125.247 27.2747 125.211 26.9258H125.902C125.96 27.1081 126.073 27.2513 126.242 27.3555C126.411 27.457 126.628 27.5078 126.891 27.5078C127.174 27.5078 127.408 27.4466 127.59 27.3242C127.772 27.2018 127.863 27.0443 127.863 26.8516C127.863 26.5651 127.641 26.3672 127.195 26.2578L126.473 26.082C126.074 25.9857 125.783 25.8477 125.598 25.668C125.415 25.4857 125.324 25.2435 125.324 24.9414ZM131.867 28V23.7891H132.508V24.4531H132.57C132.667 24.2188 132.816 24.0378 133.02 23.9102C133.223 23.7799 133.465 23.7148 133.746 23.7148C134.022 23.7148 134.259 23.7812 134.457 23.9141C134.658 24.0469 134.809 24.2266 134.91 24.4531H134.973C135.087 24.2266 135.259 24.0469 135.488 23.9141C135.717 23.7812 135.975 23.7148 136.262 23.7148C136.691 23.7148 137.022 23.8346 137.254 24.0742C137.486 24.3112 137.602 24.6497 137.602 25.0898V28H136.93V25.2461C136.93 24.6289 136.634 24.3203 136.043 24.3203C135.757 24.3203 135.522 24.4141 135.34 24.6016C135.158 24.7891 135.066 25.0195 135.066 25.293V28H134.395V25.1406C134.395 24.8906 134.314 24.6914 134.152 24.543C133.993 24.3945 133.781 24.3203 133.516 24.3203C133.242 24.3203 133.01 24.4245 132.82 24.6328C132.633 24.8411 132.539 25.0938 132.539 25.3906V28H131.867ZM141.977 27.4922C141.63 27.8802 141.158 28.0742 140.559 28.0742C139.96 28.0742 139.486 27.8802 139.137 27.4922C138.79 27.1016 138.617 26.569 138.617 25.8945C138.617 25.2174 138.79 24.6849 139.137 24.2969C139.483 23.9089 139.957 23.7148 140.559 23.7148C141.16 23.7148 141.634 23.9089 141.98 24.2969C142.327 24.6849 142.5 25.2174 142.5 25.8945C142.5 26.569 142.326 27.1016 141.977 27.4922ZM139.637 27.0586C139.853 27.332 140.16 27.4688 140.559 27.4688C140.957 27.4688 141.264 27.332 141.48 27.0586C141.697 26.7826 141.805 26.3945 141.805 25.8945C141.805 25.3945 141.697 25.0078 141.48 24.7344C141.264 24.4583 140.957 24.3203 140.559 24.3203C140.16 24.3203 139.853 24.4583 139.637 24.7344C139.421 25.0078 139.312 25.3945 139.312 25.8945C139.312 26.3945 139.421 26.7826 139.637 27.0586ZM143.555 28V23.7891H144.195V24.4531H144.258C144.482 23.9609 144.904 23.7148 145.523 23.7148C145.995 23.7148 146.358 23.8503 146.613 24.1211C146.868 24.3893 146.996 24.7734 146.996 25.2734V28H146.324V25.4375C146.324 25.0599 146.242 24.7799 146.078 24.5977C145.917 24.4128 145.668 24.3203 145.332 24.3203C144.993 24.3203 144.724 24.4271 144.523 24.6406C144.326 24.8516 144.227 25.1406 144.227 25.5078V28H143.555ZM148.508 22.6992H149.18V23.7891H150.117V24.3516H149.18V26.7344C149.18 26.9818 149.229 27.1615 149.328 27.2734C149.427 27.3854 149.586 27.4414 149.805 27.4414C149.901 27.4414 150.005 27.4362 150.117 27.4258V27.9922C149.969 28.0182 149.837 28.0312 149.723 28.0312C149.288 28.0312 148.977 27.944 148.789 27.7695C148.602 27.5951 148.508 27.3073 148.508 26.9062V24.3516H147.828V23.7891H148.508V22.6992ZM151.172 28V22.1172H151.844V24.4531H151.906C152.013 24.2161 152.176 24.0339 152.395 23.9062C152.616 23.7786 152.885 23.7148 153.203 23.7148C153.651 23.7148 154.005 23.8529 154.266 24.1289C154.526 24.4023 154.656 24.7839 154.656 25.2734V28H153.984V25.4375C153.984 24.6927 153.66 24.3203 153.012 24.3203C152.642 24.3203 152.354 24.4284 152.148 24.6445C151.945 24.8581 151.844 25.1458 151.844 25.5078V28H151.172Z" fill="#8B4CFC"/>
</svg>
