<svg width="181" height="83" viewBox="0 0 181 83" fill="none" xmlns="http://www.w3.org/2000/svg">
<rect x="0.5" y="0.5" width="180" height="82" rx="9.5" fill="white"/>
<rect x="0.5" y="0.5" width="180" height="82" rx="9.5" stroke="#F1F1F3"/>
<path d="M19.72 28C19.776 28 19.832 27.944 19.888 27.832C19.944 27.72 19.972 27.536 19.972 27.28V21.52C19.972 21.264 19.944 21.084 19.888 20.98C19.832 20.868 19.776 20.808 19.72 20.8H21.94C21.924 20.8 21.932 20.856 21.964 20.968C21.996 21.08 22.072 21.272 22.192 21.544C22.24 21.648 22.324 21.832 22.444 22.096C22.572 22.36 22.724 22.676 22.9 23.044C23.076 23.404 23.264 23.792 23.464 24.208C23.664 24.624 23.868 25.048 24.076 25.48C24.284 25.904 24.48 26.304 24.664 26.68H24.676C24.868 26.296 25.068 25.892 25.276 25.468C25.484 25.036 25.692 24.608 25.9 24.184C26.108 23.76 26.3 23.368 26.476 23.008C26.652 22.64 26.8 22.328 26.92 22.072C27.048 21.808 27.136 21.624 27.184 21.52C27.296 21.264 27.368 21.08 27.4 20.968C27.44 20.856 27.452 20.8 27.436 20.8H29.644C29.588 20.8 29.532 20.856 29.476 20.968C29.42 21.08 29.392 21.268 29.392 21.532V27.28C29.392 27.536 29.42 27.72 29.476 27.832C29.532 27.944 29.588 28 29.644 28H27.808C27.864 28 27.916 27.944 27.964 27.832C28.02 27.72 28.048 27.536 28.048 27.28V22.312H28.024C27.856 22.648 27.676 23.008 27.484 23.392C27.3 23.776 27.112 24.164 26.92 24.556C26.728 24.94 26.548 25.312 26.38 25.672C26.212 26.024 26.06 26.34 25.924 26.62C25.796 26.9 25.696 27.12 25.624 27.28C25.512 27.528 25.452 27.708 25.444 27.82C25.444 27.932 25.464 27.992 25.504 28H23.824C23.864 28 23.884 27.948 23.884 27.844C23.884 27.732 23.824 27.544 23.704 27.28C23.648 27.144 23.556 26.944 23.428 26.68C23.3 26.416 23.152 26.108 22.984 25.756C22.824 25.396 22.648 25.02 22.456 24.628C22.264 24.228 22.072 23.828 21.88 23.428C21.696 23.028 21.52 22.656 21.352 22.312H21.316V27.28C21.316 27.536 21.344 27.72 21.4 27.832C21.456 27.944 21.512 28 21.568 28H19.72ZM33.9312 28.12C33.2992 28.12 32.7792 28.048 32.3712 27.904C31.9632 27.752 31.6432 27.544 31.4112 27.28C31.1792 27.016 31.0152 26.708 30.9192 26.356C30.8312 26.004 30.7872 25.62 30.7872 25.204C30.7872 24.3 31.0432 23.584 31.5552 23.056C32.0752 22.528 32.8432 22.264 33.8592 22.264C34.4512 22.264 34.9272 22.344 35.2872 22.504C35.6552 22.664 35.9312 22.876 36.1152 23.14C36.3072 23.404 36.4352 23.692 36.4992 24.004C36.5712 24.308 36.6072 24.608 36.6072 24.904V25.468C36.6072 25.444 36.4952 25.42 36.2712 25.396C36.0552 25.364 35.6872 25.348 35.1672 25.348H32.0112C32.0112 25.94 32.1872 26.408 32.5392 26.752C32.8912 27.096 33.4152 27.268 34.1112 27.268C34.7112 27.268 35.2032 27.196 35.5872 27.052C35.9792 26.9 36.2392 26.752 36.3672 26.608V26.848L36.4872 27.64C36.3112 27.744 35.9992 27.852 35.5512 27.964C35.1112 28.068 34.5712 28.12 33.9312 28.12ZM32.4912 24.556H35.4072C35.4072 24.348 35.3632 24.132 35.2752 23.908C35.1872 23.684 35.0312 23.496 34.8072 23.344C34.5832 23.184 34.2672 23.104 33.8592 23.104C33.5152 23.104 33.2152 23.164 32.9592 23.284C32.7032 23.396 32.5032 23.544 32.3592 23.728C32.2232 23.912 32.1552 24.108 32.1552 24.316C32.1552 24.396 32.1792 24.456 32.2272 24.496C32.2752 24.536 32.3632 24.556 32.4912 24.556ZM37.634 28C37.69 28 37.742 27.944 37.79 27.832C37.846 27.72 37.874 27.536 37.874 27.28V23.224C37.874 22.968 37.846 22.788 37.79 22.684C37.742 22.572 37.69 22.512 37.634 22.504C37.986 22.504 38.29 22.48 38.546 22.432C38.81 22.376 38.994 22.32 39.098 22.264V22.996L39.074 23.152L39.098 23.176C39.218 23.024 39.37 22.88 39.554 22.744C39.746 22.608 39.982 22.496 40.262 22.408C40.542 22.312 40.87 22.264 41.246 22.264C41.99 22.264 42.558 22.476 42.95 22.9C43.35 23.324 43.55 23.988 43.55 24.892V27.28C43.55 27.536 43.574 27.72 43.622 27.832C43.678 27.944 43.734 28 43.79 28H42.086C42.142 28 42.194 27.944 42.242 27.832C42.298 27.72 42.326 27.536 42.326 27.28V24.928C42.326 24.456 42.266 24.088 42.146 23.824C42.026 23.56 41.858 23.376 41.642 23.272C41.434 23.16 41.19 23.104 40.91 23.104C40.614 23.104 40.326 23.168 40.046 23.296C39.766 23.424 39.538 23.628 39.362 23.908C39.186 24.188 39.098 24.564 39.098 25.036V27.28C39.098 27.536 39.122 27.72 39.17 27.832C39.226 27.944 39.282 28 39.338 28H37.634ZM47.1576 28.12C46.6056 28.12 46.2056 28.004 45.9576 27.772C45.7096 27.532 45.5856 27.144 45.5856 26.608V23.224H44.5056V22.384C44.8736 22.384 45.1616 22.34 45.3696 22.252C45.5776 22.156 45.7256 21.992 45.8136 21.76C45.9016 21.528 45.9456 21.204 45.9456 20.788H46.8096V22.384H49.1016C49.0456 22.464 48.9896 22.584 48.9336 22.744C48.8856 22.896 48.8616 23.056 48.8616 23.224H46.8096V26.428C46.8096 26.796 46.8776 27.028 47.0136 27.124C47.1496 27.22 47.3216 27.268 47.5296 27.268C47.7296 27.268 47.9136 27.228 48.0816 27.148C48.2576 27.06 48.4096 26.956 48.5376 26.836C48.6736 26.716 48.7776 26.6 48.8496 26.488V26.86L48.9696 27.544C48.8896 27.624 48.7656 27.712 48.5976 27.808C48.4296 27.896 48.2256 27.968 47.9856 28.024C47.7456 28.088 47.4696 28.12 47.1576 28.12ZM52.7867 28.12C52.1547 28.12 51.6347 28.048 51.2267 27.904C50.8187 27.752 50.4987 27.544 50.2667 27.28C50.0347 27.016 49.8707 26.708 49.7747 26.356C49.6867 26.004 49.6427 25.62 49.6427 25.204C49.6427 24.3 49.8987 23.584 50.4107 23.056C50.9307 22.528 51.6987 22.264 52.7147 22.264C53.3067 22.264 53.7827 22.344 54.1427 22.504C54.5107 22.664 54.7867 22.876 54.9707 23.14C55.1627 23.404 55.2907 23.692 55.3547 24.004C55.4267 24.308 55.4627 24.608 55.4627 24.904V25.468C55.4627 25.444 55.3507 25.42 55.1267 25.396C54.9107 25.364 54.5427 25.348 54.0227 25.348H50.8667C50.8667 25.94 51.0427 26.408 51.3947 26.752C51.7467 27.096 52.2707 27.268 52.9667 27.268C53.5667 27.268 54.0587 27.196 54.4427 27.052C54.8347 26.9 55.0947 26.752 55.2227 26.608V26.848L55.3427 27.64C55.1667 27.744 54.8547 27.852 54.4067 27.964C53.9667 28.068 53.4267 28.12 52.7867 28.12ZM51.3467 24.556H54.2627C54.2627 24.348 54.2187 24.132 54.1307 23.908C54.0427 23.684 53.8867 23.496 53.6627 23.344C53.4387 23.184 53.1227 23.104 52.7147 23.104C52.3707 23.104 52.0707 23.164 51.8147 23.284C51.5587 23.396 51.3587 23.544 51.2147 23.728C51.0787 23.912 51.0107 24.108 51.0107 24.316C51.0107 24.396 51.0347 24.456 51.0827 24.496C51.1307 24.536 51.2187 24.556 51.3467 24.556ZM59.5015 28.12C58.8695 28.12 58.3495 28.048 57.9415 27.904C57.5335 27.752 57.2135 27.544 56.9815 27.28C56.7495 27.016 56.5855 26.708 56.4895 26.356C56.4015 26.004 56.3575 25.62 56.3575 25.204C56.3575 24.3 56.6135 23.584 57.1255 23.056C57.6455 22.528 58.4135 22.264 59.4295 22.264C60.0215 22.264 60.4975 22.344 60.8575 22.504C61.2255 22.664 61.5015 22.876 61.6855 23.14C61.8775 23.404 62.0055 23.692 62.0695 24.004C62.1415 24.308 62.1775 24.608 62.1775 24.904V25.468C62.1775 25.444 62.0655 25.42 61.8415 25.396C61.6255 25.364 61.2575 25.348 60.7375 25.348H57.5815C57.5815 25.94 57.7575 26.408 58.1095 26.752C58.4615 27.096 58.9855 27.268 59.6815 27.268C60.2815 27.268 60.7735 27.196 61.1575 27.052C61.5495 26.9 61.8095 26.752 61.9375 26.608V26.848L62.0575 27.64C61.8815 27.744 61.5695 27.852 61.1215 27.964C60.6815 28.068 60.1415 28.12 59.5015 28.12ZM58.0615 24.556H60.9775C60.9775 24.348 60.9335 24.132 60.8455 23.908C60.7575 23.684 60.6015 23.496 60.3775 23.344C60.1535 23.184 59.8375 23.104 59.4295 23.104C59.0855 23.104 58.7855 23.164 58.5295 23.284C58.2735 23.396 58.0735 23.544 57.9295 23.728C57.7935 23.912 57.7255 24.108 57.7255 24.316C57.7255 24.396 57.7495 24.456 57.7975 24.496C57.8455 24.536 57.9335 24.556 58.0615 24.556ZM66.3123 28.12C65.5603 28.12 64.9283 28.08 64.4163 28C63.9123 27.92 63.5683 27.84 63.3843 27.76V27.52L63.1323 26.488C63.3403 26.656 63.7043 26.832 64.2243 27.016C64.7523 27.192 65.3923 27.28 66.1443 27.28C66.6403 27.28 67.0123 27.248 67.2603 27.184C67.5083 27.112 67.6723 27.02 67.7523 26.908C67.8323 26.788 67.8723 26.656 67.8723 26.512C67.8723 26.344 67.8123 26.212 67.6923 26.116C67.5803 26.012 67.3643 25.928 67.0443 25.864C66.7323 25.792 66.2683 25.72 65.6523 25.648C64.9803 25.568 64.4603 25.452 64.0923 25.3C63.7323 25.148 63.4843 24.956 63.3483 24.724C63.2123 24.484 63.1443 24.2 63.1443 23.872C63.1443 23.616 63.2123 23.364 63.3483 23.116C63.4843 22.868 63.7363 22.664 64.1043 22.504C64.4803 22.344 65.0123 22.264 65.7003 22.264C66.4443 22.264 67.0683 22.304 67.5723 22.384C68.0843 22.464 68.4323 22.544 68.6163 22.624V22.864L68.8563 23.776C68.6563 23.632 68.2923 23.484 67.7643 23.332C67.2363 23.18 66.6003 23.104 65.8563 23.104C65.2643 23.104 64.8683 23.172 64.6683 23.308C64.4683 23.436 64.3683 23.604 64.3683 23.812C64.3683 23.932 64.3923 24.04 64.4403 24.136C64.4883 24.224 64.5843 24.304 64.7283 24.376C64.8803 24.448 65.1043 24.512 65.4003 24.568C65.7043 24.624 66.1083 24.68 66.6123 24.736C67.2923 24.808 67.8083 24.92 68.1603 25.072C68.5123 25.224 68.7523 25.416 68.8803 25.648C69.0163 25.872 69.0843 26.136 69.0843 26.44C69.0843 26.768 68.9923 27.06 68.8083 27.316C68.6323 27.564 68.3403 27.76 67.9323 27.904C67.5243 28.048 66.9843 28.12 66.3123 28.12Z" fill="black"/>
<path d="M19.6836 49.0273C19.6836 48.1387 20.0026 47.4049 20.6406 46.8262C21.2832 46.2428 22.0944 45.9512 23.0742 45.9512C24.013 45.9512 24.7946 46.2155 25.4189 46.7441C26.0433 47.2728 26.3555 47.929 26.3555 48.7129C26.3555 49.2643 26.2028 49.7884 25.8975 50.2852C25.5921 50.7773 25.0589 51.4131 24.2979 52.1924L21.8301 54.6738V54.708H26.5127V56H19.7656V54.9609L23.3271 51.3311C23.9287 50.7021 24.332 50.2191 24.5371 49.8818C24.7422 49.54 24.8447 49.1755 24.8447 48.7881C24.8447 48.3506 24.6693 47.9792 24.3184 47.6738C23.9674 47.3685 23.5368 47.2158 23.0264 47.2158C22.4886 47.2158 22.0374 47.389 21.6729 47.7354C21.3128 48.0771 21.1328 48.5055 21.1328 49.0205V49.041H19.6836V49.0273ZM32.6672 56.1846C31.6829 56.1846 30.8648 55.9134 30.2131 55.3711C29.5614 54.8242 29.2128 54.1201 29.1672 53.2588H30.6301C30.6848 53.7464 30.9013 54.1429 31.2795 54.4482C31.6623 54.7536 32.1295 54.9062 32.6809 54.9062C33.3007 54.9062 33.8065 54.7103 34.1985 54.3184C34.5904 53.9264 34.7864 53.4206 34.7864 52.8008C34.7864 52.181 34.5904 51.6729 34.1985 51.2764C33.8111 50.8753 33.3098 50.6748 32.6946 50.6748C32.2662 50.6748 31.8765 50.7682 31.5256 50.9551C31.1793 51.1374 30.9104 51.3903 30.719 51.7139H29.3176L29.8371 46.1357H35.7092V47.4277H31.0676L30.7942 50.4561H30.8284C31.0471 50.1416 31.3479 49.8978 31.7307 49.7246C32.1181 49.5469 32.551 49.458 33.0295 49.458C33.9774 49.458 34.7567 49.7702 35.3674 50.3945C35.9781 51.0143 36.2834 51.8027 36.2834 52.7598C36.2834 53.7715 35.9462 54.5964 35.2717 55.2344C34.6018 55.8678 33.7336 56.1846 32.6672 56.1846ZM45.1382 54.8037C44.4774 55.7243 43.5591 56.1846 42.3833 56.1846C41.2075 56.1846 40.2846 55.7266 39.6147 54.8105C38.9494 53.89 38.6167 52.639 38.6167 51.0576C38.6167 49.4899 38.9516 48.248 39.6216 47.332C40.2915 46.4115 41.2121 45.9512 42.3833 45.9512C43.5545 45.9512 44.4728 46.4092 45.1382 47.3252C45.8035 48.2367 46.1362 49.4785 46.1362 51.0508C46.1362 52.6322 45.8035 53.8831 45.1382 54.8037ZM40.7495 53.8809C41.1369 54.5599 41.6815 54.8994 42.3833 54.8994C43.0851 54.8994 43.6274 54.5599 44.0102 53.8809C44.3976 53.1973 44.5913 52.2562 44.5913 51.0576C44.5913 49.8727 44.3953 48.9408 44.0034 48.2617C43.616 47.5781 43.076 47.2363 42.3833 47.2363C41.6906 47.2363 41.1483 47.5781 40.7563 48.2617C40.3644 48.9453 40.1684 49.8773 40.1684 51.0576C40.1684 52.2562 40.3621 53.1973 40.7495 53.8809Z" fill="black"/>
<path d="M104.604 54.5293V56.6533H103.881V54.5293H101.757V53.8066H103.881V51.6826H104.604V53.8066H106.728V54.5293H104.604ZM109.955 57V50.9307H109.877L108.085 52.2295V51.3018L109.96 49.9541H110.834V57H109.955ZM114.623 57V50.9307H114.545L112.753 52.2295V51.3018L114.628 49.9541H115.502V57H114.623ZM118.061 57.0488C117.888 57.0488 117.738 56.987 117.611 56.8633C117.488 56.7363 117.426 56.5866 117.426 56.4141C117.426 56.2383 117.488 56.0885 117.611 55.9648C117.738 55.8411 117.888 55.7793 118.061 55.7793C118.236 55.7793 118.386 55.8411 118.51 55.9648C118.633 56.0885 118.695 56.2383 118.695 56.4141C118.695 56.5866 118.633 56.7363 118.51 56.8633C118.386 56.987 118.236 57.0488 118.061 57.0488ZM122.309 57.166C121.514 57.166 120.899 56.8438 120.463 56.1992C120.027 55.5547 119.809 54.6465 119.809 53.4746C119.809 52.3125 120.028 51.4076 120.468 50.7598C120.907 50.112 121.521 49.7881 122.309 49.7881C123.093 49.7881 123.703 50.1136 124.14 50.7646C124.579 51.4157 124.799 52.3239 124.799 53.4893C124.799 54.6579 124.581 55.5628 124.145 56.2041C123.712 56.8454 123.1 57.166 122.309 57.166ZM121.107 55.6426C121.387 56.1471 121.788 56.3994 122.309 56.3994C122.829 56.3994 123.227 56.1488 123.5 55.6475C123.777 55.1429 123.915 54.4186 123.915 53.4746C123.915 52.5404 123.775 51.821 123.495 51.3164C123.218 50.8118 122.823 50.5596 122.309 50.5596C121.794 50.5596 121.396 50.8135 121.112 51.3213C120.832 51.8258 120.692 52.5436 120.692 53.4746C120.692 54.4154 120.831 55.138 121.107 55.6426ZM126.195 51.9365C126.195 51.3115 126.407 50.7972 126.83 50.3936C127.257 49.9899 127.797 49.7881 128.451 49.7881C129.083 49.7881 129.612 49.9785 130.038 50.3594C130.468 50.737 130.683 51.2057 130.683 51.7656C130.683 52.1335 130.578 52.4948 130.37 52.8496C130.162 53.2044 129.77 53.6911 129.193 54.3096L127.499 56.1309V56.209H130.8V57H126.239V56.3945L128.676 53.7334C129.128 53.2419 129.429 52.8675 129.579 52.6104C129.729 52.3532 129.804 52.083 129.804 51.7998C129.804 51.4482 129.67 51.1536 129.403 50.916C129.14 50.6751 128.814 50.5547 128.427 50.5547C128.013 50.5547 127.68 50.6816 127.426 50.9355C127.172 51.1895 127.045 51.5231 127.045 51.9365V51.9414H126.195V51.9365ZM134.472 50.3057C134.752 50.6214 134.892 51.0283 134.892 51.5264C134.892 52.0244 134.752 52.4329 134.472 52.752C134.192 53.0677 133.832 53.2256 133.393 53.2256C132.953 53.2256 132.592 53.0677 132.309 52.752C132.029 52.4329 131.889 52.0244 131.889 51.5264C131.889 51.0316 132.029 50.6263 132.309 50.3105C132.592 49.9915 132.953 49.832 133.393 49.832C133.832 49.832 134.192 49.9899 134.472 50.3057ZM133.393 52.6006C133.607 52.6006 133.78 52.5029 133.91 52.3076C134.044 52.109 134.11 51.8486 134.11 51.5264C134.11 51.1976 134.045 50.9372 133.915 50.7451C133.788 50.5531 133.614 50.457 133.393 50.457C133.174 50.457 132.999 50.5547 132.865 50.75C132.735 50.9421 132.67 51.2008 132.67 51.5264C132.67 51.8519 132.735 52.1123 132.865 52.3076C132.999 52.5029 133.174 52.6006 133.393 52.6006ZM133.314 57H132.416L135.106 53.3281L137.577 49.9541H138.466L135.731 53.6943L133.314 57ZM138.549 54.2021C138.829 54.5179 138.969 54.9248 138.969 55.4229C138.969 55.9209 138.829 56.3294 138.549 56.6484C138.269 56.9642 137.909 57.1221 137.47 57.1221C137.03 57.1221 136.669 56.9642 136.386 56.6484C136.106 56.3294 135.966 55.9209 135.966 55.4229C135.966 54.9281 136.106 54.5228 136.386 54.207C136.669 53.888 137.03 53.7285 137.47 53.7285C137.909 53.7285 138.269 53.8864 138.549 54.2021ZM137.47 56.4971C137.685 56.4971 137.857 56.3994 137.987 56.2041C138.121 56.0055 138.188 55.7451 138.188 55.4229C138.188 55.0941 138.122 54.8337 137.992 54.6416C137.865 54.4495 137.691 54.3535 137.47 54.3535C137.252 54.3535 137.076 54.4512 136.942 54.6465C136.812 54.8385 136.747 55.0973 136.747 55.4229C136.747 55.7484 136.812 56.0088 136.942 56.2041C137.076 56.3994 137.252 56.4971 137.47 56.4971Z" fill="#8B4CFC"/>
<path fill-rule="evenodd" clip-rule="evenodd" d="M154.955 50.6078L160.5 49L159.12 54.6061L157.398 52.9532L154.621 55.8463C154.526 55.9445 154.396 56 154.26 56C154.124 56 153.994 55.9445 153.899 55.8463L151.86 53.722L148.861 56.8463C148.669 57.0455 148.353 57.0519 148.154 56.8607C147.955 56.6695 147.948 56.3529 148.139 56.1537L151.499 52.6537C151.594 52.5555 151.724 52.5 151.86 52.5C151.996 52.5 152.126 52.5555 152.221 52.6537L154.26 54.778L156.677 52.2607L154.955 50.6078Z" fill="#8B4CFC"/>
<path d="M121.887 28H121.184V22.9961H119.367V22.3633H123.703V22.9961H121.887V28ZM124.742 28V22.1172H125.414V24.4531H125.477C125.583 24.2161 125.746 24.0339 125.965 23.9062C126.186 23.7786 126.456 23.7148 126.773 23.7148C127.221 23.7148 127.576 23.8529 127.836 24.1289C128.096 24.4023 128.227 24.7839 128.227 25.2734V28H127.555V25.4375C127.555 24.6927 127.23 24.3203 126.582 24.3203C126.212 24.3203 125.924 24.4284 125.719 24.6445C125.516 24.8581 125.414 25.1458 125.414 25.5078V28H124.742ZM129.469 28V23.7891H130.141V28H129.469ZM130.137 22.7969C130.046 22.888 129.935 22.9336 129.805 22.9336C129.674 22.9336 129.564 22.888 129.473 22.7969C129.382 22.7031 129.336 22.5924 129.336 22.4648C129.336 22.3372 129.382 22.2279 129.473 22.1367C129.564 22.043 129.674 21.9961 129.805 21.9961C129.935 21.9961 130.046 22.043 130.137 22.1367C130.228 22.2279 130.273 22.3372 130.273 22.4648C130.273 22.5924 130.228 22.7031 130.137 22.7969ZM131.324 24.9414C131.324 24.5924 131.474 24.3008 131.773 24.0664C132.073 23.832 132.447 23.7148 132.895 23.7148C133.335 23.7148 133.698 23.8164 133.984 24.0195C134.271 24.2227 134.436 24.4974 134.48 24.8438H133.816C133.77 24.6719 133.665 24.5365 133.504 24.4375C133.345 24.3359 133.141 24.2852 132.891 24.2852C132.638 24.2852 132.426 24.3438 132.254 24.4609C132.085 24.5781 132 24.7292 132 24.9141C132 25.0573 132.059 25.1771 132.176 25.2734C132.296 25.3672 132.48 25.444 132.73 25.5039L133.379 25.6602C133.78 25.7565 134.076 25.8958 134.266 26.0781C134.458 26.2604 134.555 26.5013 134.555 26.8008C134.555 27.1732 134.395 27.4792 134.074 27.7188C133.754 27.9557 133.352 28.0742 132.867 28.0742C132.398 28.0742 132.014 27.9701 131.715 27.7617C131.415 27.5534 131.247 27.2747 131.211 26.9258H131.902C131.96 27.1081 132.073 27.2513 132.242 27.3555C132.411 27.457 132.628 27.5078 132.891 27.5078C133.174 27.5078 133.408 27.4466 133.59 27.3242C133.772 27.2018 133.863 27.0443 133.863 26.8516C133.863 26.5651 133.641 26.3672 133.195 26.2578L132.473 26.082C132.074 25.9857 131.783 25.8477 131.598 25.668C131.415 25.4857 131.324 25.2435 131.324 24.9414ZM137.867 28V23.7891H138.508V24.4531H138.57C138.667 24.2188 138.816 24.0378 139.02 23.9102C139.223 23.7799 139.465 23.7148 139.746 23.7148C140.022 23.7148 140.259 23.7812 140.457 23.9141C140.658 24.0469 140.809 24.2266 140.91 24.4531H140.973C141.087 24.2266 141.259 24.0469 141.488 23.9141C141.717 23.7812 141.975 23.7148 142.262 23.7148C142.691 23.7148 143.022 23.8346 143.254 24.0742C143.486 24.3112 143.602 24.6497 143.602 25.0898V28H142.93V25.2461C142.93 24.6289 142.634 24.3203 142.043 24.3203C141.757 24.3203 141.522 24.4141 141.34 24.6016C141.158 24.7891 141.066 25.0195 141.066 25.293V28H140.395V25.1406C140.395 24.8906 140.314 24.6914 140.152 24.543C139.993 24.3945 139.781 24.3203 139.516 24.3203C139.242 24.3203 139.01 24.4245 138.82 24.6328C138.633 24.8411 138.539 25.0938 138.539 25.3906V28H137.867ZM147.977 27.4922C147.63 27.8802 147.158 28.0742 146.559 28.0742C145.96 28.0742 145.486 27.8802 145.137 27.4922C144.79 27.1016 144.617 26.569 144.617 25.8945C144.617 25.2174 144.79 24.6849 145.137 24.2969C145.483 23.9089 145.957 23.7148 146.559 23.7148C147.16 23.7148 147.634 23.9089 147.98 24.2969C148.327 24.6849 148.5 25.2174 148.5 25.8945C148.5 26.569 148.326 27.1016 147.977 27.4922ZM145.637 27.0586C145.853 27.332 146.16 27.4688 146.559 27.4688C146.957 27.4688 147.264 27.332 147.48 27.0586C147.697 26.7826 147.805 26.3945 147.805 25.8945C147.805 25.3945 147.697 25.0078 147.48 24.7344C147.264 24.4583 146.957 24.3203 146.559 24.3203C146.16 24.3203 145.853 24.4583 145.637 24.7344C145.421 25.0078 145.312 25.3945 145.312 25.8945C145.312 26.3945 145.421 26.7826 145.637 27.0586ZM149.555 28V23.7891H150.195V24.4531H150.258C150.482 23.9609 150.904 23.7148 151.523 23.7148C151.995 23.7148 152.358 23.8503 152.613 24.1211C152.868 24.3893 152.996 24.7734 152.996 25.2734V28H152.324V25.4375C152.324 25.0599 152.242 24.7799 152.078 24.5977C151.917 24.4128 151.668 24.3203 151.332 24.3203C150.993 24.3203 150.724 24.4271 150.523 24.6406C150.326 24.8516 150.227 25.1406 150.227 25.5078V28H149.555ZM154.508 22.6992H155.18V23.7891H156.117V24.3516H155.18V26.7344C155.18 26.9818 155.229 27.1615 155.328 27.2734C155.427 27.3854 155.586 27.4414 155.805 27.4414C155.901 27.4414 156.005 27.4362 156.117 27.4258V27.9922C155.969 28.0182 155.837 28.0312 155.723 28.0312C155.288 28.0312 154.977 27.944 154.789 27.7695C154.602 27.5951 154.508 27.3073 154.508 26.9062V24.3516H153.828V23.7891H154.508V22.6992ZM157.172 28V22.1172H157.844V24.4531H157.906C158.013 24.2161 158.176 24.0339 158.395 23.9062C158.616 23.7786 158.885 23.7148 159.203 23.7148C159.651 23.7148 160.005 23.8529 160.266 24.1289C160.526 24.4023 160.656 24.7839 160.656 25.2734V28H159.984V25.4375C159.984 24.6927 159.66 24.3203 159.012 24.3203C158.642 24.3203 158.354 24.4284 158.148 24.6445C157.945 24.8581 157.844 25.1458 157.844 25.5078V28H157.172Z" fill="#8B4CFC"/>
</svg>
