<svg width="181" height="83" viewBox="0 0 181 83" fill="none" xmlns="http://www.w3.org/2000/svg">
<rect x="0.5" y="0.5" width="180" height="82" rx="9.5" fill="white"/>
<rect x="0.5" y="0.5" width="180" height="82" rx="9.5" stroke="#F1F1F3"/>
<path d="M25.732 28C25.788 28 25.84 27.944 25.888 27.832C25.944 27.72 25.972 27.536 25.972 27.28V21.52C25.972 21.264 25.944 21.084 25.888 20.98C25.832 20.868 25.776 20.808 25.72 20.8H29.656C30.4 20.8 30.98 20.892 31.396 21.076C31.812 21.252 32.104 21.508 32.272 21.844C32.448 22.172 32.536 22.572 32.536 23.044C32.536 23.34 32.472 23.632 32.344 23.92C32.216 24.208 32.008 24.456 31.72 24.664C31.44 24.872 31.06 25.008 30.58 25.072V25.108C31.116 25.252 31.576 25.516 31.96 25.9C32.352 26.284 32.688 26.704 32.968 27.16C33.152 27.456 33.32 27.668 33.472 27.796C33.624 27.924 33.74 27.992 33.82 28H31.3C31.396 27.992 31.472 27.94 31.528 27.844C31.592 27.74 31.572 27.572 31.468 27.34C31.3 26.956 31.06 26.616 30.748 26.32C30.444 26.016 30.06 25.78 29.596 25.612C29.132 25.436 28.58 25.348 27.94 25.348H27.808C27.56 25.348 27.416 25.368 27.376 25.408C27.336 25.448 27.316 25.548 27.316 25.708V27.28C27.316 27.536 27.344 27.72 27.4 27.832C27.456 27.944 27.512 28 27.568 28H25.732ZM27.808 24.388H29.284C29.924 24.388 30.404 24.276 30.724 24.052C31.044 23.82 31.204 23.484 31.204 23.044C31.204 22.748 31.14 22.508 31.012 22.324C30.892 22.132 30.7 21.992 30.436 21.904C30.172 21.816 29.828 21.772 29.404 21.772H27.808C27.56 21.772 27.416 21.784 27.376 21.808C27.336 21.832 27.316 21.924 27.316 22.084V24.064C27.316 24.224 27.336 24.32 27.376 24.352C27.416 24.376 27.56 24.388 27.808 24.388ZM36.4924 28.12C35.6204 28.12 35.0084 27.964 34.6564 27.652C34.3044 27.332 34.1284 26.904 34.1284 26.368C34.1284 25.992 34.2204 25.672 34.4044 25.408C34.5964 25.136 34.8804 24.928 35.2564 24.784C35.6404 24.64 36.1244 24.568 36.7084 24.568C37.1244 24.568 37.4844 24.6 37.7884 24.664C38.1004 24.72 38.3524 24.788 38.5444 24.868C38.7444 24.948 38.8844 25.016 38.9644 25.072C38.9644 24.6 38.9044 24.22 38.7844 23.932C38.6724 23.644 38.4884 23.436 38.2324 23.308C37.9764 23.172 37.6284 23.104 37.1884 23.104C36.7164 23.104 36.2924 23.16 35.9164 23.272C35.5484 23.376 35.2524 23.492 35.0284 23.62C34.8044 23.74 34.6644 23.828 34.6084 23.884V23.644L34.4884 22.744C34.5604 22.712 34.7164 22.66 34.9564 22.588C35.1964 22.508 35.5124 22.436 35.9044 22.372C36.2964 22.3 36.7564 22.264 37.2844 22.264C37.9564 22.264 38.5044 22.36 38.9284 22.552C39.3604 22.736 39.6764 23.024 39.8764 23.416C40.0844 23.8 40.1884 24.288 40.1884 24.88V27.28C40.1884 27.504 40.2124 27.668 40.2604 27.772C40.3164 27.868 40.3724 27.944 40.4284 28H38.9644V27.64L38.9884 27.412L38.9644 27.4C38.8364 27.52 38.6844 27.624 38.5084 27.712C38.3324 27.8 38.1404 27.876 37.9324 27.94C37.7244 27.996 37.4964 28.04 37.2484 28.072C37.0084 28.104 36.7564 28.12 36.4924 28.12ZM36.8884 27.268C37.3204 27.268 37.6924 27.224 38.0044 27.136C38.3164 27.048 38.5524 26.932 38.7124 26.788C38.8804 26.636 38.9644 26.464 38.9644 26.272C38.9644 26.032 38.8044 25.828 38.4844 25.66C38.1724 25.492 37.6844 25.408 37.0204 25.408C36.4044 25.408 35.9684 25.488 35.7124 25.648C35.4644 25.808 35.3404 26.048 35.3404 26.368C35.3404 26.68 35.4604 26.908 35.7004 27.052C35.9484 27.196 36.3444 27.268 36.8884 27.268ZM43.8061 28.12C43.2541 28.12 42.8541 28.004 42.6061 27.772C42.3581 27.532 42.2341 27.144 42.2341 26.608V23.224H41.1541V22.384C41.5221 22.384 41.8101 22.34 42.0181 22.252C42.2261 22.156 42.3741 21.992 42.4621 21.76C42.5501 21.528 42.5941 21.204 42.5941 20.788H43.4581V22.384H45.7501C45.6941 22.464 45.6381 22.584 45.5821 22.744C45.5341 22.896 45.5101 23.056 45.5101 23.224H43.4581V26.428C43.4581 26.796 43.5261 27.028 43.6621 27.124C43.7981 27.22 43.9701 27.268 44.1781 27.268C44.3781 27.268 44.5621 27.228 44.7301 27.148C44.9061 27.06 45.0581 26.956 45.1861 26.836C45.3221 26.716 45.4261 26.6 45.4981 26.488V26.86L45.6181 27.544C45.5381 27.624 45.4141 27.712 45.2461 27.808C45.0781 27.896 44.8741 27.968 44.6341 28.024C44.3941 28.088 44.1181 28.12 43.8061 28.12ZM46.4231 28C46.4791 28 46.5311 27.944 46.5791 27.832C46.6351 27.72 46.6631 27.536 46.6631 27.28V23.104C46.6631 22.848 46.6351 22.668 46.5791 22.564C46.5311 22.452 46.4791 22.392 46.4231 22.384H47.8871V27.28C47.8871 27.536 47.9111 27.72 47.9591 27.832C48.0151 27.944 48.0711 28 48.1271 28H46.4231ZM47.1551 21.232C46.9231 21.232 46.7431 21.168 46.6151 21.04C46.4871 20.904 46.4231 20.748 46.4231 20.572C46.4231 20.388 46.4831 20.232 46.6031 20.104C46.7311 19.976 46.9151 19.912 47.1551 19.912C47.3951 19.912 47.5751 19.976 47.6951 20.104C47.8231 20.232 47.8871 20.388 47.8871 20.572C47.8871 20.748 47.8231 20.904 47.6951 21.04C47.5671 21.168 47.3871 21.232 47.1551 21.232ZM49.1536 28C49.2096 28 49.2616 27.944 49.3096 27.832C49.3656 27.72 49.3936 27.536 49.3936 27.28V23.224C49.3936 22.968 49.3656 22.788 49.3096 22.684C49.2616 22.572 49.2096 22.512 49.1536 22.504C49.5056 22.504 49.8096 22.48 50.0656 22.432C50.3296 22.376 50.5136 22.32 50.6176 22.264V22.996L50.5936 23.152L50.6176 23.176C50.7376 23.024 50.8896 22.88 51.0736 22.744C51.2656 22.608 51.5016 22.496 51.7816 22.408C52.0616 22.312 52.3896 22.264 52.7656 22.264C53.5096 22.264 54.0776 22.476 54.4696 22.9C54.8696 23.324 55.0696 23.988 55.0696 24.892V27.28C55.0696 27.536 55.0936 27.72 55.1416 27.832C55.1976 27.944 55.2536 28 55.3096 28H53.6056C53.6616 28 53.7136 27.944 53.7616 27.832C53.8176 27.72 53.8456 27.536 53.8456 27.28V24.928C53.8456 24.456 53.7856 24.088 53.6656 23.824C53.5456 23.56 53.3776 23.376 53.1616 23.272C52.9536 23.16 52.7096 23.104 52.4296 23.104C52.1336 23.104 51.8456 23.168 51.5656 23.296C51.2856 23.424 51.0576 23.628 50.8816 23.908C50.7056 24.188 50.6176 24.564 50.6176 25.036V27.28C50.6176 27.536 50.6416 27.72 50.6896 27.832C50.7456 27.944 50.8016 28 50.8576 28H49.1536ZM59.2652 30.928C58.8012 30.928 58.3732 30.896 57.9812 30.832C57.5972 30.768 57.2612 30.688 56.9732 30.592C56.6932 30.504 56.4772 30.416 56.3252 30.328L56.5652 29.248V28.9C56.6772 29.068 56.8532 29.244 57.0932 29.428C57.3332 29.612 57.6332 29.768 57.9932 29.896C58.3532 30.024 58.7612 30.088 59.2172 30.088C59.7532 30.088 60.1492 30 60.4052 29.824C60.6692 29.648 60.8412 29.404 60.9212 29.092C61.0092 28.78 61.0532 28.424 61.0532 28.024V27.58L61.0772 27.364L61.0532 27.34C60.9492 27.476 60.8052 27.604 60.6212 27.724C60.4372 27.844 60.2172 27.94 59.9612 28.012C59.7052 28.084 59.4172 28.12 59.0972 28.12C58.3372 28.12 57.7452 27.992 57.3212 27.736C56.9052 27.48 56.6132 27.132 56.4452 26.692C56.2852 26.252 56.2052 25.756 56.2052 25.204C56.2052 24.644 56.2852 24.144 56.4452 23.704C56.6132 23.264 56.9052 22.916 57.3212 22.66C57.7452 22.396 58.3372 22.264 59.0972 22.264C59.4172 22.264 59.7012 22.296 59.9492 22.36C60.1972 22.416 60.4132 22.496 60.5972 22.6C60.7812 22.696 60.9332 22.812 61.0532 22.948L61.0772 22.936L61.0532 22.708V22.384H62.5172C62.4612 22.392 62.4052 22.452 62.3492 22.564C62.3012 22.676 62.2772 22.864 62.2772 23.128V27.724C62.2772 28.884 62.0292 29.708 61.5332 30.196C61.0452 30.684 60.2892 30.928 59.2652 30.928ZM59.1812 27.268C59.6772 27.268 60.0612 27.192 60.3332 27.04C60.6052 26.88 60.7932 26.648 60.8972 26.344C61.0012 26.032 61.0532 25.652 61.0532 25.204C61.0532 24.764 60.9972 24.388 60.8852 24.076C60.7812 23.764 60.5932 23.524 60.3212 23.356C60.0572 23.188 59.6772 23.104 59.1812 23.104C58.7332 23.104 58.3812 23.192 58.1252 23.368C57.8692 23.536 57.6852 23.78 57.5732 24.1C57.4692 24.412 57.4172 24.784 57.4172 25.216C57.4172 25.64 57.4692 26.008 57.5732 26.32C57.6772 26.624 57.8572 26.86 58.1132 27.028C58.3772 27.188 58.7332 27.268 59.1812 27.268Z" fill="black"/>
<path d="M32.9023 52.8213C32.9023 53.8239 32.5697 54.6419 31.9043 55.2754C31.2435 55.9089 30.389 56.2256 29.3408 56.2256C28.2835 56.2256 27.4222 55.9043 26.7568 55.2617C26.0915 54.6191 25.7588 53.7897 25.7588 52.7734C25.7588 52.1901 25.8682 51.609 26.0869 51.0303C26.3102 50.4515 26.6657 49.8203 27.1533 49.1367C27.1624 49.1276 27.3447 48.8747 27.7002 48.3779C28.0602 47.8812 28.4134 47.3936 28.7598 46.915C29.1061 46.432 29.2952 46.1722 29.3271 46.1357H31.1318C31.0771 46.1904 30.6191 46.7852 29.7578 47.9199C28.901 49.0501 28.4339 49.6722 28.3564 49.7861C28.2061 49.9958 28.1012 50.1576 28.042 50.2715L28.1445 50.3125C28.3132 50.1165 28.5547 49.9593 28.8691 49.8408C29.1882 49.7178 29.5117 49.6562 29.8398 49.6562C30.7194 49.6562 31.4486 49.957 32.0273 50.5586C32.6107 51.1556 32.9023 51.9098 32.9023 52.8213ZM27.2627 52.8691C27.2627 53.457 27.4609 53.9492 27.8574 54.3457C28.2539 54.7422 28.7461 54.9404 29.334 54.9404C29.9219 54.9404 30.4141 54.7422 30.8105 54.3457C31.2116 53.9492 31.4121 53.457 31.4121 52.8691C31.4121 52.2858 31.2116 51.7959 30.8105 51.3994C30.4141 51.0029 29.9219 50.8047 29.334 50.8047C28.7461 50.8047 28.2539 51.0029 27.8574 51.3994C27.4609 51.7959 27.2627 52.2858 27.2627 52.8691ZM39.2141 56.1846C38.1158 56.1846 37.218 55.918 36.5207 55.3848C35.828 54.8516 35.4817 54.168 35.4817 53.334C35.4817 52.7096 35.6822 52.165 36.0832 51.7002C36.4888 51.2354 37.0198 50.9346 37.676 50.7979V50.7637C37.1291 50.6133 36.6916 50.3398 36.3635 49.9434C36.0399 49.5423 35.8782 49.0775 35.8782 48.5488C35.8782 47.8014 36.1926 47.1816 36.8215 46.6895C37.4504 46.1973 38.248 45.9512 39.2141 45.9512C40.1848 45.9512 40.9823 46.1973 41.6067 46.6895C42.231 47.1771 42.5432 47.7992 42.5432 48.5557C42.5432 49.0752 42.3814 49.5332 42.0579 49.9297C41.7343 50.3262 41.2991 50.6042 40.7522 50.7637V50.7979C41.4084 50.9346 41.9371 51.2354 42.3381 51.7002C42.7437 52.165 42.9465 52.7096 42.9465 53.334C42.9465 54.1725 42.5979 54.8584 41.9006 55.3916C41.2034 55.9202 40.3079 56.1846 39.2141 56.1846ZM37.6623 54.4688C38.0679 54.7923 38.5852 54.9541 39.2141 54.9541C39.843 54.9541 40.358 54.7923 40.759 54.4688C41.1601 54.1406 41.3606 53.7259 41.3606 53.2246C41.3606 52.7142 41.1601 52.2972 40.759 51.9736C40.358 51.6455 39.843 51.4814 39.2141 51.4814C38.5852 51.4814 38.0679 51.6455 37.6623 51.9736C37.2613 52.3018 37.0608 52.7188 37.0608 53.2246C37.0608 53.7259 37.2613 54.1406 37.6623 54.4688ZM39.2141 50.251C39.7427 50.251 40.178 50.1074 40.5198 49.8203C40.8616 49.5286 41.0325 49.1595 41.0325 48.7129C41.0325 48.2617 40.8616 47.8926 40.5198 47.6055C40.1825 47.3138 39.7473 47.168 39.2141 47.168C38.6809 47.168 38.2434 47.3138 37.9016 47.6055C37.5644 47.8926 37.3957 48.2617 37.3957 48.7129C37.3957 49.1641 37.5644 49.5332 37.9016 49.8203C38.2434 50.1074 38.6809 50.251 39.2141 50.251ZM51.9175 54.8037C51.2567 55.7243 50.3384 56.1846 49.1626 56.1846C47.9868 56.1846 47.0639 55.7266 46.394 54.8105C45.7287 53.89 45.396 52.639 45.396 51.0576C45.396 49.4899 45.7309 48.248 46.4009 47.332C47.0708 46.4115 47.9914 45.9512 49.1626 45.9512C50.3338 45.9512 51.2521 46.4092 51.9175 47.3252C52.5828 48.2367 52.9155 49.4785 52.9155 51.0508C52.9155 52.6322 52.5828 53.8831 51.9175 54.8037ZM47.5288 53.8809C47.9162 54.5599 48.4608 54.8994 49.1626 54.8994C49.8644 54.8994 50.4067 54.5599 50.7895 53.8809C51.1769 53.1973 51.3706 52.2562 51.3706 51.0576C51.3706 49.8727 51.1746 48.9408 50.7827 48.2617C50.3953 47.5781 49.8553 47.2363 49.1626 47.2363C48.4699 47.2363 47.9276 47.5781 47.5356 48.2617C47.1437 48.9453 46.9477 49.8773 46.9477 51.0576C46.9477 52.2562 47.1414 53.1973 47.5288 53.8809Z" fill="black"/>
<path d="M110.604 54.5293V56.6533H109.881V54.5293H107.757V53.8066H109.881V51.6826H110.604V53.8066H112.728V54.5293H110.604ZM114.227 51.9365C114.227 51.3115 114.438 50.7972 114.861 50.3936C115.288 49.9899 115.828 49.7881 116.482 49.7881C117.114 49.7881 117.643 49.9785 118.069 50.3594C118.499 50.737 118.714 51.2057 118.714 51.7656C118.714 52.1335 118.61 52.4948 118.401 52.8496C118.193 53.2044 117.801 53.6911 117.225 54.3096L115.53 56.1309V56.209H118.831V57H114.271V56.3945L116.707 53.7334C117.16 53.2419 117.461 52.8675 117.61 52.6104C117.76 52.3532 117.835 52.083 117.835 51.7998C117.835 51.4482 117.701 51.1536 117.435 50.916C117.171 50.6751 116.845 50.5547 116.458 50.5547C116.045 50.5547 115.711 50.6816 115.457 50.9355C115.203 51.1895 115.076 51.5231 115.076 51.9365V51.9414H114.227V51.9365ZM122.684 57.166C121.889 57.166 121.274 56.8438 120.838 56.1992C120.402 55.5547 120.184 54.6465 120.184 53.4746C120.184 52.3125 120.403 51.4076 120.843 50.7598C121.282 50.112 121.896 49.7881 122.684 49.7881C123.468 49.7881 124.078 50.1136 124.515 50.7646C124.954 51.4157 125.174 52.3239 125.174 53.4893C125.174 54.6579 124.956 55.5628 124.52 56.2041C124.087 56.8454 123.475 57.166 122.684 57.166ZM121.482 55.6426C121.762 56.1471 122.163 56.3994 122.684 56.3994C123.204 56.3994 123.602 56.1488 123.875 55.6475C124.152 55.1429 124.29 54.4186 124.29 53.4746C124.29 52.5404 124.15 51.821 123.87 51.3164C123.593 50.8118 123.198 50.5596 122.684 50.5596C122.169 50.5596 121.771 50.8135 121.487 51.3213C121.207 51.8258 121.067 52.5436 121.067 53.4746C121.067 54.4154 121.206 55.138 121.482 55.6426ZM128.802 50.3057C129.082 50.6214 129.222 51.0283 129.222 51.5264C129.222 52.0244 129.082 52.4329 128.802 52.752C128.522 53.0677 128.162 53.2256 127.723 53.2256C127.283 53.2256 126.922 53.0677 126.639 52.752C126.359 52.4329 126.219 52.0244 126.219 51.5264C126.219 51.0316 126.359 50.6263 126.639 50.3105C126.922 49.9915 127.283 49.832 127.723 49.832C128.162 49.832 128.522 49.9899 128.802 50.3057ZM127.723 52.6006C127.938 52.6006 128.11 52.5029 128.24 52.3076C128.374 52.109 128.44 51.8486 128.44 51.5264C128.44 51.1976 128.375 50.9372 128.245 50.7451C128.118 50.5531 127.944 50.457 127.723 50.457C127.505 50.457 127.329 50.5547 127.195 50.75C127.065 50.9421 127 51.2008 127 51.5264C127 51.8519 127.065 52.1123 127.195 52.3076C127.329 52.5029 127.505 52.6006 127.723 52.6006ZM127.645 57H126.746L129.437 53.3281L131.907 49.9541H132.796L130.062 53.6943L127.645 57ZM132.879 54.2021C133.159 54.5179 133.299 54.9248 133.299 55.4229C133.299 55.9209 133.159 56.3294 132.879 56.6484C132.599 56.9642 132.239 57.1221 131.8 57.1221C131.36 57.1221 130.999 56.9642 130.716 56.6484C130.436 56.3294 130.296 55.9209 130.296 55.4229C130.296 54.9281 130.436 54.5228 130.716 54.207C130.999 53.888 131.36 53.7285 131.8 53.7285C132.239 53.7285 132.599 53.8864 132.879 54.2021ZM131.8 56.4971C132.015 56.4971 132.187 56.3994 132.317 56.2041C132.451 56.0055 132.518 55.7451 132.518 55.4229C132.518 55.0941 132.452 54.8337 132.322 54.6416C132.195 54.4495 132.021 54.3535 131.8 54.3535C131.582 54.3535 131.406 54.4512 131.272 54.6465C131.142 54.8385 131.077 55.0973 131.077 55.4229C131.077 55.7484 131.142 56.0088 131.272 56.2041C131.406 56.3994 131.582 56.4971 131.8 56.4971Z" fill="#8B4CFC"/>
<path fill-rule="evenodd" clip-rule="evenodd" d="M148.955 50.6078L154.5 49L153.12 54.6061L151.398 52.9532L148.621 55.8463C148.526 55.9445 148.396 56 148.26 56C148.124 56 147.994 55.9445 147.899 55.8463L145.86 53.722L142.861 56.8463C142.669 57.0455 142.353 57.0519 142.154 56.8607C141.955 56.6695 141.948 56.3529 142.139 56.1537L145.499 52.6537C145.594 52.5555 145.724 52.5 145.86 52.5C145.996 52.5 146.126 52.5555 146.221 52.6537L148.26 54.778L150.677 52.2607L148.955 50.6078Z" fill="#8B4CFC"/>
<path d="M115.887 28H115.184V22.9961H113.367V22.3633H117.703V22.9961H115.887V28ZM118.742 28V22.1172H119.414V24.4531H119.477C119.583 24.2161 119.746 24.0339 119.965 23.9062C120.186 23.7786 120.456 23.7148 120.773 23.7148C121.221 23.7148 121.576 23.8529 121.836 24.1289C122.096 24.4023 122.227 24.7839 122.227 25.2734V28H121.555V25.4375C121.555 24.6927 121.23 24.3203 120.582 24.3203C120.212 24.3203 119.924 24.4284 119.719 24.6445C119.516 24.8581 119.414 25.1458 119.414 25.5078V28H118.742ZM123.469 28V23.7891H124.141V28H123.469ZM124.137 22.7969C124.046 22.888 123.935 22.9336 123.805 22.9336C123.674 22.9336 123.564 22.888 123.473 22.7969C123.382 22.7031 123.336 22.5924 123.336 22.4648C123.336 22.3372 123.382 22.2279 123.473 22.1367C123.564 22.043 123.674 21.9961 123.805 21.9961C123.935 21.9961 124.046 22.043 124.137 22.1367C124.228 22.2279 124.273 22.3372 124.273 22.4648C124.273 22.5924 124.228 22.7031 124.137 22.7969ZM125.324 24.9414C125.324 24.5924 125.474 24.3008 125.773 24.0664C126.073 23.832 126.447 23.7148 126.895 23.7148C127.335 23.7148 127.698 23.8164 127.984 24.0195C128.271 24.2227 128.436 24.4974 128.48 24.8438H127.816C127.77 24.6719 127.665 24.5365 127.504 24.4375C127.345 24.3359 127.141 24.2852 126.891 24.2852C126.638 24.2852 126.426 24.3438 126.254 24.4609C126.085 24.5781 126 24.7292 126 24.9141C126 25.0573 126.059 25.1771 126.176 25.2734C126.296 25.3672 126.48 25.444 126.73 25.5039L127.379 25.6602C127.78 25.7565 128.076 25.8958 128.266 26.0781C128.458 26.2604 128.555 26.5013 128.555 26.8008C128.555 27.1732 128.395 27.4792 128.074 27.7188C127.754 27.9557 127.352 28.0742 126.867 28.0742C126.398 28.0742 126.014 27.9701 125.715 27.7617C125.415 27.5534 125.247 27.2747 125.211 26.9258H125.902C125.96 27.1081 126.073 27.2513 126.242 27.3555C126.411 27.457 126.628 27.5078 126.891 27.5078C127.174 27.5078 127.408 27.4466 127.59 27.3242C127.772 27.2018 127.863 27.0443 127.863 26.8516C127.863 26.5651 127.641 26.3672 127.195 26.2578L126.473 26.082C126.074 25.9857 125.783 25.8477 125.598 25.668C125.415 25.4857 125.324 25.2435 125.324 24.9414ZM131.867 28V23.7891H132.508V24.4531H132.57C132.667 24.2188 132.816 24.0378 133.02 23.9102C133.223 23.7799 133.465 23.7148 133.746 23.7148C134.022 23.7148 134.259 23.7812 134.457 23.9141C134.658 24.0469 134.809 24.2266 134.91 24.4531H134.973C135.087 24.2266 135.259 24.0469 135.488 23.9141C135.717 23.7812 135.975 23.7148 136.262 23.7148C136.691 23.7148 137.022 23.8346 137.254 24.0742C137.486 24.3112 137.602 24.6497 137.602 25.0898V28H136.93V25.2461C136.93 24.6289 136.634 24.3203 136.043 24.3203C135.757 24.3203 135.522 24.4141 135.34 24.6016C135.158 24.7891 135.066 25.0195 135.066 25.293V28H134.395V25.1406C134.395 24.8906 134.314 24.6914 134.152 24.543C133.993 24.3945 133.781 24.3203 133.516 24.3203C133.242 24.3203 133.01 24.4245 132.82 24.6328C132.633 24.8411 132.539 25.0938 132.539 25.3906V28H131.867ZM141.977 27.4922C141.63 27.8802 141.158 28.0742 140.559 28.0742C139.96 28.0742 139.486 27.8802 139.137 27.4922C138.79 27.1016 138.617 26.569 138.617 25.8945C138.617 25.2174 138.79 24.6849 139.137 24.2969C139.483 23.9089 139.957 23.7148 140.559 23.7148C141.16 23.7148 141.634 23.9089 141.98 24.2969C142.327 24.6849 142.5 25.2174 142.5 25.8945C142.5 26.569 142.326 27.1016 141.977 27.4922ZM139.637 27.0586C139.853 27.332 140.16 27.4688 140.559 27.4688C140.957 27.4688 141.264 27.332 141.48 27.0586C141.697 26.7826 141.805 26.3945 141.805 25.8945C141.805 25.3945 141.697 25.0078 141.48 24.7344C141.264 24.4583 140.957 24.3203 140.559 24.3203C140.16 24.3203 139.853 24.4583 139.637 24.7344C139.421 25.0078 139.312 25.3945 139.312 25.8945C139.312 26.3945 139.421 26.7826 139.637 27.0586ZM143.555 28V23.7891H144.195V24.4531H144.258C144.482 23.9609 144.904 23.7148 145.523 23.7148C145.995 23.7148 146.358 23.8503 146.613 24.1211C146.868 24.3893 146.996 24.7734 146.996 25.2734V28H146.324V25.4375C146.324 25.0599 146.242 24.7799 146.078 24.5977C145.917 24.4128 145.668 24.3203 145.332 24.3203C144.993 24.3203 144.724 24.4271 144.523 24.6406C144.326 24.8516 144.227 25.1406 144.227 25.5078V28H143.555ZM148.508 22.6992H149.18V23.7891H150.117V24.3516H149.18V26.7344C149.18 26.9818 149.229 27.1615 149.328 27.2734C149.427 27.3854 149.586 27.4414 149.805 27.4414C149.901 27.4414 150.005 27.4362 150.117 27.4258V27.9922C149.969 28.0182 149.837 28.0312 149.723 28.0312C149.288 28.0312 148.977 27.944 148.789 27.7695C148.602 27.5951 148.508 27.3073 148.508 26.9062V24.3516H147.828V23.7891H148.508V22.6992ZM151.172 28V22.1172H151.844V24.4531H151.906C152.013 24.2161 152.176 24.0339 152.395 23.9062C152.616 23.7786 152.885 23.7148 153.203 23.7148C153.651 23.7148 154.005 23.8529 154.266 24.1289C154.526 24.4023 154.656 24.7839 154.656 25.2734V28H153.984V25.4375C153.984 24.6927 153.66 24.3203 153.012 24.3203C152.642 24.3203 152.354 24.4284 152.148 24.6445C151.945 24.8581 151.844 25.1458 151.844 25.5078V28H151.172Z" fill="#8B4CFC"/>
</svg>
