<svg width="181" height="83" viewBox="0 0 181 83" fill="none" xmlns="http://www.w3.org/2000/svg">
<rect x="0.5" y="0.5" width="180" height="82" rx="9.5" fill="white"/>
<rect x="0.5" y="0.5" width="180" height="82" rx="9.5" stroke="#F1F1F3"/>
<path d="M23.5645 29H22.5215L19.4043 20.5449H20.5117L22.9961 27.6348H23.0898L25.5742 20.5449H26.6816L23.5645 29ZM28.0586 29V22.6836H29.0664V29H28.0586ZM29.0605 21.1953C28.9238 21.332 28.7578 21.4004 28.5625 21.4004C28.3672 21.4004 28.2012 21.332 28.0645 21.1953C27.9277 21.0547 27.8594 20.8887 27.8594 20.6973C27.8594 20.5059 27.9277 20.3418 28.0645 20.2051C28.2012 20.0645 28.3672 19.9941 28.5625 19.9941C28.7578 19.9941 28.9238 20.0645 29.0605 20.2051C29.1973 20.3418 29.2656 20.5059 29.2656 20.6973C29.2656 20.8887 29.1973 21.0547 29.0605 21.1953ZM33.5078 23.4629C33.0039 23.4629 32.5898 23.6328 32.2656 23.9727C31.9414 24.3125 31.7598 24.7617 31.7207 25.3203H35.2012C35.1895 24.7617 35.0293 24.3125 34.7207 23.9727C34.4121 23.6328 34.0078 23.4629 33.5078 23.4629ZM35.1719 27.3652H36.1797C36.0273 27.9121 35.7168 28.3398 35.248 28.6484C34.7832 28.957 34.207 29.1113 33.5195 29.1113C32.6445 29.1113 31.9512 28.8184 31.4395 28.2324C30.9277 27.6426 30.6719 26.8477 30.6719 25.8477C30.6719 24.8516 30.9297 24.0566 31.4453 23.4629C31.9609 22.8691 32.6523 22.5723 33.5195 22.5723C34.3711 22.5723 35.041 22.8555 35.5293 23.4219C36.0176 23.9883 36.2617 24.7637 36.2617 25.748V26.1348H31.7207V26.1816C31.748 26.8066 31.9238 27.3027 32.248 27.6699C32.5762 28.0371 33.0078 28.2207 33.543 28.2207C34.3594 28.2207 34.9023 27.9355 35.1719 27.3652ZM45.7891 22.6836L44.0195 29H42.9941L41.582 24.1133H41.4883L40.082 29H39.0625L37.293 22.6836H38.3125L39.5547 27.7344H39.6484L41.0605 22.6836H42.0273L43.4395 27.7344H43.5332L44.7754 22.6836H45.7891ZM46.8145 24.4121C46.8145 23.8887 47.0391 23.4512 47.4883 23.0996C47.9375 22.748 48.498 22.5723 49.1699 22.5723C49.8301 22.5723 50.375 22.7246 50.8047 23.0293C51.2344 23.334 51.4824 23.7461 51.5488 24.2656H50.5527C50.4824 24.0078 50.3262 23.8047 50.084 23.6562C49.8457 23.5039 49.5391 23.4277 49.1641 23.4277C48.7852 23.4277 48.4668 23.5156 48.209 23.6914C47.9551 23.8672 47.8281 24.0938 47.8281 24.3711C47.8281 24.5859 47.916 24.7656 48.0918 24.9102C48.2715 25.0508 48.5488 25.166 48.9238 25.2559L49.8965 25.4902C50.498 25.6348 50.9414 25.8438 51.2266 26.1172C51.5156 26.3906 51.6602 26.752 51.6602 27.2012C51.6602 27.7598 51.4199 28.2188 50.9395 28.5781C50.459 28.9336 49.8555 29.1113 49.1289 29.1113C48.4258 29.1113 47.8496 28.9551 47.4004 28.6426C46.9512 28.3301 46.6992 27.9121 46.6445 27.3887H47.6816C47.7676 27.6621 47.9375 27.877 48.1914 28.0332C48.4453 28.1855 48.7695 28.2617 49.1641 28.2617C49.5898 28.2617 49.9395 28.1699 50.2129 27.9863C50.4863 27.8027 50.623 27.5664 50.623 27.2773C50.623 26.8477 50.2891 26.5508 49.6211 26.3867L48.5371 26.123C47.9395 25.9785 47.502 25.7715 47.2246 25.502C46.9512 25.2285 46.8145 24.8652 46.8145 24.4121Z" fill="black"/>
<path d="M24.4258 62V48.3359H24.3555L20.043 51.3125V48.125L24.4141 45.0898H27.9297V62H24.4258ZM36.0194 65.7031H33.453L34.3319 59.0938H37.5897L36.0194 65.7031ZM53.695 59.9961C52.4841 61.582 50.8161 62.375 48.6911 62.375C46.5661 62.375 44.8942 61.5859 43.6755 60.0078C42.4567 58.4219 41.8473 56.2578 41.8473 53.5156C41.8473 50.7891 42.4567 48.6406 43.6755 47.0703C44.902 45.4922 46.5739 44.7031 48.6911 44.7031C50.8083 44.7031 52.4762 45.4883 53.695 47.0586C54.9137 48.6289 55.5231 50.7773 55.5231 53.5039C55.5231 56.2383 54.9137 58.4023 53.695 59.9961ZM46.3005 57.957C46.8786 59.0117 47.6755 59.5391 48.6911 59.5391C49.7067 59.5391 50.4997 59.0156 51.07 57.9688C51.6403 56.9141 51.9255 55.4297 51.9255 53.5156C51.9255 51.6172 51.6364 50.1484 51.0583 49.1094C50.488 48.0625 49.6989 47.5391 48.6911 47.5391C47.6833 47.5391 46.8903 48.0625 46.3122 49.1094C45.7341 50.1562 45.445 51.625 45.445 53.5156C45.445 55.4219 45.7302 56.9023 46.3005 57.957ZM59.5464 50.1758C59.5464 48.5742 60.1245 47.2656 61.2808 46.25C62.4448 45.2266 63.9487 44.7148 65.7925 44.7148C67.5659 44.7148 69.0112 45.1758 70.1284 46.0977C71.2456 47.0117 71.8042 48.1797 71.8042 49.6016C71.8042 50.1094 71.7261 50.6016 71.5698 51.0781C71.4214 51.5469 71.1792 52.0195 70.8433 52.4961C70.5152 52.9648 70.1831 53.3906 69.8472 53.7734C69.5112 54.1484 69.0737 54.6055 68.5347 55.1445L64.4097 59.1172V59.1875H72.0386V62H59.7456V59.6211L66.1206 53.4805C66.98 52.6211 67.5659 51.9297 67.8784 51.4062C68.1987 50.8828 68.3589 50.3281 68.3589 49.7422C68.3589 49.1016 68.105 48.5625 67.5972 48.125C67.0894 47.6875 66.4487 47.4688 65.6753 47.4688C64.855 47.4688 64.1753 47.7266 63.6362 48.2422C63.0972 48.75 62.8277 49.3945 62.8277 50.1758V50.2344H59.5464V50.1758ZM80.6205 62V48.3359H80.5502L76.2377 51.3125V48.125L80.6087 45.0898H84.1244V62H80.6205Z" fill="black"/>
<path d="M104.604 54.5293V56.6533H103.881V54.5293H101.757V53.8066H103.881V51.6826H104.604V53.8066H106.728V54.5293H104.604ZM109.955 57V50.9307H109.877L108.085 52.2295V51.3018L109.96 49.9541H110.834V57H109.955ZM114.623 57V50.9307H114.545L112.753 52.2295V51.3018L114.628 49.9541H115.502V57H114.623ZM118.061 57.0488C117.888 57.0488 117.738 56.987 117.611 56.8633C117.488 56.7363 117.426 56.5866 117.426 56.4141C117.426 56.2383 117.488 56.0885 117.611 55.9648C117.738 55.8411 117.888 55.7793 118.061 55.7793C118.236 55.7793 118.386 55.8411 118.51 55.9648C118.633 56.0885 118.695 56.2383 118.695 56.4141C118.695 56.5866 118.633 56.7363 118.51 56.8633C118.386 56.987 118.236 57.0488 118.061 57.0488ZM122.309 57.166C121.514 57.166 120.899 56.8438 120.463 56.1992C120.027 55.5547 119.809 54.6465 119.809 53.4746C119.809 52.3125 120.028 51.4076 120.468 50.7598C120.907 50.112 121.521 49.7881 122.309 49.7881C123.093 49.7881 123.703 50.1136 124.14 50.7646C124.579 51.4157 124.799 52.3239 124.799 53.4893C124.799 54.6579 124.581 55.5628 124.145 56.2041C123.712 56.8454 123.1 57.166 122.309 57.166ZM121.107 55.6426C121.387 56.1471 121.788 56.3994 122.309 56.3994C122.829 56.3994 123.227 56.1488 123.5 55.6475C123.777 55.1429 123.915 54.4186 123.915 53.4746C123.915 52.5404 123.775 51.821 123.495 51.3164C123.218 50.8118 122.823 50.5596 122.309 50.5596C121.794 50.5596 121.396 50.8135 121.112 51.3213C120.832 51.8258 120.692 52.5436 120.692 53.4746C120.692 54.4154 120.831 55.138 121.107 55.6426ZM126.195 51.9365C126.195 51.3115 126.407 50.7972 126.83 50.3936C127.257 49.9899 127.797 49.7881 128.451 49.7881C129.083 49.7881 129.612 49.9785 130.038 50.3594C130.468 50.737 130.683 51.2057 130.683 51.7656C130.683 52.1335 130.578 52.4948 130.37 52.8496C130.162 53.2044 129.77 53.6911 129.193 54.3096L127.499 56.1309V56.209H130.8V57H126.239V56.3945L128.676 53.7334C129.128 53.2419 129.429 52.8675 129.579 52.6104C129.729 52.3532 129.804 52.083 129.804 51.7998C129.804 51.4482 129.67 51.1536 129.403 50.916C129.14 50.6751 128.814 50.5547 128.427 50.5547C128.013 50.5547 127.68 50.6816 127.426 50.9355C127.172 51.1895 127.045 51.5231 127.045 51.9365V51.9414H126.195V51.9365ZM134.472 50.3057C134.752 50.6214 134.892 51.0283 134.892 51.5264C134.892 52.0244 134.752 52.4329 134.472 52.752C134.192 53.0677 133.832 53.2256 133.393 53.2256C132.953 53.2256 132.592 53.0677 132.309 52.752C132.029 52.4329 131.889 52.0244 131.889 51.5264C131.889 51.0316 132.029 50.6263 132.309 50.3105C132.592 49.9915 132.953 49.832 133.393 49.832C133.832 49.832 134.192 49.9899 134.472 50.3057ZM133.393 52.6006C133.607 52.6006 133.78 52.5029 133.91 52.3076C134.044 52.109 134.11 51.8486 134.11 51.5264C134.11 51.1976 134.045 50.9372 133.915 50.7451C133.788 50.5531 133.614 50.457 133.393 50.457C133.174 50.457 132.999 50.5547 132.865 50.75C132.735 50.9421 132.67 51.2008 132.67 51.5264C132.67 51.8519 132.735 52.1123 132.865 52.3076C132.999 52.5029 133.174 52.6006 133.393 52.6006ZM133.314 57H132.416L135.106 53.3281L137.577 49.9541H138.466L135.731 53.6943L133.314 57ZM138.549 54.2021C138.829 54.5179 138.969 54.9248 138.969 55.4229C138.969 55.9209 138.829 56.3294 138.549 56.6484C138.269 56.9642 137.909 57.1221 137.47 57.1221C137.03 57.1221 136.669 56.9642 136.386 56.6484C136.106 56.3294 135.966 55.9209 135.966 55.4229C135.966 54.9281 136.106 54.5228 136.386 54.207C136.669 53.888 137.03 53.7285 137.47 53.7285C137.909 53.7285 138.269 53.8864 138.549 54.2021ZM137.47 56.4971C137.685 56.4971 137.857 56.3994 137.987 56.2041C138.121 56.0055 138.188 55.7451 138.188 55.4229C138.188 55.0941 138.122 54.8337 137.992 54.6416C137.865 54.4495 137.691 54.3535 137.47 54.3535C137.252 54.3535 137.076 54.4512 136.942 54.6465C136.812 54.8385 136.747 55.0973 136.747 55.4229C136.747 55.7484 136.812 56.0088 136.942 56.2041C137.076 56.3994 137.252 56.4971 137.47 56.4971Z" fill="#8B4CFC"/>
<path fill-rule="evenodd" clip-rule="evenodd" d="M154.955 50.6078L160.5 49L159.12 54.6061L157.398 52.9532L154.621 55.8463C154.526 55.9445 154.396 56 154.26 56C154.124 56 153.994 55.9445 153.899 55.8463L151.86 53.722L148.861 56.8463C148.669 57.0455 148.353 57.0519 148.154 56.8607C147.955 56.6695 147.948 56.3529 148.139 56.1537L151.499 52.6537C151.594 52.5555 151.724 52.5 151.86 52.5C151.996 52.5 152.126 52.5555 152.221 52.6537L154.26 54.778L156.677 52.2607L154.955 50.6078Z" fill="#8B4CFC"/>
<path d="M121.887 28H121.184V22.9961H119.367V22.3633H123.703V22.9961H121.887V28ZM124.742 28V22.1172H125.414V24.4531H125.477C125.583 24.2161 125.746 24.0339 125.965 23.9062C126.186 23.7786 126.456 23.7148 126.773 23.7148C127.221 23.7148 127.576 23.8529 127.836 24.1289C128.096 24.4023 128.227 24.7839 128.227 25.2734V28H127.555V25.4375C127.555 24.6927 127.23 24.3203 126.582 24.3203C126.212 24.3203 125.924 24.4284 125.719 24.6445C125.516 24.8581 125.414 25.1458 125.414 25.5078V28H124.742ZM129.469 28V23.7891H130.141V28H129.469ZM130.137 22.7969C130.046 22.888 129.935 22.9336 129.805 22.9336C129.674 22.9336 129.564 22.888 129.473 22.7969C129.382 22.7031 129.336 22.5924 129.336 22.4648C129.336 22.3372 129.382 22.2279 129.473 22.1367C129.564 22.043 129.674 21.9961 129.805 21.9961C129.935 21.9961 130.046 22.043 130.137 22.1367C130.228 22.2279 130.273 22.3372 130.273 22.4648C130.273 22.5924 130.228 22.7031 130.137 22.7969ZM131.324 24.9414C131.324 24.5924 131.474 24.3008 131.773 24.0664C132.073 23.832 132.447 23.7148 132.895 23.7148C133.335 23.7148 133.698 23.8164 133.984 24.0195C134.271 24.2227 134.436 24.4974 134.48 24.8438H133.816C133.77 24.6719 133.665 24.5365 133.504 24.4375C133.345 24.3359 133.141 24.2852 132.891 24.2852C132.638 24.2852 132.426 24.3438 132.254 24.4609C132.085 24.5781 132 24.7292 132 24.9141C132 25.0573 132.059 25.1771 132.176 25.2734C132.296 25.3672 132.48 25.444 132.73 25.5039L133.379 25.6602C133.78 25.7565 134.076 25.8958 134.266 26.0781C134.458 26.2604 134.555 26.5013 134.555 26.8008C134.555 27.1732 134.395 27.4792 134.074 27.7188C133.754 27.9557 133.352 28.0742 132.867 28.0742C132.398 28.0742 132.014 27.9701 131.715 27.7617C131.415 27.5534 131.247 27.2747 131.211 26.9258H131.902C131.96 27.1081 132.073 27.2513 132.242 27.3555C132.411 27.457 132.628 27.5078 132.891 27.5078C133.174 27.5078 133.408 27.4466 133.59 27.3242C133.772 27.2018 133.863 27.0443 133.863 26.8516C133.863 26.5651 133.641 26.3672 133.195 26.2578L132.473 26.082C132.074 25.9857 131.783 25.8477 131.598 25.668C131.415 25.4857 131.324 25.2435 131.324 24.9414ZM137.867 28V23.7891H138.508V24.4531H138.57C138.667 24.2188 138.816 24.0378 139.02 23.9102C139.223 23.7799 139.465 23.7148 139.746 23.7148C140.022 23.7148 140.259 23.7812 140.457 23.9141C140.658 24.0469 140.809 24.2266 140.91 24.4531H140.973C141.087 24.2266 141.259 24.0469 141.488 23.9141C141.717 23.7812 141.975 23.7148 142.262 23.7148C142.691 23.7148 143.022 23.8346 143.254 24.0742C143.486 24.3112 143.602 24.6497 143.602 25.0898V28H142.93V25.2461C142.93 24.6289 142.634 24.3203 142.043 24.3203C141.757 24.3203 141.522 24.4141 141.34 24.6016C141.158 24.7891 141.066 25.0195 141.066 25.293V28H140.395V25.1406C140.395 24.8906 140.314 24.6914 140.152 24.543C139.993 24.3945 139.781 24.3203 139.516 24.3203C139.242 24.3203 139.01 24.4245 138.82 24.6328C138.633 24.8411 138.539 25.0938 138.539 25.3906V28H137.867ZM147.977 27.4922C147.63 27.8802 147.158 28.0742 146.559 28.0742C145.96 28.0742 145.486 27.8802 145.137 27.4922C144.79 27.1016 144.617 26.569 144.617 25.8945C144.617 25.2174 144.79 24.6849 145.137 24.2969C145.483 23.9089 145.957 23.7148 146.559 23.7148C147.16 23.7148 147.634 23.9089 147.98 24.2969C148.327 24.6849 148.5 25.2174 148.5 25.8945C148.5 26.569 148.326 27.1016 147.977 27.4922ZM145.637 27.0586C145.853 27.332 146.16 27.4688 146.559 27.4688C146.957 27.4688 147.264 27.332 147.48 27.0586C147.697 26.7826 147.805 26.3945 147.805 25.8945C147.805 25.3945 147.697 25.0078 147.48 24.7344C147.264 24.4583 146.957 24.3203 146.559 24.3203C146.16 24.3203 145.853 24.4583 145.637 24.7344C145.421 25.0078 145.312 25.3945 145.312 25.8945C145.312 26.3945 145.421 26.7826 145.637 27.0586ZM149.555 28V23.7891H150.195V24.4531H150.258C150.482 23.9609 150.904 23.7148 151.523 23.7148C151.995 23.7148 152.358 23.8503 152.613 24.1211C152.868 24.3893 152.996 24.7734 152.996 25.2734V28H152.324V25.4375C152.324 25.0599 152.242 24.7799 152.078 24.5977C151.917 24.4128 151.668 24.3203 151.332 24.3203C150.993 24.3203 150.724 24.4271 150.523 24.6406C150.326 24.8516 150.227 25.1406 150.227 25.5078V28H149.555ZM154.508 22.6992H155.18V23.7891H156.117V24.3516H155.18V26.7344C155.18 26.9818 155.229 27.1615 155.328 27.2734C155.427 27.3854 155.586 27.4414 155.805 27.4414C155.901 27.4414 156.005 27.4362 156.117 27.4258V27.9922C155.969 28.0182 155.837 28.0312 155.723 28.0312C155.288 28.0312 154.977 27.944 154.789 27.7695C154.602 27.5951 154.508 27.3073 154.508 26.9062V24.3516H153.828V23.7891H154.508V22.6992ZM157.172 28V22.1172H157.844V24.4531H157.906C158.013 24.2161 158.176 24.0339 158.395 23.9062C158.616 23.7786 158.885 23.7148 159.203 23.7148C159.651 23.7148 160.005 23.8529 160.266 24.1289C160.526 24.4023 160.656 24.7839 160.656 25.2734V28H159.984V25.4375C159.984 24.6927 159.66 24.3203 159.012 24.3203C158.642 24.3203 158.354 24.4284 158.148 24.6445C157.945 24.8581 157.844 25.1458 157.844 25.5078V28H157.172Z" fill="#8B4CFC"/>
</svg>
