<svg width="20" height="24" viewBox="0 0 20 24" fill="none" xmlns="http://www.w3.org/2000/svg">
<g clip-path="url(#clip0_800_5553)">
<path d="M10 12C11.5155 12 12.969 11.3979 14.0406 10.3263C15.1122 9.25467 15.7143 7.80122 15.7143 6.2857C15.7143 4.77017 15.1122 3.31672 14.0406 2.24509C12.969 1.17345 11.5155 0.571411 10 0.571411C8.48448 0.571411 7.03103 1.17345 5.95939 2.24509C4.88775 3.31672 4.28571 4.77017 4.28571 6.2857C4.28571 7.80122 4.88775 9.25467 5.95939 10.3263C7.03103 11.3979 8.48448 12 10 12ZM5.71429 14.4643C2.41071 15.433 0 18.4866 0 22.1027C0 22.8348 0.59375 23.4286 1.32589 23.4286H18.6741C19.4062 23.4286 20 22.8348 20 22.1027C20 18.4866 17.5893 15.433 14.2857 14.4643V16.7321C15.5179 17.0491 16.4286 18.1696 16.4286 19.5V21.2857C16.4286 21.6786 16.1071 22 15.7143 22H15C14.6071 22 14.2857 21.6786 14.2857 21.2857C14.2857 20.8928 14.6071 20.5714 15 20.5714V19.5C15 18.7098 14.3616 18.0714 13.5714 18.0714C12.7812 18.0714 12.1429 18.7098 12.1429 19.5V20.5714C12.5357 20.5714 12.8571 20.8928 12.8571 21.2857C12.8571 21.6786 12.5357 22 12.1429 22H11.4286C11.0357 22 10.7143 21.6786 10.7143 21.2857V19.5C10.7143 18.1696 11.625 17.0491 12.8571 16.7321V14.183C12.5893 14.1562 12.317 14.1428 12.0402 14.1428H7.95982C7.68304 14.1428 7.41071 14.1562 7.14286 14.183V17.1027C8.17411 17.4107 8.92857 18.3661 8.92857 19.5C8.92857 20.8794 7.80804 22 6.42857 22C5.04911 22 3.92857 20.8794 3.92857 19.5C3.92857 18.3661 4.68304 17.4107 5.71429 17.1027V14.4643ZM6.42857 20.5714C6.71273 20.5714 6.98525 20.4585 7.18619 20.2576C7.38712 20.0567 7.5 19.7841 7.5 19.5C7.5 19.2158 7.38712 18.9433 7.18619 18.7424C6.98525 18.5414 6.71273 18.4286 6.42857 18.4286C6.14441 18.4286 5.87189 18.5414 5.67096 18.7424C5.47003 18.9433 5.35714 19.2158 5.35714 19.5C5.35714 19.7841 5.47003 20.0567 5.67096 20.2576C5.87189 20.4585 6.14441 20.5714 6.42857 20.5714Z" fill="#DFD2FE"/>
</g>
<defs>
<clipPath id="clip0_800_5553">
<rect width="20" height="22.8571" fill="white" transform="translate(0 0.571411)"/>
</clipPath>
</defs>
</svg>
