<svg width="45" height="48" viewBox="0 0 45 48" fill="none" xmlns="http://www.w3.org/2000/svg">
<rect width="45" height="48" rx="2" fill="#F4EEFF"/>
<g clip-path="url(#clip0_930_3656)">
<path d="M27.5 17C26.837 17 26.2011 17.2634 25.7322 17.7322C25.2634 18.2011 25 18.837 25 19.5C25 20.163 25.2634 20.7989 25.7322 21.2678C26.2011 21.7366 26.837 22 27.5 22C28.163 22 28.7989 21.7366 29.2678 21.2678C29.7366 20.7989 30 20.163 30 19.5C30 18.837 29.7366 18.2011 29.2678 17.7322C28.7989 17.2634 28.163 17 27.5 17Z" fill="#868686"/>
<path fill-rule="evenodd" clip-rule="evenodd" d="M10 14.5C10 13.837 10.2634 13.2011 10.7322 12.7322C11.2011 12.2634 11.837 12 12.5 12H32.5C33.163 12 33.7989 12.2634 34.2678 12.7322C34.7366 13.2011 35 13.837 35 14.5V34.5C35 34.9128 34.8981 35.3193 34.7033 35.6833C34.4894 36.0815 34.1715 36.4142 33.7835 36.646C33.3956 36.8779 32.952 37.0002 32.5 37H12.5C11.837 37 11.2011 36.7366 10.7322 36.2678C10.2634 35.7989 10 35.163 10 34.5V14.5ZM17.5893 17.8036L11.6667 22.4867V14.5C11.6667 14.279 11.7545 14.067 11.9107 13.9107C12.067 13.7545 12.279 13.6667 12.5 13.6667H32.5C32.721 13.6667 32.933 13.7545 33.0893 13.9107C33.2455 14.067 33.3333 14.279 33.3333 14.5V28.6667H29.5117L17.5893 17.8036Z" fill="#868686"/>
</g>
<defs>
<clipPath id="clip0_930_3656">
<rect width="25" height="25" fill="white" transform="translate(10 12)"/>
</clipPath>
</defs>
</svg>
