<svg width="15" height="13" viewBox="0 0 15 13" fill="none" xmlns="http://www.w3.org/2000/svg">
<g clip-path="url(#clip0_938_3464)">
<path d="M12.1875 4.78125V4.6875C12.1875 2.0625 10.125 0 7.5 0C5.15625 0 3.1875 1.6875 2.90625 4.03125C1.21875 4.59375 0 6.09375 0 7.96875C0 10.3125 1.875 12.1875 4.21875 12.1875C5.8125 12.1875 9.75 12.1875 11.25 12.1875C13.3125 12.1875 15 10.5 15 8.4375C15 6.65625 13.7812 5.25 12.1875 4.78125Z" fill="#C5C2C2"/>
<path d="M8.4375 7.5V10.3125H6.5625V7.5H3.75L7.5 3.75L11.25 7.5H8.4375Z" fill="white"/>
</g>
<defs>
<clipPath id="clip0_938_3464">
<rect width="15" height="12.1875" fill="white"/>
</clipPath>
</defs>
</svg>
