<svg width="50" height="50" viewBox="0 0 50 50" fill="none" xmlns="http://www.w3.org/2000/svg">
<path d="M47.6562 25.7812C47.6562 38.2812 37.5 48.4375 25 48.4375C12.5 48.4375 2.34375 38.2812 2.34375 25.7812C2.34375 13.2812 12.5 3.125 25 3.125C37.5 3.125 47.6562 13.2812 47.6562 25.7812Z" fill="url(#paint0_radial_10_3893)"/>
<path d="M47.6562 25.7812C47.6562 38.2812 37.5 48.4375 25 48.4375C12.5 48.4375 2.34375 38.2812 2.34375 25.7812C2.34375 13.2812 12.5 3.125 25 3.125C37.5 3.125 47.6562 13.2812 47.6562 25.7812Z" fill="url(#paint1_radial_10_3893)" fill-opacity="0.4"/>
<path d="M47.6562 25.7812C47.6562 38.2812 37.5 48.4375 25 48.4375C12.5 48.4375 2.34375 38.2812 2.34375 25.7812C2.34375 13.2812 12.5 3.125 25 3.125C37.5 3.125 47.6562 13.2812 47.6562 25.7812Z" fill="url(#paint2_radial_10_3893)" fill-opacity="0.4"/>
<g filter="url(#filter0_ddii_10_3893)">
<path d="M22.3436 26.875C20.9373 23.0469 18.8279 21.0938 16.7186 21.0938C14.6092 21.0938 12.4998 23.0469 11.0936 26.875C10.9373 27.2656 11.6404 27.9687 12.0311 27.5781C13.3592 26.1719 14.9998 25.5469 16.7186 25.5469C18.4373 25.5469 20.0779 26.0937 21.4061 27.5781C21.7967 27.9687 22.4998 27.2656 22.3436 26.875Z" fill="#5A3A13"/>
<path d="M22.3436 26.875C20.9373 23.0469 18.8279 21.0938 16.7186 21.0938C14.6092 21.0938 12.4998 23.0469 11.0936 26.875C10.9373 27.2656 11.6404 27.9687 12.0311 27.5781C13.3592 26.1719 14.9998 25.5469 16.7186 25.5469C18.4373 25.5469 20.0779 26.0937 21.4061 27.5781C21.7967 27.9687 22.4998 27.2656 22.3436 26.875Z" fill="url(#paint3_radial_10_3893)" style="mix-blend-mode:soft-light"/>
</g>
<g filter="url(#filter1_ddii_10_3893)">
<path d="M38.9061 26.875C37.4998 23.0469 35.3904 21.0938 33.2811 21.0938C31.1717 21.0938 29.0623 23.0469 27.6561 26.875C27.4998 27.2656 28.2029 27.9687 28.5936 27.5781C29.9217 26.1719 31.5623 25.5469 33.2811 25.5469C34.9998 25.5469 36.6404 26.0937 37.9686 27.5781C38.2811 27.9687 39.0623 27.2656 38.9061 26.875Z" fill="#5A3A13"/>
<path d="M38.9061 26.875C37.4998 23.0469 35.3904 21.0938 33.2811 21.0938C31.1717 21.0938 29.0623 23.0469 27.6561 26.875C27.4998 27.2656 28.2029 27.9687 28.5936 27.5781C29.9217 26.1719 31.5623 25.5469 33.2811 25.5469C34.9998 25.5469 36.6404 26.0937 37.9686 27.5781C38.2811 27.9687 39.0623 27.2656 38.9061 26.875Z" fill="url(#paint4_radial_10_3893)" style="mix-blend-mode:soft-light"/>
</g>
<g filter="url(#filter2_ii_10_3893)">
<path d="M34.5312 32.969C28.4375 37.2659 21.6406 37.1878 15.5469 32.969C14.8438 32.4221 14.1406 33.3596 14.6875 34.1409C16.5625 37.1878 20.3125 39.9221 25.0781 39.9221C29.8437 39.9221 33.5938 37.1878 35.4688 34.1409C35.8594 33.3596 35.2344 32.5003 34.5312 32.969Z" fill="#9F5600"/>
<path d="M34.5312 32.969C28.4375 37.2659 21.6406 37.1878 15.5469 32.969C14.8438 32.4221 14.1406 33.3596 14.6875 34.1409C16.5625 37.1878 20.3125 39.9221 25.0781 39.9221C29.8437 39.9221 33.5938 37.1878 35.4688 34.1409C35.8594 33.3596 35.2344 32.5003 34.5312 32.969Z" fill="url(#paint5_radial_10_3893)" fill-opacity="0.5"/>
</g>
<path d="M34.2539 32.553L34.2538 32.5529L34.2431 32.5604C28.3291 36.7305 21.7652 36.6607 15.8417 32.565C15.5784 32.3645 15.2728 32.2714 14.9656 32.317C14.6598 32.3624 14.4115 32.5367 14.2467 32.7593C13.9194 33.2011 13.888 33.8596 14.2688 34.4146C16.2238 37.5829 20.1209 40.4221 25.0781 40.4221C30.0415 40.4221 33.942 37.576 35.8946 34.4029L35.9061 34.3842L35.916 34.3645C36.1912 33.8141 36.1263 33.1971 35.8065 32.7814C35.6445 32.5708 35.4084 32.404 35.1166 32.3522C34.8202 32.2996 34.5204 32.3753 34.2539 32.553Z" stroke="#FEC535"/>
<g filter="url(#filter3_dii_10_3893)">
<path d="M42.4219 5.62496C42.0313 2.34371 35.8594 0.624963 22.2657 2.03121C9.53129 3.43746 3.04692 6.48434 3.35942 9.68746C3.90629 14.6875 12.8907 16.4062 23.6719 15.2343C34.4532 14.1406 42.8907 10.625 42.4219 5.62496ZM23.125 9.84371C15.9375 10.625 9.92192 10.1562 9.84379 8.90621C9.76567 8.43746 10.5469 7.96871 11.7969 7.42184C15.4688 4.76559 20.0782 3.12496 25 3.12496C28.5157 3.12496 31.875 3.90621 34.8438 5.39059C35.5469 5.62496 35.9375 5.85934 35.9375 6.17184C36.0938 7.34371 30.3125 9.06246 23.125 9.84371Z" fill="url(#paint6_linear_10_3893)"/>
<path d="M42.4219 5.62496C42.0313 2.34371 35.8594 0.624963 22.2657 2.03121C9.53129 3.43746 3.04692 6.48434 3.35942 9.68746C3.90629 14.6875 12.8907 16.4062 23.6719 15.2343C34.4532 14.1406 42.8907 10.625 42.4219 5.62496ZM23.125 9.84371C15.9375 10.625 9.92192 10.1562 9.84379 8.90621C9.76567 8.43746 10.5469 7.96871 11.7969 7.42184C15.4688 4.76559 20.0782 3.12496 25 3.12496C28.5157 3.12496 31.875 3.90621 34.8438 5.39059C35.5469 5.62496 35.9375 5.85934 35.9375 6.17184C36.0938 7.34371 30.3125 9.06246 23.125 9.84371Z" fill="url(#paint7_radial_10_3893)"/>
<path d="M42.4219 5.62496C42.0313 2.34371 35.8594 0.624963 22.2657 2.03121C9.53129 3.43746 3.04692 6.48434 3.35942 9.68746C3.90629 14.6875 12.8907 16.4062 23.6719 15.2343C34.4532 14.1406 42.8907 10.625 42.4219 5.62496ZM23.125 9.84371C15.9375 10.625 9.92192 10.1562 9.84379 8.90621C9.76567 8.43746 10.5469 7.96871 11.7969 7.42184C15.4688 4.76559 20.0782 3.12496 25 3.12496C28.5157 3.12496 31.875 3.90621 34.8438 5.39059C35.5469 5.62496 35.9375 5.85934 35.9375 6.17184C36.0938 7.34371 30.3125 9.06246 23.125 9.84371Z" fill="url(#paint8_radial_10_3893)"/>
</g>
<defs>
<filter id="filter0_ddii_10_3893" x="9.21267" y="19.644" width="15.0117" height="10.604" filterUnits="userSpaceOnUse" color-interpolation-filters="sRGB">
<feFlood flood-opacity="0" result="BackgroundImageFix"/>
<feColorMatrix in="SourceAlpha" type="matrix" values="0 0 0 0 0 0 0 0 0 0 0 0 0 0 0 0 0 0 127 0" result="hardAlpha"/>
<feOffset dy="0.696983"/>
<feGaussianBlur stdDeviation="0.929311"/>
<feColorMatrix type="matrix" values="0 0 0 0 0.520833 0 0 0 0 0.0740885 0 0 0 0 0.0455729 0 0 0 0.45 0"/>
<feBlend mode="normal" in2="BackgroundImageFix" result="effect1_dropShadow_10_3893"/>
<feColorMatrix in="SourceAlpha" type="matrix" values="0 0 0 0 0 0 0 0 0 0 0 0 0 0 0 0 0 0 127 0" result="hardAlpha"/>
<feOffset dy="0.232328"/>
<feGaussianBlur stdDeviation="0.696983"/>
<feColorMatrix type="matrix" values="0 0 0 0 0.225 0 0 0 0 0.0874875 0 0 0 0 0.0440625 0 0 0 0.25 0"/>
<feBlend mode="normal" in2="effect1_dropShadow_10_3893" result="effect2_dropShadow_10_3893"/>
<feBlend mode="normal" in="SourceGraphic" in2="effect2_dropShadow_10_3893" result="shape"/>
<feColorMatrix in="SourceAlpha" type="matrix" values="0 0 0 0 0 0 0 0 0 0 0 0 0 0 0 0 0 0 127 0" result="hardAlpha"/>
<feOffset dy="-1.39397"/>
<feGaussianBlur stdDeviation="1.39397"/>
<feComposite in2="hardAlpha" operator="arithmetic" k2="-1" k3="1"/>
<feColorMatrix type="matrix" values="0 0 0 0 0.629167 0 0 0 0 0.206786 0 0 0 0 0.0734028 0 0 0 0.11 0"/>
<feBlend mode="normal" in2="shape" result="effect3_innerShadow_10_3893"/>
<feColorMatrix in="SourceAlpha" type="matrix" values="0 0 0 0 0 0 0 0 0 0 0 0 0 0 0 0 0 0 127 0" result="hardAlpha"/>
<feOffset dy="-1.44972"/>
<feGaussianBlur stdDeviation="1.44972"/>
<feComposite in2="hardAlpha" operator="arithmetic" k2="-1" k3="1"/>
<feColorMatrix type="matrix" values="0 0 0 0 0.956863 0 0 0 0 0.72549 0 0 0 0 0.639216 0 0 0 0.14 0"/>
<feBlend mode="normal" in2="effect3_innerShadow_10_3893" result="effect4_innerShadow_10_3893"/>
</filter>
<filter id="filter1_ddii_10_3893" x="25.7752" y="19.644" width="15.0097" height="10.604" filterUnits="userSpaceOnUse" color-interpolation-filters="sRGB">
<feFlood flood-opacity="0" result="BackgroundImageFix"/>
<feColorMatrix in="SourceAlpha" type="matrix" values="0 0 0 0 0 0 0 0 0 0 0 0 0 0 0 0 0 0 127 0" result="hardAlpha"/>
<feOffset dy="0.696983"/>
<feGaussianBlur stdDeviation="0.929311"/>
<feColorMatrix type="matrix" values="0 0 0 0 0.520833 0 0 0 0 0.0740885 0 0 0 0 0.0455729 0 0 0 0.45 0"/>
<feBlend mode="normal" in2="BackgroundImageFix" result="effect1_dropShadow_10_3893"/>
<feColorMatrix in="SourceAlpha" type="matrix" values="0 0 0 0 0 0 0 0 0 0 0 0 0 0 0 0 0 0 127 0" result="hardAlpha"/>
<feOffset dy="0.232328"/>
<feGaussianBlur stdDeviation="0.696983"/>
<feColorMatrix type="matrix" values="0 0 0 0 0.225 0 0 0 0 0.0874875 0 0 0 0 0.0440625 0 0 0 0.25 0"/>
<feBlend mode="normal" in2="effect1_dropShadow_10_3893" result="effect2_dropShadow_10_3893"/>
<feBlend mode="normal" in="SourceGraphic" in2="effect2_dropShadow_10_3893" result="shape"/>
<feColorMatrix in="SourceAlpha" type="matrix" values="0 0 0 0 0 0 0 0 0 0 0 0 0 0 0 0 0 0 127 0" result="hardAlpha"/>
<feOffset dy="-1.39397"/>
<feGaussianBlur stdDeviation="1.39397"/>
<feComposite in2="hardAlpha" operator="arithmetic" k2="-1" k3="1"/>
<feColorMatrix type="matrix" values="0 0 0 0 0.629167 0 0 0 0 0.206786 0 0 0 0 0.0734028 0 0 0 0.11 0"/>
<feBlend mode="normal" in2="shape" result="effect3_innerShadow_10_3893"/>
<feColorMatrix in="SourceAlpha" type="matrix" values="0 0 0 0 0 0 0 0 0 0 0 0 0 0 0 0 0 0 127 0" result="hardAlpha"/>
<feOffset dy="-1.44972"/>
<feGaussianBlur stdDeviation="1.44972"/>
<feComposite in2="hardAlpha" operator="arithmetic" k2="-1" k3="1"/>
<feColorMatrix type="matrix" values="0 0 0 0 0.956863 0 0 0 0 0.72549 0 0 0 0 0.639216 0 0 0 0.14 0"/>
<feBlend mode="normal" in2="effect3_innerShadow_10_3893" result="effect4_innerShadow_10_3893"/>
</filter>
<filter id="filter2_ii_10_3893" x="13.4922" y="31.8057" width="23.0967" height="13.1162" filterUnits="userSpaceOnUse" color-interpolation-filters="sRGB">
<feFlood flood-opacity="0" result="BackgroundImageFix"/>
<feBlend mode="normal" in="SourceGraphic" in2="BackgroundImageFix" result="shape"/>
<feColorMatrix in="SourceAlpha" type="matrix" values="0 0 0 0 0 0 0 0 0 0 0 0 0 0 0 0 0 0 127 0" result="hardAlpha"/>
<feOffset dy="1"/>
<feGaussianBlur stdDeviation="1"/>
<feComposite in2="hardAlpha" operator="arithmetic" k2="-1" k3="1"/>
<feColorMatrix type="matrix" values="0 0 0 0 0 0 0 0 0 0 0 0 0 0 0 0 0 0 0.25 0"/>
<feBlend mode="normal" in2="shape" result="effect1_innerShadow_10_3893"/>
<feColorMatrix in="SourceAlpha" type="matrix" values="0 0 0 0 0 0 0 0 0 0 0 0 0 0 0 0 0 0 127 0" result="hardAlpha"/>
<feOffset dy="4"/>
<feGaussianBlur stdDeviation="2"/>
<feComposite in2="hardAlpha" operator="arithmetic" k2="-1" k3="1"/>
<feColorMatrix type="matrix" values="0 0 0 0 0 0 0 0 0 0 0 0 0 0 0 0 0 0 0.15 0"/>
<feBlend mode="normal" in2="effect1_innerShadow_10_3893" result="effect2_innerShadow_10_3893"/>
</filter>
<filter id="filter3_dii_10_3893" x="2.34863" y="0.537109" width="43.0918" height="19.0508" filterUnits="userSpaceOnUse" color-interpolation-filters="sRGB">
<feFlood flood-opacity="0" result="BackgroundImageFix"/>
<feColorMatrix in="SourceAlpha" type="matrix" values="0 0 0 0 0 0 0 0 0 0 0 0 0 0 0 0 0 0 127 0" result="hardAlpha"/>
<feOffset dx="1" dy="2"/>
<feGaussianBlur stdDeviation="1"/>
<feColorMatrix type="matrix" values="0 0 0 0 0.584314 0 0 0 0 0.317647 0 0 0 0 0 0 0 0 0.25 0"/>
<feBlend mode="normal" in2="BackgroundImageFix" result="effect1_dropShadow_10_3893"/>
<feBlend mode="normal" in="SourceGraphic" in2="effect1_dropShadow_10_3893" result="shape"/>
<feColorMatrix in="SourceAlpha" type="matrix" values="0 0 0 0 0 0 0 0 0 0 0 0 0 0 0 0 0 0 127 0" result="hardAlpha"/>
<feOffset dy="2"/>
<feGaussianBlur stdDeviation="1"/>
<feComposite in2="hardAlpha" operator="arithmetic" k2="-1" k3="1"/>
<feColorMatrix type="matrix" values="0 0 0 0 0.121569 0 0 0 0 0.466667 0 0 0 0 0.819608 0 0 0 1 0"/>
<feBlend mode="normal" in2="shape" result="effect2_innerShadow_10_3893"/>
<feColorMatrix in="SourceAlpha" type="matrix" values="0 0 0 0 0 0 0 0 0 0 0 0 0 0 0 0 0 0 127 0" result="hardAlpha"/>
<feOffset dx="-2" dy="-2"/>
<feGaussianBlur stdDeviation="0.5"/>
<feComposite in2="hardAlpha" operator="arithmetic" k2="-1" k3="1"/>
<feColorMatrix type="matrix" values="0 0 0 0 0.8 0 0 0 0 0.968627 0 0 0 0 1 0 0 0 0.35 0"/>
<feBlend mode="overlay" in2="effect2_innerShadow_10_3893" result="effect3_innerShadow_10_3893"/>
</filter>
<radialGradient id="paint0_radial_10_3893" cx="0" cy="0" r="1" gradientUnits="userSpaceOnUse" gradientTransform="translate(24.6618 13.6077) rotate(90) scale(13.188)">
<stop stop-color="#FDF3DF"/>
<stop offset="1" stop-color="#FFC533"/>
</radialGradient>
<radialGradient id="paint1_radial_10_3893" cx="0" cy="0" r="1" gradientUnits="userSpaceOnUse" gradientTransform="translate(37.8498 29.8391) rotate(172.648) scale(10.5696)">
<stop stop-color="#FF5C28"/>
<stop offset="1" stop-color="#FF5C28" stop-opacity="0"/>
</radialGradient>
<radialGradient id="paint2_radial_10_3893" cx="0" cy="0" r="1" gradientUnits="userSpaceOnUse" gradientTransform="translate(13.8184 30.4703) rotate(33.6901) scale(9.10357)">
<stop stop-color="#FF5C28"/>
<stop offset="1" stop-color="#FF5C28" stop-opacity="0"/>
</radialGradient>
<radialGradient id="paint3_radial_10_3893" cx="0" cy="0" r="1" gradientUnits="userSpaceOnUse" gradientTransform="translate(15.2817 22.4501) rotate(55.1813) scale(5.12297 6.6148)">
<stop stop-color="white"/>
<stop offset="1" stop-opacity="0"/>
</radialGradient>
<radialGradient id="paint4_radial_10_3893" cx="0" cy="0" r="1" gradientUnits="userSpaceOnUse" gradientTransform="translate(31.8435 22.4501) rotate(55.1857) scale(5.12269 6.61407)">
<stop stop-color="white"/>
<stop offset="1" stop-opacity="0"/>
</radialGradient>
<radialGradient id="paint5_radial_10_3893" cx="0" cy="0" r="1" gradientUnits="userSpaceOnUse" gradientTransform="translate(24.7597 34.4425) rotate(90) scale(5.50341 25.8509)">
<stop/>
<stop offset="1" stop-opacity="0"/>
</radialGradient>
<linearGradient id="paint6_linear_10_3893" x1="22.8946" y1="1.53711" x2="22.8946" y2="15.5875" gradientUnits="userSpaceOnUse">
<stop stop-color="#0047B3"/>
<stop offset="0.765625" stop-color="#48BDFF"/>
<stop offset="1" stop-color="#A2EEFF"/>
</linearGradient>
<radialGradient id="paint7_radial_10_3893" cx="0" cy="0" r="1" gradientUnits="userSpaceOnUse" gradientTransform="translate(19.8155 7.14216) rotate(121.698) scale(9.40531 20.1761)">
<stop stop-color="#CCF7FF"/>
<stop offset="0.36875" stop-color="#48BDFF"/>
<stop offset="0.691666" stop-color="#289AD8"/>
<stop offset="0.905208" stop-color="#48BDFF" stop-opacity="0"/>
</radialGradient>
<radialGradient id="paint8_radial_10_3893" cx="0" cy="0" r="1" gradientUnits="userSpaceOnUse" gradientTransform="translate(17.3445 5.48651) rotate(117.778) scale(5.30201 12.2365)">
<stop stop-color="#FCFFFF"/>
<stop offset="1" stop-color="#CCF7FF" stop-opacity="0"/>
</radialGradient>
</defs>
</svg>
