<svg width="339" height="29" viewBox="0 0 339 29" fill="none" xmlns="http://www.w3.org/2000/svg">
<path d="M4.25391 9H0.955078V0.544922H4.18945C4.96289 0.544922 5.57227 0.734375 6.01758 1.11328C6.4668 1.49219 6.69141 2.00586 6.69141 2.6543C6.69141 3.0918 6.54883 3.48633 6.26367 3.83789C5.98242 4.18945 5.63867 4.40234 5.23242 4.47656V4.57031C5.81055 4.64453 6.26953 4.86719 6.60938 5.23828C6.94922 5.60547 7.11914 6.06836 7.11914 6.62695C7.11914 7.37305 6.86523 7.95508 6.35742 8.37305C5.85352 8.79102 5.15234 9 4.25391 9ZM2.00977 1.47656V4.18945H3.69727C4.98242 4.18945 5.625 3.73828 5.625 2.83594C5.625 2.40625 5.47852 2.07227 5.18555 1.83398C4.89648 1.5957 4.49023 1.47656 3.9668 1.47656H2.00977ZM2.00977 8.06836H4.0957C4.73242 8.06836 5.21484 7.94141 5.54297 7.6875C5.87109 7.43359 6.03516 7.0625 6.03516 6.57422C6.03516 5.58984 5.35547 5.09766 3.99609 5.09766H2.00977V8.06836ZM9.25195 11.2852C9.0918 11.2852 8.94141 11.2734 8.80078 11.25V10.3887C8.90234 10.4082 9.04297 10.418 9.22266 10.418C9.51562 10.418 9.74805 10.3398 9.91992 10.1836C10.0957 10.0273 10.25 9.75977 10.3828 9.38086L10.5 9.00586L8.16211 2.68359H9.25195L10.9863 7.88086H11.0801L12.8086 2.68359H13.8809L11.4141 9.38672C11.1445 10.1172 10.8574 10.6152 10.5527 10.8809C10.248 11.1504 9.81445 11.2852 9.25195 11.2852ZM23.8418 4.61719H22.8223C22.7363 4.28516 22.5508 4.01367 22.2656 3.80273C21.9844 3.58789 21.627 3.48047 21.1934 3.48047C20.627 3.48047 20.1758 3.69141 19.8398 4.11328C19.5078 4.53516 19.3418 5.10352 19.3418 5.81836C19.3418 6.54492 19.5098 7.125 19.8457 7.55859C20.1816 7.98828 20.6309 8.20312 21.1934 8.20312C21.6191 8.20312 21.9727 8.10742 22.2539 7.91602C22.5391 7.72461 22.7285 7.45117 22.8223 7.0957H23.8418C23.748 7.69336 23.4688 8.17969 23.0039 8.55469C22.5391 8.92578 21.9375 9.11133 21.1992 9.11133C20.3125 9.11133 19.6074 8.81445 19.084 8.2207C18.5605 7.62305 18.2988 6.82227 18.2988 5.81836C18.2988 4.83398 18.5605 4.04688 19.084 3.45703C19.6074 2.86719 20.3105 2.57227 21.1934 2.57227C21.9316 2.57227 22.5332 2.76562 22.998 3.15234C23.4668 3.53906 23.748 4.02734 23.8418 4.61719ZM30.0527 8.23828C29.5332 8.82031 28.8242 9.11133 27.9258 9.11133C27.0273 9.11133 26.3164 8.82031 25.793 8.23828C25.2734 7.65234 25.0137 6.85352 25.0137 5.8418C25.0137 4.82617 25.2734 4.02734 25.793 3.44531C26.3125 2.86328 27.0234 2.57227 27.9258 2.57227C28.8281 2.57227 29.5391 2.86328 30.0586 3.44531C30.5781 4.02734 30.8379 4.82617 30.8379 5.8418C30.8379 6.85352 30.5762 7.65234 30.0527 8.23828ZM26.543 7.58789C26.8672 7.99805 27.3281 8.20312 27.9258 8.20312C28.5234 8.20312 28.9844 7.99805 29.3086 7.58789C29.6328 7.17383 29.7949 6.5918 29.7949 5.8418C29.7949 5.0918 29.6328 4.51172 29.3086 4.10156C28.9844 3.6875 28.5234 3.48047 27.9258 3.48047C27.3281 3.48047 26.8672 3.6875 26.543 4.10156C26.2188 4.51172 26.0566 5.0918 26.0566 5.8418C26.0566 6.5918 26.2188 7.17383 26.543 7.58789ZM32.4199 9V2.68359H33.3809V3.67969H33.4746C33.8105 2.94141 34.4434 2.57227 35.373 2.57227C36.0801 2.57227 36.625 2.77539 37.0078 3.18164C37.3906 3.58398 37.582 4.16016 37.582 4.91016V9H36.5742V5.15625C36.5742 4.58984 36.4512 4.16992 36.2051 3.89648C35.9629 3.61914 35.5898 3.48047 35.0859 3.48047C34.5781 3.48047 34.1738 3.64062 33.873 3.96094C33.5762 4.27734 33.4277 4.71094 33.4277 5.26172V9H32.4199ZM39.8496 1.04883H40.8574V2.68359H42.2637V3.52734H40.8574V7.10156C40.8574 7.47266 40.9316 7.74219 41.0801 7.91016C41.2285 8.07812 41.4668 8.16211 41.7949 8.16211C41.9395 8.16211 42.0957 8.1543 42.2637 8.13867V8.98828C42.041 9.02734 41.8438 9.04688 41.6719 9.04688C41.0195 9.04688 40.5527 8.91602 40.2715 8.6543C39.9902 8.39258 39.8496 7.96094 39.8496 7.35938V3.52734H38.8301V2.68359H39.8496V1.04883ZM43.8105 9V2.68359H44.8184V9H43.8105ZM44.8125 1.19531C44.6758 1.33203 44.5098 1.40039 44.3145 1.40039C44.1191 1.40039 43.9531 1.33203 43.8164 1.19531C43.6797 1.05469 43.6113 0.888672 43.6113 0.697266C43.6113 0.505859 43.6797 0.341797 43.8164 0.205078C43.9531 0.0644531 44.1191 -0.00585938 44.3145 -0.00585938C44.5098 -0.00585938 44.6758 0.0644531 44.8125 0.205078C44.9492 0.341797 45.0176 0.505859 45.0176 0.697266C45.0176 0.888672 44.9492 1.05469 44.8125 1.19531ZM46.7402 9V2.68359H47.7012V3.67969H47.7949C48.1309 2.94141 48.7637 2.57227 49.6934 2.57227C50.4004 2.57227 50.9453 2.77539 51.3281 3.18164C51.7109 3.58398 51.9023 4.16016 51.9023 4.91016V9H50.8945V5.15625C50.8945 4.58984 50.7715 4.16992 50.5254 3.89648C50.2832 3.61914 49.9102 3.48047 49.4062 3.48047C48.8984 3.48047 48.4941 3.64062 48.1934 3.96094C47.8965 4.27734 47.748 4.71094 47.748 5.26172V9H46.7402ZM58.8574 2.68359V9H57.8965V8.00977H57.8027C57.6426 8.36523 57.3965 8.63867 57.0645 8.83008C56.7324 9.01758 56.3262 9.11133 55.8457 9.11133C55.1426 9.11133 54.6074 8.91016 54.2402 8.50781C53.873 8.10547 53.6895 7.52734 53.6895 6.77344V2.68359H54.6973V6.52734C54.6973 7.10156 54.8105 7.52344 55.0371 7.79297C55.2637 8.05859 55.627 8.19141 56.127 8.19141C56.6777 8.19141 57.1016 8.03711 57.3984 7.72852C57.6992 7.41602 57.8496 6.98047 57.8496 6.42188V2.68359H58.8574ZM60.7793 9V2.68359H61.7871V9H60.7793ZM61.7812 1.19531C61.6445 1.33203 61.4785 1.40039 61.2832 1.40039C61.0879 1.40039 60.9219 1.33203 60.7852 1.19531C60.6484 1.05469 60.5801 0.888672 60.5801 0.697266C60.5801 0.505859 60.6484 0.341797 60.7852 0.205078C60.9219 0.0644531 61.0879 -0.00585938 61.2832 -0.00585938C61.4785 -0.00585938 61.6445 0.0644531 61.7812 0.205078C61.918 0.341797 61.9863 0.505859 61.9863 0.697266C61.9863 0.888672 61.918 1.05469 61.7812 1.19531ZM63.709 9V2.68359H64.6699V3.67969H64.7637C65.0996 2.94141 65.7324 2.57227 66.6621 2.57227C67.3691 2.57227 67.9141 2.77539 68.2969 3.18164C68.6797 3.58398 68.8711 4.16016 68.8711 4.91016V9H67.8633V5.15625C67.8633 4.58984 67.7402 4.16992 67.4941 3.89648C67.252 3.61914 66.8789 3.48047 66.375 3.48047C65.8672 3.48047 65.4629 3.64062 65.1621 3.96094C64.8652 4.27734 64.7168 4.71094 64.7168 5.26172V9H63.709ZM73.2715 8.01562C73.8535 8.01562 74.3105 7.8125 74.6426 7.40625C74.9785 6.99609 75.1465 6.44336 75.1465 5.74805C75.1465 5.05664 74.9785 4.50586 74.6426 4.0957C74.3066 3.68555 73.8496 3.48047 73.2715 3.48047C72.6934 3.48047 72.2441 3.68359 71.9238 4.08984C71.6035 4.49609 71.4434 5.04883 71.4434 5.74805C71.4434 6.44727 71.6035 7 71.9238 7.40625C72.2441 7.8125 72.6934 8.01562 73.2715 8.01562ZM73.3184 11.4258C72.5645 11.4258 71.9531 11.2695 71.4844 10.957C71.0195 10.6445 70.748 10.2246 70.6699 9.69727H71.7363C71.791 9.95898 71.957 10.166 72.2344 10.3184C72.5117 10.4707 72.873 10.5469 73.3184 10.5469C73.8848 10.5469 74.3262 10.4141 74.6426 10.1484C74.9629 9.88672 75.123 9.52344 75.123 9.05859V7.81641H75.0293C74.8301 8.16406 74.5586 8.43359 74.2148 8.625C73.8711 8.8125 73.4824 8.90625 73.0488 8.90625C72.2363 8.90625 71.5918 8.61914 71.1152 8.04492C70.6387 7.4668 70.4004 6.70117 70.4004 5.74805C70.4004 4.79492 70.6406 4.02734 71.1211 3.44531C71.6016 2.86328 72.2441 2.57227 73.0488 2.57227C73.4902 2.57227 73.8926 2.67383 74.2559 2.87695C74.6191 3.07617 74.8926 3.3457 75.0762 3.68555H75.1699V2.68359H76.1309V9.11133C76.1309 9.81836 75.877 10.3809 75.3691 10.7988C74.8613 11.2168 74.1777 11.4258 73.3184 11.4258ZM82.0547 11.1504H81.2988L81.8555 7.81641H82.9746L82.0547 11.1504ZM88.9043 11.2852C88.7441 11.2852 88.5938 11.2734 88.4531 11.25V10.3887C88.5547 10.4082 88.6953 10.418 88.875 10.418C89.168 10.418 89.4004 10.3398 89.5723 10.1836C89.748 10.0273 89.9023 9.75977 90.0352 9.38086L90.1523 9.00586L87.8145 2.68359H88.9043L90.6387 7.88086H90.7324L92.4609 2.68359H93.5332L91.0664 9.38672C90.7969 10.1172 90.5098 10.6152 90.2051 10.8809C89.9004 11.1504 89.4668 11.2852 88.9043 11.2852ZM99.3691 8.23828C98.8496 8.82031 98.1406 9.11133 97.2422 9.11133C96.3438 9.11133 95.6328 8.82031 95.1094 8.23828C94.5898 7.65234 94.3301 6.85352 94.3301 5.8418C94.3301 4.82617 94.5898 4.02734 95.1094 3.44531C95.6289 2.86328 96.3398 2.57227 97.2422 2.57227C98.1445 2.57227 98.8555 2.86328 99.375 3.44531C99.8945 4.02734 100.154 4.82617 100.154 5.8418C100.154 6.85352 99.8926 7.65234 99.3691 8.23828ZM95.8594 7.58789C96.1836 7.99805 96.6445 8.20312 97.2422 8.20312C97.8398 8.20312 98.3008 7.99805 98.625 7.58789C98.9492 7.17383 99.1113 6.5918 99.1113 5.8418C99.1113 5.0918 98.9492 4.51172 98.625 4.10156C98.3008 3.6875 97.8398 3.48047 97.2422 3.48047C96.6445 3.48047 96.1836 3.6875 95.8594 4.10156C95.5352 4.51172 95.373 5.0918 95.373 5.8418C95.373 6.5918 95.5352 7.17383 95.8594 7.58789ZM106.846 2.68359V9H105.885V8.00977H105.791C105.631 8.36523 105.385 8.63867 105.053 8.83008C104.721 9.01758 104.314 9.11133 103.834 9.11133C103.131 9.11133 102.596 8.91016 102.229 8.50781C101.861 8.10547 101.678 7.52734 101.678 6.77344V2.68359H102.686V6.52734C102.686 7.10156 102.799 7.52344 103.025 7.79297C103.252 8.05859 103.615 8.19141 104.115 8.19141C104.666 8.19141 105.09 8.03711 105.387 7.72852C105.688 7.41602 105.838 6.98047 105.838 6.42188V2.68359H106.846ZM114.076 8.22656C114.596 8.22656 115.025 8.07617 115.365 7.77539C115.709 7.47461 115.881 7.09766 115.881 6.64453V6.06445L114.182 6.17578C113.705 6.20703 113.355 6.30664 113.133 6.47461C112.91 6.64258 112.799 6.88672 112.799 7.20703C112.799 7.52344 112.918 7.77344 113.156 7.95703C113.395 8.13672 113.701 8.22656 114.076 8.22656ZM113.889 9.11133C113.268 9.11133 112.756 8.94141 112.354 8.60156C111.955 8.25781 111.756 7.80078 111.756 7.23047C111.756 6.66797 111.955 6.22656 112.354 5.90625C112.752 5.58594 113.32 5.4043 114.059 5.36133L115.881 5.25V4.67578C115.881 4.28516 115.76 3.98633 115.518 3.7793C115.275 3.57227 114.92 3.46875 114.451 3.46875C114.072 3.46875 113.758 3.53711 113.508 3.67383C113.258 3.81055 113.098 4.00391 113.027 4.25391H112.008C112.074 3.75 112.334 3.34375 112.787 3.03516C113.244 2.72656 113.811 2.57227 114.486 2.57227C115.252 2.57227 115.844 2.75781 116.262 3.12891C116.68 3.5 116.889 4.01562 116.889 4.67578V9H115.928V8.06836H115.834C115.631 8.4043 115.361 8.66211 115.025 8.8418C114.689 9.02148 114.311 9.11133 113.889 9.11133ZM121.307 8.01562C121.889 8.01562 122.346 7.8125 122.678 7.40625C123.014 6.99609 123.182 6.44336 123.182 5.74805C123.182 5.05664 123.014 4.50586 122.678 4.0957C122.342 3.68555 121.885 3.48047 121.307 3.48047C120.729 3.48047 120.279 3.68359 119.959 4.08984C119.639 4.49609 119.479 5.04883 119.479 5.74805C119.479 6.44727 119.639 7 119.959 7.40625C120.279 7.8125 120.729 8.01562 121.307 8.01562ZM121.354 11.4258C120.6 11.4258 119.988 11.2695 119.52 10.957C119.055 10.6445 118.783 10.2246 118.705 9.69727H119.771C119.826 9.95898 119.992 10.166 120.27 10.3184C120.547 10.4707 120.908 10.5469 121.354 10.5469C121.92 10.5469 122.361 10.4141 122.678 10.1484C122.998 9.88672 123.158 9.52344 123.158 9.05859V7.81641H123.064C122.865 8.16406 122.594 8.43359 122.25 8.625C121.906 8.8125 121.518 8.90625 121.084 8.90625C120.271 8.90625 119.627 8.61914 119.15 8.04492C118.674 7.4668 118.436 6.70117 118.436 5.74805C118.436 4.79492 118.676 4.02734 119.156 3.44531C119.637 2.86328 120.279 2.57227 121.084 2.57227C121.525 2.57227 121.928 2.67383 122.291 2.87695C122.654 3.07617 122.928 3.3457 123.111 3.68555H123.205V2.68359H124.166V9.11133C124.166 9.81836 123.912 10.3809 123.404 10.7988C122.896 11.2168 122.213 11.4258 121.354 11.4258ZM126.064 9V2.68359H127.025V3.62109H127.119C127.213 3.3125 127.424 3.06055 127.752 2.86523C128.08 2.66992 128.453 2.57227 128.871 2.57227C129.062 2.57227 129.23 2.58203 129.375 2.60156V3.60938C129.238 3.57031 129.023 3.55078 128.73 3.55078C128.25 3.55078 127.854 3.69531 127.541 3.98438C127.229 4.27344 127.072 4.64062 127.072 5.08594V9H126.064ZM132.979 3.46289C132.475 3.46289 132.061 3.63281 131.736 3.97266C131.412 4.3125 131.23 4.76172 131.191 5.32031H134.672C134.66 4.76172 134.5 4.3125 134.191 3.97266C133.883 3.63281 133.479 3.46289 132.979 3.46289ZM134.643 7.36523H135.65C135.498 7.91211 135.188 8.33984 134.719 8.64844C134.254 8.95703 133.678 9.11133 132.99 9.11133C132.115 9.11133 131.422 8.81836 130.91 8.23242C130.398 7.64258 130.143 6.84766 130.143 5.84766C130.143 4.85156 130.4 4.05664 130.916 3.46289C131.432 2.86914 132.123 2.57227 132.99 2.57227C133.842 2.57227 134.512 2.85547 135 3.42188C135.488 3.98828 135.732 4.76367 135.732 5.74805V6.13477H131.191V6.18164C131.219 6.80664 131.395 7.30273 131.719 7.66992C132.047 8.03711 132.479 8.2207 133.014 8.2207C133.83 8.2207 134.373 7.93555 134.643 7.36523ZM139.834 3.46289C139.33 3.46289 138.916 3.63281 138.592 3.97266C138.268 4.3125 138.086 4.76172 138.047 5.32031H141.527C141.516 4.76172 141.355 4.3125 141.047 3.97266C140.738 3.63281 140.334 3.46289 139.834 3.46289ZM141.498 7.36523H142.506C142.354 7.91211 142.043 8.33984 141.574 8.64844C141.109 8.95703 140.533 9.11133 139.846 9.11133C138.971 9.11133 138.277 8.81836 137.766 8.23242C137.254 7.64258 136.998 6.84766 136.998 5.84766C136.998 4.85156 137.256 4.05664 137.771 3.46289C138.287 2.86914 138.979 2.57227 139.846 2.57227C140.697 2.57227 141.367 2.85547 141.855 3.42188C142.344 3.98828 142.588 4.76367 142.588 5.74805V6.13477H138.047V6.18164C138.074 6.80664 138.25 7.30273 138.574 7.66992C138.902 8.03711 139.334 8.2207 139.869 8.2207C140.686 8.2207 141.229 7.93555 141.498 7.36523ZM147.979 1.04883H148.986V2.68359H150.393V3.52734H148.986V7.10156C148.986 7.47266 149.061 7.74219 149.209 7.91016C149.357 8.07812 149.596 8.16211 149.924 8.16211C150.068 8.16211 150.225 8.1543 150.393 8.13867V8.98828C150.17 9.02734 149.973 9.04688 149.801 9.04688C149.148 9.04688 148.682 8.91602 148.4 8.6543C148.119 8.39258 147.979 7.96094 147.979 7.35938V3.52734H146.959V2.68359H147.979V1.04883ZM156.545 8.23828C156.025 8.82031 155.316 9.11133 154.418 9.11133C153.52 9.11133 152.809 8.82031 152.285 8.23828C151.766 7.65234 151.506 6.85352 151.506 5.8418C151.506 4.82617 151.766 4.02734 152.285 3.44531C152.805 2.86328 153.516 2.57227 154.418 2.57227C155.32 2.57227 156.031 2.86328 156.551 3.44531C157.07 4.02734 157.33 4.82617 157.33 5.8418C157.33 6.85352 157.068 7.65234 156.545 8.23828ZM153.035 7.58789C153.359 7.99805 153.82 8.20312 154.418 8.20312C155.016 8.20312 155.477 7.99805 155.801 7.58789C156.125 7.17383 156.287 6.5918 156.287 5.8418C156.287 5.0918 156.125 4.51172 155.801 4.10156C155.477 3.6875 155.016 3.48047 154.418 3.48047C153.82 3.48047 153.359 3.6875 153.035 4.10156C152.711 4.51172 152.549 5.0918 152.549 5.8418C152.549 6.5918 152.711 7.17383 153.035 7.58789ZM162.721 1.04883H163.729V2.68359H165.135V3.52734H163.729V7.10156C163.729 7.47266 163.803 7.74219 163.951 7.91016C164.1 8.07812 164.338 8.16211 164.666 8.16211C164.811 8.16211 164.967 8.1543 165.135 8.13867V8.98828C164.912 9.02734 164.715 9.04688 164.543 9.04688C163.891 9.04688 163.424 8.91602 163.143 8.6543C162.861 8.39258 162.721 7.96094 162.721 7.35938V3.52734H161.701V2.68359H162.721V1.04883ZM166.717 9V0.175781H167.725V3.67969H167.818C167.979 3.32422 168.223 3.05078 168.551 2.85938C168.883 2.66797 169.287 2.57227 169.764 2.57227C170.436 2.57227 170.967 2.7793 171.357 3.19336C171.748 3.60352 171.943 4.17578 171.943 4.91016V9H170.936V5.15625C170.936 4.03906 170.449 3.48047 169.477 3.48047C168.922 3.48047 168.49 3.64258 168.182 3.9668C167.877 4.28711 167.725 4.71875 167.725 5.26172V9H166.717ZM176.303 3.46289C175.799 3.46289 175.385 3.63281 175.061 3.97266C174.736 4.3125 174.555 4.76172 174.516 5.32031H177.996C177.984 4.76172 177.824 4.3125 177.516 3.97266C177.207 3.63281 176.803 3.46289 176.303 3.46289ZM177.967 7.36523H178.975C178.822 7.91211 178.512 8.33984 178.043 8.64844C177.578 8.95703 177.002 9.11133 176.314 9.11133C175.439 9.11133 174.746 8.81836 174.234 8.23242C173.723 7.64258 173.467 6.84766 173.467 5.84766C173.467 4.85156 173.725 4.05664 174.24 3.46289C174.756 2.86914 175.447 2.57227 176.314 2.57227C177.166 2.57227 177.836 2.85547 178.324 3.42188C178.812 3.98828 179.057 4.76367 179.057 5.74805V6.13477H174.516V6.18164C174.543 6.80664 174.719 7.30273 175.043 7.66992C175.371 8.03711 175.803 8.2207 176.338 8.2207C177.154 8.2207 177.697 7.93555 177.967 7.36523ZM283.26 9.05859C283.053 9.05859 282.873 8.98438 282.721 8.83594C282.572 8.68359 282.498 8.50391 282.498 8.29688C282.498 8.08594 282.572 7.90625 282.721 7.75781C282.873 7.60938 283.053 7.53516 283.26 7.53516C283.471 7.53516 283.65 7.60938 283.799 7.75781C283.947 7.90625 284.021 8.08594 284.021 8.29688C284.021 8.50391 283.947 8.68359 283.799 8.83594C283.65 8.98438 283.471 9.05859 283.26 9.05859ZM290.561 9H289.506V0.544922H294.639V1.49414H290.561V4.40039H294.305V5.33789H290.561V9ZM300.967 8.23828C300.447 8.82031 299.738 9.11133 298.84 9.11133C297.941 9.11133 297.23 8.82031 296.707 8.23828C296.188 7.65234 295.928 6.85352 295.928 5.8418C295.928 4.82617 296.188 4.02734 296.707 3.44531C297.227 2.86328 297.938 2.57227 298.84 2.57227C299.742 2.57227 300.453 2.86328 300.973 3.44531C301.492 4.02734 301.752 4.82617 301.752 5.8418C301.752 6.85352 301.49 7.65234 300.967 8.23828ZM297.457 7.58789C297.781 7.99805 298.242 8.20312 298.84 8.20312C299.438 8.20312 299.898 7.99805 300.223 7.58789C300.547 7.17383 300.709 6.5918 300.709 5.8418C300.709 5.0918 300.547 4.51172 300.223 4.10156C299.898 3.6875 299.438 3.48047 298.84 3.48047C298.242 3.48047 297.781 3.6875 297.457 4.10156C297.133 4.51172 296.971 5.0918 296.971 5.8418C296.971 6.5918 297.133 7.17383 297.457 7.58789ZM303.334 9V2.68359H304.295V3.62109H304.389C304.482 3.3125 304.693 3.06055 305.021 2.86523C305.35 2.66992 305.723 2.57227 306.141 2.57227C306.332 2.57227 306.5 2.58203 306.645 2.60156V3.60938C306.508 3.57031 306.293 3.55078 306 3.55078C305.52 3.55078 305.123 3.69531 304.811 3.98438C304.498 4.27344 304.342 4.64062 304.342 5.08594V9H303.334ZM311.291 9V2.68359H312.252V3.67969H312.346C312.49 3.32812 312.715 3.05664 313.02 2.86523C313.324 2.66992 313.688 2.57227 314.109 2.57227C314.523 2.57227 314.879 2.67188 315.176 2.87109C315.477 3.07031 315.703 3.33984 315.855 3.67969H315.949C316.121 3.33984 316.379 3.07031 316.723 2.87109C317.066 2.67188 317.453 2.57227 317.883 2.57227C318.527 2.57227 319.023 2.75195 319.371 3.11133C319.719 3.4668 319.893 3.97461 319.893 4.63477V9H318.885V4.86914C318.885 3.94336 318.441 3.48047 317.555 3.48047C317.125 3.48047 316.773 3.62109 316.5 3.90234C316.227 4.18359 316.09 4.5293 316.09 4.93945V9H315.082V4.71094C315.082 4.33594 314.961 4.03711 314.719 3.81445C314.48 3.5918 314.162 3.48047 313.764 3.48047C313.354 3.48047 313.006 3.63672 312.721 3.94922C312.439 4.26172 312.299 4.64062 312.299 5.08594V9H311.291ZM326.455 8.23828C325.936 8.82031 325.227 9.11133 324.328 9.11133C323.43 9.11133 322.719 8.82031 322.195 8.23828C321.676 7.65234 321.416 6.85352 321.416 5.8418C321.416 4.82617 321.676 4.02734 322.195 3.44531C322.715 2.86328 323.426 2.57227 324.328 2.57227C325.23 2.57227 325.941 2.86328 326.461 3.44531C326.98 4.02734 327.24 4.82617 327.24 5.8418C327.24 6.85352 326.979 7.65234 326.455 8.23828ZM322.945 7.58789C323.27 7.99805 323.73 8.20312 324.328 8.20312C324.926 8.20312 325.387 7.99805 325.711 7.58789C326.035 7.17383 326.197 6.5918 326.197 5.8418C326.197 5.0918 326.035 4.51172 325.711 4.10156C325.387 3.6875 324.926 3.48047 324.328 3.48047C323.73 3.48047 323.27 3.6875 322.945 4.10156C322.621 4.51172 322.459 5.0918 322.459 5.8418C322.459 6.5918 322.621 7.17383 322.945 7.58789ZM328.822 9V2.68359H329.783V3.62109H329.877C329.971 3.3125 330.182 3.06055 330.51 2.86523C330.838 2.66992 331.211 2.57227 331.629 2.57227C331.82 2.57227 331.988 2.58203 332.133 2.60156V3.60938C331.996 3.57031 331.781 3.55078 331.488 3.55078C331.008 3.55078 330.611 3.69531 330.299 3.98438C329.986 4.27344 329.83 4.64062 329.83 5.08594V9H328.822ZM335.736 3.46289C335.232 3.46289 334.818 3.63281 334.494 3.97266C334.17 4.3125 333.988 4.76172 333.949 5.32031H337.43C337.418 4.76172 337.258 4.3125 336.949 3.97266C336.641 3.63281 336.236 3.46289 335.736 3.46289ZM337.4 7.36523H338.408C338.256 7.91211 337.945 8.33984 337.477 8.64844C337.012 8.95703 336.436 9.11133 335.748 9.11133C334.873 9.11133 334.18 8.81836 333.668 8.23242C333.156 7.64258 332.9 6.84766 332.9 5.84766C332.9 4.85156 333.158 4.05664 333.674 3.46289C334.189 2.86914 334.881 2.57227 335.748 2.57227C336.6 2.57227 337.27 2.85547 337.758 3.42188C338.246 3.98828 338.49 4.76367 338.49 5.74805V6.13477H333.949V6.18164C333.977 6.80664 334.152 7.30273 334.477 7.66992C334.805 8.03711 335.236 8.2207 335.771 8.2207C336.588 8.2207 337.131 7.93555 337.4 7.36523ZM92.8887 26V19.6836H93.8965V26H92.8887ZM93.8906 18.1953C93.7539 18.332 93.5879 18.4004 93.3926 18.4004C93.1973 18.4004 93.0312 18.332 92.8945 18.1953C92.7578 18.0547 92.6895 17.8887 92.6895 17.6973C92.6895 17.5059 92.7578 17.3418 92.8945 17.2051C93.0312 17.0645 93.1973 16.9941 93.3926 16.9941C93.5879 16.9941 93.7539 17.0645 93.8906 17.2051C94.0273 17.3418 94.0957 17.5059 94.0957 17.6973C94.0957 17.8887 94.0273 18.0547 93.8906 18.1953ZM95.8184 26V19.6836H96.7793V20.6797H96.873C97.209 19.9414 97.8418 19.5723 98.7715 19.5723C99.4785 19.5723 100.023 19.7754 100.406 20.1816C100.789 20.584 100.98 21.1602 100.98 21.9102V26H99.9727V22.1562C99.9727 21.5898 99.8496 21.1699 99.6035 20.8965C99.3613 20.6191 98.9883 20.4805 98.4844 20.4805C97.9766 20.4805 97.5723 20.6406 97.2715 20.9609C96.9746 21.2773 96.8262 21.7109 96.8262 22.2617V26H95.8184ZM103.248 26V20.5273H102.199V19.6836H103.248V18.9805C103.248 17.7383 103.859 17.1172 105.082 17.1172C105.336 17.1172 105.562 17.1367 105.762 17.1758V17.9961C105.66 17.9766 105.502 17.9668 105.287 17.9668C104.928 17.9668 104.666 18.0527 104.502 18.2246C104.338 18.3965 104.256 18.6582 104.256 19.0098V19.6836H105.703V20.5273H104.256V26H103.248ZM111.627 25.2383C111.107 25.8203 110.398 26.1113 109.5 26.1113C108.602 26.1113 107.891 25.8203 107.367 25.2383C106.848 24.6523 106.588 23.8535 106.588 22.8418C106.588 21.8262 106.848 21.0273 107.367 20.4453C107.887 19.8633 108.598 19.5723 109.5 19.5723C110.402 19.5723 111.113 19.8633 111.633 20.4453C112.152 21.0273 112.412 21.8262 112.412 22.8418C112.412 23.8535 112.15 24.6523 111.627 25.2383ZM108.117 24.5879C108.441 24.998 108.902 25.2031 109.5 25.2031C110.098 25.2031 110.559 24.998 110.883 24.5879C111.207 24.1738 111.369 23.5918 111.369 22.8418C111.369 22.0918 111.207 21.5117 110.883 21.1016C110.559 20.6875 110.098 20.4805 109.5 20.4805C108.902 20.4805 108.441 20.6875 108.117 21.1016C107.793 21.5117 107.631 22.0918 107.631 22.8418C107.631 23.5918 107.793 24.1738 108.117 24.5879ZM118.02 28.1504H117.264L117.82 24.8164H118.939L118.02 28.1504ZM124.184 21.4121C124.184 20.8887 124.408 20.4512 124.857 20.0996C125.307 19.748 125.867 19.5723 126.539 19.5723C127.199 19.5723 127.744 19.7246 128.174 20.0293C128.604 20.334 128.852 20.7461 128.918 21.2656H127.922C127.852 21.0078 127.695 20.8047 127.453 20.6562C127.215 20.5039 126.908 20.4277 126.533 20.4277C126.154 20.4277 125.836 20.5156 125.578 20.6914C125.324 20.8672 125.197 21.0938 125.197 21.3711C125.197 21.5859 125.285 21.7656 125.461 21.9102C125.641 22.0508 125.918 22.166 126.293 22.2559L127.266 22.4902C127.867 22.6348 128.311 22.8438 128.596 23.1172C128.885 23.3906 129.029 23.752 129.029 24.2012C129.029 24.7598 128.789 25.2188 128.309 25.5781C127.828 25.9336 127.225 26.1113 126.498 26.1113C125.795 26.1113 125.219 25.9551 124.77 25.6426C124.32 25.3301 124.068 24.9121 124.014 24.3887H125.051C125.137 24.6621 125.307 24.877 125.561 25.0332C125.814 25.1855 126.139 25.2617 126.533 25.2617C126.959 25.2617 127.309 25.1699 127.582 24.9863C127.855 24.8027 127.992 24.5664 127.992 24.2773C127.992 23.8477 127.658 23.5508 126.99 23.3867L125.906 23.123C125.309 22.9785 124.871 22.7715 124.594 22.502C124.32 22.2285 124.184 21.8652 124.184 21.4121ZM133.131 20.4629C132.627 20.4629 132.213 20.6328 131.889 20.9727C131.564 21.3125 131.383 21.7617 131.344 22.3203H134.824C134.812 21.7617 134.652 21.3125 134.344 20.9727C134.035 20.6328 133.631 20.4629 133.131 20.4629ZM134.795 24.3652H135.803C135.65 24.9121 135.34 25.3398 134.871 25.6484C134.406 25.957 133.83 26.1113 133.143 26.1113C132.268 26.1113 131.574 25.8184 131.062 25.2324C130.551 24.6426 130.295 23.8477 130.295 22.8477C130.295 21.8516 130.553 21.0566 131.068 20.4629C131.584 19.8691 132.275 19.5723 133.143 19.5723C133.994 19.5723 134.664 19.8555 135.152 20.4219C135.641 20.9883 135.885 21.7637 135.885 22.748V23.1348H131.344V23.1816C131.371 23.8066 131.547 24.3027 131.871 24.6699C132.199 25.0371 132.631 25.2207 133.166 25.2207C133.982 25.2207 134.525 24.9355 134.795 24.3652ZM139.986 20.4629C139.482 20.4629 139.068 20.6328 138.744 20.9727C138.42 21.3125 138.238 21.7617 138.199 22.3203H141.68C141.668 21.7617 141.508 21.3125 141.199 20.9727C140.891 20.6328 140.486 20.4629 139.986 20.4629ZM141.65 24.3652H142.658C142.506 24.9121 142.195 25.3398 141.727 25.6484C141.262 25.957 140.686 26.1113 139.998 26.1113C139.123 26.1113 138.43 25.8184 137.918 25.2324C137.406 24.6426 137.15 23.8477 137.15 22.8477C137.15 21.8516 137.408 21.0566 137.924 20.4629C138.439 19.8691 139.131 19.5723 139.998 19.5723C140.85 19.5723 141.52 19.8555 142.008 20.4219C142.496 20.9883 142.74 21.7637 142.74 22.748V23.1348H138.199V23.1816C138.227 23.8066 138.402 24.3027 138.727 24.6699C139.055 25.0371 139.486 25.2207 140.021 25.2207C140.838 25.2207 141.381 24.9355 141.65 24.3652ZM152.432 25.2383C151.912 25.8203 151.203 26.1113 150.305 26.1113C149.406 26.1113 148.695 25.8203 148.172 25.2383C147.652 24.6523 147.393 23.8535 147.393 22.8418C147.393 21.8262 147.652 21.0273 148.172 20.4453C148.691 19.8633 149.402 19.5723 150.305 19.5723C151.207 19.5723 151.918 19.8633 152.438 20.4453C152.957 21.0273 153.217 21.8262 153.217 22.8418C153.217 23.8535 152.955 24.6523 152.432 25.2383ZM148.922 24.5879C149.246 24.998 149.707 25.2031 150.305 25.2031C150.902 25.2031 151.363 24.998 151.688 24.5879C152.012 24.1738 152.174 23.5918 152.174 22.8418C152.174 22.0918 152.012 21.5117 151.688 21.1016C151.363 20.6875 150.902 20.4805 150.305 20.4805C149.707 20.4805 149.246 20.6875 148.922 21.1016C148.598 21.5117 148.436 22.0918 148.436 22.8418C148.436 23.5918 148.598 24.1738 148.922 24.5879ZM159.908 19.6836V26H158.947V25.0098H158.854C158.693 25.3652 158.447 25.6387 158.115 25.8301C157.783 26.0176 157.377 26.1113 156.896 26.1113C156.193 26.1113 155.658 25.9102 155.291 25.5078C154.924 25.1055 154.74 24.5273 154.74 23.7734V19.6836H155.748V23.5273C155.748 24.1016 155.861 24.5234 156.088 24.793C156.314 25.0586 156.678 25.1914 157.178 25.1914C157.729 25.1914 158.152 25.0371 158.449 24.7285C158.75 24.416 158.9 23.9805 158.9 23.4219V19.6836H159.908ZM161.807 26V19.6836H162.768V20.6211H162.861C162.955 20.3125 163.166 20.0605 163.494 19.8652C163.822 19.6699 164.195 19.5723 164.613 19.5723C164.805 19.5723 164.973 19.582 165.117 19.6016V20.6094C164.98 20.5703 164.766 20.5508 164.473 20.5508C163.992 20.5508 163.596 20.6953 163.283 20.9844C162.971 21.2734 162.814 21.6406 162.814 22.0859V26H161.807Z" fill="#868686"/>
<path d="M187.406 9H186.352V1.49414H183.627V0.544922H190.131V1.49414H187.406V9ZM192.979 3.46289C192.475 3.46289 192.061 3.63281 191.736 3.97266C191.412 4.3125 191.23 4.76172 191.191 5.32031H194.672C194.66 4.76172 194.5 4.3125 194.191 3.97266C193.883 3.63281 193.479 3.46289 192.979 3.46289ZM194.643 7.36523H195.65C195.498 7.91211 195.188 8.33984 194.719 8.64844C194.254 8.95703 193.678 9.11133 192.99 9.11133C192.115 9.11133 191.422 8.81836 190.91 8.23242C190.398 7.64258 190.143 6.84766 190.143 5.84766C190.143 4.85156 190.4 4.05664 190.916 3.46289C191.432 2.86914 192.123 2.57227 192.99 2.57227C193.842 2.57227 194.512 2.85547 195 3.42188C195.488 3.98828 195.732 4.76367 195.732 5.74805V6.13477H191.191V6.18164C191.219 6.80664 191.395 7.30273 191.719 7.66992C192.047 8.03711 192.479 8.2207 193.014 8.2207C193.83 8.2207 194.373 7.93555 194.643 7.36523ZM197.314 9V2.68359H198.275V3.62109H198.369C198.463 3.3125 198.674 3.06055 199.002 2.86523C199.33 2.66992 199.703 2.57227 200.121 2.57227C200.312 2.57227 200.48 2.58203 200.625 2.60156V3.60938C200.488 3.57031 200.273 3.55078 199.98 3.55078C199.5 3.55078 199.104 3.69531 198.791 3.98438C198.479 4.27344 198.322 4.64062 198.322 5.08594V9H197.314ZM202.002 9V2.68359H202.963V3.67969H203.057C203.201 3.32812 203.426 3.05664 203.73 2.86523C204.035 2.66992 204.398 2.57227 204.82 2.57227C205.234 2.57227 205.59 2.67188 205.887 2.87109C206.188 3.07031 206.414 3.33984 206.566 3.67969H206.66C206.832 3.33984 207.09 3.07031 207.434 2.87109C207.777 2.67188 208.164 2.57227 208.594 2.57227C209.238 2.57227 209.734 2.75195 210.082 3.11133C210.43 3.4668 210.604 3.97461 210.604 4.63477V9H209.596V4.86914C209.596 3.94336 209.152 3.48047 208.266 3.48047C207.836 3.48047 207.484 3.62109 207.211 3.90234C206.938 4.18359 206.801 4.5293 206.801 4.93945V9H205.793V4.71094C205.793 4.33594 205.672 4.03711 205.43 3.81445C205.191 3.5918 204.873 3.48047 204.475 3.48047C204.064 3.48047 203.717 3.63672 203.432 3.94922C203.15 4.26172 203.01 4.64062 203.01 5.08594V9H202.002ZM212.297 4.41211C212.297 3.88867 212.521 3.45117 212.971 3.09961C213.42 2.74805 213.98 2.57227 214.652 2.57227C215.312 2.57227 215.857 2.72461 216.287 3.0293C216.717 3.33398 216.965 3.74609 217.031 4.26562H216.035C215.965 4.00781 215.809 3.80469 215.566 3.65625C215.328 3.50391 215.021 3.42773 214.646 3.42773C214.268 3.42773 213.949 3.51562 213.691 3.69141C213.438 3.86719 213.311 4.09375 213.311 4.37109C213.311 4.58594 213.398 4.76562 213.574 4.91016C213.754 5.05078 214.031 5.16602 214.406 5.25586L215.379 5.49023C215.98 5.63477 216.424 5.84375 216.709 6.11719C216.998 6.39062 217.143 6.75195 217.143 7.20117C217.143 7.75977 216.902 8.21875 216.422 8.57812C215.941 8.93359 215.338 9.11133 214.611 9.11133C213.908 9.11133 213.332 8.95508 212.883 8.64258C212.434 8.33008 212.182 7.91211 212.127 7.38867H213.164C213.25 7.66211 213.42 7.87695 213.674 8.0332C213.928 8.18555 214.252 8.26172 214.646 8.26172C215.072 8.26172 215.422 8.16992 215.695 7.98633C215.969 7.80273 216.105 7.56641 216.105 7.27734C216.105 6.84766 215.771 6.55078 215.104 6.38672L214.02 6.12305C213.422 5.97852 212.984 5.77148 212.707 5.50195C212.434 5.22852 212.297 4.86523 212.297 4.41211ZM226.834 8.23828C226.314 8.82031 225.605 9.11133 224.707 9.11133C223.809 9.11133 223.098 8.82031 222.574 8.23828C222.055 7.65234 221.795 6.85352 221.795 5.8418C221.795 4.82617 222.055 4.02734 222.574 3.44531C223.094 2.86328 223.805 2.57227 224.707 2.57227C225.609 2.57227 226.32 2.86328 226.84 3.44531C227.359 4.02734 227.619 4.82617 227.619 5.8418C227.619 6.85352 227.357 7.65234 226.834 8.23828ZM223.324 7.58789C223.648 7.99805 224.109 8.20312 224.707 8.20312C225.305 8.20312 225.766 7.99805 226.09 7.58789C226.414 7.17383 226.576 6.5918 226.576 5.8418C226.576 5.0918 226.414 4.51172 226.09 4.10156C225.766 3.6875 225.305 3.48047 224.707 3.48047C224.109 3.48047 223.648 3.6875 223.324 4.10156C223 4.51172 222.838 5.0918 222.838 5.8418C222.838 6.5918 223 7.17383 223.324 7.58789ZM229.623 9V3.52734H228.574V2.68359H229.623V1.98047C229.623 0.738281 230.234 0.117188 231.457 0.117188C231.711 0.117188 231.938 0.136719 232.137 0.175781V0.996094C232.035 0.976562 231.877 0.966797 231.662 0.966797C231.303 0.966797 231.041 1.05273 230.877 1.22461C230.713 1.39648 230.631 1.6582 230.631 2.00977V2.68359H232.078V3.52734H230.631V9H229.623ZM236.66 6.79102H237.727C237.793 7.23242 238.021 7.58398 238.412 7.8457C238.803 8.10742 239.299 8.23828 239.9 8.23828C240.471 8.23828 240.941 8.10156 241.312 7.82812C241.688 7.55078 241.875 7.20312 241.875 6.78516C241.875 6.42578 241.738 6.12891 241.465 5.89453C241.191 5.65625 240.764 5.46289 240.182 5.31445L239.098 5.0332C238.332 4.8418 237.775 4.56445 237.428 4.20117C237.08 3.83789 236.906 3.35547 236.906 2.75391C236.906 2.03516 237.18 1.45508 237.727 1.01367C238.277 0.568359 239 0.345703 239.895 0.345703C240.711 0.345703 241.395 0.564453 241.945 1.00195C242.496 1.43945 242.793 2 242.836 2.68359H241.775C241.701 2.25 241.494 1.91211 241.154 1.66992C240.818 1.42383 240.387 1.30078 239.859 1.30078C239.297 1.30078 238.844 1.43164 238.5 1.69336C238.16 1.95117 237.99 2.29297 237.99 2.71875C237.99 3.05078 238.115 3.32031 238.365 3.52734C238.619 3.73438 239.037 3.91211 239.619 4.06055L240.504 4.29492C241.379 4.51367 242.006 4.80664 242.385 5.17383C242.768 5.54102 242.959 6.03516 242.959 6.65625C242.959 7.43359 242.674 8.05273 242.104 8.51367C241.533 8.9707 240.766 9.19922 239.801 9.19922C238.906 9.19922 238.172 8.98047 237.598 8.54297C237.027 8.10547 236.715 7.52148 236.66 6.79102ZM247.107 3.46289C246.604 3.46289 246.189 3.63281 245.865 3.97266C245.541 4.3125 245.359 4.76172 245.32 5.32031H248.801C248.789 4.76172 248.629 4.3125 248.32 3.97266C248.012 3.63281 247.607 3.46289 247.107 3.46289ZM248.771 7.36523H249.779C249.627 7.91211 249.316 8.33984 248.848 8.64844C248.383 8.95703 247.807 9.11133 247.119 9.11133C246.244 9.11133 245.551 8.81836 245.039 8.23242C244.527 7.64258 244.271 6.84766 244.271 5.84766C244.271 4.85156 244.529 4.05664 245.045 3.46289C245.561 2.86914 246.252 2.57227 247.119 2.57227C247.971 2.57227 248.641 2.85547 249.129 3.42188C249.617 3.98828 249.861 4.76367 249.861 5.74805V6.13477H245.32V6.18164C245.348 6.80664 245.523 7.30273 245.848 7.66992C246.176 8.03711 246.607 8.2207 247.143 8.2207C247.959 8.2207 248.502 7.93555 248.771 7.36523ZM251.443 9V2.68359H252.404V3.62109H252.498C252.592 3.3125 252.803 3.06055 253.131 2.86523C253.459 2.66992 253.832 2.57227 254.25 2.57227C254.441 2.57227 254.609 2.58203 254.754 2.60156V3.60938C254.617 3.57031 254.402 3.55078 254.109 3.55078C253.629 3.55078 253.232 3.69531 252.92 3.98438C252.607 4.27344 252.451 4.64062 252.451 5.08594V9H251.443ZM261.17 2.68359L258.832 9H257.801L255.463 2.68359H256.541L258.27 7.88672H258.363L260.092 2.68359H261.17ZM262.541 9V2.68359H263.549V9H262.541ZM263.543 1.19531C263.406 1.33203 263.24 1.40039 263.045 1.40039C262.85 1.40039 262.684 1.33203 262.547 1.19531C262.41 1.05469 262.342 0.888672 262.342 0.697266C262.342 0.505859 262.41 0.341797 262.547 0.205078C262.684 0.0644531 262.85 -0.00585938 263.045 -0.00585938C263.24 -0.00585938 263.406 0.0644531 263.543 0.205078C263.68 0.341797 263.748 0.505859 263.748 0.697266C263.748 0.888672 263.68 1.05469 263.543 1.19531ZM270.697 4.61719H269.678C269.592 4.28516 269.406 4.01367 269.121 3.80273C268.84 3.58789 268.482 3.48047 268.049 3.48047C267.482 3.48047 267.031 3.69141 266.695 4.11328C266.363 4.53516 266.197 5.10352 266.197 5.81836C266.197 6.54492 266.365 7.125 266.701 7.55859C267.037 7.98828 267.486 8.20312 268.049 8.20312C268.475 8.20312 268.828 8.10742 269.109 7.91602C269.395 7.72461 269.584 7.45117 269.678 7.0957H270.697C270.604 7.69336 270.324 8.17969 269.859 8.55469C269.395 8.92578 268.793 9.11133 268.055 9.11133C267.168 9.11133 266.463 8.81445 265.939 8.2207C265.416 7.62305 265.154 6.82227 265.154 5.81836C265.154 4.83398 265.416 4.04688 265.939 3.45703C266.463 2.86719 267.166 2.57227 268.049 2.57227C268.787 2.57227 269.389 2.76562 269.854 3.15234C270.322 3.53906 270.604 4.02734 270.697 4.61719ZM274.705 3.46289C274.201 3.46289 273.787 3.63281 273.463 3.97266C273.139 4.3125 272.957 4.76172 272.918 5.32031H276.398C276.387 4.76172 276.227 4.3125 275.918 3.97266C275.609 3.63281 275.205 3.46289 274.705 3.46289ZM276.369 7.36523H277.377C277.225 7.91211 276.914 8.33984 276.445 8.64844C275.98 8.95703 275.404 9.11133 274.717 9.11133C273.842 9.11133 273.148 8.81836 272.637 8.23242C272.125 7.64258 271.869 6.84766 271.869 5.84766C271.869 4.85156 272.127 4.05664 272.643 3.46289C273.158 2.86914 273.85 2.57227 274.717 2.57227C275.568 2.57227 276.238 2.85547 276.727 3.42188C277.215 3.98828 277.459 4.76367 277.459 5.74805V6.13477H272.918V6.18164C272.945 6.80664 273.121 7.30273 273.445 7.66992C273.773 8.03711 274.205 8.2207 274.74 8.2207C275.557 8.2207 276.1 7.93555 276.369 7.36523ZM169.893 17.5449H173.086C173.887 17.5449 174.537 17.8008 175.037 18.3125C175.541 18.8203 175.793 19.4766 175.793 20.2812C175.793 21.0703 175.537 21.7188 175.025 22.2266C174.518 22.7305 173.867 22.9824 173.074 22.9824H170.947V26H169.893V17.5449ZM170.947 18.4824V22.0449H172.811C173.412 22.0449 173.879 21.8906 174.211 21.582C174.543 21.2734 174.709 20.8398 174.709 20.2812C174.709 19.6992 174.545 19.2539 174.217 18.9453C173.893 18.6367 173.424 18.4824 172.811 18.4824H170.947ZM177.393 26V19.6836H178.354V20.6211H178.447C178.541 20.3125 178.752 20.0605 179.08 19.8652C179.408 19.6699 179.781 19.5723 180.199 19.5723C180.391 19.5723 180.559 19.582 180.703 19.6016V20.6094C180.566 20.5703 180.352 20.5508 180.059 20.5508C179.578 20.5508 179.182 20.6953 178.869 20.9844C178.557 21.2734 178.4 21.6406 178.4 22.0859V26H177.393ZM181.986 26V19.6836H182.994V26H181.986ZM182.988 18.1953C182.852 18.332 182.686 18.4004 182.49 18.4004C182.295 18.4004 182.129 18.332 181.992 18.1953C181.855 18.0547 181.787 17.8887 181.787 17.6973C181.787 17.5059 181.855 17.3418 181.992 17.2051C182.129 17.0645 182.295 16.9941 182.49 16.9941C182.686 16.9941 182.852 17.0645 182.988 17.2051C183.125 17.3418 183.193 17.5059 183.193 17.6973C183.193 17.8887 183.125 18.0547 182.988 18.1953ZM190.072 19.6836L187.734 26H186.703L184.365 19.6836H185.443L187.172 24.8867H187.266L188.994 19.6836H190.072ZM193.131 25.2266C193.65 25.2266 194.08 25.0762 194.42 24.7754C194.764 24.4746 194.936 24.0977 194.936 23.6445V23.0645L193.236 23.1758C192.76 23.207 192.41 23.3066 192.188 23.4746C191.965 23.6426 191.854 23.8867 191.854 24.207C191.854 24.5234 191.973 24.7734 192.211 24.957C192.449 25.1367 192.756 25.2266 193.131 25.2266ZM192.943 26.1113C192.322 26.1113 191.811 25.9414 191.408 25.6016C191.01 25.2578 190.811 24.8008 190.811 24.2305C190.811 23.668 191.01 23.2266 191.408 22.9062C191.807 22.5859 192.375 22.4043 193.113 22.3613L194.936 22.25V21.6758C194.936 21.2852 194.814 20.9863 194.572 20.7793C194.33 20.5723 193.975 20.4688 193.506 20.4688C193.127 20.4688 192.812 20.5371 192.562 20.6738C192.312 20.8105 192.152 21.0039 192.082 21.2539H191.062C191.129 20.75 191.389 20.3438 191.842 20.0352C192.299 19.7266 192.865 19.5723 193.541 19.5723C194.307 19.5723 194.898 19.7578 195.316 20.1289C195.734 20.5 195.943 21.0156 195.943 21.6758V26H194.982V25.0684H194.889C194.686 25.4043 194.416 25.6621 194.08 25.8418C193.744 26.0215 193.365 26.1113 192.943 26.1113ZM203.033 21.6172H202.014C201.928 21.2852 201.742 21.0137 201.457 20.8027C201.176 20.5879 200.818 20.4805 200.385 20.4805C199.818 20.4805 199.367 20.6914 199.031 21.1133C198.699 21.5352 198.533 22.1035 198.533 22.8184C198.533 23.5449 198.701 24.125 199.037 24.5586C199.373 24.9883 199.822 25.2031 200.385 25.2031C200.811 25.2031 201.164 25.1074 201.445 24.916C201.73 24.7246 201.92 24.4512 202.014 24.0957H203.033C202.939 24.6934 202.66 25.1797 202.195 25.5547C201.73 25.9258 201.129 26.1113 200.391 26.1113C199.504 26.1113 198.799 25.8145 198.275 25.2207C197.752 24.623 197.49 23.8223 197.49 22.8184C197.49 21.834 197.752 21.0469 198.275 20.457C198.799 19.8672 199.502 19.5723 200.385 19.5723C201.123 19.5723 201.725 19.7656 202.189 20.1523C202.658 20.5391 202.939 21.0273 203.033 21.6172ZM205.061 28.2852C204.9 28.2852 204.75 28.2734 204.609 28.25V27.3887C204.711 27.4082 204.852 27.418 205.031 27.418C205.324 27.418 205.557 27.3398 205.729 27.1836C205.904 27.0273 206.059 26.7598 206.191 26.3809L206.309 26.0059L203.971 19.6836H205.061L206.795 24.8809H206.889L208.617 19.6836H209.689L207.223 26.3867C206.953 27.1172 206.666 27.6152 206.361 27.8809C206.057 28.1504 205.623 28.2852 205.061 28.2852ZM217.5 19.5723C218.305 19.5723 218.947 19.8691 219.428 20.4629C219.912 21.0566 220.154 21.8496 220.154 22.8418C220.154 23.8301 219.912 24.623 219.428 25.2207C218.943 25.8145 218.301 26.1113 217.5 26.1113C217.051 26.1113 216.652 26.0195 216.305 25.8359C215.957 25.6484 215.697 25.3867 215.525 25.0508H215.432V28.1094H214.424V19.6836H215.385V20.7383H215.479C215.682 20.375 215.961 20.0898 216.316 19.8828C216.676 19.6758 217.07 19.5723 217.5 19.5723ZM217.26 25.2031C217.838 25.2031 218.291 24.9941 218.619 24.5762C218.947 24.1582 219.111 23.5801 219.111 22.8418C219.111 22.1035 218.947 21.5254 218.619 21.1074C218.295 20.6895 217.844 20.4805 217.266 20.4805C216.695 20.4805 216.242 20.6934 215.906 21.1191C215.57 21.541 215.402 22.1152 215.402 22.8418C215.402 23.5645 215.568 24.1387 215.9 24.5645C216.236 24.9902 216.689 25.2031 217.26 25.2031ZM226.459 25.2383C225.939 25.8203 225.23 26.1113 224.332 26.1113C223.434 26.1113 222.723 25.8203 222.199 25.2383C221.68 24.6523 221.42 23.8535 221.42 22.8418C221.42 21.8262 221.68 21.0273 222.199 20.4453C222.719 19.8633 223.43 19.5723 224.332 19.5723C225.234 19.5723 225.945 19.8633 226.465 20.4453C226.984 21.0273 227.244 21.8262 227.244 22.8418C227.244 23.8535 226.982 24.6523 226.459 25.2383ZM222.949 24.5879C223.273 24.998 223.734 25.2031 224.332 25.2031C224.93 25.2031 225.391 24.998 225.715 24.5879C226.039 24.1738 226.201 23.5918 226.201 22.8418C226.201 22.0918 226.039 21.5117 225.715 21.1016C225.391 20.6875 224.93 20.4805 224.332 20.4805C223.734 20.4805 223.273 20.6875 222.949 21.1016C222.625 21.5117 222.463 22.0918 222.463 22.8418C222.463 23.5918 222.625 24.1738 222.949 24.5879ZM228.885 26V17.1758H229.893V26H228.885ZM231.873 26V19.6836H232.881V26H231.873ZM232.875 18.1953C232.738 18.332 232.572 18.4004 232.377 18.4004C232.182 18.4004 232.016 18.332 231.879 18.1953C231.742 18.0547 231.674 17.8887 231.674 17.6973C231.674 17.5059 231.742 17.3418 231.879 17.2051C232.016 17.0645 232.182 16.9941 232.377 16.9941C232.572 16.9941 232.738 17.0645 232.875 17.2051C233.012 17.3418 233.08 17.5059 233.08 17.6973C233.08 17.8887 233.012 18.0547 232.875 18.1953ZM240.029 21.6172H239.01C238.924 21.2852 238.738 21.0137 238.453 20.8027C238.172 20.5879 237.814 20.4805 237.381 20.4805C236.814 20.4805 236.363 20.6914 236.027 21.1133C235.695 21.5352 235.529 22.1035 235.529 22.8184C235.529 23.5449 235.697 24.125 236.033 24.5586C236.369 24.9883 236.818 25.2031 237.381 25.2031C237.807 25.2031 238.16 25.1074 238.441 24.916C238.727 24.7246 238.916 24.4512 239.01 24.0957H240.029C239.936 24.6934 239.656 25.1797 239.191 25.5547C238.727 25.9258 238.125 26.1113 237.387 26.1113C236.5 26.1113 235.795 25.8145 235.271 25.2207C234.748 24.623 234.486 23.8223 234.486 22.8184C234.486 21.834 234.748 21.0469 235.271 20.457C235.795 19.8672 236.498 19.5723 237.381 19.5723C238.119 19.5723 238.721 19.7656 239.186 20.1523C239.654 20.5391 239.936 21.0273 240.029 21.6172ZM242.057 28.2852C241.896 28.2852 241.746 28.2734 241.605 28.25V27.3887C241.707 27.4082 241.848 27.418 242.027 27.418C242.32 27.418 242.553 27.3398 242.725 27.1836C242.9 27.0273 243.055 26.7598 243.188 26.3809L243.305 26.0059L240.967 19.6836H242.057L243.791 24.8809H243.885L245.613 19.6836H246.686L244.219 26.3867C243.949 27.1172 243.662 27.6152 243.357 27.8809C243.053 28.1504 242.619 28.2852 242.057 28.2852Z" fill="#8B4CFC"/>
</svg>
