<svg width="242" height="21" viewBox="0 0 242 21" fill="none" xmlns="http://www.w3.org/2000/svg">
<path d="M6.144 17.2659C6.256 17.2339 6.328 17.1139 6.36 16.9059C6.392 16.6819 6.32 16.3299 6.144 15.8499C6.08 15.6739 5.936 15.3139 5.712 14.7699C5.504 14.2259 5.24 13.5699 4.92 12.8019C4.616 12.0179 4.288 11.1939 3.936 10.3299C3.584 9.46587 3.24 8.62587 2.904 7.80987C2.584 6.99387 2.296 6.27387 2.04 5.64987C1.784 5.02587 1.592 4.57787 1.464 4.30587C1.256 3.79387 1.032 3.43387 0.792 3.22587C0.552 3.00187 0.368 2.88187 0.24 2.86587H5.592C5.48 2.88187 5.408 3.00187 5.376 3.22587C5.36 3.44987 5.44 3.82587 5.616 4.35387C5.696 4.56187 5.816 4.92187 5.976 5.43387C6.152 5.92987 6.352 6.52987 6.576 7.23387C6.816 7.92187 7.064 8.66587 7.32 9.46587C7.592 10.2659 7.856 11.0739 8.112 11.8899C8.384 12.7059 8.64 13.4739 8.88 14.1939H8.928C9.12 13.4899 9.32 12.7459 9.528 11.9619C9.736 11.1619 9.944 10.3699 10.152 9.58587C10.376 8.78587 10.576 8.03387 10.752 7.32987C10.944 6.62587 11.112 6.01787 11.256 5.50587C11.4 4.97787 11.504 4.59387 11.568 4.35387C11.712 3.82587 11.768 3.44987 11.736 3.22587C11.704 3.00187 11.648 2.88187 11.568 2.86587H17.616C17.52 2.86587 17.456 2.97787 17.424 3.20187C17.392 3.42587 17.456 3.81787 17.616 4.37787C17.68 4.58587 17.784 4.94587 17.928 5.45787C18.072 5.96987 18.232 6.57787 18.408 7.28187C18.6 7.96987 18.8 8.71387 19.008 9.51387C19.232 10.2979 19.448 11.0979 19.656 11.9139C19.88 12.7139 20.088 13.4739 20.28 14.1939H20.328C20.584 13.4739 20.848 12.7139 21.12 11.9139C21.392 11.0979 21.664 10.2899 21.936 9.48987C22.208 8.68987 22.464 7.94587 22.704 7.25787C22.944 6.55387 23.144 5.94587 23.304 5.43387C23.48 4.92187 23.6 4.56187 23.664 4.35387C23.84 3.80987 23.904 3.42587 23.856 3.20187C23.824 2.97787 23.76 2.86587 23.664 2.86587H28.992C28.88 2.88187 28.72 3.00987 28.512 3.24987C28.304 3.47387 28.064 3.84187 27.792 4.35387C27.664 4.59387 27.472 5.00987 27.216 5.60187C26.96 6.17787 26.664 6.85787 26.328 7.64187C25.992 8.42587 25.648 9.24187 25.296 10.0899C24.944 10.9219 24.608 11.7299 24.288 12.5139C23.984 13.2819 23.72 13.9619 23.496 14.5539C23.272 15.1299 23.12 15.5379 23.04 15.7779C22.88 16.3059 22.816 16.6819 22.848 16.9059C22.88 17.1299 22.944 17.2499 23.04 17.2659H17.496C17.592 17.2499 17.656 17.1299 17.688 16.9059C17.72 16.6819 17.656 16.3059 17.496 15.7779C17.432 15.5699 17.32 15.2019 17.16 14.6739C17.016 14.1299 16.84 13.4899 16.632 12.7539C16.44 12.0019 16.224 11.2019 15.984 10.3539C15.744 9.48987 15.504 8.62587 15.264 7.76187C15.024 6.88187 14.8 6.04987 14.592 5.26587H14.544C14.336 6.04987 14.112 6.88187 13.872 7.76187C13.632 8.62587 13.4 9.48987 13.176 10.3539C12.952 11.2179 12.736 12.0259 12.528 12.7779C12.336 13.5139 12.168 14.1459 12.024 14.6739C11.88 15.2019 11.776 15.5699 11.712 15.7779C11.568 16.2899 11.512 16.6659 11.544 16.9059C11.576 17.1299 11.632 17.2499 11.712 17.2659H6.144ZM35.0449 17.5059C33.7809 17.5059 32.7249 17.3779 31.8769 17.1219C31.0449 16.8499 30.3809 16.4659 29.8849 15.9699C29.3889 15.4579 29.0369 14.8419 28.8289 14.1219C28.6209 13.4019 28.5169 12.5859 28.5169 11.6739C28.5169 9.86587 29.0209 8.43387 30.0289 7.37787C31.0369 6.32187 32.5809 5.79387 34.6609 5.79387C35.8769 5.79387 36.8609 5.96187 37.6129 6.29787C38.3809 6.63387 38.9649 7.08187 39.3649 7.64187C39.7649 8.20187 40.0369 8.82587 40.1809 9.51387C40.3409 10.1859 40.4209 10.8659 40.4209 11.5539V12.6819C40.4209 12.6339 40.1969 12.5859 39.7489 12.5379C39.3169 12.4739 38.5809 12.4419 37.5409 12.4419H31.9729C31.9729 13.3219 32.2369 13.9859 32.7649 14.4339C33.3089 14.8659 34.1889 15.0819 35.4049 15.0819C36.4289 15.0819 37.3409 14.9619 38.1409 14.7219C38.9569 14.4659 39.5489 14.2259 39.9169 14.0019V14.7219L40.1569 16.5459C39.8529 16.7539 39.2689 16.9699 38.4049 17.1939C37.5409 17.4019 36.4209 17.5059 35.0449 17.5059ZM32.8609 10.3779H37.0129C37.0129 10.0259 36.9329 9.68187 36.7729 9.34587C36.6289 9.00987 36.3889 8.73787 36.0529 8.52987C35.7169 8.30587 35.2529 8.19387 34.6609 8.19387C34.0689 8.19387 33.5889 8.28187 33.2209 8.45787C32.8689 8.63387 32.6049 8.84987 32.4289 9.10587C32.2689 9.36187 32.1889 9.62587 32.1889 9.89787C32.1889 10.0579 32.2369 10.1779 32.3329 10.2579C32.4289 10.3379 32.6049 10.3779 32.8609 10.3779ZM42.5906 17.2659C42.7026 17.2659 42.8146 17.1539 42.9266 16.9299C43.0386 16.7059 43.0946 16.3379 43.0946 15.8259V2.14587C43.0946 1.63387 43.0386 1.26587 42.9266 1.04187C42.8306 0.817868 42.7266 0.705868 42.6146 0.705868C43.6706 0.705868 44.5266 0.657868 45.1826 0.561868C45.8546 0.449869 46.2946 0.337869 46.5026 0.225868V15.8259C46.5026 16.3379 46.5506 16.7059 46.6466 16.9299C46.7586 17.1539 46.8706 17.2659 46.9826 17.2659H42.5906ZM55.4115 17.5059C53.7475 17.5059 52.4355 17.2499 51.4755 16.7379C50.5315 16.2259 49.8675 15.5299 49.4835 14.6499C49.0995 13.7699 48.9075 12.7779 48.9075 11.6739C48.9075 9.72187 49.4355 8.25787 50.4915 7.28187C51.5635 6.30587 53.1235 5.81787 55.1715 5.81787C56.2435 5.81787 57.2195 5.89787 58.0995 6.05787C58.9955 6.21787 59.6515 6.36987 60.0675 6.51387V7.23387L60.5475 9.80187C60.1955 9.46587 59.5555 9.12187 58.6275 8.76987C57.7155 8.40187 56.6195 8.21787 55.3395 8.21787C54.6515 8.21787 54.0755 8.34587 53.6115 8.60187C53.1635 8.84187 52.8275 9.21787 52.6035 9.72987C52.3955 10.2419 52.2915 10.8979 52.2915 11.6979C52.2915 12.4819 52.4115 13.1219 52.6515 13.6179C52.8915 14.1139 53.2835 14.4739 53.8275 14.6979C54.3715 14.9219 55.0915 15.0339 55.9875 15.0339C57.1235 15.0339 58.0595 14.8899 58.7955 14.6019C59.5475 14.2979 60.0515 14.0019 60.3075 13.7139V14.4339L60.5475 16.3539C60.2435 16.6099 59.6435 16.8659 58.7475 17.1219C57.8675 17.3779 56.7555 17.5059 55.4115 17.5059ZM68.412 17.5059C66.812 17.5059 65.556 17.2499 64.644 16.7379C63.748 16.2259 63.116 15.5299 62.748 14.6499C62.396 13.7699 62.22 12.7779 62.22 11.6739C62.22 10.5539 62.404 9.55387 62.772 8.67387C63.156 7.79387 63.796 7.09787 64.692 6.58587C65.588 6.05787 66.828 5.79387 68.412 5.79387C69.996 5.79387 71.236 6.05787 72.132 6.58587C73.028 7.09787 73.66 7.79387 74.028 8.67387C74.412 9.55387 74.604 10.5539 74.604 11.6739C74.604 12.7779 74.42 13.7699 74.052 14.6499C73.7 15.5299 73.076 16.2259 72.18 16.7379C71.284 17.2499 70.028 17.5059 68.412 17.5059ZM68.412 15.0819C69.084 15.0819 69.62 14.9859 70.02 14.7939C70.436 14.5859 70.732 14.2339 70.908 13.7379C71.1 13.2419 71.196 12.5539 71.196 11.6739C71.196 10.7939 71.1 10.1059 70.908 9.60987C70.732 9.09787 70.436 8.73787 70.02 8.52987C69.62 8.30587 69.084 8.19387 68.412 8.19387C67.74 8.19387 67.196 8.30587 66.78 8.52987C66.38 8.75387 66.084 9.12187 65.892 9.63387C65.716 10.1459 65.628 10.8339 65.628 11.6979C65.628 12.5459 65.716 13.2179 65.892 13.7139C66.084 14.2099 66.38 14.5619 66.78 14.7699C67.196 14.9779 67.74 15.0819 68.412 15.0819ZM76.3841 17.2659C76.4961 17.2659 76.6001 17.1539 76.6961 16.9299C76.8081 16.7059 76.8641 16.3379 76.8641 15.8259V7.71387C76.8641 7.20187 76.8081 6.84187 76.6961 6.63387C76.6001 6.40987 76.4961 6.28987 76.3841 6.27387C77.0881 6.27387 77.8081 6.22587 78.5441 6.12987C79.2801 6.01787 79.8561 5.90587 80.2721 5.79387V7.25787L80.2241 7.56987L80.2721 7.61787C80.3201 7.50587 80.4721 7.30587 80.7281 7.01787C80.9841 6.72987 81.3521 6.45787 81.8321 6.20187C82.3121 5.92987 82.9041 5.79387 83.6081 5.79387C85.0961 5.79387 86.2321 6.21787 87.0161 7.06587C87.8161 7.91387 88.2161 9.24187 88.2161 11.0499V15.8259C88.2161 16.3379 88.2641 16.7059 88.3601 16.9299C88.4721 17.1539 88.5841 17.2659 88.6961 17.2659H84.3281C84.4401 17.2659 84.5441 17.1539 84.6401 16.9299C84.7521 16.7059 84.8081 16.3379 84.8081 15.8259V11.1219C84.8081 10.3699 84.7281 9.78587 84.5681 9.36987C84.4081 8.93787 84.1841 8.63387 83.8961 8.45787C83.6241 8.28187 83.3041 8.19387 82.9361 8.19387C82.4881 8.19387 82.0561 8.30587 81.6401 8.52987C81.2401 8.73787 80.9121 9.07387 80.6561 9.53787C80.4001 9.98587 80.2721 10.5859 80.2721 11.3379V15.8259C80.2721 16.3379 80.3201 16.7059 80.4161 16.9299C80.5281 17.1539 80.6401 17.2659 80.7521 17.2659H76.3841ZM92.2481 17.2659C92.3601 17.2499 92.4641 17.1299 92.5601 16.9059C92.6721 16.6819 92.7281 16.3219 92.7281 15.8259V11.3379C92.7281 10.6979 92.6641 10.1459 92.5361 9.68187C92.4241 9.20187 92.2321 8.83387 91.9601 8.57787C91.6881 8.32187 91.3201 8.19387 90.8561 8.19387C90.0721 8.19387 89.4321 8.47387 88.9361 9.03387C88.4561 9.59387 88.2161 10.4419 88.2161 11.5779H86.4641C86.4641 10.8099 86.5841 10.0819 86.8241 9.39387C87.0641 8.68987 87.4081 8.07387 87.8561 7.54587C88.3041 7.00187 88.8401 6.57787 89.4641 6.27387C90.0881 5.95387 90.7761 5.79387 91.5281 5.79387C92.4881 5.79387 93.3121 5.96987 94.0001 6.32187C94.6881 6.65787 95.2161 7.22587 95.5841 8.02587C95.9521 8.82587 96.1361 9.91387 96.1361 11.2899V15.8259C96.1361 16.3219 96.1841 16.6819 96.2801 16.9059C96.3921 17.1299 96.5041 17.2499 96.6161 17.2659H92.2481ZM104.771 17.5059C103.507 17.5059 102.451 17.3779 101.603 17.1219C100.771 16.8499 100.107 16.4659 99.6114 15.9699C99.1154 15.4579 98.7634 14.8419 98.5554 14.1219C98.3474 13.4019 98.2434 12.5859 98.2434 11.6739C98.2434 9.86587 98.7474 8.43387 99.7554 7.37787C100.763 6.32187 102.307 5.79387 104.387 5.79387C105.603 5.79387 106.587 5.96187 107.339 6.29787C108.107 6.63387 108.691 7.08187 109.091 7.64187C109.491 8.20187 109.763 8.82587 109.907 9.51387C110.067 10.1859 110.147 10.8659 110.147 11.5539V12.6819C110.147 12.6339 109.923 12.5859 109.475 12.5379C109.043 12.4739 108.307 12.4419 107.267 12.4419H101.699C101.699 13.3219 101.963 13.9859 102.491 14.4339C103.035 14.8659 103.915 15.0819 105.131 15.0819C106.155 15.0819 107.067 14.9619 107.867 14.7219C108.683 14.4659 109.275 14.2259 109.643 14.0019V14.7219L109.883 16.5459C109.579 16.7539 108.995 16.9699 108.131 17.1939C107.267 17.4019 106.147 17.5059 104.771 17.5059ZM102.587 10.3779H106.739C106.739 10.0259 106.659 9.68187 106.499 9.34587C106.355 9.00987 106.115 8.73787 105.779 8.52987C105.443 8.30587 104.979 8.19387 104.387 8.19387C103.795 8.19387 103.315 8.28187 102.947 8.45787C102.595 8.63387 102.331 8.84987 102.155 9.10587C101.995 9.36187 101.915 9.62587 101.915 9.89787C101.915 10.0579 101.963 10.1779 102.059 10.2579C102.155 10.3379 102.331 10.3779 102.587 10.3779ZM122.667 17.5059C121.563 17.5059 120.763 17.2739 120.267 16.8099C119.771 16.3299 119.523 15.5539 119.523 14.4819V8.43387H117.363V6.03387C118.099 6.03387 118.675 5.94587 119.091 5.76987C119.507 5.57787 119.803 5.24987 119.979 4.78587C120.155 4.32187 120.243 3.67387 120.243 2.84187H122.931V6.03387H127.035C126.923 6.35387 126.811 6.75387 126.699 7.23387C126.603 7.69787 126.555 8.09787 126.555 8.43387H122.931V13.1619C122.931 13.8979 122.987 14.4019 123.099 14.6739C123.211 14.9459 123.475 15.0819 123.891 15.0819C124.163 15.0819 124.459 14.9859 124.779 14.7939C125.115 14.6019 125.435 14.3699 125.739 14.0979C126.059 13.8099 126.323 13.5379 126.531 13.2819V14.0259L126.771 16.3539C126.579 16.5139 126.291 16.6899 125.907 16.8819C125.523 17.0579 125.051 17.2019 124.491 17.3139C123.947 17.4419 123.339 17.5059 122.667 17.5059ZM134.178 17.5059C132.578 17.5059 131.322 17.2499 130.41 16.7379C129.514 16.2259 128.882 15.5299 128.514 14.6499C128.162 13.7699 127.986 12.7779 127.986 11.6739C127.986 10.5539 128.17 9.55387 128.538 8.67387C128.922 7.79387 129.562 7.09787 130.458 6.58587C131.354 6.05787 132.594 5.79387 134.178 5.79387C135.762 5.79387 137.002 6.05787 137.898 6.58587C138.794 7.09787 139.426 7.79387 139.794 8.67387C140.178 9.55387 140.37 10.5539 140.37 11.6739C140.37 12.7779 140.186 13.7699 139.818 14.6499C139.466 15.5299 138.842 16.2259 137.946 16.7379C137.05 17.2499 135.794 17.5059 134.178 17.5059ZM134.178 15.0819C134.85 15.0819 135.386 14.9859 135.786 14.7939C136.202 14.5859 136.498 14.2339 136.674 13.7379C136.866 13.2419 136.962 12.5539 136.962 11.6739C136.962 10.7939 136.866 10.1059 136.674 9.60987C136.498 9.09787 136.202 8.73787 135.786 8.52987C135.386 8.30587 134.85 8.19387 134.178 8.19387C133.506 8.19387 132.962 8.30587 132.546 8.52987C132.146 8.75387 131.85 9.12187 131.658 9.63387C131.482 10.1459 131.394 10.8339 131.394 11.6979C131.394 12.5459 131.482 13.2179 131.658 13.7139C131.85 14.2099 132.146 14.5619 132.546 14.7699C132.962 14.9779 133.506 15.0819 134.178 15.0819ZM148.059 17.2659C148.171 17.2659 148.283 17.1539 148.395 16.9299C148.507 16.7059 148.563 16.3379 148.563 15.8259V4.30587C148.563 3.79387 148.507 3.43387 148.395 3.22587C148.283 3.00187 148.171 2.88187 148.059 2.86587H153.723C153.627 2.88187 153.579 3.00987 153.579 3.24987C153.595 3.47387 153.731 3.84187 153.987 4.35387C154.099 4.56187 154.259 4.88987 154.467 5.33787C154.691 5.78587 154.939 6.30587 155.211 6.89787C155.499 7.48987 155.795 8.12187 156.099 8.79387C156.419 9.46587 156.739 10.1379 157.059 10.8099C157.379 11.4819 157.675 12.1139 157.947 12.7059H157.971C158.259 12.1139 158.563 11.4899 158.883 10.8339C159.219 10.1619 159.547 9.48987 159.867 8.81787C160.187 8.14587 160.491 7.51387 160.779 6.92187C161.067 6.31387 161.315 5.78587 161.523 5.33787C161.731 4.87387 161.883 4.52987 161.979 4.30587C162.203 3.79387 162.323 3.42587 162.339 3.20187C162.355 2.97787 162.323 2.86587 162.243 2.86587H167.907C167.795 2.86587 167.683 2.97787 167.571 3.20187C167.459 3.42587 167.403 3.80187 167.403 4.32987V15.8259C167.403 16.3379 167.459 16.7059 167.571 16.9299C167.683 17.1539 167.795 17.2659 167.907 17.2659H163.275C163.387 17.2659 163.491 17.1539 163.587 16.9299C163.699 16.7059 163.755 16.3379 163.755 15.8259V8.04987H163.707C163.451 8.52987 163.179 9.05787 162.891 9.63387C162.603 10.2099 162.307 10.7939 162.003 11.3859C161.715 11.9779 161.435 12.5539 161.163 13.1139C160.891 13.6739 160.643 14.1859 160.419 14.6499C160.195 15.1139 160.011 15.5059 159.867 15.8259C159.643 16.3219 159.523 16.6819 159.507 16.9059C159.507 17.1299 159.547 17.2499 159.627 17.2659H156.267C156.347 17.2499 156.379 17.1299 156.363 16.9059C156.363 16.6819 156.251 16.3219 156.027 15.8259C155.899 15.5379 155.723 15.1619 155.499 14.6979C155.291 14.2339 155.051 13.7299 154.779 13.1859C154.523 12.6259 154.251 12.0499 153.963 11.4579C153.675 10.8499 153.387 10.2579 153.099 9.68187C152.827 9.08987 152.571 8.54587 152.331 8.04987H152.259V15.8259C152.259 16.3379 152.315 16.7059 152.427 16.9299C152.539 17.1539 152.651 17.2659 152.763 17.2659H148.059ZM177.814 17.5059C176.198 17.5059 174.87 17.2499 173.83 16.7379C172.79 16.2259 172.022 15.4899 171.526 14.5299C171.03 13.5539 170.782 12.3939 170.782 11.0499V4.28187C170.782 3.76987 170.726 3.40987 170.614 3.20187C170.518 2.97787 170.414 2.86587 170.302 2.86587H174.91C174.798 2.88187 174.686 2.99387 174.574 3.20187C174.478 3.40987 174.43 3.76987 174.43 4.28187V11.0019C174.43 12.0259 174.574 12.8179 174.862 13.3779C175.15 13.9379 175.55 14.3219 176.062 14.5299C176.574 14.7379 177.166 14.8419 177.838 14.8419H178.102C178.63 14.8419 179.094 14.7859 179.494 14.6739C179.91 14.5619 180.254 14.3699 180.526 14.0979C180.814 13.8259 181.03 13.4419 181.174 12.9459C181.334 12.4339 181.414 11.7859 181.414 11.0019V4.28187C181.414 3.76987 181.358 3.40987 181.246 3.20187C181.15 2.97787 181.046 2.86587 180.934 2.86587H185.542C185.43 2.88187 185.318 3.00187 185.206 3.22587C185.11 3.43387 185.062 3.79387 185.062 4.30587V11.0499C185.062 12.3939 184.806 13.5539 184.294 14.5299C183.798 15.4899 183.03 16.2259 181.99 16.7379C180.966 17.2499 179.654 17.5059 178.054 17.5059H177.814ZM187.95 17.2659C188.062 17.2659 188.174 17.1539 188.286 16.9299C188.398 16.7059 188.454 16.3379 188.454 15.8259V4.30587C188.454 3.79387 188.398 3.43387 188.286 3.22587C188.174 3.00187 188.062 2.88187 187.95 2.86587H195.486C196.894 2.86587 198.078 3.00187 199.038 3.27387C199.998 3.54587 200.766 3.92187 201.342 4.40187C201.934 4.88187 202.382 5.43387 202.686 6.05787C202.99 6.66587 203.19 7.31387 203.286 8.00187C203.398 8.68987 203.454 9.38587 203.454 10.0899C203.454 10.7299 203.398 11.3939 203.286 12.0819C203.19 12.7539 202.982 13.4019 202.662 14.0259C202.358 14.6339 201.91 15.1859 201.318 15.6819C200.742 16.1619 199.974 16.5459 199.014 16.8339C198.07 17.1219 196.894 17.2659 195.486 17.2659H187.95ZM193.11 14.6019H194.094C195.47 14.6019 196.574 14.4899 197.406 14.2659C198.238 14.0259 198.846 13.5939 199.23 12.9699C199.614 12.3459 199.806 11.4419 199.806 10.2579V9.82587C199.806 8.57787 199.63 7.65787 199.278 7.06587C198.926 6.45787 198.334 6.05787 197.502 5.86587C196.67 5.67387 195.534 5.57787 194.094 5.57787H193.11C192.646 5.57787 192.366 5.60987 192.27 5.67387C192.19 5.72187 192.15 5.91387 192.15 6.24987V13.8819C192.15 14.2339 192.19 14.4419 192.27 14.5059C192.366 14.5699 192.646 14.6019 193.11 14.6019ZM216.558 17.2659C216.67 17.2659 216.782 17.1539 216.894 16.9299C217.006 16.7059 217.062 16.3379 217.062 15.8259V6.22587C217.062 5.87387 217.022 5.66587 216.942 5.60187C216.862 5.53787 216.582 5.50587 216.102 5.50587H214.35C213.422 5.50587 212.67 5.60987 212.094 5.81787C211.534 6.00987 211.166 6.19387 210.99 6.36987L211.47 3.58587V2.86587H226.35V3.58587L226.83 6.36987C226.654 6.19387 226.278 6.00987 225.702 5.81787C225.142 5.60987 224.398 5.50587 223.47 5.50587H221.742C221.246 5.50587 220.958 5.53787 220.878 5.60187C220.798 5.66587 220.758 5.87387 220.758 6.22587V15.8259C220.758 16.3379 220.814 16.7059 220.926 16.9299C221.038 17.1539 221.15 17.2659 221.262 17.2659H216.558ZM224.155 17.2659C224.235 17.2659 224.355 17.1539 224.515 16.9299C224.691 16.7059 224.891 16.3299 225.115 15.8019C225.227 15.5619 225.403 15.1539 225.643 14.5779C225.899 13.9859 226.187 13.3059 226.507 12.5379C226.843 11.7539 227.187 10.9379 227.539 10.0899C227.907 9.24187 228.251 8.42587 228.571 7.64187C228.907 6.85787 229.195 6.16987 229.435 5.57787C229.691 4.98587 229.867 4.56187 229.963 4.30587C230.171 3.79387 230.283 3.42587 230.299 3.20187C230.315 2.97787 230.283 2.86587 230.203 2.86587H235.435C235.371 2.86587 235.347 2.97787 235.363 3.20187C235.379 3.40987 235.491 3.77787 235.699 4.30587C235.795 4.56187 235.963 4.98587 236.203 5.57787C236.443 6.15387 236.723 6.83387 237.043 7.61787C237.363 8.38587 237.699 9.19387 238.051 10.0419C238.403 10.8899 238.739 11.7059 239.059 12.4899C239.379 13.2579 239.667 13.9379 239.923 14.5299C240.179 15.1219 240.363 15.5459 240.475 15.8019C240.715 16.3299 240.947 16.7059 241.171 16.9299C241.395 17.1539 241.563 17.2659 241.675 17.2659H236.227C236.355 17.2499 236.459 17.1299 236.539 16.9059C236.635 16.6659 236.635 16.2979 236.539 15.8019C236.523 15.6899 236.507 15.6019 236.491 15.5379C236.475 15.4579 236.443 15.3459 236.395 15.2019C236.331 14.9619 236.259 14.7939 236.179 14.6979C236.099 14.5859 235.963 14.5219 235.771 14.5059C235.595 14.4899 235.299 14.4819 234.883 14.4819H230.755C230.323 14.4819 230.003 14.4979 229.795 14.5299C229.587 14.5459 229.443 14.6019 229.363 14.6979C229.283 14.7939 229.219 14.9539 229.171 15.1779C229.155 15.2579 229.131 15.3619 229.099 15.4899C229.083 15.6179 229.067 15.7219 229.051 15.8019C228.939 16.3139 228.907 16.6819 228.955 16.9059C229.019 17.1299 229.099 17.2499 229.195 17.2659H224.155ZM231.379 11.8419H234.187C234.651 11.8419 234.907 11.8019 234.955 11.7219C235.003 11.6419 234.979 11.4659 234.883 11.1939C234.675 10.6819 234.467 10.1619 234.259 9.63387C234.051 9.08987 233.851 8.56187 233.659 8.04987C233.483 7.53787 233.323 7.06587 233.179 6.63387C233.051 6.18587 232.939 5.80987 232.843 5.50587H232.795C232.571 6.09787 232.339 6.72187 232.099 7.37787C231.859 8.03387 231.635 8.64187 231.427 9.20187C231.219 9.76187 231.051 10.2259 230.923 10.5939C230.795 10.9459 230.731 11.1219 230.731 11.1219C230.619 11.3779 230.579 11.5619 230.611 11.6739C230.643 11.7859 230.899 11.8419 231.379 11.8419Z" fill="black"/>
<path d="M207.494 10.4979C206.886 10.4979 206.366 10.2819 205.934 9.84987C205.502 9.41787 205.286 8.89787 205.286 8.28987C205.286 7.66587 205.502 7.13787 205.934 6.70587C206.366 6.27387 206.886 6.05787 207.494 6.05787C208.118 6.05787 208.646 6.27387 209.078 6.70587C209.51 7.13787 209.726 7.66587 209.726 8.28987C209.726 8.89787 209.51 9.41787 209.078 9.84987C208.646 10.2819 208.118 10.4979 207.494 10.4979ZM208.094 17.1459L207.11 17.2899C206.646 17.2899 206.23 17.1299 205.862 16.8099C205.494 16.4899 205.31 16.0339 205.31 15.4419C205.31 14.8339 205.502 14.3299 205.886 13.9299C206.286 13.5299 206.838 13.3299 207.542 13.3299C208.262 13.3299 208.846 13.6019 209.294 14.1459C209.742 14.6899 209.966 15.3059 209.966 15.9939C209.966 16.9859 209.638 17.8979 208.982 18.7299C208.342 19.5779 207.414 20.2739 206.198 20.8179L206.03 20.3859C207.694 19.4099 208.526 18.4659 208.526 17.5539C208.526 17.2819 208.382 17.1459 208.094 17.1459Z" fill="#F90000"/>
</svg>
