<svg width="160" height="189" viewBox="0 0 160 189" fill="none" xmlns="http://www.w3.org/2000/svg">
<g clip-path="url(#clip0_942_3928)">
<rect width="160" height="168.96" rx="6" fill="#163533"/>
<path d="M20 1.04639e-05L20.5901 1.56251C20.9704 2.56947 20.9704 3.68055 20.5901 4.68751V4.68751C20.2098 5.69447 20.2098 6.80555 20.5901 7.81251V7.81251C20.9704 8.81947 20.9704 9.93055 20.5901 10.9375V10.9375C20.2098 11.9445 20.2098 13.0555 20.5901 14.0625V14.0625C20.9704 15.0695 20.9704 16.1805 20.5901 17.1875V17.1875C20.2098 18.1945 20.2098 19.3055 20.5901 20.3125V20.3125C20.9704 21.3195 20.9704 22.4305 20.5901 23.4375V23.4375C20.2098 24.4445 20.2098 25.5555 20.5901 26.5625V26.5625C20.9704 27.5695 20.9704 28.6806 20.5901 29.6875V29.6875C20.2098 30.6945 20.2098 31.8056 20.5901 32.8125V32.8125C20.9704 33.8195 20.9704 34.9306 20.5901 35.9375V35.9375C20.2098 36.9445 20.2098 38.0556 20.5901 39.0625V39.0625C20.9704 40.0695 20.9704 41.1806 20.5901 42.1875V42.1875C20.2098 43.1945 20.2098 44.3056 20.5901 45.3125V45.3125C20.9704 46.3195 20.9704 47.4306 20.5901 48.4375V48.4375C20.2098 49.4445 20.2098 50.5556 20.5901 51.5625V51.5625C20.9704 52.5695 20.9704 53.6806 20.5901 54.6875V54.6875C20.2098 55.6945 20.2098 56.8056 20.5901 57.8125V57.8125C20.9704 58.8195 20.9704 59.9306 20.5901 60.9375V60.9375C20.2098 61.9445 20.2098 63.0556 20.5901 64.0625V64.0625C20.9704 65.0695 20.9704 66.1805 20.5901 67.1875V67.1875C20.2098 68.1945 20.2098 69.3055 20.5901 70.3125V70.3125C20.9704 71.3195 20.9704 72.4305 20.5901 73.4375V73.4375C20.2098 74.4445 20.2098 75.5555 20.5901 76.5625V76.5625C20.9704 77.5695 20.9704 78.6805 20.5901 79.6875V79.6875C20.2098 80.6945 20.2098 81.8055 20.5901 82.8125V82.8125C20.9704 83.8195 20.9704 84.9305 20.5901 85.9375V85.9375C20.2098 86.9445 20.2098 88.0555 20.5901 89.0625V89.0625C20.9704 90.0695 20.9704 91.1805 20.5901 92.1875V92.1875C20.2098 93.1945 20.2098 94.3055 20.5901 95.3125V95.3125C20.9704 96.3195 20.9704 97.4305 20.5901 98.4375L20 100" stroke="#A1C7C4" stroke-width="0.4" stroke-miterlimit="10"/>
<path d="M22.1802 1.04639e-05L22.7703 1.56251C23.1505 2.56947 23.1505 3.68055 22.7703 4.68751V4.68751C22.39 5.69447 22.39 6.80555 22.7703 7.81251V7.81251C23.1505 8.81947 23.1505 9.93055 22.7703 10.9375V10.9375C22.39 11.9445 22.39 13.0555 22.7703 14.0625V14.0625C23.1505 15.0695 23.1505 16.1805 22.7703 17.1875V17.1875C22.39 18.1945 22.39 19.3055 22.7703 20.3125V20.3125C23.1505 21.3195 23.1505 22.4305 22.7703 23.4375V23.4375C22.39 24.4445 22.39 25.5555 22.7703 26.5625V26.5625C23.1505 27.5695 23.1505 28.6806 22.7703 29.6875V29.6875C22.39 30.6945 22.39 31.8056 22.7703 32.8125V32.8125C23.1505 33.8195 23.1505 34.9306 22.7703 35.9375V35.9375C22.39 36.9445 22.39 38.0556 22.7703 39.0625V39.0625C23.1505 40.0695 23.1505 41.1806 22.7703 42.1875V42.1875C22.39 43.1945 22.39 44.3056 22.7703 45.3125V45.3125C23.1505 46.3195 23.1505 47.4306 22.7703 48.4375V48.4375C22.39 49.4445 22.39 50.5556 22.7703 51.5625V51.5625C23.1505 52.5695 23.1505 53.6806 22.7703 54.6875V54.6875C22.39 55.6945 22.39 56.8056 22.7703 57.8125V57.8125C23.1505 58.8195 23.1505 59.9306 22.7703 60.9375V60.9375C22.39 61.9445 22.39 63.0556 22.7703 64.0625V64.0625C23.1505 65.0695 23.1505 66.1805 22.7703 67.1875V67.1875C22.39 68.1945 22.39 69.3055 22.7703 70.3125V70.3125C23.1505 71.3195 23.1505 72.4305 22.7703 73.4375V73.4375C22.39 74.4445 22.39 75.5555 22.7703 76.5625V76.5625C23.1505 77.5695 23.1505 78.6805 22.7703 79.6875V79.6875C22.39 80.6945 22.39 81.8055 22.7703 82.8125V82.8125C23.1505 83.8195 23.1505 84.9305 22.7703 85.9375V85.9375C22.39 86.9445 22.39 88.0555 22.7703 89.0625V89.0625C23.1505 90.0695 23.1505 91.1805 22.7703 92.1875V92.1875C22.39 93.1945 22.39 94.3055 22.7703 95.3125V95.3125C23.1505 96.3195 23.1505 97.4305 22.7703 98.4375L22.1802 100" stroke="#A1C7C4" stroke-width="0.4" stroke-miterlimit="10"/>
<path d="M24.3603 1.04639e-05L24.9504 1.56251C25.3307 2.56947 25.3307 3.68055 24.9504 4.68751V4.68751C24.5701 5.69447 24.5701 6.80555 24.9504 7.81251V7.81251C25.3307 8.81947 25.3307 9.93055 24.9504 10.9375V10.9375C24.5702 11.9445 24.5702 13.0555 24.9504 14.0625V14.0625C25.3307 15.0695 25.3307 16.1805 24.9504 17.1875V17.1875C24.5702 18.1945 24.5702 19.3055 24.9504 20.3125V20.3125C25.3307 21.3195 25.3307 22.4305 24.9504 23.4375V23.4375C24.5702 24.4445 24.5702 25.5555 24.9504 26.5625V26.5625C25.3307 27.5695 25.3307 28.6806 24.9504 29.6875V29.6875C24.5702 30.6945 24.5702 31.8056 24.9504 32.8125V32.8125C25.3307 33.8195 25.3307 34.9306 24.9504 35.9375V35.9375C24.5702 36.9445 24.5702 38.0556 24.9504 39.0625V39.0625C25.3307 40.0695 25.3307 41.1806 24.9504 42.1875V42.1875C24.5702 43.1945 24.5702 44.3056 24.9504 45.3125V45.3125C25.3307 46.3195 25.3307 47.4306 24.9504 48.4375V48.4375C24.5702 49.4445 24.5702 50.5556 24.9504 51.5625V51.5625C25.3307 52.5695 25.3307 53.6806 24.9504 54.6875V54.6875C24.5702 55.6945 24.5702 56.8056 24.9504 57.8125V57.8125C25.3307 58.8195 25.3307 59.9306 24.9504 60.9375V60.9375C24.5702 61.9445 24.5702 63.0556 24.9504 64.0625V64.0625C25.3307 65.0695 25.3307 66.1805 24.9504 67.1875V67.1875C24.5702 68.1945 24.5702 69.3055 24.9504 70.3125V70.3125C25.3307 71.3195 25.3307 72.4305 24.9504 73.4375V73.4375C24.5702 74.4445 24.5702 75.5555 24.9504 76.5625V76.5625C25.3307 77.5695 25.3307 78.6805 24.9504 79.6875V79.6875C24.5702 80.6945 24.5702 81.8055 24.9504 82.8125V82.8125C25.3307 83.8195 25.3307 84.9305 24.9504 85.9375V85.9375C24.5702 86.9445 24.5702 88.0555 24.9504 89.0625V89.0625C25.3307 90.0695 25.3307 91.1805 24.9504 92.1875V92.1875C24.5702 93.1945 24.5702 94.3055 24.9504 95.3125V95.3125C25.3307 96.3195 25.3307 97.4305 24.9504 98.4375L24.3604 100" stroke="#A1C7C4" stroke-width="0.4" stroke-miterlimit="10"/>
<path d="M26.5405 1.04639e-05L27.1341 1.56251C27.5165 2.56909 27.5165 3.68093 27.1341 4.68751V4.68751C26.7517 5.69409 26.7517 6.80593 27.1341 7.81251V7.81251C27.5165 8.81908 27.5165 9.93093 27.1341 10.9375V10.9375C26.7517 11.9441 26.7517 13.0559 27.1341 14.0625V14.0625C27.5165 15.0691 27.5165 16.1809 27.1341 17.1875V17.1875C26.7517 18.1941 26.7517 19.3059 27.1341 20.3125V20.3125C27.5165 21.3191 27.5165 22.4309 27.1341 23.4375V23.4375C26.7517 24.4441 26.7517 25.5559 27.1341 26.5625V26.5625C27.5165 27.5691 27.5164 28.6809 27.1341 29.6875V29.6875C26.7517 30.6941 26.7517 31.8059 27.1341 32.8125V32.8125C27.5165 33.8191 27.5165 34.9309 27.1341 35.9375V35.9375C26.7517 36.9441 26.7517 38.0559 27.1341 39.0625V39.0625C27.5165 40.0691 27.5165 41.1809 27.1341 42.1875V42.1875C26.7517 43.1941 26.7517 44.3059 27.1341 45.3125V45.3125C27.5165 46.3191 27.5165 47.4309 27.1341 48.4375V48.4375C26.7517 49.4441 26.7517 50.5559 27.1341 51.5625V51.5625C27.5165 52.5691 27.5165 53.6809 27.1341 54.6875V54.6875C26.7517 55.6941 26.7517 56.8059 27.1341 57.8125V57.8125C27.5165 58.8191 27.5165 59.9309 27.1341 60.9375V60.9375C26.7517 61.9441 26.7517 63.0559 27.1341 64.0625V64.0625C27.5165 65.0691 27.5165 66.1809 27.1341 67.1875V67.1875C26.7517 68.1941 26.7517 69.3059 27.1341 70.3125V70.3125C27.5165 71.3191 27.5165 72.4309 27.1341 73.4375V73.4375C26.7517 74.4441 26.7517 75.5559 27.1341 76.5625V76.5625C27.5165 77.5691 27.5165 78.6809 27.1341 79.6875V79.6875C26.7517 80.6941 26.7517 81.8059 27.1341 82.8125V82.8125C27.5165 83.8191 27.5165 84.9309 27.1341 85.9375V85.9375C26.7517 86.9441 26.7517 88.0559 27.1341 89.0625V89.0625C27.5165 90.0691 27.5165 91.1809 27.1341 92.1875V92.1875C26.7517 93.1941 26.7517 94.3059 27.1341 95.3125V95.3125C27.5165 96.3191 27.5165 97.4309 27.1341 98.4375L26.5405 100" stroke="#A1C7C4" stroke-width="0.4" stroke-miterlimit="10"/>
<g opacity="0.8">
<g filter="url(#filter0_b_942_3928)">
<circle cx="24" cy="86" r="10" fill="url(#paint0_radial_942_3928)"/>
</g>
</g>
<path d="M26.384 88.524H25.808V90H24.56L24.548 88.524H20.54L24.476 82.716L25.208 81.588H25.808V87.264H27.236L26.384 88.524ZM24.536 82.908L21.572 87.264H24.548L24.536 82.908Z" fill="white"/>
<path d="M44 1.04639e-05L44.5936 1.56251C44.9759 2.56909 44.9759 3.68093 44.5936 4.68751V4.68751C44.2112 5.69408 44.2112 6.80593 44.5936 7.81251V7.81251C44.9759 8.81908 44.9759 9.93093 44.5936 10.9375V10.9375C44.2112 11.9441 44.2112 13.0559 44.5936 14.0625V14.0625C44.9759 15.0691 44.9759 16.1809 44.5936 17.1875V17.1875C44.2112 18.1941 44.2112 19.3059 44.5936 20.3125V20.3125C44.9759 21.3191 44.9759 22.4309 44.5936 23.4375V23.4375C44.2112 24.4441 44.2112 25.5559 44.5936 26.5625V26.5625C44.9759 27.5691 44.9759 28.6809 44.5936 29.6875V29.6875C44.2112 30.6941 44.2112 31.8059 44.5936 32.8125V32.8125C44.9759 33.8191 44.9759 34.9309 44.5936 35.9375V35.9375C44.2112 36.9441 44.2112 38.0559 44.5936 39.0625V39.0625C44.9759 40.0691 44.9759 41.1809 44.5936 42.1875V42.1875C44.2112 43.1941 44.2112 44.3059 44.5936 45.3125V45.3125C44.9759 46.3191 44.9759 47.4309 44.5936 48.4375V48.4375C44.2112 49.4441 44.2112 50.5559 44.5936 51.5625V51.5625C44.9759 52.5691 44.9759 53.6809 44.5936 54.6875V54.6875C44.2112 55.6941 44.2112 56.8059 44.5936 57.8125V57.8125C44.9759 58.8191 44.9759 59.9309 44.5936 60.9375V60.9375C44.2112 61.9441 44.2112 63.0559 44.5936 64.0625V64.0625C44.9759 65.0691 44.9759 66.1809 44.5936 67.1875V67.1875C44.2112 68.1941 44.2112 69.3059 44.5936 70.3125V70.3125C44.9759 71.3191 44.9759 72.4309 44.5936 73.4375V73.4375C44.2112 74.4441 44.2112 75.5559 44.5936 76.5625V76.5625C44.9759 77.5691 44.9759 78.6809 44.5936 79.6875V79.6875C44.2112 80.6941 44.2112 81.8059 44.5936 82.8125V82.8125C44.9759 83.8191 44.9759 84.9309 44.5936 85.9375V85.9375C44.2112 86.9441 44.2112 88.0559 44.5936 89.0625V89.0625C44.9759 90.0691 44.9759 91.1809 44.5936 92.1875V92.1875C44.2112 93.1941 44.2112 94.3059 44.5936 95.3125V95.3125C44.9759 96.3191 44.9759 97.4309 44.5936 98.4375L44 100" stroke="#A1C7C4" stroke-width="0.4" stroke-miterlimit="10"/>
<path d="M46.187 1.04639e-05L46.7771 1.56251C47.1574 2.56947 47.1574 3.68055 46.7771 4.68751V4.68751C46.3968 5.69447 46.3968 6.80555 46.7771 7.81251V7.81251C47.1574 8.81947 47.1574 9.93055 46.7771 10.9375V10.9375C46.3968 11.9445 46.3968 13.0555 46.7771 14.0625V14.0625C47.1574 15.0695 47.1574 16.1805 46.7771 17.1875V17.1875C46.3968 18.1945 46.3968 19.3055 46.7771 20.3125V20.3125C47.1574 21.3195 47.1574 22.4305 46.7771 23.4375V23.4375C46.3968 24.4445 46.3968 25.5555 46.7771 26.5625V26.5625C47.1574 27.5695 47.1574 28.6806 46.7771 29.6875V29.6875C46.3968 30.6945 46.3968 31.8056 46.7771 32.8125V32.8125C47.1574 33.8195 47.1574 34.9306 46.7771 35.9375V35.9375C46.3968 36.9445 46.3968 38.0556 46.7771 39.0625V39.0625C47.1574 40.0695 47.1574 41.1806 46.7771 42.1875V42.1875C46.3968 43.1945 46.3968 44.3056 46.7771 45.3125V45.3125C47.1574 46.3195 47.1574 47.4306 46.7771 48.4375V48.4375C46.3968 49.4445 46.3968 50.5556 46.7771 51.5625V51.5625C47.1574 52.5695 47.1574 53.6806 46.7771 54.6875V54.6875C46.3968 55.6945 46.3968 56.8056 46.7771 57.8125V57.8125C47.1574 58.8195 47.1574 59.9306 46.7771 60.9375V60.9375C46.3968 61.9445 46.3968 63.0556 46.7771 64.0625V64.0625C47.1574 65.0695 47.1574 66.1805 46.7771 67.1875V67.1875C46.3968 68.1945 46.3968 69.3055 46.7771 70.3125V70.3125C47.1574 71.3195 47.1574 72.4305 46.7771 73.4375V73.4375C46.3968 74.4445 46.3968 75.5555 46.7771 76.5625V76.5625C47.1574 77.5695 47.1574 78.6805 46.7771 79.6875V79.6875C46.3968 80.6945 46.3968 81.8055 46.7771 82.8125V82.8125C47.1574 83.8195 47.1574 84.9305 46.7771 85.9375V85.9375C46.3968 86.9445 46.3968 88.0555 46.7771 89.0625V89.0625C47.1574 90.0695 47.1574 91.1805 46.7771 92.1875V92.1875C46.3968 93.1945 46.3968 94.3055 46.7771 95.3125V95.3125C47.1574 96.3195 47.1574 97.4305 46.7771 98.4375L46.187 100" stroke="#A1C7C4" stroke-width="0.4" stroke-miterlimit="10"/>
<path d="M48.3672 1.04639e-05L48.9573 1.56251C49.3376 2.56947 49.3376 3.68055 48.9573 4.68751V4.68751C48.577 5.69447 48.577 6.80555 48.9573 7.81251V7.81251C49.3376 8.81947 49.3376 9.93055 48.9573 10.9375V10.9375C48.577 11.9445 48.577 13.0555 48.9573 14.0625V14.0625C49.3376 15.0695 49.3376 16.1805 48.9573 17.1875V17.1875C48.577 18.1945 48.577 19.3055 48.9573 20.3125V20.3125C49.3376 21.3195 49.3376 22.4305 48.9573 23.4375V23.4375C48.577 24.4445 48.577 25.5555 48.9573 26.5625V26.5625C49.3376 27.5695 49.3375 28.6806 48.9573 29.6875V29.6875C48.577 30.6945 48.577 31.8056 48.9573 32.8125V32.8125C49.3376 33.8195 49.3376 34.9306 48.9573 35.9375V35.9375C48.577 36.9445 48.577 38.0556 48.9573 39.0625V39.0625C49.3376 40.0695 49.3376 41.1806 48.9573 42.1875V42.1875C48.577 43.1945 48.577 44.3056 48.9573 45.3125V45.3125C49.3376 46.3195 49.3376 47.4306 48.9573 48.4375V48.4375C48.577 49.4445 48.577 50.5556 48.9573 51.5625V51.5625C49.3376 52.5695 49.3376 53.6806 48.9573 54.6875V54.6875C48.577 55.6945 48.577 56.8056 48.9573 57.8125V57.8125C49.3376 58.8195 49.3376 59.9306 48.9573 60.9375V60.9375C48.577 61.9445 48.577 63.0556 48.9573 64.0625V64.0625C49.3376 65.0695 49.3376 66.1805 48.9573 67.1875V67.1875C48.577 68.1945 48.577 69.3055 48.9573 70.3125V70.3125C49.3376 71.3195 49.3376 72.4305 48.9573 73.4375V73.4375C48.577 74.4445 48.577 75.5555 48.9573 76.5625V76.5625C49.3376 77.5695 49.3376 78.6805 48.9573 79.6875V79.6875C48.577 80.6945 48.577 81.8055 48.9573 82.8125V82.8125C49.3376 83.8195 49.3376 84.9305 48.9573 85.9375V85.9375C48.577 86.9445 48.577 88.0555 48.9573 89.0625V89.0625C49.3376 90.0695 49.3376 91.1805 48.9573 92.1875V92.1875C48.577 93.1945 48.577 94.3055 48.9573 95.3125V95.3125C49.3376 96.3195 49.3376 97.4305 48.9573 98.4375L48.3672 100" stroke="#A1C7C4" stroke-width="0.4" stroke-miterlimit="10"/>
<path d="M50.5474 1.04639e-05L51.1374 1.56251C51.5177 2.56947 51.5177 3.68055 51.1374 4.68751V4.68751C50.7572 5.69447 50.7572 6.80555 51.1374 7.81251V7.81251C51.5177 8.81947 51.5177 9.93055 51.1374 10.9375V10.9375C50.7572 11.9445 50.7572 13.0555 51.1374 14.0625V14.0625C51.5177 15.0695 51.5177 16.1805 51.1374 17.1875V17.1875C50.7572 18.1945 50.7572 19.3055 51.1374 20.3125V20.3125C51.5177 21.3195 51.5177 22.4305 51.1374 23.4375V23.4375C50.7572 24.4445 50.7572 25.5555 51.1374 26.5625V26.5625C51.5177 27.5695 51.5177 28.6806 51.1374 29.6875V29.6875C50.7572 30.6945 50.7572 31.8056 51.1374 32.8125V32.8125C51.5177 33.8195 51.5177 34.9306 51.1374 35.9375V35.9375C50.7572 36.9445 50.7572 38.0556 51.1374 39.0625V39.0625C51.5177 40.0695 51.5177 41.1806 51.1374 42.1875V42.1875C50.7572 43.1945 50.7572 44.3056 51.1374 45.3125V45.3125C51.5177 46.3195 51.5177 47.4306 51.1374 48.4375V48.4375C50.7572 49.4445 50.7572 50.5556 51.1374 51.5625V51.5625C51.5177 52.5695 51.5177 53.6806 51.1374 54.6875V54.6875C50.7572 55.6945 50.7572 56.8056 51.1374 57.8125V57.8125C51.5177 58.8195 51.5177 59.9306 51.1374 60.9375V60.9375C50.7572 61.9445 50.7572 63.0556 51.1374 64.0625V64.0625C51.5177 65.0695 51.5177 66.1805 51.1374 67.1875V67.1875C50.7572 68.1945 50.7572 69.3055 51.1374 70.3125V70.3125C51.5177 71.3195 51.5177 72.4305 51.1374 73.4375V73.4375C50.7572 74.4445 50.7572 75.5555 51.1374 76.5625V76.5625C51.5177 77.5695 51.5177 78.6805 51.1374 79.6875V79.6875C50.7572 80.6945 50.7572 81.8055 51.1374 82.8125V82.8125C51.5177 83.8195 51.5177 84.9305 51.1374 85.9375V85.9375C50.7572 86.9445 50.7572 88.0555 51.1374 89.0625V89.0625C51.5177 90.0695 51.5177 91.1805 51.1374 92.1875V92.1875C50.7572 93.1945 50.7572 94.3055 51.1374 95.3125V95.3125C51.5177 96.3195 51.5177 97.4305 51.1374 98.4375L50.5474 100" stroke="#A1C7C4" stroke-width="0.4" stroke-miterlimit="10"/>
<path d="M52.7275 1.04639e-05L53.3176 1.56251C53.6979 2.56947 53.6979 3.68055 53.3176 4.68751V4.68751C52.9373 5.69447 52.9373 6.80555 53.3176 7.81251V7.81251C53.6979 8.81947 53.6979 9.93055 53.3176 10.9375V10.9375C52.9373 11.9445 52.9373 13.0555 53.3176 14.0625V14.0625C53.6979 15.0695 53.6979 16.1805 53.3176 17.1875V17.1875C52.9373 18.1945 52.9373 19.3055 53.3176 20.3125V20.3125C53.6979 21.3195 53.6979 22.4305 53.3176 23.4375V23.4375C52.9373 24.4445 52.9373 25.5555 53.3176 26.5625V26.5625C53.6979 27.5695 53.6979 28.6806 53.3176 29.6875V29.6875C52.9373 30.6945 52.9373 31.8056 53.3176 32.8125V32.8125C53.6979 33.8195 53.6979 34.9306 53.3176 35.9375V35.9375C52.9373 36.9445 52.9373 38.0556 53.3176 39.0625V39.0625C53.6979 40.0695 53.6979 41.1806 53.3176 42.1875V42.1875C52.9373 43.1945 52.9373 44.3056 53.3176 45.3125V45.3125C53.6979 46.3195 53.6979 47.4306 53.3176 48.4375V48.4375C52.9373 49.4445 52.9373 50.5556 53.3176 51.5625V51.5625C53.6979 52.5695 53.6979 53.6806 53.3176 54.6875V54.6875C52.9373 55.6945 52.9373 56.8056 53.3176 57.8125V57.8125C53.6979 58.8195 53.6979 59.9306 53.3176 60.9375V60.9375C52.9373 61.9445 52.9373 63.0556 53.3176 64.0625V64.0625C53.6979 65.0695 53.6979 66.1805 53.3176 67.1875V67.1875C52.9373 68.1945 52.9373 69.3055 53.3176 70.3125V70.3125C53.6979 71.3195 53.6979 72.4305 53.3176 73.4375V73.4375C52.9373 74.4445 52.9373 75.5555 53.3176 76.5625V76.5625C53.6979 77.5695 53.6979 78.6805 53.3176 79.6875V79.6875C52.9373 80.6945 52.9373 81.8055 53.3176 82.8125V82.8125C53.6979 83.8195 53.6979 84.9305 53.3176 85.9375V85.9375C52.9373 86.9445 52.9373 88.0555 53.3176 89.0625V89.0625C53.6979 90.0695 53.6979 91.1805 53.3176 92.1875V92.1875C52.9373 93.1945 52.9373 94.3055 53.3176 95.3125V95.3125C53.6979 96.3195 53.6979 97.4305 53.3176 98.4375L52.7275 100" stroke="#A1C7C4" stroke-width="0.4" stroke-miterlimit="10"/>
<path d="M54.9355 1.04639e-05L55.4218 1.56251C55.7384 2.58011 55.7384 3.66991 55.4218 4.68751V4.68751C55.1051 5.70511 55.1051 6.79491 55.4218 7.81251V7.81251C55.7384 8.83011 55.7384 9.91991 55.4218 10.9375V10.9375C55.1051 11.9551 55.1051 13.0449 55.4218 14.0625V14.0625C55.7384 15.0801 55.7384 16.1699 55.4218 17.1875V17.1875C55.1051 18.2051 55.1051 19.2949 55.4218 20.3125V20.3125C55.7384 21.3301 55.7384 22.4199 55.4218 23.4375V23.4375C55.1051 24.4551 55.1051 25.5449 55.4218 26.5625V26.5625C55.7384 27.5801 55.7384 28.6699 55.4218 29.6875V29.6875C55.1051 30.7051 55.1051 31.7949 55.4218 32.8125V32.8125C55.7384 33.8301 55.7384 34.9199 55.4218 35.9375V35.9375C55.1051 36.9551 55.1051 38.0449 55.4218 39.0625V39.0625C55.7384 40.0801 55.7384 41.1699 55.4218 42.1875V42.1875C55.1051 43.2051 55.1051 44.2949 55.4218 45.3125V45.3125C55.7384 46.3301 55.7384 47.4199 55.4218 48.4375V48.4375C55.1051 49.4551 55.1051 50.5449 55.4218 51.5625V51.5625C55.7384 52.5801 55.7384 53.6699 55.4218 54.6875V54.6875C55.1051 55.7051 55.1051 56.7949 55.4218 57.8125V57.8125C55.7384 58.8301 55.7384 59.9199 55.4218 60.9375V60.9375C55.1051 61.9551 55.1051 63.0449 55.4218 64.0625V64.0625C55.7384 65.0801 55.7384 66.1699 55.4218 67.1875V67.1875C55.1051 68.2051 55.1051 69.2949 55.4218 70.3125V70.3125C55.7384 71.3301 55.7384 72.4199 55.4218 73.4375V73.4375C55.1051 74.4551 55.1051 75.5449 55.4218 76.5625V76.5625C55.7384 77.5801 55.7384 78.6699 55.4218 79.6875V79.6875C55.1051 80.7051 55.1051 81.7949 55.4218 82.8125V82.8125C55.7384 83.8301 55.7384 84.9199 55.4218 85.9375V85.9375C55.1051 86.9551 55.1051 88.0449 55.4218 89.0625V89.0625C55.7384 90.0801 55.7384 91.1699 55.4218 92.1875V92.1875C55.1051 93.2051 55.1051 94.2949 55.4218 95.3125V95.3125C55.7384 96.3301 55.7384 97.4199 55.4218 98.4375L54.9355 100" stroke="#A1C7C4" stroke-width="0.4" stroke-miterlimit="10"/>
<path d="M56.9355 1.04639e-05L57.4218 1.56251C57.7384 2.58011 57.7384 3.66991 57.4218 4.68751V4.68751C57.1051 5.70511 57.1051 6.79491 57.4218 7.81251V7.81251C57.7384 8.83011 57.7384 9.91991 57.4218 10.9375V10.9375C57.1051 11.9551 57.1051 13.0449 57.4218 14.0625V14.0625C57.7384 15.0801 57.7384 16.1699 57.4218 17.1875V17.1875C57.1051 18.2051 57.1051 19.2949 57.4218 20.3125V20.3125C57.7384 21.3301 57.7384 22.4199 57.4218 23.4375V23.4375C57.1051 24.4551 57.1051 25.5449 57.4218 26.5625V26.5625C57.7384 27.5801 57.7384 28.6699 57.4218 29.6875V29.6875C57.1051 30.7051 57.1051 31.7949 57.4218 32.8125V32.8125C57.7384 33.8301 57.7384 34.9199 57.4218 35.9375V35.9375C57.1051 36.9551 57.1051 38.0449 57.4218 39.0625V39.0625C57.7384 40.0801 57.7384 41.1699 57.4218 42.1875V42.1875C57.1051 43.2051 57.1051 44.2949 57.4218 45.3125V45.3125C57.7384 46.3301 57.7384 47.4199 57.4218 48.4375V48.4375C57.1051 49.4551 57.1051 50.5449 57.4218 51.5625V51.5625C57.7384 52.5801 57.7384 53.6699 57.4218 54.6875V54.6875C57.1051 55.7051 57.1051 56.7949 57.4218 57.8125V57.8125C57.7384 58.8301 57.7384 59.9199 57.4218 60.9375V60.9375C57.1051 61.9551 57.1051 63.0449 57.4218 64.0625V64.0625C57.7384 65.0801 57.7384 66.1699 57.4218 67.1875V67.1875C57.1051 68.2051 57.1051 69.2949 57.4218 70.3125V70.3125C57.7384 71.3301 57.7384 72.4199 57.4218 73.4375V73.4375C57.1051 74.4551 57.1051 75.5449 57.4218 76.5625V76.5625C57.7384 77.5801 57.7384 78.6699 57.4218 79.6875V79.6875C57.1051 80.7051 57.1051 81.7949 57.4218 82.8125V82.8125C57.7384 83.8301 57.7384 84.9199 57.4218 85.9375V85.9375C57.1051 86.9551 57.1051 88.0449 57.4218 89.0625V89.0625C57.7384 90.0801 57.7384 91.1699 57.4218 92.1875V92.1875C57.1051 93.2051 57.1051 94.2949 57.4218 95.3125V95.3125C57.7384 96.3301 57.7384 97.4199 57.4218 98.4375L56.9355 100" stroke="#A1C7C4" stroke-width="0.4" stroke-miterlimit="10"/>
<g opacity="0.8">
<g filter="url(#filter1_b_942_3928)">
<circle cx="51" cy="86" r="10" fill="url(#paint1_radial_942_3928)"/>
</g>
</g>
<path d="M51.216 90H49.968V89.916C49.968 89.164 50.044 88.464 50.196 87.816C50.348 87.168 50.556 86.56 50.82 85.992C51.092 85.424 51.408 84.884 51.768 84.372C52.136 83.852 52.528 83.344 52.944 82.848H48.54L49.392 81.588H54.264L54.204 81.648C53.572 82.272 53.06 82.896 52.668 83.52C52.276 84.144 51.972 84.792 51.756 85.464C51.54 86.136 51.396 86.844 51.324 87.588C51.252 88.332 51.216 89.136 51.216 90Z" fill="white"/>
<path d="M70 1.04639e-05L70.5901 1.56251C70.9704 2.56947 70.9704 3.68055 70.5901 4.68751V4.68751C70.2098 5.69447 70.2098 6.80555 70.5901 7.81251V7.81251C70.9704 8.81947 70.9704 9.93055 70.5901 10.9375V10.9375C70.2098 11.9445 70.2098 13.0555 70.5901 14.0625V14.0625C70.9704 15.0695 70.9704 16.1805 70.5901 17.1875V17.1875C70.2098 18.1945 70.2098 19.3055 70.5901 20.3125V20.3125C70.9704 21.3195 70.9704 22.4305 70.5901 23.4375V23.4375C70.2098 24.4445 70.2098 25.5555 70.5901 26.5625V26.5625C70.9704 27.5695 70.9704 28.6806 70.5901 29.6875V29.6875C70.2098 30.6945 70.2098 31.8056 70.5901 32.8125V32.8125C70.9704 33.8195 70.9704 34.9306 70.5901 35.9375V35.9375C70.2098 36.9445 70.2098 38.0556 70.5901 39.0625V39.0625C70.9704 40.0695 70.9704 41.1806 70.5901 42.1875V42.1875C70.2098 43.1945 70.2098 44.3056 70.5901 45.3125V45.3125C70.9704 46.3195 70.9704 47.4306 70.5901 48.4375V48.4375C70.2098 49.4445 70.2098 50.5556 70.5901 51.5625V51.5625C70.9704 52.5695 70.9704 53.6806 70.5901 54.6875V54.6875C70.2098 55.6945 70.2098 56.8056 70.5901 57.8125V57.8125C70.9704 58.8195 70.9704 59.9306 70.5901 60.9375V60.9375C70.2098 61.9445 70.2098 63.0556 70.5901 64.0625V64.0625C70.9704 65.0695 70.9704 66.1805 70.5901 67.1875V67.1875C70.2098 68.1945 70.2098 69.3055 70.5901 70.3125V70.3125C70.9704 71.3195 70.9704 72.4305 70.5901 73.4375V73.4375C70.2098 74.4445 70.2098 75.5555 70.5901 76.5625V76.5625C70.9704 77.5695 70.9704 78.6805 70.5901 79.6875V79.6875C70.2098 80.6945 70.2098 81.8055 70.5901 82.8125V82.8125C70.9704 83.8195 70.9704 84.9305 70.5901 85.9375V85.9375C70.2098 86.9445 70.2098 88.0555 70.5901 89.0625V89.0625C70.9704 90.0695 70.9704 91.1805 70.5901 92.1875V92.1875C70.2098 93.1945 70.2098 94.3055 70.5901 95.3125V95.3125C70.9704 96.3195 70.9704 97.4305 70.5901 98.4375L70 100" stroke="#A1C7C4" stroke-width="0.4" stroke-miterlimit="10"/>
<path d="M72.1802 1.04639e-05L72.7703 1.56251C73.1505 2.56947 73.1505 3.68055 72.7703 4.68751V4.68751C72.39 5.69447 72.39 6.80555 72.7703 7.81251V7.81251C73.1505 8.81947 73.1505 9.93055 72.7703 10.9375V10.9375C72.39 11.9445 72.39 13.0555 72.7703 14.0625V14.0625C73.1505 15.0695 73.1505 16.1805 72.7703 17.1875V17.1875C72.39 18.1945 72.39 19.3055 72.7703 20.3125V20.3125C73.1505 21.3195 73.1505 22.4305 72.7703 23.4375V23.4375C72.39 24.4445 72.39 25.5555 72.7703 26.5625V26.5625C73.1505 27.5695 73.1505 28.6806 72.7703 29.6875V29.6875C72.39 30.6945 72.39 31.8056 72.7703 32.8125V32.8125C73.1505 33.8195 73.1505 34.9306 72.7703 35.9375V35.9375C72.39 36.9445 72.39 38.0556 72.7703 39.0625V39.0625C73.1505 40.0695 73.1505 41.1806 72.7703 42.1875V42.1875C72.39 43.1945 72.39 44.3056 72.7703 45.3125V45.3125C73.1505 46.3195 73.1505 47.4306 72.7703 48.4375V48.4375C72.39 49.4445 72.39 50.5556 72.7703 51.5625V51.5625C73.1505 52.5695 73.1505 53.6806 72.7703 54.6875V54.6875C72.39 55.6945 72.39 56.8056 72.7703 57.8125V57.8125C73.1505 58.8195 73.1505 59.9306 72.7703 60.9375V60.9375C72.39 61.9445 72.39 63.0556 72.7703 64.0625V64.0625C73.1505 65.0695 73.1505 66.1805 72.7703 67.1875V67.1875C72.39 68.1945 72.39 69.3055 72.7703 70.3125V70.3125C73.1505 71.3195 73.1505 72.4305 72.7703 73.4375V73.4375C72.39 74.4445 72.39 75.5555 72.7703 76.5625V76.5625C73.1505 77.5695 73.1505 78.6805 72.7703 79.6875V79.6875C72.39 80.6945 72.39 81.8055 72.7703 82.8125V82.8125C73.1505 83.8195 73.1505 84.9305 72.7703 85.9375V85.9375C72.39 86.9445 72.39 88.0555 72.7703 89.0625V89.0625C73.1505 90.0695 73.1505 91.1805 72.7703 92.1875V92.1875C72.39 93.1945 72.39 94.3055 72.7703 95.3125V95.3125C73.1505 96.3195 73.1505 97.4305 72.7703 98.4375L72.1802 100" stroke="#A1C7C4" stroke-width="0.4" stroke-miterlimit="10"/>
<path d="M74.3603 1.04639e-05L74.9539 1.56251C75.3363 2.56909 75.3363 3.68093 74.9539 4.68751V4.68751C74.5715 5.69408 74.5715 6.80593 74.9539 7.81251V7.81251C75.3363 8.81908 75.3363 9.93093 74.9539 10.9375V10.9375C74.5715 11.9441 74.5715 13.0559 74.9539 14.0625V14.0625C75.3363 15.0691 75.3363 16.1809 74.9539 17.1875V17.1875C74.5715 18.1941 74.5715 19.3059 74.9539 20.3125V20.3125C75.3363 21.3191 75.3363 22.4309 74.9539 23.4375V23.4375C74.5715 24.4441 74.5715 25.5559 74.9539 26.5625V26.5625C75.3363 27.5691 75.3363 28.6809 74.9539 29.6875V29.6875C74.5715 30.6941 74.5715 31.8059 74.9539 32.8125V32.8125C75.3363 33.8191 75.3363 34.9309 74.9539 35.9375V35.9375C74.5715 36.9441 74.5715 38.0559 74.9539 39.0625V39.0625C75.3363 40.0691 75.3363 41.1809 74.9539 42.1875V42.1875C74.5715 43.1941 74.5715 44.3059 74.9539 45.3125V45.3125C75.3363 46.3191 75.3363 47.4309 74.9539 48.4375V48.4375C74.5715 49.4441 74.5715 50.5559 74.9539 51.5625V51.5625C75.3363 52.5691 75.3363 53.6809 74.9539 54.6875V54.6875C74.5715 55.6941 74.5715 56.8059 74.9539 57.8125V57.8125C75.3363 58.8191 75.3363 59.9309 74.9539 60.9375V60.9375C74.5715 61.9441 74.5715 63.0559 74.9539 64.0625V64.0625C75.3363 65.0691 75.3363 66.1809 74.9539 67.1875V67.1875C74.5715 68.1941 74.5715 69.3059 74.9539 70.3125V70.3125C75.3363 71.3191 75.3363 72.4309 74.9539 73.4375V73.4375C74.5715 74.4441 74.5715 75.5559 74.9539 76.5625V76.5625C75.3363 77.5691 75.3363 78.6809 74.9539 79.6875V79.6875C74.5715 80.6941 74.5715 81.8059 74.9539 82.8125V82.8125C75.3363 83.8191 75.3363 84.9309 74.9539 85.9375V85.9375C74.5715 86.9441 74.5715 88.0559 74.9539 89.0625V89.0625C75.3363 90.0691 75.3363 91.1809 74.9539 92.1875V92.1875C74.5715 93.1941 74.5715 94.3059 74.9539 95.3125V95.3125C75.3363 96.3191 75.3363 97.4309 74.9539 98.4375L74.3604 100" stroke="#A1C7C4" stroke-width="0.4" stroke-miterlimit="10"/>
<path d="M76.5474 1.04639e-05L77.1374 1.56251C77.5177 2.56947 77.5177 3.68055 77.1374 4.68751V4.68751C76.7572 5.69447 76.7572 6.80555 77.1374 7.81251V7.81251C77.5177 8.81947 77.5177 9.93055 77.1374 10.9375V10.9375C76.7572 11.9445 76.7572 13.0555 77.1374 14.0625V14.0625C77.5177 15.0695 77.5177 16.1805 77.1374 17.1875V17.1875C76.7572 18.1945 76.7572 19.3055 77.1374 20.3125V20.3125C77.5177 21.3195 77.5177 22.4305 77.1374 23.4375V23.4375C76.7572 24.4445 76.7572 25.5555 77.1374 26.5625V26.5625C77.5177 27.5695 77.5177 28.6806 77.1374 29.6875V29.6875C76.7572 30.6945 76.7572 31.8056 77.1374 32.8125V32.8125C77.5177 33.8195 77.5177 34.9306 77.1374 35.9375V35.9375C76.7572 36.9445 76.7572 38.0556 77.1374 39.0625V39.0625C77.5177 40.0695 77.5177 41.1806 77.1374 42.1875V42.1875C76.7572 43.1945 76.7572 44.3056 77.1374 45.3125V45.3125C77.5177 46.3195 77.5177 47.4306 77.1374 48.4375V48.4375C76.7572 49.4445 76.7572 50.5556 77.1374 51.5625V51.5625C77.5177 52.5695 77.5177 53.6806 77.1374 54.6875V54.6875C76.7572 55.6945 76.7572 56.8056 77.1374 57.8125V57.8125C77.5177 58.8195 77.5177 59.9306 77.1374 60.9375V60.9375C76.7572 61.9445 76.7572 63.0556 77.1374 64.0625V64.0625C77.5177 65.0695 77.5177 66.1805 77.1374 67.1875V67.1875C76.7572 68.1945 76.7572 69.3055 77.1374 70.3125V70.3125C77.5177 71.3195 77.5177 72.4305 77.1374 73.4375V73.4375C76.7572 74.4445 76.7572 75.5555 77.1374 76.5625V76.5625C77.5177 77.5695 77.5177 78.6805 77.1374 79.6875V79.6875C76.7572 80.6945 76.7572 81.8055 77.1374 82.8125V82.8125C77.5177 83.8195 77.5177 84.9305 77.1374 85.9375V85.9375C76.7572 86.9445 76.7572 88.0555 77.1374 89.0625V89.0625C77.5177 90.0695 77.5177 91.1805 77.1374 92.1875V92.1875C76.7572 93.1945 76.7572 94.3055 77.1374 95.3125V95.3125C77.5177 96.3195 77.5177 97.4305 77.1374 98.4375L76.5474 100" stroke="#A1C7C4" stroke-width="0.4" stroke-miterlimit="10"/>
<path d="M78.7275 1.04639e-05L79.3176 1.56251C79.6979 2.56947 79.6979 3.68055 79.3176 4.68751V4.68751C78.9373 5.69447 78.9373 6.80555 79.3176 7.81251V7.81251C79.6979 8.81947 79.6979 9.93055 79.3176 10.9375V10.9375C78.9373 11.9445 78.9373 13.0555 79.3176 14.0625V14.0625C79.6979 15.0695 79.6979 16.1805 79.3176 17.1875V17.1875C78.9373 18.1945 78.9373 19.3055 79.3176 20.3125V20.3125C79.6979 21.3195 79.6979 22.4305 79.3176 23.4375V23.4375C78.9373 24.4445 78.9373 25.5555 79.3176 26.5625V26.5625C79.6979 27.5695 79.6979 28.6806 79.3176 29.6875V29.6875C78.9373 30.6945 78.9373 31.8056 79.3176 32.8125V32.8125C79.6979 33.8195 79.6979 34.9306 79.3176 35.9375V35.9375C78.9373 36.9445 78.9373 38.0556 79.3176 39.0625V39.0625C79.6979 40.0695 79.6979 41.1806 79.3176 42.1875V42.1875C78.9373 43.1945 78.9373 44.3056 79.3176 45.3125V45.3125C79.6979 46.3195 79.6979 47.4306 79.3176 48.4375V48.4375C78.9373 49.4445 78.9373 50.5556 79.3176 51.5625V51.5625C79.6979 52.5695 79.6979 53.6806 79.3176 54.6875V54.6875C78.9373 55.6945 78.9373 56.8056 79.3176 57.8125V57.8125C79.6979 58.8195 79.6979 59.9306 79.3176 60.9375V60.9375C78.9373 61.9445 78.9373 63.0556 79.3176 64.0625V64.0625C79.6979 65.0695 79.6979 66.1805 79.3176 67.1875V67.1875C78.9373 68.1945 78.9373 69.3055 79.3176 70.3125V70.3125C79.6979 71.3195 79.6979 72.4305 79.3176 73.4375V73.4375C78.9373 74.4445 78.9373 75.5555 79.3176 76.5625V76.5625C79.6979 77.5695 79.6979 78.6805 79.3176 79.6875V79.6875C78.9373 80.6945 78.9373 81.8055 79.3176 82.8125V82.8125C79.6979 83.8195 79.6979 84.9305 79.3176 85.9375V85.9375C78.9373 86.9445 78.9373 88.0555 79.3176 89.0625V89.0625C79.6979 90.0695 79.6979 91.1805 79.3176 92.1875V92.1875C78.9373 93.1945 78.9373 94.3055 79.3176 95.3125V95.3125C79.6979 96.3195 79.6979 97.4305 79.3176 98.4375L78.7275 100" stroke="#A1C7C4" stroke-width="0.4" stroke-miterlimit="10"/>
<path d="M80.9077 1.04639e-05L81.4978 1.56251C81.8781 2.56947 81.8781 3.68055 81.4978 4.68751V4.68751C81.1175 5.69447 81.1175 6.80555 81.4978 7.81251V7.81251C81.8781 8.81947 81.8781 9.93055 81.4978 10.9375V10.9375C81.1175 11.9445 81.1175 13.0555 81.4978 14.0625V14.0625C81.8781 15.0695 81.8781 16.1805 81.4978 17.1875V17.1875C81.1175 18.1945 81.1175 19.3055 81.4978 20.3125V20.3125C81.8781 21.3195 81.8781 22.4305 81.4978 23.4375V23.4375C81.1175 24.4445 81.1175 25.5555 81.4978 26.5625V26.5625C81.8781 27.5695 81.8781 28.6806 81.4978 29.6875V29.6875C81.1175 30.6945 81.1175 31.8056 81.4978 32.8125V32.8125C81.8781 33.8195 81.8781 34.9306 81.4978 35.9375V35.9375C81.1175 36.9445 81.1175 38.0556 81.4978 39.0625V39.0625C81.8781 40.0695 81.8781 41.1806 81.4978 42.1875V42.1875C81.1175 43.1945 81.1175 44.3056 81.4978 45.3125V45.3125C81.8781 46.3195 81.8781 47.4306 81.4978 48.4375V48.4375C81.1175 49.4445 81.1175 50.5556 81.4978 51.5625V51.5625C81.8781 52.5695 81.8781 53.6806 81.4978 54.6875V54.6875C81.1175 55.6945 81.1175 56.8056 81.4978 57.8125V57.8125C81.8781 58.8195 81.8781 59.9306 81.4978 60.9375V60.9375C81.1175 61.9445 81.1175 63.0556 81.4978 64.0625V64.0625C81.8781 65.0695 81.8781 66.1805 81.4978 67.1875V67.1875C81.1175 68.1945 81.1175 69.3055 81.4978 70.3125V70.3125C81.8781 71.3195 81.8781 72.4305 81.4978 73.4375V73.4375C81.1175 74.4445 81.1175 75.5555 81.4978 76.5625V76.5625C81.8781 77.5695 81.8781 78.6805 81.4978 79.6875V79.6875C81.1175 80.6945 81.1175 81.8055 81.4978 82.8125V82.8125C81.8781 83.8195 81.8781 84.9305 81.4978 85.9375V85.9375C81.1175 86.9445 81.1175 88.0555 81.4978 89.0625V89.0625C81.8781 90.0695 81.8781 91.1805 81.4978 92.1875V92.1875C81.1175 93.1945 81.1175 94.3055 81.4978 95.3125V95.3125C81.8781 96.3195 81.8781 97.4305 81.4978 98.4375L80.9077 100" stroke="#A1C7C4" stroke-width="0.4" stroke-miterlimit="10"/>
<path d="M83.0879 1.04639e-05L83.678 1.56251C84.0583 2.56947 84.0583 3.68055 83.678 4.68751V4.68751C83.2977 5.69447 83.2977 6.80555 83.678 7.81251V7.81251C84.0583 8.81947 84.0583 9.93055 83.678 10.9375V10.9375C83.2977 11.9445 83.2977 13.0555 83.678 14.0625V14.0625C84.0583 15.0695 84.0583 16.1805 83.678 17.1875V17.1875C83.2977 18.1945 83.2977 19.3055 83.678 20.3125V20.3125C84.0583 21.3195 84.0583 22.4305 83.678 23.4375V23.4375C83.2977 24.4445 83.2977 25.5555 83.678 26.5625V26.5625C84.0583 27.5695 84.0583 28.6806 83.678 29.6875V29.6875C83.2977 30.6945 83.2977 31.8056 83.678 32.8125V32.8125C84.0583 33.8195 84.0583 34.9306 83.678 35.9375V35.9375C83.2977 36.9445 83.2977 38.0556 83.678 39.0625V39.0625C84.0583 40.0695 84.0583 41.1806 83.678 42.1875V42.1875C83.2977 43.1945 83.2977 44.3056 83.678 45.3125V45.3125C84.0583 46.3195 84.0583 47.4306 83.678 48.4375V48.4375C83.2977 49.4445 83.2977 50.5556 83.678 51.5625V51.5625C84.0583 52.5695 84.0583 53.6806 83.678 54.6875V54.6875C83.2977 55.6945 83.2977 56.8056 83.678 57.8125V57.8125C84.0583 58.8195 84.0583 59.9306 83.678 60.9375V60.9375C83.2977 61.9445 83.2977 63.0556 83.678 64.0625V64.0625C84.0583 65.0695 84.0583 66.1805 83.678 67.1875V67.1875C83.2977 68.1945 83.2977 69.3055 83.678 70.3125V70.3125C84.0583 71.3195 84.0583 72.4305 83.678 73.4375V73.4375C83.2977 74.4445 83.2977 75.5555 83.678 76.5625V76.5625C84.0583 77.5695 84.0583 78.6805 83.678 79.6875V79.6875C83.2977 80.6945 83.2977 81.8055 83.678 82.8125V82.8125C84.0583 83.8195 84.0583 84.9305 83.678 85.9375V85.9375C83.2977 86.9445 83.2977 88.0555 83.678 89.0625V89.0625C84.0583 90.0695 84.0583 91.1805 83.678 92.1875V92.1875C83.2977 93.1945 83.2977 94.3055 83.678 95.3125V95.3125C84.0583 96.3195 84.0583 97.4305 83.678 98.4375L83.0879 100" stroke="#A1C7C4" stroke-width="0.4" stroke-miterlimit="10"/>
<path d="M85.2681 1.04639e-05L85.8616 1.56251C86.244 2.56909 86.244 3.68093 85.8616 4.68751V4.68751C85.4792 5.69409 85.4792 6.80593 85.8616 7.81251V7.81251C86.244 8.81908 86.244 9.93093 85.8616 10.9375V10.9375C85.4792 11.9441 85.4792 13.0559 85.8616 14.0625V14.0625C86.244 15.0691 86.244 16.1809 85.8616 17.1875V17.1875C85.4792 18.1941 85.4792 19.3059 85.8616 20.3125V20.3125C86.244 21.3191 86.244 22.4309 85.8616 23.4375V23.4375C85.4792 24.4441 85.4792 25.5559 85.8616 26.5625V26.5625C86.244 27.5691 86.244 28.6809 85.8616 29.6875V29.6875C85.4792 30.6941 85.4792 31.8059 85.8616 32.8125V32.8125C86.244 33.8191 86.244 34.9309 85.8616 35.9375V35.9375C85.4792 36.9441 85.4792 38.0559 85.8616 39.0625V39.0625C86.244 40.0691 86.244 41.1809 85.8616 42.1875V42.1875C85.4792 43.1941 85.4792 44.3059 85.8616 45.3125V45.3125C86.244 46.3191 86.244 47.4309 85.8616 48.4375V48.4375C85.4792 49.4441 85.4792 50.5559 85.8616 51.5625V51.5625C86.244 52.5691 86.244 53.6809 85.8616 54.6875V54.6875C85.4792 55.6941 85.4792 56.8059 85.8616 57.8125V57.8125C86.244 58.8191 86.244 59.9309 85.8616 60.9375V60.9375C85.4792 61.9441 85.4792 63.0559 85.8616 64.0625V64.0625C86.244 65.0691 86.244 66.1809 85.8616 67.1875V67.1875C85.4792 68.1941 85.4792 69.3059 85.8616 70.3125V70.3125C86.244 71.3191 86.244 72.4309 85.8616 73.4375V73.4375C85.4792 74.4441 85.4792 75.5559 85.8616 76.5625V76.5625C86.244 77.5691 86.244 78.6809 85.8616 79.6875V79.6875C85.4792 80.6941 85.4792 81.8059 85.8616 82.8125V82.8125C86.244 83.8191 86.244 84.9309 85.8616 85.9375V85.9375C85.4792 86.9441 85.4792 88.0559 85.8616 89.0625V89.0625C86.244 90.0691 86.244 91.1809 85.8616 92.1875V92.1875C85.4792 93.1941 85.4792 94.3059 85.8616 95.3125V95.3125C86.244 96.3191 86.244 97.4309 85.8616 98.4375L85.2681 100" stroke="#A1C7C4" stroke-width="0.4" stroke-miterlimit="10"/>
<g opacity="0.8">
<g filter="url(#filter2_b_942_3928)">
<circle cx="78" cy="86" r="10" fill="url(#paint2_radial_942_3928)"/>
</g>
</g>
<path d="M77.568 85.776C77.36 85.672 77.16 85.552 76.968 85.416C76.776 85.272 76.608 85.116 76.464 84.948C76.32 84.772 76.204 84.58 76.116 84.372C76.036 84.164 75.996 83.932 75.996 83.676C75.996 83.316 76.068 83.004 76.212 82.74C76.364 82.468 76.56 82.244 76.8 82.068C77.048 81.892 77.324 81.764 77.628 81.684C77.94 81.596 78.26 81.552 78.588 81.552C78.908 81.552 79.216 81.596 79.512 81.684C79.808 81.772 80.068 81.908 80.292 82.092C80.516 82.268 80.696 82.488 80.832 82.752C80.968 83.016 81.036 83.324 81.036 83.676C81.036 83.908 80.984 84.124 80.88 84.324C80.784 84.524 80.652 84.704 80.484 84.864C80.324 85.016 80.136 85.148 79.92 85.26C79.704 85.364 79.484 85.444 79.26 85.5C79.548 85.58 79.832 85.692 80.112 85.836C80.4 85.98 80.656 86.156 80.88 86.364C81.112 86.572 81.3 86.812 81.444 87.084C81.588 87.356 81.656 87.656 81.648 87.984C81.648 88.344 81.568 88.656 81.408 88.92C81.248 89.184 81.028 89.4 80.748 89.568C80.476 89.736 80.148 89.864 79.764 89.952C79.388 90.032 78.972 90.072 78.516 90.072C78.14 90.072 77.772 90.044 77.412 89.988C77.06 89.924 76.744 89.816 76.464 89.664C76.192 89.504 75.968 89.288 75.792 89.016C75.624 88.736 75.54 88.38 75.54 87.948C75.54 87.676 75.604 87.428 75.732 87.204C75.86 86.98 76.02 86.78 76.212 86.604C76.412 86.42 76.632 86.26 76.872 86.124C77.112 85.988 77.344 85.872 77.568 85.776ZM77.748 85.872C77.54 85.96 77.364 86.12 77.22 86.352C77.084 86.584 76.984 86.852 76.92 87.156C76.856 87.452 76.836 87.764 76.86 88.092C76.884 88.412 76.956 88.708 77.076 88.98C77.204 89.252 77.384 89.476 77.616 89.652C77.856 89.828 78.156 89.916 78.516 89.916C78.9 89.916 79.216 89.86 79.464 89.748C79.72 89.628 79.916 89.476 80.052 89.292C80.196 89.108 80.288 88.904 80.328 88.68C80.376 88.448 80.38 88.216 80.34 87.984C80.276 87.576 80.156 87.264 79.98 87.048C79.812 86.832 79.608 86.664 79.368 86.544C79.136 86.416 78.876 86.308 78.588 86.22C78.308 86.132 78.028 86.016 77.748 85.872ZM79.056 85.428C79.224 85.356 79.368 85.216 79.488 85.008C79.616 84.8 79.712 84.56 79.776 84.288C79.848 84.008 79.88 83.716 79.872 83.412C79.864 83.108 79.812 82.832 79.716 82.584C79.628 82.328 79.488 82.12 79.296 81.96C79.112 81.792 78.868 81.708 78.564 81.708C78.18 81.708 77.864 81.772 77.616 81.9C77.376 82.02 77.2 82.188 77.088 82.404C76.984 82.62 76.944 82.872 76.968 83.16C77 83.448 77.096 83.756 77.256 84.084C77.376 84.316 77.496 84.504 77.616 84.648C77.736 84.784 77.868 84.9 78.012 84.996C78.156 85.084 78.312 85.16 78.48 85.224C78.648 85.28 78.84 85.348 79.056 85.428Z" fill="white"/>
<path d="M19.0357 118.627H19.5409C22.2601 118.627 24.5632 117.067 24.5632 115.315C24.5632 114.035 23.3448 113.358 20.8187 113.122C22.4978 112.504 23.7162 111.282 23.7162 110.149C23.7162 108.81 22.052 108.25 19.4814 108.191L18.9019 108.177C21.3091 108.427 22.5275 108.883 22.5275 110.223C22.5275 111.474 21.4577 112.666 19.9272 113.269C22.4532 113.593 23.3448 114.255 23.3448 115.433C23.3448 116.89 22.0669 118.082 19.0357 118.627ZM18.0104 118.627V108.177H17V118.627H18.0104Z" fill="#51FFF4"/>
<path d="M33.6173 110.532C33.6173 108.824 31.4182 108.177 29.1596 108.177H28.6247C30.9724 108.471 32.4286 109.06 32.4286 110.635C32.4286 111.989 31.4033 113.151 29.3082 113.578L32.8 118.627H34.0779L30.4523 113.519C32.176 113.019 33.6173 111.945 33.6173 110.532ZM27.7331 118.627V108.177H26.7227V118.627H27.7331Z" fill="#51FFF4"/>
<path d="M39.3258 108.177L42.7285 109.281V108.177H39.3258ZM38.9246 108.221C36.4877 109.06 35.2247 111.474 35.2247 113.917C35.2247 116.949 37.2901 118.803 39.9796 118.803C41.6289 118.803 43.0554 118.097 43.6349 116.831C42.9811 117.552 41.8072 118.038 40.4848 118.038C38.0479 118.038 36.1757 116.375 36.1757 113.431V113.122H43.2337V112.504H36.2351C36.4729 110.679 37.3941 108.913 38.9246 108.221Z" fill="#51FFF4"/>
<path d="M51.9361 118.627H53.006L49.0386 108.177H47.9688L51.9361 118.627ZM45.6954 118.082C47.1961 116.802 48.5334 116.228 50.1382 116.169C48.7563 115.845 46.4532 116.551 45.3833 117.744L47.0921 113.49H46.1114L44.0609 118.627H45.0564L45.6954 118.082Z" fill="#51FFF4"/>
<path d="M56.5326 108.177H55.5222V118.627H56.5326V108.177ZM60.0691 108.177H57.3202L60.0691 109.384V108.177ZM51.9858 108.177V109.384L54.7347 108.177H51.9858Z" fill="#51FFF4"/>
<path d="M62.1421 118.627H63.1525V108.177H62.1421V118.627ZM69.2298 118.627H70.2402V108.177H69.2298V118.627ZM63.836 113.711H68.5463V113.093H63.836V113.711Z" fill="#51FFF4"/>
<path d="M73.5046 118.627H74.515V108.177H73.5046V118.627Z" fill="#51FFF4"/>
<path d="M85.6907 113.667V108L84.5466 108.177L85.6907 113.667ZM78.6476 108L77.7115 108.412L84.4575 118.627H85.3936V118.185L78.6476 108ZM77.7115 118.627H78.8556L78.2018 113.284L77.7115 118.627Z" fill="#51FFF4"/>
<path d="M92.1411 108.177L96.1828 109.281V108.177H92.1411ZM92.8841 118.803C93.8202 118.803 94.9049 118.612 95.6478 117.847C95.0386 118.185 94.2362 118.274 93.6567 118.274C91.309 118.274 88.991 116.875 88.991 113.416C88.991 111.282 89.9569 109.03 91.7399 108.221C89.3031 109.06 88.0401 111.474 88.0401 113.917C88.0401 116.949 90.046 118.803 92.8841 118.803ZM97 118.803V113.519H93.0475V114.138H95.9896V117.508L97 118.803Z" fill="#51FFF4"/>
<path d="M19.526 133.036C19.206 133.036 18.91 132.984 18.638 132.88C18.37 132.772 18.136 132.622 17.936 132.43C17.74 132.238 17.586 132.012 17.474 131.752C17.366 131.492 17.312 131.208 17.312 130.9C17.312 130.592 17.366 130.308 17.474 130.048C17.586 129.788 17.742 129.562 17.942 129.37C18.142 129.178 18.376 129.03 18.644 128.926C18.916 128.818 19.212 128.764 19.532 128.764C19.852 128.764 20.144 128.814 20.408 128.914C20.676 129.014 20.904 129.166 21.092 129.37L20.816 129.652C20.64 129.476 20.446 129.35 20.234 129.274C20.022 129.198 19.794 129.16 19.55 129.16C19.29 129.16 19.05 129.204 18.83 129.292C18.614 129.376 18.424 129.498 18.26 129.658C18.1 129.814 17.974 129.998 17.882 130.21C17.794 130.418 17.75 130.648 17.75 130.9C17.75 131.148 17.794 131.378 17.882 131.59C17.974 131.802 18.1 131.988 18.26 132.148C18.424 132.304 18.614 132.426 18.83 132.514C19.05 132.598 19.288 132.64 19.544 132.64C19.784 132.64 20.01 132.604 20.222 132.532C20.438 132.46 20.636 132.338 20.816 132.166L21.068 132.502C20.868 132.678 20.634 132.812 20.366 132.904C20.098 132.992 19.818 133.036 19.526 133.036ZM20.642 132.448V130.9H21.068V132.502L20.642 132.448ZM24.9766 133.036C24.4406 133.036 24.0186 132.882 23.7106 132.574C23.4026 132.266 23.2486 131.81 23.2486 131.206V128.8H23.6926V131.188C23.6926 131.684 23.8046 132.05 24.0286 132.286C24.2526 132.522 24.5686 132.64 24.9766 132.64C25.3886 132.64 25.7066 132.522 25.9306 132.286C26.1546 132.05 26.2666 131.684 26.2666 131.188V128.8H26.6986V131.206C26.6986 131.81 26.5446 132.266 26.2366 132.574C25.9326 132.882 25.5126 133.036 24.9766 133.036ZM28.9966 133V128.8H29.4406V133H28.9966ZM31.7671 133V128.8H33.4771C33.9251 128.8 34.3171 128.89 34.6531 129.07C34.9931 129.246 35.2571 129.492 35.4451 129.808C35.6331 130.124 35.7271 130.488 35.7271 130.9C35.7271 131.312 35.6331 131.676 35.4451 131.992C35.2571 132.308 34.9931 132.556 34.6531 132.736C34.3171 132.912 33.9251 133 33.4771 133H31.7671ZM32.2111 132.616H33.4531C33.8251 132.616 34.1471 132.544 34.4191 132.4C34.6951 132.252 34.9091 132.05 35.0611 131.794C35.2131 131.534 35.2891 131.236 35.2891 130.9C35.2891 130.56 35.2131 130.262 35.0611 130.006C34.9091 129.75 34.6951 129.55 34.4191 129.406C34.1471 129.258 33.8251 129.184 33.4531 129.184H32.2111V132.616ZM38.0802 130.678H40.3002V131.056H38.0802V130.678ZM38.1282 132.616H40.6542V133H37.6842V128.8H40.5642V129.184H38.1282V132.616ZM42.6578 133V128.8H44.3678C44.8158 128.8 45.2078 128.89 45.5438 129.07C45.8838 129.246 46.1478 129.492 46.3358 129.808C46.5238 130.124 46.6178 130.488 46.6178 130.9C46.6178 131.312 46.5238 131.676 46.3358 131.992C46.1478 132.308 45.8838 132.556 45.5438 132.736C45.2078 132.912 44.8158 133 44.3678 133H42.6578ZM43.1018 132.616H44.3438C44.7158 132.616 45.0378 132.544 45.3098 132.4C45.5858 132.252 45.7998 132.05 45.9518 131.794C46.1038 131.534 46.1798 131.236 46.1798 130.9C46.1798 130.56 46.1038 130.262 45.9518 130.006C45.7998 129.75 45.5858 129.55 45.3098 129.406C45.0378 129.258 44.7158 129.184 44.3438 129.184H43.1018V132.616ZM51.1052 133V128.8H52.9172C53.3852 128.8 53.7472 128.894 54.0032 129.082C54.2632 129.27 54.3932 129.536 54.3932 129.88C54.3932 130.108 54.3392 130.3 54.2312 130.456C54.1272 130.612 53.9832 130.73 53.7992 130.81C53.6192 130.89 53.4212 130.93 53.2052 130.93L53.3072 130.786C53.5752 130.786 53.8052 130.828 53.9972 130.912C54.1932 130.992 54.3452 131.114 54.4532 131.278C54.5612 131.438 54.6152 131.638 54.6152 131.878C54.6152 132.234 54.4832 132.51 54.2192 132.706C53.9592 132.902 53.5652 133 53.0372 133H51.1052ZM51.5492 132.634H53.0312C53.3992 132.634 53.6812 132.572 53.8772 132.448C54.0732 132.32 54.1712 132.118 54.1712 131.842C54.1712 131.57 54.0732 131.372 53.8772 131.248C53.6812 131.12 53.3992 131.056 53.0312 131.056H51.5012V130.69H52.8872C53.2232 130.69 53.4832 130.626 53.6672 130.498C53.8552 130.37 53.9492 130.18 53.9492 129.928C53.9492 129.672 53.8552 129.482 53.6672 129.358C53.4832 129.23 53.2232 129.166 52.8872 129.166H51.5492V132.634ZM56.5886 133V128.8H58.1606C58.5166 128.8 58.8226 128.858 59.0786 128.974C59.3346 129.086 59.5306 129.25 59.6666 129.466C59.8066 129.678 59.8766 129.936 59.8766 130.24C59.8766 130.536 59.8066 130.792 59.6666 131.008C59.5306 131.22 59.3346 131.384 59.0786 131.5C58.8226 131.612 58.5166 131.668 58.1606 131.668H56.8346L57.0326 131.464V133H56.5886ZM59.4566 133L58.3766 131.476H58.8566L59.9426 133H59.4566ZM57.0326 131.5L56.8346 131.29H58.1486C58.5686 131.29 58.8866 131.198 59.1026 131.014C59.3226 130.83 59.4326 130.572 59.4326 130.24C59.4326 129.904 59.3226 129.644 59.1026 129.46C58.8866 129.276 58.5686 129.184 58.1486 129.184H56.8346L57.0326 128.974V131.5ZM62.2805 130.678H64.5005V131.056H62.2805V130.678ZM62.3285 132.616H64.8545V133H61.8845V128.8H64.7645V129.184H62.3285V132.616ZM66.1862 133L68.1062 128.8H68.5442L70.4642 133H69.9962L68.2322 129.058H68.4122L66.6482 133H66.1862ZM66.9422 131.878L67.0742 131.518H69.5162L69.6482 131.878H66.9422ZM72.7241 133V129.184H71.2481V128.8H74.6441V129.184H73.1681V133H72.7241ZM79.3854 128.8H79.8234V133H79.3854V128.8ZM76.7574 133H76.3134V128.8H76.7574V133ZM79.4274 131.062H76.7094V130.672H79.4274V131.062ZM85.0805 130.834H87.3005V131.218H85.0805V130.834ZM85.1285 133H84.6845V128.8H87.5645V129.184H85.1285V133ZM91.2247 133.036C90.9087 133.036 90.6147 132.984 90.3427 132.88C90.0747 132.772 89.8407 132.622 89.6407 132.43C89.4447 132.234 89.2907 132.008 89.1787 131.752C89.0707 131.492 89.0167 131.208 89.0167 130.9C89.0167 130.592 89.0707 130.31 89.1787 130.054C89.2907 129.794 89.4447 129.568 89.6407 129.376C89.8407 129.18 90.0747 129.03 90.3427 128.926C90.6107 128.818 90.9047 128.764 91.2247 128.764C91.5407 128.764 91.8327 128.818 92.1007 128.926C92.3687 129.03 92.6007 129.178 92.7967 129.37C92.9967 129.562 93.1507 129.788 93.2587 130.048C93.3707 130.308 93.4267 130.592 93.4267 130.9C93.4267 131.208 93.3707 131.492 93.2587 131.752C93.1507 132.012 92.9967 132.238 92.7967 132.43C92.6007 132.622 92.3687 132.772 92.1007 132.88C91.8327 132.984 91.5407 133.036 91.2247 133.036ZM91.2247 132.64C91.4767 132.64 91.7087 132.598 91.9207 132.514C92.1367 132.426 92.3227 132.304 92.4787 132.148C92.6387 131.988 92.7627 131.804 92.8507 131.596C92.9387 131.384 92.9827 131.152 92.9827 130.9C92.9827 130.648 92.9387 130.418 92.8507 130.21C92.7627 129.998 92.6387 129.814 92.4787 129.658C92.3227 129.498 92.1367 129.376 91.9207 129.292C91.7087 129.204 91.4767 129.16 91.2247 129.16C90.9727 129.16 90.7387 129.204 90.5227 129.292C90.3067 129.376 90.1187 129.498 89.9587 129.658C89.8027 129.814 89.6787 129.998 89.5867 130.21C89.4987 130.418 89.4547 130.648 89.4547 130.9C89.4547 131.148 89.4987 131.378 89.5867 131.59C89.6787 131.802 89.8027 131.988 89.9587 132.148C90.1187 132.304 90.3067 132.426 90.5227 132.514C90.7387 132.598 90.9727 132.64 91.2247 132.64ZM95.3819 133V128.8H96.9539C97.3099 128.8 97.6159 128.858 97.8719 128.974C98.1279 129.086 98.3239 129.25 98.4599 129.466C98.5999 129.678 98.6699 129.936 98.6699 130.24C98.6699 130.536 98.5999 130.792 98.4599 131.008C98.3239 131.22 98.1279 131.384 97.8719 131.5C97.6159 131.612 97.3099 131.668 96.9539 131.668H95.6279L95.8259 131.464V133H95.3819ZM98.2499 133L97.1699 131.476H97.6499L98.7359 133H98.2499ZM95.8259 131.5L95.6279 131.29H96.9419C97.3619 131.29 97.6799 131.198 97.8959 131.014C98.1159 130.83 98.2259 130.572 98.2259 130.24C98.2259 129.904 98.1159 129.644 97.8959 129.46C97.6799 129.276 97.3619 129.184 96.9419 129.184H95.6279L95.8259 128.974V131.5ZM105.032 133.036C104.716 133.036 104.424 132.984 104.156 132.88C103.888 132.772 103.656 132.622 103.46 132.43C103.264 132.238 103.11 132.012 102.998 131.752C102.89 131.492 102.836 131.208 102.836 130.9C102.836 130.592 102.89 130.308 102.998 130.048C103.11 129.788 103.264 129.562 103.46 129.37C103.66 129.178 103.894 129.03 104.162 128.926C104.43 128.818 104.722 128.764 105.038 128.764C105.342 128.764 105.628 128.816 105.896 128.92C106.164 129.02 106.39 129.172 106.574 129.376L106.292 129.658C106.12 129.482 105.93 129.356 105.722 129.28C105.514 129.2 105.29 129.16 105.05 129.16C104.798 129.16 104.564 129.204 104.348 129.292C104.132 129.376 103.944 129.498 103.784 129.658C103.624 129.814 103.498 129.998 103.406 130.21C103.318 130.418 103.274 130.648 103.274 130.9C103.274 131.152 103.318 131.384 103.406 131.596C103.498 131.804 103.624 131.988 103.784 132.148C103.944 132.304 104.132 132.426 104.348 132.514C104.564 132.598 104.798 132.64 105.05 132.64C105.29 132.64 105.514 132.6 105.722 132.52C105.93 132.44 106.12 132.312 106.292 132.136L106.574 132.418C106.39 132.622 106.164 132.776 105.896 132.88C105.628 132.984 105.34 133.036 105.032 133.036ZM107.703 133L109.623 128.8H110.061L111.981 133H111.513L109.749 129.058H109.929L108.165 133H107.703ZM108.459 131.878L108.591 131.518H111.033L111.165 131.878H108.459ZM113.636 133V128.8H114.08V132.616H116.432V133H113.636ZM118.129 133V128.8H118.495L120.415 132.076H120.223L122.125 128.8H122.491V133H122.065V129.466H122.167L120.415 132.466H120.205L118.441 129.466H118.555V133H118.129ZM128.37 133.036C128.098 133.036 127.856 132.992 127.644 132.904C127.432 132.812 127.264 132.686 127.14 132.526C127.02 132.366 126.96 132.18 126.96 131.968C126.96 131.788 127 131.624 127.08 131.476C127.16 131.324 127.288 131.176 127.464 131.032C127.644 130.884 127.882 130.73 128.178 130.57C128.43 130.43 128.626 130.31 128.766 130.21C128.91 130.106 129.012 130.008 129.072 129.916C129.132 129.82 129.162 129.718 129.162 129.61C129.162 129.454 129.108 129.328 129 129.232C128.896 129.136 128.746 129.088 128.55 129.088C128.338 129.088 128.174 129.142 128.058 129.25C127.942 129.354 127.884 129.49 127.884 129.658C127.884 129.742 127.896 129.822 127.92 129.898C127.948 129.974 127.998 130.058 128.07 130.15C128.146 130.242 128.25 130.358 128.382 130.498L130.602 132.784L130.356 133.066L128.04 130.684C127.9 130.536 127.788 130.408 127.704 130.3C127.624 130.188 127.568 130.082 127.536 129.982C127.504 129.882 127.488 129.776 127.488 129.664C127.488 129.484 127.53 129.328 127.614 129.196C127.702 129.06 127.826 128.956 127.986 128.884C128.146 128.808 128.334 128.77 128.55 128.77C128.746 128.77 128.916 128.804 129.06 128.872C129.208 128.936 129.322 129.03 129.402 129.154C129.486 129.278 129.528 129.428 129.528 129.604C129.528 129.756 129.49 129.898 129.414 130.03C129.342 130.162 129.222 130.292 129.054 130.42C128.886 130.544 128.658 130.684 128.37 130.84C128.118 130.98 127.918 131.108 127.77 131.224C127.626 131.34 127.524 131.454 127.464 131.566C127.404 131.674 127.374 131.794 127.374 131.926C127.374 132.078 127.416 132.212 127.5 132.328C127.588 132.44 127.708 132.528 127.86 132.592C128.016 132.652 128.194 132.682 128.394 132.682C128.674 132.682 128.924 132.624 129.144 132.508C129.364 132.392 129.548 132.216 129.696 131.98C129.848 131.744 129.958 131.448 130.026 131.092L130.368 131.2C130.292 131.6 130.162 131.936 129.978 132.208C129.794 132.48 129.566 132.686 129.294 132.826C129.022 132.966 128.714 133.036 128.37 133.036ZM18.08 138.834H20.3V139.218H18.08V138.834ZM18.128 141H17.684V136.8H20.564V137.184H18.128V141ZM24.2241 141.036C23.9081 141.036 23.6141 140.984 23.3421 140.88C23.0741 140.772 22.8401 140.622 22.6401 140.43C22.4441 140.234 22.2901 140.008 22.1781 139.752C22.0701 139.492 22.0161 139.208 22.0161 138.9C22.0161 138.592 22.0701 138.31 22.1781 138.054C22.2901 137.794 22.4441 137.568 22.6401 137.376C22.8401 137.18 23.0741 137.03 23.3421 136.926C23.6101 136.818 23.9041 136.764 24.2241 136.764C24.5401 136.764 24.8321 136.818 25.1001 136.926C25.3681 137.03 25.6001 137.178 25.7961 137.37C25.9961 137.562 26.1501 137.788 26.2581 138.048C26.3701 138.308 26.4261 138.592 26.4261 138.9C26.4261 139.208 26.3701 139.492 26.2581 139.752C26.1501 140.012 25.9961 140.238 25.7961 140.43C25.6001 140.622 25.3681 140.772 25.1001 140.88C24.8321 140.984 24.5401 141.036 24.2241 141.036ZM24.2241 140.64C24.4761 140.64 24.7081 140.598 24.9201 140.514C25.1361 140.426 25.3221 140.304 25.4781 140.148C25.6381 139.988 25.7621 139.804 25.8501 139.596C25.9381 139.384 25.9821 139.152 25.9821 138.9C25.9821 138.648 25.9381 138.418 25.8501 138.21C25.7621 137.998 25.6381 137.814 25.4781 137.658C25.3221 137.498 25.1361 137.376 24.9201 137.292C24.7081 137.204 24.4761 137.16 24.2241 137.16C23.9721 137.16 23.7381 137.204 23.5221 137.292C23.3061 137.376 23.1181 137.498 22.9581 137.658C22.8021 137.814 22.6781 137.998 22.5861 138.21C22.4981 138.418 22.4541 138.648 22.4541 138.9C22.4541 139.148 22.4981 139.378 22.5861 139.59C22.6781 139.802 22.8021 139.988 22.9581 140.148C23.1181 140.304 23.3061 140.426 23.5221 140.514C23.7381 140.598 23.9721 140.64 24.2241 140.64ZM30.2053 141.036C29.8893 141.036 29.5973 140.984 29.3293 140.88C29.0613 140.772 28.8293 140.622 28.6333 140.43C28.4373 140.238 28.2833 140.012 28.1713 139.752C28.0633 139.492 28.0093 139.208 28.0093 138.9C28.0093 138.592 28.0633 138.308 28.1713 138.048C28.2833 137.788 28.4373 137.562 28.6333 137.37C28.8333 137.178 29.0673 137.03 29.3353 136.926C29.6033 136.818 29.8953 136.764 30.2113 136.764C30.5153 136.764 30.8013 136.816 31.0693 136.92C31.3373 137.02 31.5633 137.172 31.7473 137.376L31.4653 137.658C31.2933 137.482 31.1033 137.356 30.8953 137.28C30.6873 137.2 30.4633 137.16 30.2233 137.16C29.9713 137.16 29.7373 137.204 29.5213 137.292C29.3053 137.376 29.1173 137.498 28.9573 137.658C28.7973 137.814 28.6713 137.998 28.5793 138.21C28.4913 138.418 28.4473 138.648 28.4473 138.9C28.4473 139.152 28.4913 139.384 28.5793 139.596C28.6713 139.804 28.7973 139.988 28.9573 140.148C29.1173 140.304 29.3053 140.426 29.5213 140.514C29.7373 140.598 29.9713 140.64 30.2233 140.64C30.4633 140.64 30.6873 140.6 30.8953 140.52C31.1033 140.44 31.2933 140.312 31.4653 140.136L31.7473 140.418C31.5633 140.622 31.3373 140.776 31.0693 140.88C30.8013 140.984 30.5133 141.036 30.2053 141.036ZM35.3458 141.036C34.8098 141.036 34.3878 140.882 34.0798 140.574C33.7718 140.266 33.6178 139.81 33.6178 139.206V136.8H34.0618V139.188C34.0618 139.684 34.1738 140.05 34.3978 140.286C34.6218 140.522 34.9378 140.64 35.3458 140.64C35.7578 140.64 36.0758 140.522 36.2998 140.286C36.5238 140.05 36.6358 139.684 36.6358 139.188V136.8H37.0678V139.206C37.0678 139.81 36.9138 140.266 36.6058 140.574C36.3018 140.882 35.8818 141.036 35.3458 141.036ZM40.5238 141.036C40.2118 141.036 39.9118 140.986 39.6238 140.886C39.3398 140.782 39.1198 140.65 38.9638 140.49L39.1378 140.148C39.2858 140.292 39.4838 140.414 39.7318 140.514C39.9838 140.61 40.2478 140.658 40.5238 140.658C40.7878 140.658 41.0018 140.626 41.1658 140.562C41.3338 140.494 41.4558 140.404 41.5318 140.292C41.6118 140.18 41.6518 140.056 41.6518 139.92C41.6518 139.756 41.6038 139.624 41.5078 139.524C41.4158 139.424 41.2938 139.346 41.1418 139.29C40.9898 139.23 40.8218 139.178 40.6378 139.134C40.4538 139.09 40.2698 139.044 40.0858 138.996C39.9018 138.944 39.7318 138.876 39.5758 138.792C39.4238 138.708 39.2998 138.598 39.2038 138.462C39.1118 138.322 39.0658 138.14 39.0658 137.916C39.0658 137.708 39.1198 137.518 39.2278 137.346C39.3398 137.17 39.5098 137.03 39.7378 136.926C39.9658 136.818 40.2578 136.764 40.6138 136.764C40.8498 136.764 41.0838 136.798 41.3158 136.866C41.5478 136.93 41.7478 137.02 41.9158 137.136L41.7658 137.49C41.5858 137.37 41.3938 137.282 41.1898 137.226C40.9898 137.17 40.7958 137.142 40.6078 137.142C40.3558 137.142 40.1478 137.176 39.9838 137.244C39.8198 137.312 39.6978 137.404 39.6178 137.52C39.5418 137.632 39.5038 137.76 39.5038 137.904C39.5038 138.068 39.5498 138.2 39.6418 138.3C39.7378 138.4 39.8618 138.478 40.0138 138.534C40.1698 138.59 40.3398 138.64 40.5238 138.684C40.7078 138.728 40.8898 138.776 41.0698 138.828C41.2538 138.88 41.4218 138.948 41.5738 139.032C41.7298 139.112 41.8538 139.22 41.9458 139.356C42.0418 139.492 42.0898 139.67 42.0898 139.89C42.0898 140.094 42.0338 140.284 41.9218 140.46C41.8098 140.632 41.6378 140.772 41.4058 140.88C41.1778 140.984 40.8838 141.036 40.5238 141.036Z" fill="#A0C7C4"/>
</g>
<path d="M3.7 184.96C3.74667 184.96 3.79 184.913 3.83 184.82C3.87667 184.727 3.9 184.573 3.9 184.36V183.81H0.1C0.12 183.763 0.16 183.693 0.22 183.6C0.286667 183.5 0.366667 183.387 0.46 183.26C0.56 183.12 0.703333 182.923 0.89 182.67C1.07667 182.417 1.28333 182.13 1.51 181.81C1.73667 181.49 1.96 181.163 2.18 180.83C2.40667 180.497 2.60667 180.183 2.78 179.89C2.99333 179.543 3.12333 179.3 3.17 179.16C3.21667 179.02 3.22333 178.953 3.19 178.96H5.23C5.18333 178.96 5.13667 179.007 5.09 179.1C5.05 179.193 5.03 179.35 5.03 179.57L5.02 183.01H5.13C5.52333 183.01 5.83667 182.987 6.07 182.94C6.31 182.893 6.46333 182.847 6.53 182.8L6.33 183.61V183.81H5.02V184.36C5.02 184.573 5.04333 184.727 5.09 184.82C5.13667 184.913 5.18333 184.96 5.23 184.96H3.7ZM1.63 183.01H3.9V179.57H3.88C3.8 179.743 3.69 179.95 3.55 180.19C3.41 180.43 3.25667 180.683 3.09 180.95C2.92333 181.217 2.75 181.48 2.57 181.74C2.39667 182 2.22667 182.24 2.06 182.46C1.9 182.673 1.75667 182.847 1.63 182.98V183.01ZM6.93086 182.96C6.97753 182.887 7.02086 182.783 7.06086 182.65C7.10753 182.517 7.13086 182.387 7.13086 182.26H9.09086C9.43086 182.26 9.67753 182.25 9.83086 182.23C9.99086 182.203 10.0775 182.18 10.0909 182.16C10.0442 182.227 9.99753 182.327 9.95086 182.46C9.91086 182.587 9.89086 182.72 9.89086 182.86H8.13086C7.76419 182.86 7.48419 182.873 7.29086 182.9C7.09753 182.92 6.97753 182.94 6.93086 182.96ZM11.7806 184.96C11.8206 184.953 11.894 184.88 12.0006 184.74C12.1073 184.593 12.2373 184.347 12.3906 184C12.4973 183.767 12.5973 183.537 12.6906 183.31C12.784 183.077 12.8773 182.84 12.9706 182.6C13.064 182.36 13.1673 182.11 13.2806 181.85C13.4473 181.463 13.6106 181.137 13.7706 180.87C13.9373 180.603 14.0873 180.383 14.2206 180.21C14.3606 180.03 14.4773 179.887 14.5706 179.78V179.76H11.8906C11.4573 179.76 11.1473 179.807 10.9606 179.9C10.7806 179.987 10.6906 180.073 10.6906 180.16V178.96H16.0406C15.9806 179.027 15.8973 179.133 15.7906 179.28C15.6906 179.42 15.594 179.567 15.5006 179.72C15.4406 179.813 15.354 179.977 15.2406 180.21C15.134 180.437 15.0106 180.703 14.8706 181.01C14.7373 181.31 14.5973 181.627 14.4506 181.96C14.3106 182.293 14.1773 182.617 14.0506 182.93C13.924 183.243 13.8173 183.523 13.7306 183.77C13.644 184.017 13.5873 184.203 13.5606 184.33C13.514 184.563 13.494 184.727 13.5006 184.82C13.514 184.913 13.534 184.96 13.5606 184.96H11.7806ZM16.4426 182.96C16.4892 182.887 16.5326 182.783 16.5726 182.65C16.6192 182.517 16.6426 182.387 16.6426 182.26H18.6026C18.9426 182.26 19.1892 182.25 19.3426 182.23C19.5026 182.203 19.5892 182.18 19.6026 182.16C19.5559 182.227 19.5092 182.327 19.4626 182.46C19.4226 182.587 19.4026 182.72 19.4026 182.86H17.6426C17.2759 182.86 16.9959 182.873 16.8026 182.9C16.6092 182.92 16.4892 182.94 16.4426 182.96ZM22.7323 185.06C22.159 185.06 21.6823 184.98 21.3023 184.82C20.929 184.66 20.6523 184.443 20.4723 184.17C20.2923 183.897 20.2023 183.587 20.2023 183.24C20.2023 182.88 20.3157 182.567 20.5423 182.3C20.7757 182.033 21.0957 181.837 21.5023 181.71V181.69C21.2223 181.557 21.0023 181.383 20.8423 181.17C20.6823 180.957 20.6023 180.723 20.6023 180.47C20.6023 180.197 20.6757 179.94 20.8223 179.7C20.969 179.453 21.199 179.253 21.5123 179.1C21.8257 178.947 22.2323 178.87 22.7323 178.87H23.0423C23.5423 178.87 23.9457 178.947 24.2523 179.1C24.5657 179.253 24.7957 179.453 24.9423 179.7C25.089 179.94 25.1623 180.197 25.1623 180.47C25.1623 180.723 25.0723 180.96 24.8923 181.18C24.7123 181.4 24.4957 181.567 24.2423 181.68V181.7C24.669 181.833 24.9957 182.033 25.2223 182.3C25.449 182.567 25.5623 182.88 25.5623 183.24C25.5623 183.573 25.469 183.88 25.2823 184.16C25.0957 184.433 24.8157 184.653 24.4423 184.82C24.069 184.98 23.6023 185.06 23.0423 185.06H22.7323ZM22.8523 184.25H22.9623C23.4623 184.25 23.8323 184.16 24.0723 183.98C24.319 183.793 24.4423 183.53 24.4423 183.19C24.4423 182.85 24.3057 182.587 24.0323 182.4C23.759 182.213 23.4023 182.12 22.9623 182.12H22.8523C22.399 182.12 22.029 182.217 21.7423 182.41C21.4623 182.597 21.3223 182.857 21.3223 183.19C21.3223 183.523 21.4557 183.783 21.7223 183.97C21.989 184.157 22.3657 184.25 22.8523 184.25ZM22.8523 181.32H22.9623C23.3157 181.32 23.5823 181.253 23.7623 181.12C23.949 180.98 24.0423 180.78 24.0423 180.52C24.0423 180.26 23.9557 180.053 23.7823 179.9C23.609 179.747 23.3357 179.67 22.9623 179.67H22.8523C22.4657 179.67 22.179 179.743 21.9923 179.89C21.8123 180.03 21.7223 180.24 21.7223 180.52C21.7223 180.8 21.8223 181.003 22.0223 181.13C22.2223 181.257 22.499 181.32 22.8523 181.32ZM28.8617 184.96C28.9084 184.96 28.9551 184.913 29.0017 184.82C29.0484 184.727 29.0717 184.573 29.0717 184.36V179.56C29.0717 179.347 29.0484 179.197 29.0017 179.11C28.9551 179.017 28.9084 178.967 28.8617 178.96H32.4117C32.9517 178.96 33.3817 179.02 33.7017 179.14C34.0284 179.26 34.2617 179.433 34.4017 179.66C34.5484 179.88 34.6217 180.14 34.6217 180.44C34.6217 180.66 34.5784 180.853 34.4917 181.02C34.4117 181.18 34.3084 181.313 34.1817 181.42C34.0551 181.52 33.9284 181.593 33.8017 181.64V181.66C34.2351 181.76 34.5617 181.943 34.7817 182.21C35.0017 182.47 35.1117 182.807 35.1117 183.22C35.1117 183.547 35.0351 183.843 34.8817 184.11C34.7284 184.37 34.4817 184.577 34.1417 184.73C33.8084 184.883 33.3651 184.96 32.8117 184.96H28.8617ZM30.5917 184.15H32.6317C33.1184 184.15 33.4651 184.063 33.6717 183.89C33.8851 183.71 33.9917 183.473 33.9917 183.18C33.9917 182.84 33.8717 182.593 33.6317 182.44C33.3984 182.28 32.9651 182.2 32.3317 182.2H30.6017C30.4017 182.2 30.2817 182.213 30.2417 182.24C30.2084 182.267 30.1917 182.357 30.1917 182.51V183.85C30.1917 183.997 30.2084 184.083 30.2417 184.11C30.2817 184.137 30.3984 184.15 30.5917 184.15ZM30.6017 181.5H32.4217C32.7951 181.5 33.0684 181.43 33.2417 181.29C33.4217 181.143 33.5117 180.907 33.5117 180.58C33.5117 180.307 33.4217 180.103 33.2417 179.97C33.0684 179.83 32.7651 179.76 32.3317 179.76H30.6017C30.4017 179.76 30.2817 179.773 30.2417 179.8C30.2084 179.82 30.1917 179.907 30.1917 180.06V181.2C30.1917 181.347 30.2084 181.433 30.2417 181.46C30.2817 181.487 30.4017 181.5 30.6017 181.5ZM35.8702 184.96C35.9168 184.96 35.9602 184.913 36.0002 184.82C36.0468 184.727 36.0702 184.573 36.0702 184.36V180.98C36.0702 180.767 36.0468 180.617 36.0002 180.53C35.9602 180.437 35.9168 180.387 35.8702 180.38C36.1635 180.38 36.4168 180.36 36.6302 180.32C36.8502 180.273 37.0035 180.227 37.0902 180.18V180.68L37.0702 180.85L37.0902 180.87C37.1902 180.737 37.3102 180.62 37.4502 180.52C37.5968 180.413 37.7635 180.33 37.9502 180.27C38.1368 180.21 38.3502 180.18 38.5902 180.18C38.9035 180.18 39.1735 180.227 39.4002 180.32C39.6335 180.407 39.8002 180.497 39.9002 180.59L39.7002 181.43V181.73C39.6135 181.623 39.4868 181.513 39.3202 181.4C39.1602 181.28 38.9768 181.18 38.7702 181.1C38.5635 181.02 38.3435 180.98 38.1102 180.98C37.8435 180.98 37.6068 181.087 37.4002 181.3C37.1935 181.513 37.0902 181.867 37.0902 182.36V184.36C37.0902 184.573 37.1102 184.727 37.1502 184.82C37.1968 184.913 37.2435 184.96 37.2902 184.96H35.8702ZM42.7649 185.06C42.2383 185.06 41.8049 185 41.4649 184.88C41.1249 184.753 40.8583 184.58 40.6649 184.36C40.4716 184.14 40.3349 183.883 40.2549 183.59C40.1816 183.297 40.1449 182.977 40.1449 182.63C40.1449 181.877 40.3583 181.28 40.7849 180.84C41.2183 180.4 41.8583 180.18 42.7049 180.18C43.1983 180.18 43.5949 180.247 43.8949 180.38C44.2016 180.513 44.4316 180.69 44.5849 180.91C44.7449 181.13 44.8516 181.37 44.9049 181.63C44.9649 181.883 44.9949 182.133 44.9949 182.38V182.85C44.9949 182.83 44.9016 182.81 44.7149 182.79C44.5349 182.763 44.2283 182.75 43.7949 182.75H41.1649C41.1649 183.243 41.3116 183.633 41.6049 183.92C41.8983 184.207 42.3349 184.35 42.9149 184.35C43.4149 184.35 43.8249 184.29 44.1449 184.17C44.4716 184.043 44.6883 183.92 44.7949 183.8V184L44.8949 184.66C44.7483 184.747 44.4883 184.837 44.1149 184.93C43.7483 185.017 43.2983 185.06 42.7649 185.06ZM41.5649 182.09H43.9949C43.9949 181.917 43.9583 181.737 43.8849 181.55C43.8116 181.363 43.6816 181.207 43.4949 181.08C43.3083 180.947 43.0449 180.88 42.7049 180.88C42.4183 180.88 42.1683 180.93 41.9549 181.03C41.7416 181.123 41.5749 181.247 41.4549 181.4C41.3416 181.553 41.2849 181.717 41.2849 181.89C41.2849 181.957 41.3049 182.007 41.3449 182.04C41.3849 182.073 41.4583 182.09 41.5649 182.09ZM47.7606 185.06C47.034 185.06 46.524 184.93 46.2306 184.67C45.9373 184.403 45.7906 184.047 45.7906 183.6C45.7906 183.287 45.8673 183.02 46.0206 182.8C46.1806 182.573 46.4173 182.4 46.7306 182.28C47.0506 182.16 47.454 182.1 47.9406 182.1C48.2873 182.1 48.5873 182.127 48.8406 182.18C49.1006 182.227 49.3106 182.283 49.4706 182.35C49.6373 182.417 49.754 182.473 49.8206 182.52C49.8206 182.127 49.7706 181.81 49.6706 181.57C49.5773 181.33 49.424 181.157 49.2106 181.05C48.9973 180.937 48.7073 180.88 48.3406 180.88C47.9473 180.88 47.594 180.927 47.2806 181.02C46.974 181.107 46.7273 181.203 46.5406 181.31C46.354 181.41 46.2373 181.483 46.1906 181.53V181.33L46.0906 180.58C46.1506 180.553 46.2806 180.51 46.4806 180.45C46.6806 180.383 46.944 180.323 47.2706 180.27C47.5973 180.21 47.9806 180.18 48.4206 180.18C48.9806 180.18 49.4373 180.26 49.7906 180.42C50.1506 180.573 50.414 180.813 50.5806 181.14C50.754 181.46 50.8406 181.867 50.8406 182.36V184.36C50.8406 184.547 50.8606 184.683 50.9006 184.77C50.9473 184.85 50.994 184.913 51.0406 184.96H49.8206V184.66L49.8406 184.47L49.8206 184.46C49.714 184.56 49.5873 184.647 49.4406 184.72C49.294 184.793 49.134 184.857 48.9606 184.91C48.7873 184.957 48.5973 184.993 48.3906 185.02C48.1906 185.047 47.9806 185.06 47.7606 185.06ZM48.0906 184.35C48.4506 184.35 48.7606 184.313 49.0206 184.24C49.2806 184.167 49.4773 184.07 49.6106 183.95C49.7506 183.823 49.8206 183.68 49.8206 183.52C49.8206 183.32 49.6873 183.15 49.4206 183.01C49.1606 182.87 48.754 182.8 48.2006 182.8C47.6873 182.8 47.324 182.867 47.1106 183C46.904 183.133 46.8006 183.333 46.8006 183.6C46.8006 183.86 46.9006 184.05 47.1006 184.17C47.3073 184.29 47.6373 184.35 48.0906 184.35ZM53.8553 185.06C53.3953 185.06 53.062 184.963 52.8553 184.77C52.6486 184.57 52.5453 184.247 52.5453 183.8V180.98H51.6453V180.28C51.952 180.28 52.192 180.243 52.3653 180.17C52.5386 180.09 52.662 179.953 52.7353 179.76C52.8086 179.567 52.8453 179.297 52.8453 178.95H53.5653V180.28H55.4753C55.4286 180.347 55.382 180.447 55.3353 180.58C55.2953 180.707 55.2753 180.84 55.2753 180.98H53.5653V183.65C53.5653 183.957 53.622 184.15 53.7353 184.23C53.8486 184.31 53.992 184.35 54.1653 184.35C54.332 184.35 54.4853 184.317 54.6253 184.25C54.772 184.177 54.8986 184.09 55.0053 183.99C55.1186 183.89 55.2053 183.793 55.2653 183.7V184.01L55.3653 184.58C55.2986 184.647 55.1953 184.72 55.0553 184.8C54.9153 184.873 54.7453 184.933 54.5453 184.98C54.3453 185.033 54.1153 185.06 53.8553 185.06ZM56.0362 184.96C56.0828 184.96 56.1262 184.913 56.1662 184.82C56.2128 184.727 56.2362 184.573 56.2362 184.36V178.66C56.2362 178.447 56.2128 178.297 56.1662 178.21C56.1262 178.117 56.0828 178.067 56.0362 178.06H57.2562V180.79L57.2362 180.92L57.2562 180.94C57.3562 180.813 57.4828 180.693 57.6362 180.58C57.7962 180.467 57.9928 180.373 58.2262 180.3C58.4595 180.22 58.7328 180.18 59.0462 180.18C59.6662 180.18 60.1395 180.357 60.4662 180.71C60.7995 181.063 60.9662 181.617 60.9662 182.37V184.36C60.9662 184.573 60.9862 184.727 61.0262 184.82C61.0728 184.913 61.1195 184.96 61.1662 184.96H59.7462C59.7928 184.96 59.8362 184.913 59.8762 184.82C59.9228 184.727 59.9462 184.573 59.9462 184.36V182.4C59.9462 182.007 59.8962 181.7 59.7962 181.48C59.6962 181.26 59.5562 181.107 59.3762 181.02C59.2028 180.927 58.9995 180.88 58.7662 180.88C58.5195 180.88 58.2795 180.933 58.0462 181.04C57.8128 181.147 57.6228 181.317 57.4762 181.55C57.3295 181.783 57.2562 182.097 57.2562 182.49V184.36C57.2562 184.573 57.2762 184.727 57.3162 184.82C57.3628 184.913 57.4095 184.96 57.4562 184.96H56.0362ZM62.0225 184.96C62.0692 184.96 62.1125 184.913 62.1525 184.82C62.1992 184.727 62.2225 184.573 62.2225 184.36V180.88C62.2225 180.667 62.1992 180.517 62.1525 180.43C62.1125 180.337 62.0692 180.287 62.0225 180.28H63.2425V184.36C63.2425 184.573 63.2625 184.727 63.3025 184.82C63.3492 184.913 63.3958 184.96 63.4425 184.96H62.0225ZM62.6325 179.32C62.4392 179.32 62.2892 179.267 62.1825 179.16C62.0758 179.047 62.0225 178.917 62.0225 178.77C62.0225 178.617 62.0725 178.487 62.1725 178.38C62.2792 178.273 62.4325 178.22 62.6325 178.22C62.8325 178.22 62.9825 178.273 63.0825 178.38C63.1892 178.487 63.2425 178.617 63.2425 178.77C63.2425 178.917 63.1892 179.047 63.0825 179.16C62.9758 179.267 62.8258 179.32 62.6325 179.32ZM64.2979 184.96C64.3446 184.96 64.3879 184.913 64.4279 184.82C64.4746 184.727 64.4979 184.573 64.4979 184.36V180.98C64.4979 180.767 64.4746 180.617 64.4279 180.53C64.3879 180.437 64.3446 180.387 64.2979 180.38C64.5912 180.38 64.8446 180.36 65.0579 180.32C65.2779 180.273 65.4312 180.227 65.5179 180.18V180.79L65.4979 180.92L65.5179 180.94C65.6179 180.813 65.7446 180.693 65.8979 180.58C66.0579 180.467 66.2546 180.373 66.4879 180.3C66.7212 180.22 66.9946 180.18 67.3079 180.18C67.9279 180.18 68.4012 180.357 68.7279 180.71C69.0612 181.063 69.2279 181.617 69.2279 182.37V184.36C69.2279 184.573 69.2479 184.727 69.2879 184.82C69.3346 184.913 69.3812 184.96 69.4279 184.96H68.0079C68.0546 184.96 68.0979 184.913 68.1379 184.82C68.1846 184.727 68.2079 184.573 68.2079 184.36V182.4C68.2079 182.007 68.1579 181.7 68.0579 181.48C67.9579 181.26 67.8179 181.107 67.6379 181.02C67.4646 180.927 67.2612 180.88 67.0279 180.88C66.7812 180.88 66.5412 180.933 66.3079 181.04C66.0746 181.147 65.8846 181.317 65.7379 181.55C65.5912 181.783 65.5179 182.097 65.5179 182.49V184.36C65.5179 184.573 65.5379 184.727 65.5779 184.82C65.6246 184.913 65.6712 184.96 65.7179 184.96H64.2979ZM72.7242 187.4C72.3376 187.4 71.9809 187.373 71.6542 187.32C71.3342 187.267 71.0542 187.2 70.8142 187.12C70.5809 187.047 70.4009 186.973 70.2742 186.9L70.4742 186V185.71C70.5676 185.85 70.7142 185.997 70.9142 186.15C71.1142 186.303 71.3642 186.433 71.6642 186.54C71.9642 186.647 72.3042 186.7 72.6842 186.7C73.1309 186.7 73.4609 186.627 73.6742 186.48C73.8942 186.333 74.0376 186.13 74.1042 185.87C74.1776 185.61 74.2142 185.313 74.2142 184.98V184.61L74.2342 184.43L74.2142 184.41C74.1276 184.523 74.0076 184.63 73.8542 184.73C73.7009 184.83 73.5176 184.91 73.3042 184.97C73.0909 185.03 72.8509 185.06 72.5842 185.06C71.9509 185.06 71.4576 184.953 71.1042 184.74C70.7576 184.527 70.5142 184.237 70.3742 183.87C70.2409 183.503 70.1742 183.09 70.1742 182.63C70.1742 182.163 70.2409 181.747 70.3742 181.38C70.5142 181.013 70.7576 180.723 71.1042 180.51C71.4576 180.29 71.9509 180.18 72.5842 180.18C72.8509 180.18 73.0876 180.207 73.2942 180.26C73.5009 180.307 73.6809 180.373 73.8342 180.46C73.9876 180.54 74.1142 180.637 74.2142 180.75L74.2342 180.74L74.2142 180.55V180.28H75.4342C75.3876 180.287 75.3409 180.337 75.2942 180.43C75.2542 180.523 75.2342 180.68 75.2342 180.9V184.73C75.2342 185.697 75.0276 186.383 74.6142 186.79C74.2076 187.197 73.5776 187.4 72.7242 187.4ZM72.6542 184.35C73.0676 184.35 73.3876 184.287 73.6142 184.16C73.8409 184.027 73.9976 183.833 74.0842 183.58C74.1709 183.32 74.2142 183.003 74.2142 182.63C74.2142 182.263 74.1676 181.95 74.0742 181.69C73.9876 181.43 73.8309 181.23 73.6042 181.09C73.3842 180.95 73.0676 180.88 72.6542 180.88C72.2809 180.88 71.9876 180.953 71.7742 181.1C71.5609 181.24 71.4076 181.443 71.3142 181.71C71.2276 181.97 71.1842 182.28 71.1842 182.64C71.1842 182.993 71.2276 183.3 71.3142 183.56C71.4009 183.813 71.5509 184.01 71.7642 184.15C71.9842 184.283 72.2809 184.35 72.6542 184.35Z" fill="black"/>
<defs>
<filter id="filter0_b_942_3928" x="4.0319" y="66.0319" width="39.9362" height="39.9362" filterUnits="userSpaceOnUse" color-interpolation-filters="sRGB">
<feFlood flood-opacity="0" result="BackgroundImageFix"/>
<feGaussianBlur in="BackgroundImageFix" stdDeviation="4.98405"/>
<feComposite in2="SourceAlpha" operator="in" result="effect1_backgroundBlur_942_3928"/>
<feBlend mode="normal" in="SourceGraphic" in2="effect1_backgroundBlur_942_3928" result="shape"/>
</filter>
<filter id="filter1_b_942_3928" x="31.0319" y="66.0319" width="39.9362" height="39.9362" filterUnits="userSpaceOnUse" color-interpolation-filters="sRGB">
<feFlood flood-opacity="0" result="BackgroundImageFix"/>
<feGaussianBlur in="BackgroundImageFix" stdDeviation="4.98405"/>
<feComposite in2="SourceAlpha" operator="in" result="effect1_backgroundBlur_942_3928"/>
<feBlend mode="normal" in="SourceGraphic" in2="effect1_backgroundBlur_942_3928" result="shape"/>
</filter>
<filter id="filter2_b_942_3928" x="58.0319" y="66.0319" width="39.9362" height="39.9362" filterUnits="userSpaceOnUse" color-interpolation-filters="sRGB">
<feFlood flood-opacity="0" result="BackgroundImageFix"/>
<feGaussianBlur in="BackgroundImageFix" stdDeviation="4.98405"/>
<feComposite in2="SourceAlpha" operator="in" result="effect1_backgroundBlur_942_3928"/>
<feBlend mode="normal" in="SourceGraphic" in2="effect1_backgroundBlur_942_3928" result="shape"/>
</filter>
<radialGradient id="paint0_radial_942_3928" cx="0" cy="0" r="1" gradientUnits="userSpaceOnUse" gradientTransform="translate(24 86) rotate(90) scale(10.5)">
<stop stop-color="#51FFF4" stop-opacity="0"/>
<stop offset="1" stop-color="#51FFF4" stop-opacity="0.08"/>
</radialGradient>
<radialGradient id="paint1_radial_942_3928" cx="0" cy="0" r="1" gradientUnits="userSpaceOnUse" gradientTransform="translate(51 86) rotate(90) scale(10.5)">
<stop stop-color="#51FFF4" stop-opacity="0"/>
<stop offset="1" stop-color="#51FFF4" stop-opacity="0.08"/>
</radialGradient>
<radialGradient id="paint2_radial_942_3928" cx="0" cy="0" r="1" gradientUnits="userSpaceOnUse" gradientTransform="translate(78 86) rotate(90) scale(10.5)">
<stop stop-color="#51FFF4" stop-opacity="0"/>
<stop offset="1" stop-color="#51FFF4" stop-opacity="0.08"/>
</radialGradient>
<clipPath id="clip0_942_3928">
<rect width="160" height="168.96" rx="6" fill="white"/>
</clipPath>
</defs>
</svg>
